<svg width="166pt" height="66.543pt" version="1.2" viewBox="0 0 166 66.543" xmlns="http://www.w3.org/2000/svg">
<defs>
<clipPath id="g">
<path d="m0 15h79v50.828h-79z"/>
</clipPath>
<clipPath id="f">
<path d="m0 24h79v41.828h-79z"/>
</clipPath>
<clipPath id="e">
<path d="m0 26h79v39.828h-79z"/>
</clipPath>
<clipPath id="d">
<path d="m103 0h63v65.828h-63z"/>
</clipPath>
<clipPath id="c">
<path d="m0 43h26v22.828h-26z"/>
</clipPath>
<clipPath id="b">
<path d="m0 60h23v5.8281h-23z"/>
</clipPath>
<clipPath id="a">
<path d="m0 51h26v14.828h-26z"/>
</clipPath>
</defs>
<g fill="none" stroke-miterlimit="10" stroke-width="3">
<path transform="matrix(.71552 0 0 -.71552 .35776 18.961)" d="m60.999 10.002h126" stroke="#ffa300"/>
<path transform="matrix(.71552 0 0 -.71552 .35776 18.961)" d="m60.999 12.999h126" stroke="#303030"/>
<path transform="matrix(.71552 0 0 -.71552 .35776 18.961)" d="m60.999 16.002h126" stroke="#ffff00"/>
<path transform="matrix(.71552 0 0 .71552 .35776 .35776)" d="m66.999 72.999h120" stroke="#ffa300"/>
<path transform="matrix(.71552 0 0 .71552 .35776 .35776)" d="m66.999 76.002h120" stroke="#303030"/>
<path transform="matrix(.71552 0 0 .71552 .35776 .35776)" d="m66.999 78.999h120" stroke="#ffff00"/>
</g>
<g>
<g clip-path="url(#g)">
<path transform="matrix(.71552 0 0 .71552 .35776 .35776)" d="m66.999 72.999c-11.334 0-17-1.5832-17-4.7496s-6.3328-4.7496-18.998-4.7496" fill="none" stroke="#ffa300" stroke-miterlimit="10" stroke-width="3"/>
</g>
<g clip-path="url(#f)">
<path transform="matrix(.71552 0 0 .71552 .35776 .35776)" d="m66.999 76.002h-35.999" fill="none" stroke="#303030" stroke-miterlimit="10" stroke-width="3"/>
</g>
<g clip-path="url(#e)">
<path transform="matrix(.71552 0 0 .71552 .35776 .35776)" d="m66.999 78.999c-11.334 0-17 1.4194-17 4.2528 0 2.8334-6.3328 4.2474-18.998 4.2474" fill="none" stroke="#ffff00" stroke-miterlimit="10" stroke-width="3"/>
</g>
<g clip-path="url(#d)" fill="none" stroke-miterlimit="10" stroke-width="3">
<path transform="matrix(.71552 0 0 .71552 .35776 .35776)" d="m187 15.998c23.999 0 35.999 9.4992 35.999 28.503 0 18.998-12 28.498-35.999 28.498" stroke="#ffa300"/>
<path transform="matrix(.71552 0 0 .71552 .35776 .35776)" d="m187 13.001c25.997 0 39.002 10.498 39.002 31.5 0 20.997-13.004 31.5-39.002 31.5" stroke="#303030"/>
<path transform="matrix(.71552 0 0 .71552 .35776 .35776)" d="m187 9.9983c28.001 0 41.999 11.503 41.999 34.503s-13.998 34.498-41.999 34.498" stroke="#ffff00"/>
</g>
</g>
<g>
<g stroke="#303030">
<g>
<path transform="matrix(-.71552 0 0 .71552 76.203 .35776)" d="m46.999 4.4298h10.291v1.7088h-10.291z" fill="#cacaca"/>
<path transform="matrix(-.71552 0 0 .71552 76.203 .35776)" d="m46.999 19.858h10.291v1.7142h-10.291z" fill="#cacaca"/>
<path transform="matrix(-.71552 0 0 .71552 76.203 .35776)" d="m46.999 6.1386h15.434v13.714h-15.434z" fill="#e6e6e6"/>
</g>
<path transform="matrix(-.71552 0 0 .71552 76.203 .35776)" d="m43.57 1.0013h3.4285v3.4285h3.4339v3.4285h-3.4339v2.0527h3.4339v2.0582h-3.4339v2.0582h3.4339v2.0636h-3.4339v2.0473h3.4339v3.4339h-3.4339v3.4285h-3.4285v-23.999" fill="#cacaca" stroke-miterlimit="10"/>
<path transform="matrix(-.71552 0 0 .71552 23.254 .35776)" d="m.99962 73.501h29.999v5.0008h-29.999z" fill="#303030"/>
</g>
<path transform="matrix(-.71552 0 0 .71552 23.254 .35776)" d="m21.003 74.752h4.9953v2.5004h-4.9953z" fill="#ffffca" stroke="#ffffca"/>
</g>
<g clip-path="url(#c)">
<path transform="matrix(-.71552 0 0 .71552 23.254 .35776)" d="m11.001 74.5 7.5011.50226v1.9981l-7.5011.4968" fill="none" stroke="#cacaca" stroke-miterlimit="10"/>
</g>
<g>
<path transform="matrix(-.71552 0 0 .71552 23.254 .35776)" d="m.99962 60.999h29.999v5.0008h-29.999z" fill="#303030" stroke="#303030"/>
<path transform="matrix(-.71552 0 0 .71552 23.254 .35776)" d="m21.003 62.25h4.9953v2.5004h-4.9953z" fill="#ffffca" stroke="#ffffca"/>
<path transform="matrix(-.71552 0 0 .71552 23.254 .35776)" d="m11.001 61.999 7.5011.50226v1.9981l-7.5011.50226" fill="none" stroke="#cacaca" stroke-miterlimit="10"/>
</g>
<path d="m22.539 61.176h-21.465v3.5781h21.465z" fill="#303030"/>
<g clip-path="url(#b)">
<path transform="matrix(-.71552 0 0 .71552 23.254 .35776)" d="m.99962 84.999h29.999v5.0008h-29.999z" fill="none" stroke="#303030"/>
</g>
<path transform="matrix(-.71552 0 0 .71552 23.254 .35776)" d="m21.003 86.249h4.9953v2.5004h-4.9953z" fill="#ffffca" stroke="#ffffca"/>
<g clip-path="url(#a)">
<path transform="matrix(-.71552 0 0 .71552 23.254 .35776)" d="m11.001 85.998 7.5011.50226v1.9981l-7.5011.50226" fill="none" stroke="#cacaca" stroke-miterlimit="10"/>
</g>
</svg>
