<svg width="44.515" height="43.309" fill="none" version="1.1" viewBox="0 0 44.515 43.309" xmlns="http://www.w3.org/2000/svg">
<g transform="translate(.1072)">
<path d="m43.336 13.547c-.8849 0-1.4748-.5108-1.4748-1.559v-6.0208c0-3.8436-1.6091-5.9671-5.7656-5.9671h-1.9309v4.0587h.5901c1.6357 0 2.4134.887 2.4134 2.4728v5.322c0 2.3115.6972 3.2523 2.2258 3.7361-1.5286.457-2.2258 1.4246-2.2258 3.7361v3.9513c0 1.1019 0 2.1771-.295 3.2791-.2949 1.0214-.7776 1.989-1.448 2.8222-.3755.4839-.8046.8871-1.2872 1.2634v.5375h1.9307c4.1566 0 5.7656-2.1234 5.7656-5.967v-6.0209c0-1.0751.5631-1.5589 1.475-1.5589h1.0994v-4.0587h-1.0727z" fill="#6c8ebf"/>
<g fill="#000000">
<path d="m30.195 6.1291h-5.9533c-.1341 0-.2413-.10752-.2413-.24191v-.45693c0-.13439.1072-.24191.2413-.24191h5.9801c.134 0 .2413.10752.2413.24191v.45693c0 .13439-.1341.24191-.2681.24191z"/>
<path d="m31.214 11.935h-4.3443c-.1341 0-.2414-.1076-.2414-.242v-.4569c0-.1343.1073-.2419.2414-.2419h4.3443c.1341 0 .2413.1076.2413.2419v.4569c0 .1076-.1072.242-.2413.242z"/>
<path d="m32.931 9.0319h-8.6885c-.1341 0-.2413-.10752-.2413-.24191v-.45694c0-.1344.1072-.2419.2413-.2419h8.6617c.1341 0 .2414.1075.2414.2419v.45694c0 .10751-.0805.24191-.2146.24191z"/>
</g>
<path d="m17.35 7.4454c.5899 0 1.1799.05377 1.743.18816v-1.102c0-1.559.8045-2.4728 2.4136-2.4728h.5899v-4.0587h-1.9308c-4.1566 0-5.7655 2.1234-5.7655 5.9671v1.989c.9385-.32254 1.9308-.5107 2.9498-.5107z" fill="#6c8ebf"/>
<path d="m34.754 22.067c-.429-3.4136-3.0571-6.2627-6.436-6.9078-.9385-.1881-1.8771-.215-2.7888-.0537-.0269 0-.0269-.027-.0537-.027-1.4749-3.091-4.6392-5.1338-8.0718-5.1338-3.4325 0-6.57 1.9891-8.0718 5.0801-.02681 0-.02681.0269-.05364.0269-.96539-.1076-1.9308-.0538-2.8962.1881-3.3252.8063-5.846 3.6018-6.3019 6.9884-.053638.3495-.080452.6989-.080452 1.0215 0 1.0213.69723 1.9621 1.7162 2.0965 1.2604.1882 2.3599-.7795 2.333-2.0159 0-.1882 0-.4032.02682-.5913.21454-1.7203 1.5285-3.1717 3.2448-3.5749.53634-.1344 1.0727-.1612 1.5822-.0806 1.6358.215 3.2448-.6183 3.942-2.0697.5095-1.0751 1.3141-2.0159 2.3867-2.5266 1.1799-.5645 2.5208-.645 3.7543-.215 1.2872.4569 2.2525 1.4245 2.8426 2.6341.6167 1.1827.9117 2.0159 2.2257 2.1772.5363.0806 2.038.0537 2.6012.0268 1.0995 0 2.199.3764 2.9767 1.1558.5094.5376.8849 1.2096 1.0458 1.9621.2413 1.2096-.0536 2.4191-.7777 3.333-.5095.6451-1.2067 1.1289-1.9844 1.3439-.3755.1076-.7509.1344-1.1263.1344h-.8581-5.0684c-1.1798 0-2.1185-.9407-2.1185-2.1234v-7.8755c0-.3225-.2681-.5912-.5899-.5912h-.8313c-1.6359.0268-2.9498 1.8546-2.9498 3.7898v7.0692c0 2.0965 1.6893 3.7898 3.7811 3.7898 0 0 9.3054-.0269 9.4394-.0269 2.1453-.215 4.1297-1.317 5.4705-3.0104 1.3409-1.6396 1.9577-3.7899 1.6895-5.9939z" fill="#15729d"/>
<g transform="matrix(.50357 0 0 .50357 -28.062 29.048)" fill="#000000">
<path d="m75.147 13.82h-4.6662c-.0852-.6037-.2592-1.1399-.522-1.6087-.2628-.4758-.6001-.8806-1.0121-1.2144-.4119-.3338-.8877-.5895-1.4275-.7671-.5327-.1775-1.1115-.26632-1.7365-.26632-1.1293 0-2.113.28052-2.951.84162-.8381.554-1.4879 1.3636-1.9496 2.429-.4616 1.0582-.6925 2.3437-.6925 3.8565 0 1.5554.2309 2.8622.6925 3.9205.4688 1.0582 1.1222 1.8572 1.9602 2.397.8381.5398 1.8076.8096 2.9084.8096.6179 0 1.1896-.0816 1.7152-.245.5327-.1633 1.005-.4013 1.4169-.7138.4119-.3196.7529-.7066 1.0227-1.1612.277-.4545.4688-.973.5753-1.5554l4.6662.0213c-.1207 1.0014-.4226 1.9673-.9055 2.8977-.4759.9233-1.1186 1.7508-1.9283 2.4823-.8025.7244-1.7614 1.2997-2.8764 1.7258-1.108.4191-2.3615.6286-3.7607.6286-1.946 0-3.686-.4403-5.2201-1.321-1.527-.8807-2.7344-2.1556-3.6222-3.8246-.8807-1.669-1.321-3.6896-1.321-6.0618 0-2.3793.4474-4.4034 1.3423-6.0724.8949-1.6691 2.1094-2.9404 3.6435-3.814 1.5341-.88069 3.2599-1.321 5.1775-1.321 1.2642 0 2.4361.17756 3.5157.53267 1.0866.35512 2.049.87358 2.887 1.5554.8381.67472 1.5199 1.5021 2.0455 2.4822.5327.9801.8736 2.1023 1.0227 3.3665z"/>
<path d="m85.763 28.32c-1.6548 0-3.0859-.3516-4.2933-1.0547-1.2003-.7102-2.1271-1.6974-2.7805-2.9616-.6534-1.2713-.9801-2.7451-.9801-4.4212 0-1.6903.3267-3.1676.9801-4.4318.6534-1.2713 1.5802-2.2585 2.7805-2.9617 1.2074-.7102 2.6385-1.0653 4.2933-1.0653 1.6549 0 3.0824.3551 4.2827 1.0653 1.2074.7032 2.1378 1.6904 2.7912 2.9617.6534 1.2642.9801 2.7415.9801 4.4318 0 1.6761-.3267 3.1499-.9801 4.4212-.6534 1.2642-1.5838 2.2514-2.7912 2.9616-1.2003.7031-2.6278 1.0547-4.2827 1.0547zm.0213-3.5156c.7529 0 1.3814-.2131 1.8857-.6392.5043-.4333.8842-1.0228 1.1399-1.7685.2628-.7457.3942-1.5945.3942-2.5462s-.1314-1.8004-.3942-2.5461c-.2557-.7458-.6356-1.3352-1.1399-1.7685-.5043-.4332-1.1328-.6498-1.8857-.6498-.7599 0-1.3991.2166-1.9176.6498-.5113.4333-.8984 1.0227-1.1612 1.7685-.2557.7457-.3835 1.5944-.3835 2.5461s.1278 1.8005.3835 2.5462c.2628.7457.6499 1.3352 1.1612 1.7685.5185.4261 1.1577.6392 1.9176.6392z"/>
<path d="m102.8 28.266c-1.243 0-2.369-.3196-3.3772-.9588-1.0014-.6463-1.7969-1.5944-2.3864-2.8444-.5823-1.2571-.8735-2.7983-.8735-4.6236 0-1.875.3018-3.434.9055-4.6769.6037-1.25 1.4063-2.1839 2.4077-2.8018 1.0089-.625 2.1129-.9375 3.3129-.9375.916 0 1.68.1562 2.291.4687.618.3054 1.115.689 1.491 1.1506.384.4546.675.902.874 1.3423h.138v-8.2031h4.528v21.818h-4.474v-2.6207h-.192c-.213.4545-.515.9055-.906 1.3529-.383.4404-.884.8062-1.502 1.0973-.611.2912-1.356.4368-2.237.4368zm1.438-3.6115c.732 0 1.35-.1988 1.854-.5966.511-.4048.902-.9694 1.172-1.6939.277-.7244.415-1.5731.415-2.5461s-.135-1.8182-.405-2.5355c-.27-.7174-.66-1.2713-1.172-1.662-.511-.3906-1.132-.5859-1.864-.5859-.746 0-1.374.2024-1.886.6072-.511.4049-.898.966-1.161 1.6833s-.394 1.5483-.394 2.4929c0 .9517.131 1.7933.394 2.5248.27.7245.657 1.2927 1.161 1.7046.512.4048 1.14.6072 1.886.6072z"/>
<path d="m123.3 28.32c-1.683 0-3.132-.3409-4.347-1.0227-1.207-.6889-2.138-1.662-2.791-2.9191-.653-1.2642-.98-2.7592-.98-4.485 0-1.6833.327-3.1606.98-4.4319s1.573-2.262 2.759-2.9723c1.193-.7102 2.593-1.0653 4.198-1.0653 1.079 0 2.084.174 3.015.522.937.3409 1.754.8558 2.45 1.5448.703.6889 1.25 1.5554 1.64 2.5994.391 1.0369.586 2.2514.586 3.6435v1.2464h-13.817v-2.8125h9.545c0-.6534-.142-1.2322-.426-1.7365s-.678-.8984-1.182-1.1825c-.497-.2912-1.076-.4368-1.737-.4368-.689 0-1.299.1598-1.832.4794-.526.3125-.938.7351-1.236 1.2677-.298.5256-.451 1.1115-.458 1.7579v2.674c0 .8096.149 1.5092.447 2.0987.306.5895.735 1.044 1.289 1.3636s1.211.4794 1.971.4794c.505 0 .966-.071 1.385-.213.419-.1421.778-.3552 1.076-.6393.299-.284.526-.6321.682-1.044l4.198.277c-.214 1.0085-.65 1.8892-1.311 2.642-.653.7458-1.498 1.3282-2.535 1.7472-1.03.4119-2.22.6179-3.569.6179z"/>
<path d="m133.77 28v-16.364h4.4v2.8551h.17c.299-1.0156.799-1.7827 1.503-2.3012.703-.5255 1.512-.7883 2.428-.7883.228 0 .473.0142.736.0426.262.0284.493.0675.692.1172v4.027c-.213-.0639-.508-.1208-.884-.1705-.377-.0497-.721-.0745-1.034-.0745-.667 0-1.264.1455-1.789.4367-.519.2841-.931.6819-1.236 1.1932-.298.5114-.448 1.1009-.448 1.7685v9.2578z"/>
</g>
</g>
</svg>
