<svg width="48.426" height="33.898" version="1.1" viewBox="0 0 48.426 33.898" xmlns="http://www.w3.org/2000/svg">
<path d="m4.8426 4.8426c0-2.671 2.1716-4.8426 4.8426-4.8426h29.055c2.671 0 4.8426 2.1716 4.8426 4.8426v19.37h-4.8426v-19.37h-29.055v19.37h-4.8426zm-4.8426 23.244c0-.80205.65072-1.4528 1.4528-1.4528h45.52c.80205 0 1.4528.65072 1.4528 1.4528 0 3.2082-2.6029 5.8111-5.8111 5.8111h-36.804c-3.2082 0-5.8111-2.6029-5.8111-5.8111zm21.262-14.694-2.3456 2.3456 2.3456 2.3456c.71125.71125.71125 1.8614 0 2.565-.71125.70368-1.8614.71125-2.565 0l-3.6319-3.6319c-.71125-.71125-.71125-1.8614 0-2.565l3.6319-3.6319c.71125-.71125 1.8614-.71125 2.565 0 .70368.71125.71125 1.8614 0 2.565zm8.4745-2.5726 3.6319 3.6319c.71125.71125.71125 1.8614 0 2.565l-3.6319 3.6319c-.71125.71125-1.8614.71125-2.565 0-.70369-.71125-.71125-1.8614 0-2.565l2.3456-2.3456-2.3456-2.3456c-.71125-.71125-.71125-1.8614 0-2.565.71125-.70369 1.8614-.71125 2.565 0z" fill="#7a23d3" stroke-width=".075665"/>
</svg>
