<svg width="48.425" height="31.15" enable-background="new -50 0 500 400" version="1.1" viewBox="-50 0 48.425 31.15" xmlns="http://www.w3.org/2000/svg">
<g transform="matrix(.125 0 0 -.125 -47.038 147.42)">
<path d="m336 1054.7c-21.9 34-49.4 59.5-82.4 76.3 8.8-15 13.2-31.2 13.2-48.6 0-26.7-9.5-49.5-28.4-68.4s-41.8-28.4-68.4-28.4-49.5 9.5-68.4 28.4-28.4 41.8-28.4 68.4c0 17.4 4.4 33.7 13.2 48.6-33-16.9-60.5-42.3-82.4-76.3 19.2-29.5 43.2-53.1 72.1-70.6s60.2-26.3 93.9-26.3 65 8.8 93.9 26.3 52.9 41 72.1 70.6zm-155.7 83c0 2.9-1 5.3-3 7.4-2 2-4.5 3-7.4 3-18 0-33.5-6.5-46.4-19.4s-19.4-28.4-19.4-46.4c0-2.9 1-5.3 3-7.4 2-2 4.5-3 7.4-3s5.3 1 7.4 3c2 2 3 4.5 3 7.4 0 12.4 4.4 23 13.2 31.8s19.4 13.2 31.8 13.2c2.9 0 5.3 1 7.4 3 2 2.1 3 4.5 3 7.4zm183.4-83c0-4.9-1.4-9.9-4.3-14.9-20.2-33.2-47.3-59.7-81.4-79.7s-70.1-29.9-108-29.9-73.9 10-108 30.1c-34.1 20-61.2 46.6-81.4 79.6-2.9 5-4.3 10-4.3 14.9s1.4 9.9 4.3 14.9c20.2 33 47.3 59.5 81.4 79.6 34.1 20 70.1 30.1 108 30.1s73.9-10 108-30.1c34.1-20 61.2-46.6 81.4-79.6 2.8-5.1 4.3-10.1 4.3-15z" fill="#cf9117"/>
</g>
</svg>
