<svg width="32.419pt" height="39.516pt" version="1.2" viewBox="0 0 32.419 39.516" xmlns="http://www.w3.org/2000/svg" xmlns:xlink="http://www.w3.org/1999/xlink">
<defs>
<symbol id="h" overflow="visible">
<path d="m5.6836 0-1.2695-1.8203c.73828-.3125 1.1641-.9375 1.1641-1.7852 0-1.2695-.94531-2.0547-2.457-2.0547h-2.4492v5.6602h1.3086v-1.5781h1.207l1.0898 1.5781zm-1.4297-3.6055c0 .61328-.40625.98438-1.207.98438h-1.0664v-1.9727h1.0664c.80078 0 1.207.36328 1.207.98828z"/>
</symbol>
<symbol id="g" overflow="visible">
<path d="m3.1211-5.6602h-2.4492v5.6602h1.3086v-1.5625h1.1406c1.5117 0 2.457-.78125 2.457-2.043 0-1.2695-.94531-2.0547-2.457-2.0547zm-.074219 3.0312h-1.0664v-1.9648h1.0664c.80078 0 1.207.36328 1.207.98828 0 .61328-.40625.97656-1.207.97656z"/>
</symbol>
<symbol id="f" overflow="visible">
<path d="m2.1094-1.0664 1.3047-1.2305c.78906-.73438.94531-1.2383.94531-1.7852 0-1.0273-.84375-1.6758-2.1016-1.6758-1.0195 0-1.8125.41406-2.25 1.0508l.95313.61719c.27734-.38281.6875-.56641 1.1719-.56641.60156 0 .90625.25781.90625.70312 0 .27344-.085937.56641-.58984 1.043l-2.1836 2.0625v.84766h4.2773v-1.0664z"/>
</symbol>
<symbol id="a" overflow="visible">
<path d="m2.7422.097656c1.3984 0 2.4258-1.0586 2.4258-2.9297 0-1.8672-1.0273-2.9258-2.4258-2.9258-1.3906 0-2.4258 1.0586-2.4258 2.9258 0 1.8711 1.0352 2.9297 2.4258 2.9297zm0-1.1094c-.64844 0-1.1016-.53125-1.1016-1.8203 0-1.2852.45312-1.8164 1.1016-1.8164.65234 0 1.1055.53125 1.1055 1.8164 0 1.2891-.45312 1.8203-1.1055 1.8203z"/>
</symbol>
<symbol id="e" overflow="visible">
<path d="m5.5-2.2578h-.92188v-1.0586h-1.2383v1.0586h-1.5195l2.4727-3.4023h-1.375l-2.668 3.5898v.88281h3.0508v1.1875h1.2773v-1.1875h.92188z"/>
</symbol>
<symbol id="d" overflow="visible">
<path d="m4.7773.14453c2.4141 0 3.8477-1.3828 3.8477-3.8789v-4.7578h-1.9414v4.6836c0 1.6133-.69141 2.2812-1.8945 2.2812-1.1875 0-1.8906-.66797-1.8906-2.2812v-4.6836h-1.9648v4.7578c0 2.4961 1.4297 3.8789 3.8438 3.8789z"/>
</symbol>
<symbol id="c" overflow="visible">
<path d="m7.4219-6.9141v-1.5781h-6.4141v8.4922h1.9648v-3.0938h3.9297v-1.5742h-3.9297v-2.2461z"/>
</symbol>
<symbol id="b" overflow="visible">
<path d="m3.1641-1.6016 1.9531-1.8438c1.1914-1.1016 1.4219-1.8555 1.4219-2.6797 0-1.5391-1.2617-2.5117-3.1562-2.5117-1.5273 0-2.7148.62109-3.3711 1.5781l1.4297.92188c.41406-.57031 1.0312-.84766 1.7617-.84766.89844 0 1.3555.38672 1.3555 1.0547 0 .41016-.13281.84766-.88281 1.5625l-3.2773 3.0938v1.2734h6.418v-1.6016z"/>
</symbol>
<clipPath id="j">
<path d="m27 33h5.8477v7h-5.8477z"/>
</clipPath>
<clipPath id="i">
<path d="m0 0h32.848v42.957h-32.848z"/>
</clipPath>
</defs>
<g transform="translate(-.00096628 -.00096628)">
<g fill="#cf1754">
<use x="-0.402722" y="39.41935" xlink:href="#h"/>
<use x="5.5405159" y="39.41935" xlink:href="#g"/>
<use x="11.419063" y="39.41935" xlink:href="#f"/>
<use x="16.189823" y="39.41935" xlink:href="#a"/>
<use x="21.680246" y="39.41935" xlink:href="#e"/>
</g>
<g clip-path="url(#j)">
<g fill="#cf1754">
<use x="27.251522" y="39.41935" xlink:href="#a"/>
</g>
</g>
<path d="m31.332 16.172c0 .99609-.09766 1.9805-.28906 2.957-.19531.97656-.48438 1.9258-.86328 2.8438-.38281.92188-.84766 1.793-1.4023 2.6211-.55078.82812-1.1797 1.5938-1.8828 2.3008-.70703.70312-1.4727 1.332-2.3008 1.8828-.82812.55469-1.6992 1.0195-2.6211 1.4023-.91797.37891-1.8672.66797-2.8438.86328-.97656.19141-1.9609.28906-2.957.28906s-1.9805-.09766-2.957-.28906c-.97656-.19531-1.9258-.48438-2.8438-.86328-.92188-.38281-1.793-.84766-2.6211-1.4023-.82812-.55078-1.5938-1.1797-2.2969-1.8828-.70703-.70703-1.3359-1.4727-1.8867-2.3008-.55469-.82812-1.0195-1.6992-1.4023-2.6211-.37891-.91797-.66797-1.8672-.86328-2.8438-.19141-.97656-.28906-1.9609-.28906-2.957s.097656-1.9805.28906-2.957c.19531-.97656.48438-1.9258.86328-2.8438.38281-.92188.84766-1.793 1.4023-2.6211.55078-.82812 1.1797-1.5938 1.8867-2.2969.70312-.70703 1.4688-1.3359 2.2969-1.8867.82812-.55469 1.6992-1.0195 2.6211-1.4023.91797-.37891 1.8672-.66797 2.8438-.86328.97656-.19141 1.9609-.28906 2.957-.28906s1.9805.097656 2.957.28906c.97656.19531 1.9258.48438 2.8438.86328.92188.38281 1.793.84766 2.6211 1.4023.82812.55078 1.5938 1.1797 2.3008 1.8867.70312.70312 1.332 1.4688 1.8828 2.2969.55469.82812 1.0195 1.6992 1.4023 2.6211.37891.91797.66797 1.8672.86328 2.8438.19141.97656.28906 1.9609.28906 2.957z" fill="#ffffff"/>
<g clip-path="url(#i)">
<path transform="scale(.50538)" d="m61.997 32c0 1.971-.19324 3.9188-.57198 5.8511-.38647 1.9323-.95844 3.8106-1.7082 5.627-.75748 1.8241-1.6773 3.5478-2.7749 5.1864-1.0898 1.6386-2.3343 3.1536-3.7256 4.5526-1.399 1.3913-2.914 2.6357-4.5526 3.7256-1.6386 1.0976-3.3623 2.0174-5.1864 2.7749-1.8164.74975-3.6946 1.3217-5.627 1.7082-1.9323.37874-3.8802.57198-5.8511.57198-1.971 0-3.9188-.19324-5.8511-.57198-1.9323-.38647-3.8106-.95844-5.627-1.7082-1.8241-.75748-3.5478-1.6773-5.1864-2.7749-1.6386-1.0898-3.1536-2.3343-4.5449-3.7256-1.399-1.399-2.6435-2.914-3.7333-4.5526-1.0976-1.6386-2.0174-3.3623-2.7748-5.1864-.74975-1.8164-1.3217-3.6946-1.7082-5.627-.37874-1.9323-.57198-3.8802-.57198-5.8511 0-1.971.19324-3.9188.57198-5.8511.38647-1.9323.95844-3.8106 1.7082-5.627.75748-1.8241 1.6773-3.5478 2.7748-5.1864 1.0898-1.6386 2.3343-3.1536 3.7333-4.5449 1.3913-1.399 2.9063-2.6435 4.5449-3.7333 1.6386-1.0976 3.3623-2.0174 5.1864-2.7748 1.8164-.74975 3.6946-1.3217 5.627-1.7082 1.9323-.37874 3.8802-.57198 5.8511-.57198 1.971 0 3.9188.19324 5.8511.57198 1.9323.38647 3.8106.95844 5.627 1.7082 1.8241.75748 3.5478 1.6773 5.1864 2.7748 1.6386 1.0898 3.1536 2.3343 4.5526 3.7333 1.3913 1.3913 2.6357 2.9063 3.7256 4.5449 1.0976 1.6386 2.0174 3.3623 2.7749 5.1864.74975 1.8164 1.3217 3.6946 1.7082 5.627.37874 1.9323.57198 3.8802.57198 5.8511z" fill="none" stroke="#cf1754" stroke-width="4"/>
</g>
<g fill="#cf1754">
<use x="4.169354" y="20.720428" xlink:href="#d"/>
<use x="13.727001" y="20.720428" xlink:href="#c"/>
<use x="21.525942" y="20.720428" xlink:href="#b"/>
</g>
</g>
</svg>
