<svg width="32.342pt" height="51.159pt" version="1.2" viewBox="0 0 32.342 51.159" xmlns="http://www.w3.org/2000/svg" xmlns:xlink="http://www.w3.org/1999/xlink">
<defs>
<symbol id="p" overflow="visible">
<path d="m3.3789.097656c.98828 0 1.8047-.35547 2.3398-1.0117l-.84375-.77734c-.37891.44531-.85547.67188-1.4219.67188-1.0586 0-1.8125-.74219-1.8125-1.8125 0-1.0664.75391-1.8086 1.8125-1.8086.56641 0 1.043.22656 1.4219.66406l.84375-.77734c-.53516-.64844-1.3516-1.0039-2.332-1.0039-1.7617 0-3.0703 1.2227-3.0703 2.9258 0 1.707 1.3086 2.9297 3.0625 2.9297z"/>
</symbol>
<symbol id="o" overflow="visible"></symbol>
<symbol id="n" overflow="visible">
<path d="m3.1211-5.6602h-2.4492v5.6602h1.3086v-1.5625h1.1406c1.5117 0 2.457-.78125 2.457-2.043 0-1.2695-.94531-2.0547-2.457-2.0547zm-.074219 3.0312h-1.0664v-1.9648h1.0664c.80078 0 1.207.36328 1.207.98828 0 .61328-.40625.97656-1.207.97656z"/>
</symbol>
<symbol id="b" overflow="visible">
<path d="m1.2148-4.957c.46875 0 .78125-.30859.78125-.72656 0-.39062-.3125-.67969-.78125-.67969-.47266 0-.78516.30859-.78516.70312 0 .39453.3125.70312.78516.70312zm-.63281 4.957h1.2617v-4.3516h-1.2617z"/>
</symbol>
<symbol id="m" overflow="visible">
<path d="m2.6836.066406c.91406 0 1.6328-.40625 1.9492-1.1016l-.97656-.53516c-.23438.42187-.58203.60156-.98047.60156-.63672 0-1.1406-.44531-1.1406-1.207 0-.75781.50391-1.2031 1.1406-1.2031.39844 0 .74609.18359.98047.59766l.97656-.52734c-.31641-.71094-1.0352-1.1055-1.9492-1.1055-1.4141 0-2.4258.92969-2.4258 2.2383 0 1.3125 1.0117 2.2422 2.4258 2.2422z"/>
</symbol>
<symbol id="l" overflow="visible">
<path d="m3.2266-4.4141c-.55859 0-1.043.17578-1.3828.51562v-2.1016h-1.2617v6h1.2617v-2.1523c0-.80078.4375-1.1719 1.043-1.1719.55859 0 .88281.32422.88281 1.0273v2.2969h1.2617v-2.4922c0-1.3242-.77734-1.9219-1.8047-1.9219z"/>
</symbol>
<symbol id="k" overflow="visible">
<path d="m1.7852-3.7773v-.57422h-1.2031v4.3516h1.2617v-2.0547c0-.83203.46094-1.2109 1.1562-1.2109.097656 0 .17969.00781.28125.015625v-1.1641c-.66797 0-1.1875.21875-1.4961.63672z"/>
</symbol>
<symbol id="j" overflow="visible">
<path d="m3.7031-4.3516v2.1523c0 .80078-.42188 1.1719-1.0039 1.1719-.55469 0-.87891-.32422-.87891-1.0508v-2.2734h-1.2617v2.4609c0 1.3398.76562 1.957 1.8594 1.957.53516 0 1.0195-.20313 1.3516-.58203v.51562h1.1953v-4.3516z"/>
</symbol>
<symbol id="a" overflow="visible">
<path d="m3.0469-1.1016c-.13672.10547-.32031.16406-.50781.16406-.33984 0-.54297-.20312-.54297-.57422v-1.7695h1.0859v-.97266h-1.0859v-1.0586h-1.2617v1.0586h-.66797v.97266h.66797v1.7852c0 1.0352.60156 1.5625 1.625 1.5625.39062 0 .76953-.089844 1.0273-.27734z"/>
</symbol>
<symbol id="i" overflow="visible">
<path d="m3.6875-4.3516-1.2305 2.9531-1.2188-2.9531h-1.3047l1.8867 4.3828-.015624.042969c-.17188.38672-.36719.53906-.71484.53906-.25 0-.51562-.10547-.71094-.27344l-.46094.89844c.28516.25.76953.39453 1.2148.39453.78516 0 1.3828-.31641 1.8008-1.3672l1.9648-4.6172z"/>
</symbol>
<symbol id="h" overflow="visible">
<path d="m2.6523.066406c1.3828 0 2.3867-.92969 2.3867-2.2422 0-1.3086-1.0039-2.2383-2.3867-2.2383-1.3828 0-2.3945.92969-2.3945 2.2383 0 1.3125 1.0117 2.2422 2.3945 2.2422zm0-1.0352c-.62891 0-1.1172-.45312-1.1172-1.207 0-.75.48828-1.2031 1.1172-1.2031s1.1094.45312 1.1094 1.2031c0 .75391-.48047 1.207-1.1094 1.207z"/>
</symbol>
<symbol id="g" overflow="visible">
<path d="m3.2266-4.4141c-.58984 0-1.1016.20312-1.4414.57422v-.51172h-1.2031v4.3516h1.2617v-2.1523c0-.80078.4375-1.1719 1.043-1.1719.55859 0 .88281.32422.88281 1.0273v2.2969h1.2617v-2.4922c0-1.3242-.77734-1.9219-1.8047-1.9219z"/>
</symbol>
<symbol id="f" overflow="visible">
<path d="m1.0078 0h3.8555c2.7773 0 4.6836-1.6719 4.6836-4.2461 0-2.5703-1.9062-4.2461-4.6836-4.2461h-3.8555zm1.9648-1.6133v-5.2656h1.793c1.6875 0 2.7891 1.0078 2.7891 2.6328s-1.1016 2.6328-2.7891 2.6328z"/>
</symbol>
<symbol id="e" overflow="visible">
<path d="m1.8203-7.4336c.70313 0 1.1758-.46094 1.1758-1.0938 0-.58203-.47266-1.0195-1.1758-1.0195-.70312 0-1.1758.46094-1.1758 1.0547 0 .59766.47266 1.0586 1.1758 1.0586zm-.94531 7.4336h1.8906v-6.5273h-1.8906z"/>
</symbol>
<symbol id="d" overflow="visible">
<path d="m5.7383 0h2.293l-2.9609-3.7617 2.7148-2.7656h-2.2539l-2.7656 2.6211v-5.0938h-1.8906v9h1.8906v-1.6602l.91016-.89844z"/>
</symbol>
<symbol id="c" overflow="visible">
<path d="m3.0703.097656c1.9492 0 3.0781-.86328 3.0781-2.0742 0-2.5703-3.9414-1.4922-3.9414-2.6094 0-.33984.36328-.60547 1.2148-.60547.59375 0 1.2344.12109 1.8789.48438l.62891-1.3438c-.61719-.36719-1.6133-.57031-2.5078-.57031-1.9062 0-3.0234.87109-3.0234 2.1094 0 2.6094 3.9453 1.5156 3.9453 2.582 0 .36328-.32812.59375-1.2031.59375-.80078 0-1.6836-.25391-2.2656-.62891l-.63281 1.3594c.60547.39844 1.7227.70313 2.8281.70313z"/>
</symbol>
<clipPath id="q">
<path d="m0 0h32.848v43h-32.848z"/>
</clipPath>
</defs>
<g transform="translate(-.00096628 -.00096628)">
<g fill="#45b04a">
<use x="2.1478491" y="39.924725" xlink:href="#p"/>
<use x="8.0749159" y="39.924725" xlink:href="#b"/>
<use x="10.508813" y="39.924725" xlink:href="#k"/>
<use x="13.921113" y="39.924725" xlink:href="#m"/>
<use x="18.699963" y="39.924725" xlink:href="#j"/>
<use x="24.25507" y="39.924725" xlink:href="#b"/>
<use x="26.688967" y="39.924725" xlink:href="#a"/>
<use x="30.204128" y="39.924725" xlink:href="#o"/>
<use x="0.74227101" y="49.526875" xlink:href="#n"/>
<use x="6.6289001" y="49.526875" xlink:href="#i"/>
<use x="11.585637" y="49.526875" xlink:href="#a"/>
<use x="15.103059" y="49.526875" xlink:href="#l"/>
<use x="20.722849" y="49.526875" xlink:href="#h"/>
<use x="26.019205" y="49.526875" xlink:href="#g"/>
</g>
<path d="m31.332 16.172c0 .99609-.09766 1.9805-.28906 2.957-.19531.97656-.48438 1.9258-.86328 2.8438-.38281.92188-.84766 1.793-1.4023 2.6211-.55078.82812-1.1797 1.5938-1.8828 2.3008-.70703.70312-1.4727 1.332-2.3008 1.8828-.82812.55469-1.6992 1.0195-2.6211 1.4023-.91797.37891-1.8672.66797-2.8438.86328-.97656.19141-1.9609.28906-2.957.28906s-1.9805-.09766-2.957-.28906c-.97656-.19531-1.9258-.48438-2.8438-.86328-.92188-.38281-1.793-.84766-2.6211-1.4023-.82812-.55078-1.5938-1.1797-2.2969-1.8828-.70703-.70703-1.3359-1.4727-1.8867-2.3008-.55469-.82812-1.0195-1.6992-1.4023-2.6211-.37891-.91797-.66797-1.8672-.86328-2.8438-.19141-.97656-.28906-1.9609-.28906-2.957s.097656-1.9805.28906-2.957c.19531-.97656.48438-1.9258.86328-2.8438.38281-.92188.84766-1.793 1.4023-2.6211.55078-.82812 1.1797-1.5938 1.8867-2.2969.70312-.70703 1.4688-1.3359 2.2969-1.8867.82812-.55469 1.6992-1.0195 2.6211-1.4023.91797-.37891 1.8672-.66797 2.8438-.86328.97656-.19141 1.9609-.28906 2.957-.28906s1.9805.097656 2.957.28906c.97656.19531 1.9258.48438 2.8438.86328.92188.38281 1.793.84766 2.6211 1.4023.82812.55078 1.5938 1.1797 2.3008 1.8867.70312.70312 1.332 1.4688 1.8828 2.2969.55469.82812 1.0195 1.6992 1.4023 2.6211.37891.91797.66797 1.8672.86328 2.8438.19141.97656.28906 1.9609.28906 2.957z" fill="#ffffff"/>
<g clip-path="url(#q)">
<path transform="scale(.50538)" d="m61.997 32c0 1.971-.19324 3.9188-.57198 5.8511-.38647 1.9323-.95844 3.8106-1.7082 5.627-.75748 1.8241-1.6773 3.5478-2.7749 5.1864-1.0898 1.6386-2.3343 3.1536-3.7256 4.5526-1.399 1.3913-2.914 2.6357-4.5526 3.7256-1.6386 1.0976-3.3623 2.0174-5.1864 2.7749-1.8164.74975-3.6946 1.3217-5.627 1.7082-1.9323.37874-3.8802.57198-5.8511.57198-1.971 0-3.9188-.19324-5.8511-.57198-1.9323-.38647-3.8106-.95844-5.627-1.7082-1.8241-.75748-3.5478-1.6773-5.1864-2.7749-1.6386-1.0898-3.1536-2.3343-4.5449-3.7256-1.399-1.399-2.6435-2.914-3.7333-4.5526-1.0976-1.6386-2.0174-3.3623-2.7748-5.1864-.74975-1.8164-1.3217-3.6946-1.7082-5.627-.37874-1.9323-.57198-3.8802-.57198-5.8511 0-1.971.19324-3.9188.57198-5.8511.38647-1.9323.95844-3.8106 1.7082-5.627.75748-1.8241 1.6773-3.5478 2.7748-5.1864 1.0898-1.6386 2.3343-3.1536 3.7333-4.5449 1.3913-1.399 2.9063-2.6435 4.5449-3.7333 1.6386-1.0976 3.3623-2.0174 5.1864-2.7748 1.8164-.74975 3.6946-1.3217 5.627-1.7082 1.9323-.37874 3.8802-.57198 5.8511-.57198 1.971 0 3.9188.19324 5.8511.57198 1.9323.38647 3.8106.95844 5.627 1.7082 1.8241.75748 3.5478 1.6773 5.1864 2.7748 1.6386 1.0898 3.1536 2.3343 4.5526 3.7333 1.3913 1.3913 2.6357 2.9063 3.7256 4.5449 1.0976 1.6386 2.0174 3.3623 2.7749 5.1864.74975 1.8164 1.3217 3.6946 1.7082 5.627.37874 1.9323.57198 3.8802.57198 5.8511z" fill="none" stroke="#45b04a" stroke-width="4"/>
</g>
<g fill="#45b04a">
<use x="2.3689511" y="20.720428" xlink:href="#f"/>
<use x="12.387502" y="20.720428" xlink:href="#e"/>
<use x="16.038334" y="20.720428" xlink:href="#c"/>
<use x="22.478827" y="20.720428" xlink:href="#d"/>
</g>
</g>
</svg>
