<svg width="710" height="340" version="1.2" viewBox="0 0 710 340" xmlns="http://www.w3.org/2000/svg" xmlns:xlink="http://www.w3.org/1999/xlink">
<defs>
<symbol id="dg" overflow="visible">
<path d="m1.8438 0-1.7188-7.9062h.875l.98438 5.1875c.10156.53125.19531 1.0703.28125 1.6094l.29688-1.4531 1.2344-5.3438h1.0312l.92188 4c.22656.98047.39844 1.9141.51562 2.7969.082031-.50781.1875-1.082.3125-1.7188l1.0156-5.0781h.875l-1.7812 7.9062h-.82812l-1.375-6.0312-.20312-.92188c-.0625.34375-.125.65234-.1875.92188l-1.375 6.0312z"/>
</symbol>
<symbol id="i" overflow="visible">
<path d="m.57812 0v-7.9062h.79688v2.8281c.1875-.25781.39453-.45312.625-.57812.23828-.13281.5-.20312.78125-.20312.5 0 .89453.16406 1.1875.48438.28906.3125.4375.89844.4375 1.75v3.625h-.79688v-3.625c0-.5-.089844-.85156-.26562-1.0625-.17969-.21875-.41797-.32812-.71875-.32812-.34375 0-.64062.14062-.89062.42188-.24219.27344-.35938.75781-.35938 1.4531v3.1406z"/>
</symbol>
<symbol id="a" overflow="visible">
<path d="m3.7969-1.8438.82812.125c-.14844.61719-.39844 1.0781-.75 1.3906-.35547.30469-.79688.45312-1.3281.45312-.66797 0-1.2109-.25-1.625-.75-.40625-.50781-.60938-1.2383-.60938-2.1875 0-.98828.20703-1.7422.625-2.2656.41406-.51953.94141-.78125 1.5781-.78125.60156 0 1.1094.25781 1.5156.76562.40625.51172.60938 1.25.60938 2.2188v.26562h-3.5156c.039062.63672.19141 1.1211.45312 1.4531.26953.32422.59375.48438.96875.48438.60156 0 1.0195-.39062 1.25-1.1719zm-2.6094-1.5781h2.6094c-.03125-.48828-.13672-.85938-.3125-1.1094-.26172-.35156-.58594-.53125-.96875-.53125-.36719 0-.67188.15234-.92188.45312-.25.29297-.38672.6875-.40625 1.1875z"/>
</symbol>
<symbol id="g" overflow="visible">
<path d="m.57812 0v-5.7344h.71875v.82812c.17578-.32031.39062-.5625.64062-.71875s.53516-.23438.85938-.23438c.25 0 .47656.054687.6875.15625.21875.09375.39062.22656.51562.39062.13281.15625.23438.36719.29688.625.070313.25.10938.64062.10938 1.1719v3.5156h-.79688v-3.4844c0-.41406-.039063-.72266-.10938-.92188-.074219-.19531-.1875-.34766-.34375-.45312-.15625-.10156-.33594-.15625-.53125-.15625-.375 0-.67969.14062-.90625.42188-.23047.28125-.34375.77344-.34375 1.4688v3.125z"/>
</symbol>
<symbol id="cp" overflow="visible">
<path d="m5.2969-2.7656.875.25c-.19922.89844-.53906 1.5625-1.0156 2-.46875.4375-1.0469.65625-1.7344.65625-.59375 0-1.1055-.14453-1.5312-.4375-.42969-.30078-.77734-.77344-1.0469-1.4219-.27344-.64453-.40625-1.4062-.40625-2.2812s.13281-1.6133.40625-2.2188c.26953-.60156.63281-1.0547 1.0938-1.3594.46875-.3125.98828-.46875 1.5625-.46875.625 0 1.1602.19922 1.6094.59375.44531.38672.75781.96094.9375 1.7188l-.84375.23438c-.28125-1.0938-.85547-1.6406-1.7188-1.6406-.4375 0-.82031.10938-1.1406.32812-.3125.21875-.5625.5625-.75 1.0312s-.28125 1.0625-.28125 1.7812c0 1.0742.1875 1.8828.5625 2.4219.38281.54297.89453.8125 1.5312.8125.46875 0 .86719-.16406 1.2031-.5.34375-.33203.57031-.83203.6875-1.5z"/>
</symbol>
<symbol id="c" overflow="visible">
<path d="m.57812-6.7969v-1.1094h.79688v1.1094zm0 6.7969v-5.7344h.79688v5.7344z"/>
</symbol>
<symbol id="e" overflow="visible">
<path d="m.28125-1.7031.78125-.15625c.050781.40625.17969.71094.39062.90625.20703.1875.48438.28125.82812.28125s.60938-.082031.79688-.25c.1875-.17578.28125-.39453.28125-.65625 0-.22656-.078125-.40625-.23438-.53125-.11719-.082031-.38672-.1875-.8125-.3125-.61719-.19531-1.0273-.35938-1.2344-.48438-.21094-.13281-.37109-.3125-.48438-.53125-.11719-.22656-.17188-.48438-.17188-.76562 0-.48828.15625-.88281.46875-1.1875.3125-.3125.74219-.46875 1.2969-.46875.34375 0 .64453.0625.90625.1875.26953.125.47266.29688.60938.51562.14453.21094.24219.51172.29688.90625l-.78125.125c-.0625-.625-.40234-.9375-1.0156-.9375-.34375 0-.60156.074219-.76562.21875-.16797.13672-.25.30859-.25.51562 0 .21875.078125.39062.23438.51562.09375.0625.37891.17969.85938.34375.66406.21094 1.0938.375 1.2812.5.19531.125.34766.29688.45312.51562.11328.21094.17188.46094.17188.75 0 .55469-.17969 1-.53125 1.3438-.34375.33594-.82031.5-1.4219.5-1.125 0-1.7773-.61328-1.9531-1.8438z"/>
</symbol>
<symbol id="cu" overflow="visible">
<path d="m.4375.46875.76562.14062c.039063.3125.14844.53906.32812.6875.17578.14453.42578.21875.75.21875.35156 0 .62891-.085937.82812-.25.20703-.16797.34766-.41797.42188-.75.050781-.19922.078125-.61719.078125-1.2656-.17969.25-.375.4375-.59375.5625-.21094.125-.44531.1875-.70312.1875-.5625 0-1.0312-.23828-1.4062-.71875-.41797-.53906-.625-1.2695-.625-2.1875 0-.61328.09375-1.1484.28125-1.6094.1875-.45703.42969-.79688.73438-1.0156.30078-.21875.64062-.32812 1.0156-.32812.28125 0 .53516.070313.76562.20312.22656.13672.42578.34375.59375.625v-.70312h.73438v4.9531c0 .88281-.074219 1.5156-.21875 1.8906-.13672.375-.37109.67188-.70312.89062-.32422.21875-.71484.32812-1.1719.32812-.61719 0-1.0859-.16797-1.4062-.5-.32422-.32422-.48047-.77734-.46875-1.3594zm.65625-3.4375c0 .75.125 1.3047.375 1.6562.25.34375.55078.51562.90625.51562.36328 0 .67188-.16406.92188-.5.25-.34375.375-.88281.375-1.625 0-.71875-.13281-1.25-.39062-1.5938-.26172-.35156-.57422-.53125-.9375-.53125-.33594 0-.625.17969-.875.53125-.25.34375-.375.85938-.375 1.5469z"/>
</symbol>
<symbol id="cj" overflow="visible">
<path d="m.8125 0v-1.1094h.90625v1.1094c0 .42578-.0625.75781-.1875 1-.125.25-.30859.4375-.54688.5625l-.21875-.40625c.16406-.09375.28516-.23047.35938-.40625.082031-.16797.12891-.41797.14062-.75z"/>
</symbol>
<symbol id="b" overflow="visible">
<path d="m2.3594-.875.10938.85938c-.21875.0625-.41797.09375-.59375.09375-.28125 0-.50781-.054688-.67188-.15625-.16797-.11328-.28125-.26562-.34375-.45312-.0625-.19531-.09375-.57812-.09375-1.1406v-3.2969h-.59375v-.76562h.59375v-1.4062l.78125-.59375v2h.8125v.76562h-.8125v3.3438c0 .3125.023437.51172.078125.59375.0625.13672.1875.20312.375.20312.09375 0 .21094-.015625.35938-.046875z"/>
</symbol>
<symbol id="cw" overflow="visible">
<path d="m-.015625 0 2.5-7.9062h.92188l2.6562 7.9062h-.98438l-.75-2.3906h-2.7188l-.70312 2.3906zm1.875-3.25h2.2031l-.6875-2.1875c-.21094-.67578-.35938-1.2227-.45312-1.6406-.085937.51172-.19922 1.0156-.34375 1.5156z"/>
</symbol>
<symbol id="k" overflow="visible">
<path d="m.5625 0v-7.9062h.79688v7.9062z"/>
</symbol>
<symbol id="l" overflow="visible">
<path d="m3.6562-2.0938.78125.125c-.085938.67969-.30859 1.1992-.67188 1.5625-.36719.35547-.79688.53125-1.2969.53125-.61719 0-1.125-.25-1.5312-.75-.39844-.50781-.59375-1.2578-.59375-2.25 0-.98828.19531-1.7344.59375-2.2344.40625-.5.92578-.75 1.5625-.75.47656 0 .88281.15234 1.2188.45312.33203.30469.54688.75781.64062 1.3594l-.76562.14062c-.074219-.38281-.20312-.67188-.39062-.85938-.1875-.19531-.41406-.29688-.67188-.29688-.39844 0-.72656.17969-.98438.53125-.25.34375-.375.89062-.375 1.6406 0 .78125.11719 1.3516.35938 1.7031.25.34375.56641.51562.95312.51562.30078 0 .55469-.11328.76562-.34375.21875-.22656.35156-.58594.40625-1.0781z"/>
</symbol>
<symbol id="d" overflow="visible">
<path d="m3.6406-.70312c-.26172.27344-.53906.48047-.82812.625-.28125.13281-.57812.20312-.89062.20312-.49219 0-.88281-.14453-1.1719-.4375-.29297-.28906-.4375-.6875-.4375-1.1875 0-.33203.066406-.625.20312-.875.13281-.25781.32031-.46094.5625-.60938.23828-.14453.59766-.25 1.0781-.3125.64453-.09375 1.1172-.20703 1.4219-.34375l.015625-.25c0-.38281-.074219-.65625-.21875-.8125-.19922-.22656-.5-.34375-.90625-.34375-.375 0-.65625.078125-.84375.23438-.17969.14844-.30859.42969-.39062.84375l-.78125-.125c.10156-.61328.32812-1.0625.67188-1.3438s.82812-.42188 1.4531-.42188c.5 0 .89062.09375 1.1719.28125s.45703.41797.53125.6875c.070312.27344.10938.67188.10938 1.2031v1.2812c0 .90625.015625 1.4805.046875 1.7188.03125.24219.097656.46875.20312.6875h-.82812c-.085938-.19531-.14062-.42969-.17188-.70312zm-.0625-2.1719c-.29297.14844-.72656.26562-1.2969.35938-.33594.0625-.57031.13281-.70312.20312-.13672.074219-.24219.17969-.3125.3125-.074219.13672-.10938.29297-.10938.46875 0 .27344.082031.49219.25.65625.17578.16797.41016.25.70312.25.28906 0 .55078-.070312.78125-.21875.22656-.15625.39844-.35156.51562-.59375.11328-.25.17188-.60938.17188-1.0781z"/>
</symbol>
<symbol id="ck" overflow="visible">
<path d="m.8125 0v-4.9688h-.70312v-.76562h.70312v-.60938c0-.44531.046875-.78125.14062-1 .09375-.22656.23438-.39844.42188-.51562.19531-.125.44141-.1875.73438-.1875.21875 0 .46094.03125.73438.09375l-.10938.85938c-.16797-.039062-.32422-.0625-.46875-.0625-.24219 0-.41406.0625-.51562.1875-.10547.125-.15625.36719-.15625.71875v.51562h.92188v.76562h-.92188v4.9688z"/>
</symbol>
<symbol id="f" overflow="visible">
<path d="m.57812 0v-5.7344h.71875v.875c.1875-.40625.35156-.67188.5-.79688.15625-.13281.32812-.20312.51562-.20312.26953 0 .54688.10547.82812.3125l-.28125.90625c-.19922-.14453-.39062-.21875-.57812-.21875-.16797 0-.32422.0625-.46875.1875-.13672.11719-.23047.27734-.28125.48438-.10547.375-.15625.77344-.15625 1.1875v3z"/>
</symbol>
<symbol id="h" overflow="visible">
<path d="m.28125-2.8594c0-.98828.20703-1.7344.625-2.2344.41406-.50781.94141-.76562 1.5781-.76562.625 0 1.1445.25781 1.5625.76562.42578.5.64062 1.2266.64062 2.1719 0 1.0312-.21094 1.7969-.625 2.2969-.40625.5-.93359.75-1.5781.75-.625 0-1.1523-.25-1.5781-.75-.41797-.50781-.625-1.2539-.625-2.2344zm.8125 0c0 .74219.13281 1.293.40625 1.6562.26953.35547.60938.53125 1.0156.53125.36328 0 .67969-.17969.95312-.54688.26953-.36328.40625-.91016.40625-1.6406 0-.73828-.13672-1.2852-.40625-1.6406-.27344-.36328-.60547-.54688-1-.54688-.375 0-.69922.18359-.96875.54688-.27344.35547-.40625.90234-.40625 1.6406z"/>
</symbol>
<symbol id="ch" overflow="visible">
<path d="m.59375 0v-5.7344h.71875v.8125c.15625-.30078.35156-.53125.59375-.6875.25-.16406.52344-.25.82812-.25.32031 0 .59766.089844.82812.26562.22656.16797.39453.41406.5.73438.1875-.33203.39844-.58203.64062-.75.23828-.16406.50391-.25.79688-.25.45703 0 .8125.15625 1.0625.46875.25781.30469.39062.78906.39062 1.4531v3.9375h-.78125v-3.6094c0-.40625-.03125-.69141-.09375-.85938-.0625-.17578-.16406-.3125-.29688-.40625-.125-.09375-.27344-.14062-.4375-.14062-.34375 0-.625.13672-.84375.40625-.21094.27344-.3125.69922-.3125 1.2812v3.3281h-.8125v-3.7188c0-.47656-.074219-.8125-.21875-1-.14844-.19531-.34375-.29688-.59375-.29688-.36719 0-.65234.14844-.85938.4375-.21094.29297-.3125.82812-.3125 1.6094v2.9688z"/>
</symbol>
<symbol id="co" overflow="visible">
<path d="m1.4531 0-1.4375-5.7344h.82812l.73438 3.3125.28125 1.2344.25-1.1875.73438-3.3594h.82812l.70312 3.3281.23438 1.0938.26562-1.1094.8125-3.3125h.76562l-1.4688 5.7344h-.82812l-.75-3.4375-.17188-.96875-.95312 4.4062z"/>
</symbol>
<symbol id="cq" overflow="visible">
<path d="m.84375 0v-1.1094h.90625v1.1094z"/>
</symbol>
<symbol id="dh" overflow="visible">
<path d="m2.3594 0v-6.9688h-2.1406v-.9375h5.1406v.9375h-2.1406v6.9688z"/>
</symbol>
<symbol id="cr" overflow="visible">
<path d="m.57812 2.2031v-7.9375h.73438v.75c.17578-.3125.375-.53516.59375-.67188.21875-.13281.47266-.20312.76562-.20312.36328 0 .69141.10938.98438.32812.30078.21875.53906.55469.71875 1 .1875.44922.28125.99219.28125 1.625 0 .96875-.20312 1.7188-.60938 2.25-.40625.52344-.88672.78125-1.4375.78125-.24219 0-.46875-.0625-.6875-.1875-.21094-.125-.39062-.30078-.54688-.53125v2.7969zm.71875-5.0312c0 .74219.125 1.2891.375 1.6406.25.34375.55078.51562.90625.51562.33203 0 .625-.17969.875-.54688.25781-.36328.39062-.92188.39062-1.6719s-.125-1.3008-.375-1.6562c-.25-.36328-.55469-.54688-.90625-.54688-.3125 0-.60547.19531-.875.57812-.26172.38672-.39062.94922-.39062 1.6875z"/>
</symbol>
<symbol id="cs" overflow="visible">
<path d="m1.3125 0h-.73438v-7.9062h.79688v2.8125c.16406-.25.35156-.4375.5625-.5625.21875-.13281.45703-.20312.71875-.20312.36328 0 .69531.10938 1 .32812.30078.21875.53906.55469.71875 1 .1875.44922.28125.99219.28125 1.625 0 .96875-.20312 1.7188-.60938 2.25-.40625.52344-.88672.78125-1.4375.78125-.27344 0-.51562-.070312-.73438-.20312-.21875-.14453-.40625-.35938-.5625-.64062zm0-2.9062c0 .59375.050781 1.043.15625 1.3438.10156.29297.25391.51562.45312.67188.19531.14844.41406.21875.65625.21875.33203 0 .625-.17969.875-.54688.25-.375.375-.92578.375-1.6562 0-.75-.125-1.3008-.375-1.6562-.24219-.35156-.53906-.53125-.89062-.53125-.32422 0-.61719.1875-.875.5625-.25.36719-.375.89844-.375 1.5938z"/>
</symbol>
<symbol id="ci" overflow="visible">
<path d="m3.6562 0v-.84375c-.17969.32422-.39062.57031-.64062.73438-.25.15625-.53125.23438-.84375.23438-.36719 0-.68359-.10156-.95312-.29688-.26172-.19531-.4375-.44531-.53125-.75-.085938-.3125-.125-.72656-.125-1.25v-3.5625h.79688v3.1875c0 .58594.023437.98047.078125 1.1875.0625.19922.17188.35938.32812.48438.16406.11719.35156.17188.5625.17188.375 0 .6875-.15625.9375-.46875.20703-.26953.3125-.76562.3125-1.4844v-3.0781h.79688v5.7344z"/>
</symbol>
<symbol id="j" overflow="visible">
<path d="m3.625 0v-.71875c-.13672.27344-.32031.48047-.54688.625-.23047.14453-.47656.21875-.73438.21875-.55469 0-1.0312-.25781-1.4375-.78125-.40625-.51953-.60938-1.2539-.60938-2.2031 0-.65625.085937-1.207.26562-1.6562.1875-.45703.42578-.79688.71875-1.0156.30078-.21875.63281-.32812 1-.32812.26953 0 .51562.074219.73438.21875.22656.13672.41406.32422.5625.5625v-2.8281h.79688v7.9062zm-2.5156-2.8594c0 .74219.125 1.293.375 1.6562.25781.35547.5625.53125.90625.53125s.63281-.17188.875-.51562c.25-.34375.375-.86328.375-1.5625 0-.80078-.125-1.3828-.375-1.75-.24219-.375-.55469-.5625-.9375-.5625-.33594 0-.62109.17969-.85938.53125-.24219.35547-.35938.91406-.35938 1.6719z"/>
</symbol>
<symbol id="cm" overflow="visible">
<path d="m.5625 2.2031-.09375-.90625c.17578.050781.32812.078125.45312.078125.17578 0 .31641-.039062.42188-.10938.11328-.0625.20703-.16797.28125-.3125.019531-.042969.125-.35547.3125-.9375l-1.7969-5.75h.85938l.98438 3.3281c.125.40625.23828.85156.34375 1.3281.082031-.44531.19141-.88281.32812-1.3125l1-3.3438h.79688l-1.7812 5.8281c-.24219.75781-.42969 1.2656-.5625 1.5156-.13672.25-.29297.42969-.46875.54688-.16797.11328-.35547.17188-.5625.17188-.15625 0-.32812-.042969-.51562-.125z"/>
</symbol>
<symbol id="cv" overflow="visible">
<path d="m1.9062 0-1.7969-5.7344h.84375l1.0156 3.4375c.11328.38672.21094.77344.29688 1.1562.070313-.30078.17188-.66406.29688-1.0938l1.0469-3.5h.8125l-1.7812 5.7344z"/>
</symbol>
<symbol id="dt" overflow="visible">
<path d="m2.1094 2.3281c-.39844-.625-.75781-1.3906-1.0781-2.2969-.32422-.90625-.48438-1.875-.48438-2.9062 0-1.7383.51953-3.4609 1.5625-5.1719h.57812c-.40625.84375-.6875 1.5-.84375 1.9688-.14844.46875-.26562.98438-.35938 1.5469-.085937.55469-.125 1.1094-.125 1.6719 0 1.7305.44141 3.457 1.3281 5.1875z"/>
</symbol>
<symbol id="cz" overflow="visible">
<path d="m.67188 0v-7.9062h2.4219c.5 0 .89062.078125 1.1719.23438.28906.14844.52344.38281.70312.70312.1875.32422.28125.68359.28125 1.0781 0 .36719-.078125.69531-.23438.98438-.15625.29297-.38281.52734-.67188.70312.375.13672.67188.37109.89062.70312.21875.32422.32812.72656.32812 1.2031 0 .48047-.10156.90234-.29688 1.2656-.1875.36719-.44922.63281-.78125.79688-.32422.15625-.77344.23438-1.3438.23438zm.85938-4.5781h1.3906c.375 0 .64062-.023437.79688-.078125.21875-.082031.38281-.21094.5-.39062.125-.17578.1875-.41406.1875-.71875 0-.28125-.058594-.51562-.17188-.70312-.10547-.19531-.25-.32812-.4375-.39062-.17969-.070313-.5-.10938-.96875-.10938h-1.2969zm0 3.6406h1.6094c.35156 0 .61328-.03125.78125-.09375.25-.09375.4375-.24219.5625-.45312.125-.21875.1875-.48828.1875-.8125 0-.30078-.0625-.55078-.1875-.75-.11719-.20703-.27734-.35938-.48438-.45312-.21094-.10156-.53125-.15625-.96875-.15625h-1.5z"/>
</symbol>
<symbol id="du" overflow="visible">
<path d="m.90625 2.3281h-.57812c.88281-1.7305 1.3281-3.457 1.3281-5.1875 0-.5625-.046875-1.1172-.14062-1.6719-.085937-.5625-.20312-1.0781-.35938-1.5469-.14844-.46875-.42188-1.125-.82812-1.9688h.57812c1.0391 1.7109 1.5625 3.4336 1.5625 5.1719 0 1.0117-.15625 1.9688-.46875 2.875-.3125.89453-.67969 1.6719-1.0938 2.3281z"/>
</symbol>
<symbol id="di" overflow="visible">
<path d="m.85938 0v-7.9062h.85938v7.9062z"/>
</symbol>
<symbol id="dj" overflow="visible">
<path d="m3.5781 2.2031v-2.8125c-.125.21875-.30469.39844-.53125.53125-.21875.13281-.44531.20312-.67188.20312-.5625 0-1.0547-.26562-1.4688-.79688-.40625-.53125-.60938-1.2812-.60938-2.25 0-.84375.17188-1.5391.51562-2.0938.35156-.5625.84375-.84375 1.4688-.84375.28906 0 .55078.078125.78125.23438.22656.14844.42578.36719.59375.65625v-.76562h.71875v7.9375zm-2.4688-5.0781c0 .74219.12891 1.293.39062 1.6562.25781.36719.57031.54688.9375.54688.3125 0 .59375-.17188.84375-.51562.25-.35156.375-.87891.375-1.5781 0-.78125-.13281-1.3633-.39062-1.75-.26172-.38281-.57422-.57812-.9375-.57812-.32422 0-.60938.18359-.85938.54688-.24219.35547-.35938.91406-.35938 1.6719z"/>
</symbol>
<symbol id="dk" overflow="visible">
<path d="m.42188-6.875v-.9375h4.1875v.76562c-.625.8125-1.1797 1.8711-1.6562 3.1719-.46875 1.3047-.74219 2.5938-.8125 3.875h-.8125c.00781-.66406.11328-1.4375.3125-2.3125.19531-.88281.46875-1.7227.8125-2.5156.35156-.80078.73438-1.4844 1.1406-2.0469z"/>
</symbol>
<symbol id="dv" overflow="visible">
<path d="m.28125-2.375v-.96875h2.4531v.96875z"/>
</symbol>
<symbol id="cl" overflow="visible">
<path d="m.35938-3.9062c0-1.3203.17578-2.3203.53125-3 .36328-.6875.89453-1.0312 1.5938-1.0312.61328 0 1.0977.27734 1.4531.82812.4375.66797.65625 1.7344.65625 3.2031 0 1.3242-.18359 2.3281-.54688 3.0156-.35547.6875-.88281 1.0312-1.5781 1.0312-.61719 0-1.1211-.30078-1.5156-.90625-.39844-.60156-.59375-1.6484-.59375-3.1406zm.8125 0c0 1.293.125 2.1562.375 2.5938s.5625.65625.9375.65625c.36328 0 .66406-.21875.90625-.65625.25-.44531.375-1.3125.375-2.5938s-.125-2.1406-.375-2.5781c-.24219-.4375-.55859-.65625-.95312-.65625-.35547 0-.65625.22656-.90625.67188-.24219.4375-.35938 1.293-.35938 2.5625z"/>
</symbol>
<symbol id="cn" overflow="visible">
<path d="m.0625 0 1.7188-2.9844-1.5938-2.75h1l.71875 1.3438c.13281.25.24219.46484.32812.64062.13281-.23828.25391-.44531.35938-.625l.79688-1.3594h.95312l-1.625 2.7031 1.7344 3.0312h-.96875l-.96875-1.7812-.25-.48438-1.2344 2.2656z"/>
</symbol>
<symbol id="da" overflow="visible">
<path d="m.35938-2.0938.8125-.125c.15625 1.043.57031 1.5625 1.25 1.5625.36328 0 .67578-.14844.9375-.45312.26953-.3125.40625-.71094.40625-1.2031 0-.46875-.125-.83594-.375-1.1094-.24219-.28125-.53906-.42188-.89062-.42188-.15625 0-.34375.03125-.5625.09375l.09375-.84375.125.015625c.38281 0 .69531-.11719.9375-.35938.25-.25.375-.57031.375-.96875 0-.375-.10547-.67188-.3125-.89062-.19922-.22656-.44531-.34375-.73438-.34375-.3125 0-.57422.12109-.78125.35938-.21094.23047-.34375.58594-.40625 1.0625l-.78125-.17188c.09375-.67578.31641-1.1875.67188-1.5312.35156-.34375.78125-.51562 1.2812-.51562.51953 0 .96094.19531 1.3281.57812.375.38672.5625.875.5625 1.4688 0 .36719-.078125.6875-.23438.96875-.15625.27344-.375.48438-.65625.64062.25781.074219.47266.19531.64062.35938.16406.16797.30078.39062.40625.67188.10156.27344.15625.57812.15625.92188 0 .71875-.21484 1.3125-.64062 1.7812-.42969.46094-.9375.6875-1.5312.6875-.55469 0-1.0234-.19531-1.4062-.59375-.38672-.40625-.60938-.95312-.67188-1.6406z"/>
</symbol>
<symbol id="cx" overflow="visible">
<path d="m1.5781-4.2812c-.3125-.14453-.55469-.35156-.71875-.625-.16797-.26953-.25-.60156-.25-1 0-.60156.17578-1.0938.53125-1.4688.35156-.375.80078-.5625 1.3438-.5625.53906 0 .98828.19531 1.3438.57812.35156.38672.53125.88281.53125 1.4844 0 .38672-.078125.71094-.23438.96875-.15625.26172-.39844.46875-.71875.625.39453.14844.69531.39844.90625.75.20703.34375.3125.77344.3125 1.2812 0 .69922-.20312 1.2734-.60938 1.7188-.40625.44922-.91406.67188-1.5156.67188-.61719 0-1.125-.22266-1.5312-.67188-.40625-.44531-.60938-1.0312-.60938-1.75 0-.53125.10938-.96875.32812-1.3125s.51562-.57031.89062-.6875zm-.14062-1.6562c0 .39844.097656.71094.29688.9375.20703.23047.46094.34375.76562.34375.28906 0 .53516-.11328.73438-.34375.20703-.22656.3125-.51953.3125-.875 0-.375-.10547-.67578-.3125-.90625-.21094-.23828-.46094-.35938-.75-.35938-.28125 0-.52734.11719-.73438.34375-.21094.23047-.3125.51562-.3125.85938zm-.26562 3.6562c0 .49219.12891.88672.39062 1.1875.25781.29297.57031.4375.9375.4375.36328 0 .67188-.14453.92188-.4375.25781-.28906.39062-.67578.39062-1.1562 0-.48828-.13281-.87891-.39062-1.1719-.26172-.30078-.57812-.45312-.95312-.45312-.35547 0-.66406.15234-.92188.45312-.25.29297-.375.67188-.375 1.1406z"/>
</symbol>
<symbol id="cy" overflow="visible">
<path d="m.70312 0v-7.9062h2.875c.59375 0 1.0312.074219 1.3125.21875.28906.14844.52344.39062.70312.73438.1875.34375.28125.74609.28125 1.2031 0 .59375-.15625 1.0781-.46875 1.4531-.30469.36719-.75.60156-1.3438.70312.23828.14844.42188.29297.54688.4375.25.30469.47266.63672.67188 1l1.125 2.1562h-1.0781l-.85938-1.6406c-.33594-.64453-.58984-1.0781-.76562-1.2969-.16797-.22656-.32812-.37891-.48438-.45312-.15625-.082031-.38281-.125-.67188-.125h-1v3.5156zm.84375-4.4219h1.8438c.40625 0 .71094-.046875.92188-.14062.20703-.09375.375-.24219.5-.45312.125-.20703.1875-.45312.1875-.73438 0-.39453-.12109-.70703-.35938-.9375-.23047-.22656-.57422-.34375-1.0312-.34375h-2.0625z"/>
</symbol>
<symbol id="dw" overflow="visible">
<path d="m.84375-4.625v-1.1094h.90625v1.1094zm0 4.625v-1.1094h.90625v1.1094z"/>
</symbol>
<symbol id="ct" overflow="visible">
<path d="m3.3594 0h-.79688v-6.1875c-.1875.21875-.4375.44531-.75.67188-.30469.21875-.58594.38672-.84375.5v-.9375c.4375-.25.82031-.55469 1.1562-.92188.34375-.36328.58203-.71875.71875-1.0625h.51562z"/>
</symbol>
<symbol id="db" overflow="visible">
<path d="m.60938 0v-7.9062h.78125v4.5156l1.8906-2.3438h1.0312l-1.7969 2.125 1.9844 3.6094h-.98438l-1.5625-2.9219-.5625.65625v2.2656z"/>
</symbol>
<symbol id="dl" overflow="visible">
<path d="m.67188 0v-7.9062h.85938v3.9219l3.2188-3.9219h1.1562l-2.7188 3.2031 2.8438 4.7031h-1.1406l-2.2969-4-1.0625 1.2656v2.7344z"/>
</symbol>
<symbol id="dx" overflow="visible">
<path d="m5.6562-4.1094-5.2344 2.2344v-.96875l4.1406-1.7188-4.1406-1.6875v-.98438l5.2344 2.2188zm-.015625 3.5312h-5.2188v-.89062h5.2188z"/>
</symbol>
<symbol id="dm" overflow="visible">
<path d="m.17188 0v-.78125l3-4.1875c-.34375.023438-.64844.03125-.90625.03125h-1.9062v-.79688h3.8438v.64062l-2.5469 3.6406-.5.67188c.35156-.039062.6875-.0625 1-.0625h2.1875v.84375z"/>
</symbol>
<symbol id="dy" overflow="visible">
<path d="m.71875 0v-7.9062h4.6875v.9375h-3.8281v2.4219h3.5781v.92188h-3.5781v2.6875h3.9844v.9375z"/>
</symbol>
<symbol id="dz" overflow="visible">
<path d="m.70312 0v-7.9062h2.4375c.57031 0 1 .054688 1.2812.15625.375.13672.67188.39062.89062.76562.21875.36719.32812.82031.32812 1.3594 0 .71094-.18359 1.2891-.54688 1.7344-.35547.44922-.98047.67188-1.875.67188h-1.6562v3.2188zm.85938-4.1406h1.6719c.53125 0 .91406-.11719 1.1562-.35938.25-.23828.375-.60156.375-1.0938 0-.3125-.0625-.57812-.1875-.79688-.11719-.21875-.26172-.36719-.4375-.45312-.16797-.082031-.47656-.125-.92188-.125h-1.6562z"/>
</symbol>
<symbol id="dn" overflow="visible">
<path d="m.8125-4.625v-1.1094h.90625v1.1094zm0 4.625v-1.1094h.90625v1.1094c0 .42578-.0625.75781-.1875 1-.125.25-.30859.4375-.54688.5625l-.21875-.40625c.16406-.09375.28516-.23047.35938-.40625.082031-.16797.12891-.41797.14062-.75z"/>
</symbol>
<symbol id="ea" overflow="visible">
<path d="m4.5625-.9375v.9375h-4.2969c-.011719-.375.10156-.79688.34375-1.2656.23828-.46875.67578-1.0195 1.3125-1.6562.75-.73828 1.2383-1.3125 1.4688-1.7188.22656-.40625.34375-.78125.34375-1.125 0-.40625-.12109-.73438-.35938-.98438-.23047-.25781-.51562-.39062-.85938-.39062-.375 0-.68359.14062-.92188.42188-.24219.27344-.35938.66406-.35938 1.1719l-.8125-.10938c.050781-.75781.26562-1.3281.64062-1.7031.375-.38281.86328-.57812 1.4688-.57812.66406 0 1.1641.22656 1.5.67188.34375.4375.51562.94531.51562 1.5156 0 .5-.13672.98438-.40625 1.4531-.26172.46094-.76562 1.0742-1.5156 1.8438-.46875.49219-.77734.82422-.92188 1-.13672.16797-.24609.33984-.32812.51562z"/>
</symbol>
<symbol id="eb" overflow="visible">
<path d="m.625 2.2031v-10.109h1.7656v.79688h-.96875v8.5h.96875v.8125z"/>
</symbol>
<symbol id="ec" overflow="visible">
<path d="m1.9531 2.2031h-1.7656v-.8125h.96875v-8.5h-.96875v-.79688h1.7656z"/>
</symbol>
<symbol id="ed" overflow="visible">
<path d="m2.9062 0v-1.8906h-2.7969v-.89062l2.9531-5.125h.65625v5.125h.875v.89062h-.875v1.8906zm0-2.7812v-3.5625l-2.0156 3.5625z"/>
</symbol>
<symbol id="ee" overflow="visible">
<path d="m.67188 0v-7.9062h.875l3.4219 6.2031v-6.2031h.8125v7.9062h-.875l-3.4062-6.2188v6.2188z"/>
</symbol>
<symbol id="do" overflow="visible">
<path d="m.76562 0v-7.9062h4.375v.9375h-3.5156v2.4375h3.0312v.9375h-3.0312v3.5938z"/>
</symbol>
<symbol id="ef" overflow="visible">
<path d="m.35938-2.0781.84375-.078125c.0625.5.20703.875.4375 1.125.22656.25.49219.375.79688.375.375 0 .69531-.17188.96875-.51562.26953-.35156.40625-.83203.40625-1.4375 0-.5625-.13281-1-.39062-1.3125-.26172-.3125-.59375-.46875-1-.46875-.24219 0-.46484.070313-.67188.20312-.21094.13672-.375.32422-.5.5625l-.75-.10938.625-4.0625h3.2344v.92188h-2.5938l-.34375 2.125c.38281-.33203.78906-.5 1.2188-.5.53906 0 1.0078.23438 1.4062.70312.40625.46094.60938 1.0781.60938 1.8594s-.20312 1.4492-.60938 2c-.39844.55469-.93359.82812-1.6094.82812-.55469 0-1.0273-.19141-1.4219-.57812-.38672-.39453-.60547-.94141-.65625-1.6406z"/>
</symbol>
<symbol id="eg" overflow="visible">
<path d="m.39062-6.3906v-1.4062h4.25v1.0938c-.35547.42969-.71484 1.0273-1.0781 1.7969-.35547.77344-.63281 1.6055-.82812 2.5-.1875.88672-.28125 1.6875-.28125 2.4062h-1.2031c.03125-1.125.21875-2.2422.5625-3.3594.34375-1.1133.80469-2.125 1.3906-3.0312z"/>
</symbol>
<symbol id="eo" overflow="visible">
<path d="m.65625 0v-1.5156h1.25v1.5156z"/>
</symbol>
<symbol id="ep" overflow="visible">
<path d="m.32812-2.5781 1.2812-.14062c.14453 1.0117.61328 1.5156 1.4062 1.5156.39453 0 .70703-.10156.9375-.3125.22656-.20703.34375-.46094.34375-.76562 0-.1875-.042969-.34375-.125-.46875-.074219-.125-.19531-.22266-.35938-.29688-.15625-.082031-.54688-.22266-1.1719-.42188-.5625-.16406-.97656-.34766-1.2344-.54688-.25-.19531-.45312-.45703-.60938-.78125-.15625-.32031-.23438-.66406-.23438-1.0312 0-.4375.097656-.82812.29688-1.1719.19531-.34375.46875-.60156.8125-.78125.34375-.17578.76953-.26562 1.2812-.26562.75781 0 1.3516.21094 1.7812.625.42578.41797.65625 1.0117.6875 1.7812l-1.3125.0625c-.0625-.42578-.1875-.72266-.375-.89062-.1875-.16406-.46094-.25-.8125-.25-.35547 0-.63281.074219-.82812.21875-.1875.14844-.28125.32812-.28125.54688s.085938.40234.26562.54688c.16406.14844.5625.30859 1.1875.48438.65625.1875 1.1289.39062 1.4219.60938.30078.21094.52344.48047.67188.8125.15625.33594.23438.73438.23438 1.2031 0 .6875-.21484 1.2656-.64062 1.7344-.41797.46875-1.0742.70312-1.9688.70312-1.5938 0-2.4805-.90625-2.6562-2.7188z"/>
</symbol>
<symbol id="dd" overflow="visible">
<path d="m3.375-1.8281 1.2344.26562c-.16797.57422-.42969 1-.78125 1.2812-.34375.27344-.76562.40625-1.2656.40625-.6875 0-1.2266-.22656-1.6094-.6875-.4375-.53906-.65625-1.2969-.65625-2.2656 0-.95703.22266-1.7227.67188-2.2969.375-.48828.86328-.73438 1.4688-.73438.67578 0 1.207.25 1.5938.75.4375.5625.65625 1.4023.65625 2.5156l-.015625.17188h-3.1094c.007812.44922.10938.79688.29688 1.0469.19531.25.4375.375.71875.375.39453 0 .66016-.27344.79688-.82812zm.078125-1.5312c-.011719-.44531-.10938-.78125-.29688-1-.17969-.22656-.39062-.34375-.64062-.34375-.26172 0-.48047.12109-.65625.35938-.1875.24219-.28125.57031-.28125.98438z"/>
</symbol>
<symbol id="dq" overflow="visible">
<path d="m4.9219 0h-1.25v-2.9219c0-.58203-.027344-.97266-.078125-1.1719-.042969-.19531-.125-.34766-.25-.45312-.125-.10156-.27344-.15625-.4375-.15625-.21094 0-.39844.070313-.5625.20312-.16797.13672-.28906.32422-.35938.5625-.0625.24219-.09375.6875-.09375 1.3438v2.5938h-1.25v-5.7344h1.1562v.84375c.20703-.32031.4375-.5625.6875-.71875.25781-.16406.54688-.25.85938-.25.36328 0 .67188.09375.92188.28125s.42188.43359.51562.73438c.09375.29297.14062.71875.14062 1.2812z"/>
</symbol>
<symbol id="eq" overflow="visible">
<path d="m4.9688 0h-1.1719v-.84375c-.1875.32422-.41406.57031-.67188.73438-.26172.15625-.52734.23438-.79688.23438-.52344 0-.98047-.25781-1.375-.78125-.38672-.51953-.57812-1.2656-.57812-2.2344 0-.97656.1875-1.7188.5625-2.2188.38281-.5.85938-.75 1.4219-.75.25781 0 .50391.070313.73438.20312.22656.13672.4375.33594.625.59375v-2.8438h1.25zm-3.3281-2.9844c0 .51172.039063.89844.125 1.1562.09375.25.22266.44531.39062.57812.16406.125.34766.1875.54688.1875.28125 0 .51953-.14453.71875-.4375.19531-.30078.29688-.75.29688-1.3438 0-.65625-.10156-1.1289-.29688-1.4219-.1875-.28906-.43359-.4375-.73438-.4375-.29297 0-.54297.14844-.75.4375-.19922.28125-.29688.71094-.29688 1.2812z"/>
</symbol>
<symbol id="dr" overflow="visible">
<path d="m.35938-2.9375c0-.5625.10938-1.0703.32812-1.5312.22656-.46875.51953-.81641.875-1.0469.36328-.22656.76953-.34375 1.2188-.34375.75781 0 1.3516.29688 1.7812.89062.42578.59375.64062 1.2891.64062 2.0781 0 .58594-.11719 1.1172-.34375 1.5938-.21875.46875-.51172.82422-.875 1.0625-.36719.23828-.76562.35938-1.2031.35938-.6875 0-1.2656-.26562-1.7344-.79688-.46094-.53125-.6875-1.2852-.6875-2.2656zm1.2812.078125c0 .57422.10938 1.0117.32812 1.3125.22656.29297.50391.4375.82812.4375.3125 0 .57812-.14453.79688-.4375.22656-.30078.34375-.74219.34375-1.3281 0-.57031-.11719-1.0039-.34375-1.2969-.23047-.30078-.5-.45312-.8125-.45312s-.58594.15234-.8125.45312c-.21875.29297-.32812.73047-.32812 1.3125z"/>
</symbol>
<symbol id="eh" overflow="visible">
<path d="m1.5781-3.9844-1.125-.25c.13281-.57031.35938-.98438.67188-1.2344.32031-.25781.77344-.39062 1.3594-.39062.53125 0 .92969.074219 1.2031.21875.28125.14844.47656.35156.59375.60938.11328.25.17188.71094.17188 1.375v1.7812c0 .49219.015625.85938.046875 1.1094.039062.24219.11719.49609.23438.76562h-1.2344l-.15625-.625c-.21875.25-.44922.4375-.6875.5625-.24219.125-.5.1875-.78125.1875-.44922 0-.82031-.14844-1.1094-.45312-.29297-.3125-.4375-.72266-.4375-1.2344 0-.32031.054687-.60156.17188-.84375.11328-.23828.28125-.42969.5-.57812.21875-.14453.5625-.26953 1.0312-.375.58203-.13281.98438-.25781 1.2031-.375 0-.32031-.023437-.53125-.0625-.625-.042969-.10156-.125-.1875-.25-.25-.11719-.0625-.28125-.09375-.5-.09375-.23047 0-.40625.054687-.53125.15625-.125.10547-.23047.29297-.3125.5625zm1.6562 1.2344c-.15625.0625-.40234.13672-.73438.21875-.38672.10547-.63672.21875-.75.34375-.125.125-.1875.28125-.1875.46875 0 .21875.066406.40625.20312.5625.13281.14844.30078.21875.5.21875.17578 0 .34766-.054688.51562-.17188.17578-.125.29688-.26953.35938-.4375.0625-.16406.09375-.46875.09375-.90625z"/>
</symbol>
<symbol id="ei" overflow="visible">
<path d="m2.8281 0v-1.5938h-2.6562v-1.3281l2.8125-5.0156h1.0469v5.0156h.79688v1.3281h-.79688v1.5938zm0-2.9219v-2.7031l-1.5 2.7031z"/>
</symbol>
<symbol id="dc" overflow="visible">
<path d="m.21875-1.6406 1.25-.21875c.10156.59375.4375.89062 1 .89062.28906 0 .50781-.054688.65625-.17188.15625-.11328.23438-.25781.23438-.4375 0-.13281-.03125-.23438-.09375-.29688-.074219-.070312-.21094-.14062-.40625-.20312-1.0234-.25781-1.6719-.51562-1.9531-.76562-.34375-.30078-.51562-.71875-.51562-1.25s.16406-.95703.5-1.2812c.34375-.32031.83594-.48438 1.4844-.48438.61328 0 1.0781.12109 1.3906.35938.32031.24219.54688.625.67188 1.1562l-1.1562.26562c-.10547-.45703-.40234-.6875-.89062-.6875-.30469 0-.52344.046875-.65625.14062-.125.085938-.1875.19531-.1875.32812 0 .125.054687.23047.17188.3125.125.09375.49219.22656 1.1094.39062.69531.19922 1.1641.43359 1.4062.70312.25.28125.375.65234.375 1.1094 0 .55469-.19531 1.0117-.57812 1.375-.375.35547-.89844.53125-1.5625.53125-.61719 0-1.1172-.14453-1.5-.4375-.375-.30078-.625-.74219-.75-1.3281z"/>
</symbol>
<symbol id="dp" overflow="visible">
<path d="m1.8438 0h-1.25v-5.7344h1.1562v.82812c.19531-.38281.375-.64062.53125-.76562s.33594-.1875.54688-.1875c.28125 0 .55078.09375.8125.28125l-.39062 1.3281c-.21094-.16406-.40234-.25-.57812-.25-.17969 0-.33594.070312-.46875.20312-.125.125-.21875.35547-.28125.6875-.054687.33594-.078125.94922-.078125 1.8438z"/>
</symbol>
<symbol id="ej" overflow="visible">
<path d="m.65625 0v-7.9062h2.7656c.70703 0 1.2109.074219 1.5156.21875.30078.13672.54688.38281.73438.73438.19531.35547.29688.77344.29688 1.25 0 .625-.15234 1.125-.45312 1.5-.29297.375-.71484.61719-1.2656.71875.28125.19922.51562.41797.70312.65625.1875.24219.4375.66797.75 1.2812l.78125 1.5469h-1.5469l-.95312-1.7188c-.34375-.625-.57812-1.0156-.70312-1.1719s-.25781-.25781-.39062-.3125c-.13672-.0625-.35547-.09375-.65625-.09375h-.26562v3.2969zm1.3125-4.5625h.96875c.59375 0 .96875-.023438 1.125-.078125.16406-.050781.30078-.15625.40625-.3125.10156-.15625.15625-.36719.15625-.64062 0-.25-.054688-.44531-.15625-.59375-.10547-.15625-.24219-.26562-.40625-.32812-.125-.03125-.48047-.046875-1.0625-.046875h-1.0312z"/>
</symbol>
<symbol id="ek" overflow="visible">
<path d="m.65625-6.5v-1.4062h1.25v1.4062zm0 6.5v-5.7344h1.25v5.7344z"/>
</symbol>
<symbol id="el" overflow="visible">
<path d="m.53125.375 1.4219.21875c.019531.20703.082031.35156.1875.4375.11328.09375.28906.14062.53125.14062.26953 0 .49219-.046875.67188-.14062.11328-.0625.20312-.17188.26562-.32812.070313-.14844.10938-.41406.10938-.79688v-.82812c-.1875.30469-.40234.53125-.64062.6875-.23047.15625-.49219.23438-.78125.23438-.52344 0-.96094-.23438-1.3125-.70312-.40625-.53906-.60938-1.2695-.60938-2.1875 0-.97656.19141-1.7188.57812-2.2188.38281-.5.85156-.75 1.4062-.75.28906 0 .55469.078125.79688.23438.23828.15625.45312.39062.64062.70312v-.8125h1.1562v5.1406c0 .82031-.078125 1.4219-.23438 1.7969-.14844.375-.375.65625-.6875.84375s-.75.28125-1.3125.28125c-.51172 0-.92188-.070313-1.2344-.20312-.30469-.13672-.53906-.34375-.70312-.625-.16797-.27344-.25-.58594-.25-.9375zm1.1094-3.3594c0 .61719.097656 1.0625.29688 1.3438.19531.28125.4375.42188.71875.42188.28906 0 .53906-.14062.75-.42188.21875-.28906.32812-.72266.32812-1.2969 0-.60156-.10547-1.0469-.3125-1.3281-.19922-.28906-.44922-.4375-.75-.4375-.29297 0-.53906.14062-.73438.42188-.19922.28125-.29688.71484-.29688 1.2969z"/>
</symbol>
<symbol id="em" overflow="visible">
<path d="m.65625 0v-7.9062h2.1094c.78125 0 1.2891.039062 1.5312.10938.38281.125.70312.39062.95312.79688.25.39844.375.90625.375 1.5312 0 .57422-.10938 1.0547-.32812 1.4375-.21094.38672-.48047.65625-.8125.8125-.32422.15625-.875.23438-1.6562.23438h-.85938v2.9844zm1.3125-6.5625v2.2344h.71875c.48828 0 .81641-.03125.98438-.09375.17578-.070313.31641-.19531.42188-.375.11328-.17578.17188-.39453.17188-.65625 0-.25781-.058594-.47656-.17188-.65625-.11719-.1875-.25781-.30469-.42188-.35938-.16797-.0625-.52734-.09375-1.0781-.09375z"/>
</symbol>
<symbol id="en" overflow="visible">
<path d="m4.75-4.0312-1.2344.26562c-.085937-.60156-.36719-.90625-.84375-.90625-.30469 0-.54688.13281-.73438.39062-.1875.26172-.28125.69922-.28125 1.3125 0 .67969.09375 1.1562.28125 1.4375s.4375.42188.75.42188c.22656 0 .41406-.078125.5625-.23438.15625-.15625.26953-.44141.34375-.85938l1.2188.26562c-.25 1.375-.97656 2.0625-2.1719 2.0625-.77344 0-1.3438-.28906-1.7188-.875-.36719-.58203-.54688-1.2812-.54688-2.0938 0-.98828.20703-1.7383.625-2.25.42578-.50781.97656-.76562 1.6562-.76562.55078 0 1 .14844 1.3438.4375.34375.29297.59375.75781.75 1.3906z"/>
</symbol>
<symbol id="ds" overflow="visible">
<path d="m6.5-2.7656 1.0469.25c-.21875.86719-.61719 1.5273-1.1875 1.9844-.57422.44922-1.2734.67188-2.0938.67188-.85547 0-1.5469-.17188-2.0781-.51562-.53125-.35156-.9375-.85938-1.2188-1.5156s-.42188-1.3633-.42188-2.125c0-.82031.15625-1.5391.46875-2.1562.32031-.61328.76953-1.0781 1.3438-1.3906.58203-.32031 1.2227-.48438 1.9219-.48438.78906 0 1.457.20312 2 .60938.53906.40625.91406.97656 1.125 1.7031l-1.0312.23438c-.1875-.57031-.46094-.98828-.8125-1.25-.34375-.25781-.77734-.39062-1.2969-.39062-.61719 0-1.125.14844-1.5312.4375-.40625.29297-.69531.68359-.85938 1.1719-.16797.49219-.25.99609-.25 1.5156 0 .66797.097656 1.2578.29688 1.7656.19531.5.5.875.90625 1.125.41406.24219.86719.35938 1.3594.35938.58203 0 1.0781-.16406 1.4844-.5.40625-.34375.67969-.84375.82812-1.5z"/>
</symbol>
<symbol id="er" overflow="visible">
<path d="m.875 0v-7.9062h3.5c.70703 0 1.2422.074219 1.6094.21875.36328.13672.65625.38672.875.75.21875.35547.32812.75.32812 1.1875 0 .5625-.18359 1.0391-.54688 1.4219-.36719.38672-.92188.63281-1.6719.73438.26953.13672.47656.26562.625.39062.30078.28125.59375.63281.875 1.0469l1.375 2.1562h-1.3281l-1.0469-1.6406c-.30469-.47656-.55469-.84375-.75-1.0938-.19922-.25-.375-.42578-.53125-.53125-.15625-.10156-.3125-.17188-.46875-.20312-.125-.03125-.32422-.046875-.59375-.046875h-1.2031v3.5156zm1.0469-4.4219h2.25c.46875 0 .83594-.046875 1.1094-.14062.26953-.10156.47266-.25781.60938-.46875.14453-.21875.21875-.45703.21875-.71875 0-.375-.13672-.67969-.40625-.92188-.27344-.23828-.69922-.35938-1.2812-.35938h-2.5z"/>
</symbol>
<symbol id="es" overflow="visible">
<path d="m.75 2.2031v-10.109h2.1406v.79688h-1.1719v8.5h1.1719v.8125z"/>
</symbol>
<symbol id="et" overflow="visible">
<path d="m.51562-6.875v-.9375h5.125v.76562c-.5.53125-1 1.2461-1.5 2.1406-.49219.88672-.87109 1.7969-1.1406 2.7344-.19922.65625-.32422 1.3828-.375 2.1719h-1c.007812-.625.12891-1.375.35938-2.25.23828-.88281.57812-1.7344 1.0156-2.5469.4375-.82031.89844-1.5156 1.3906-2.0781z"/>
</symbol>
<symbol id="eu" overflow="visible">
<path d="m1-4.625v-1.1094h1.1094v1.1094zm0 4.625v-1.1094h1.1094v1.1094z"/>
</symbol>
<symbol id="ev" overflow="visible">
<path d="m.45312-3.9062c0-.92578.09375-1.6758.28125-2.25.19531-.57031.48438-1.0078.85938-1.3125.38281-.3125.86328-.46875 1.4375-.46875.42578 0 .80078.089844 1.125.26562.32031.16797.58594.41406.79688.73438.20703.3125.36719.70312.48438 1.1719.11328.46094.17188 1.0781.17188 1.8594 0 .92969-.09375 1.6797-.28125 2.25-.1875.57422-.47656 1.0156-.85938 1.3281-.375.3125-.85547.46875-1.4375.46875-.76172 0-1.3594-.27344-1.7969-.82812-.52344-.65625-.78125-1.7266-.78125-3.2188zm1 0c0 1.3047.14844 2.1719.45312 2.6094.3125.42969.6875.64062 1.125.64062.44531 0 .82031-.21094 1.125-.64062.3125-.4375.46875-1.3047.46875-2.6094 0-1.3008-.15625-2.1641-.46875-2.5938-.30469-.42578-.67969-.64062-1.125-.64062-.44922 0-.80859.19531-1.0781.57812-.33594.48047-.5 1.3672-.5 2.6562z"/>
</symbol>
<symbol id="ew" overflow="visible">
<path d="m2.3594 2.2031h-2.1562v-.8125h1.1719v-8.5h-1.1719v-.79688h2.1562z"/>
</symbol>
<symbol id="ex" overflow="visible">
<path d="m5.8438-4.6562h-5.2344v-.90625h5.2344zm0 2.4062h-5.2344v-.90625h5.2344z"/>
</symbol>
<symbol id="ey" overflow="visible">
<path d="m4.1094 0h-.96875v-6.1875c-.23047.21875-.53906.44531-.92188.67188-.375.21875-.71484.38672-1.0156.5v-.9375c.53906-.25781 1.0156-.56641 1.4219-.92188.40625-.36328.69141-.71875.85938-1.0625h.625z"/>
</symbol>
<symbol id="de" overflow="visible">
<path d="m2.7656-1.2812v-2.1719h-2.1562v-.90625h2.1562v-2.1406h.92188v2.1406h2.1562v.90625h-2.1562v2.1719z"/>
</symbol>
<symbol id="df" overflow="visible">
<path d="m.046875 0 3.0625-4.125-2.7031-3.7812h1.25l1.4375 2.0312c.28906.41797.50391.74219.64062.96875.16406-.28906.375-.59375.625-.90625l1.5781-2.0938h1.1406l-2.7812 3.7188 3 4.1875h-1.2969l-1.9844-2.8281c-.11719-.15625-.23047-.32812-.34375-.51562-.17969.28125-.30469.48047-.375.59375l-1.9844 2.75z"/>
</symbol>
<symbol id="ez" overflow="visible">
<path d="m2.2969 0v-1.2188h-2.2031v-.5625l2.3125-3.2969h.51562v3.2969h.6875v.5625h-.6875v1.2188zm0-1.7812v-2.2969l-1.5938 2.2969z"/>
</symbol>
<symbol id="fa" overflow="visible">
<path d="m.29688-1.3281.65625-.0625c.039063.32422.14844.57031.32812.73438.17578.15625.39062.23438.64062.23438.30078 0 .55469-.11328.76562-.34375.20703-.22656.3125-.53125.3125-.90625 0-.35156-.10156-.62891-.29688-.82812-.19922-.20703-.46094-.3125-.78125-.3125-.21094 0-.39844.046875-.5625.14062-.15625.085937-.28125.19922-.375.34375l-.57812-.078125.48438-2.6094h2.5312v.60938h-2.0312l-.26562 1.3594c.30078-.20703.61719-.3125.95312-.3125.44531 0 .82031.15234 1.125.45312.30078.30469.45312.69922.45312 1.1875 0 .46094-.13281.85547-.39062 1.1875-.33594.41797-.78125.625-1.3438.625-.46094 0-.83594-.12891-1.125-.39062-.29297-.25781-.46094-.60156-.5-1.0312z"/>
</symbol>
<symbol id="fb" overflow="visible">
<path d="m1.25-2.75c-.26172-.09375-.45312-.22656-.57812-.40625-.125-.17578-.1875-.39062-.1875-.64062 0-.36328.12891-.67188.39062-.92188.26953-.25.62891-.375 1.0781-.375.4375 0 .78906.13281 1.0625.39062.26953.25.40625.5625.40625.9375 0 .23047-.0625.43359-.1875.60938-.11719.17969-.30469.3125-.5625.40625.3125.10547.55078.27344.71875.5.16406.21875.25.48438.25.79688 0 .4375-.15625.80859-.46875 1.1094-.30469.29297-.71094.4375-1.2188.4375-.5 0-.90625-.14453-1.2188-.4375-.30469-.30078-.45312-.67578-.45312-1.125 0-.33203.082031-.60938.25-.82812.17578-.21875.41406-.36719.71875-.45312zm-.125-1.0625c0 .24219.078125.4375.23438.59375.15625.14844.35938.21875.60938.21875.23828 0 .42969-.070312.57812-.21875.15625-.15625.23438-.34375.23438-.5625 0-.22656-.078125-.42188-.23438-.57812s-.35547-.23438-.59375-.23438c-.24219 0-.4375.078125-.59375.23438s-.23438.33984-.23438.54688zm-.20312 2.3438c0 .17969.039063.35156.125.51562.09375.16797.22266.29688.39062.39062.16406.09375.34375.14062.53125.14062.30078 0 .54688-.09375.73438-.28125.19531-.19531.29688-.44141.29688-.73438 0-.30078-.10547-.55078-.3125-.75-.19922-.19531-.44531-.29688-.73438-.29688-.30469 0-.55469.10156-.75.29688-.1875.1875-.28125.42969-.28125.71875z"/>
</symbol>
</defs>
<rect x="2.9999" y="2.9999" width="704" height="334" fill="#ffffff" fill-rule="evenodd" stroke="#000000" stroke-linecap="round" stroke-width=".99974"/>
<g transform="matrix(1.4994 0 0 1.4994 -92.302 -640.85)" stroke-width="1.0004">
<g fill="#000000">
<use x="68.158997" y="441.409" stroke-width="1.0004" xlink:href="#eg"/>
<use x="73.198845" y="441.409" xlink:href="#eo"/>
<use x="75.718246" y="441.409" xlink:href="#ei"/>
<g stroke-width="1.0004">
<use x="83.158875" y="441.409" xlink:href="#ep"/>
<use x="89.158875" y="441.409" xlink:href="#dd"/>
<use x="94.198715" y="441.409" xlink:href="#dq"/>
<use x="99.718246" y="441.409" xlink:href="#dc"/>
<use x="104.75808" y="441.409" xlink:href="#dr"/>
<use x="110.27762" y="441.409" xlink:href="#dp"/>
<use x="116.27995" y="441.409" xlink:href="#ej"/>
<use x="122.75964" y="441.409" xlink:href="#dd"/>
<use x="127.79948" y="441.409" xlink:href="#eh"/>
<use x="132.83931" y="441.409" xlink:href="#eq"/>
</g>
<use x="138.35884" y="441.409" xlink:href="#ek"/>
<use x="140.87823" y="441.409" xlink:href="#dq"/>
<g stroke-width="1.0004">
<use x="146.39778" y="441.409" xlink:href="#el"/>
<use x="154.31966" y="441.409" xlink:href="#em"/>
<use x="160.31966" y="441.409" xlink:href="#dp"/>
<use x="163.79933" y="441.409" xlink:href="#dr"/>
<use x="169.31886" y="441.409" xlink:href="#en"/>
<use x="174.3587" y="441.409" xlink:href="#dd"/>
<use x="179.39854" y="441.409" xlink:href="#dc"/>
<use x="184.43839" y="441.409" xlink:href="#dc"/>
</g>
</g>
<g fill="#ff0000">
<use x="68.158997" y="460.009" fill="#ff0000" stroke-width="1.0004" xlink:href="#ct"/>
</g>
<g fill="#ff0000">
<use x="73.198845" y="460.009" fill="#ff0000" stroke-width="1.0004" xlink:href="#cq"/>
</g>
<g fill="#ff8000">
<use x="78.839859" y="460.009" fill="#ff8000" stroke-width="1.0004" xlink:href="#cw"/>
<use x="84.839859" y="460.009" xlink:href="#ck"/>
<use x="87.359261" y="460.009" xlink:href="#b"/>
<use x="89.878654" y="460.009" xlink:href="#a"/>
<g fill="#ff8000" stroke-width="1.0004">
<use x="94.918503" y="460.009" xlink:href="#f"/>
<use x="101.0396" y="460.009" xlink:href="#cr"/>
<use x="106.07943" y="460.009" xlink:href="#h"/>
<use x="111.11927" y="460.009" xlink:href="#co"/>
<use x="117.59895" y="460.009" xlink:href="#a"/>
<use x="122.63879" y="460.009" xlink:href="#f"/>
<use x="125.63879" y="460.009" xlink:href="#dv"/>
<use x="128.63918" y="460.009" xlink:href="#h"/>
<use x="133.67902" y="460.009" xlink:href="#g"/>
<use x="138.71884" y="460.009" xlink:href="#cj"/>
<use x="144.35869" y="460.009" xlink:href="#co"/>
<use x="150.83838" y="460.009" xlink:href="#d"/>
<use x="155.87822" y="460.009" xlink:href="#c"/>
<use x="157.91806" y="460.009" xlink:href="#b"/>
</g>
<use x="163.55869" y="460.009" xlink:href="#ck"/>
<use x="166.07809" y="460.009" xlink:href="#h"/>
<g fill="#ff8000" stroke-width="1.0004">
<use x="171.11792" y="460.009" xlink:href="#f"/>
<use x="177.23941" y="460.009" xlink:href="#dx"/>
<use x="183.35855" y="460.009" xlink:href="#ct"/>
<use x="188.39839" y="460.009" xlink:href="#cl"/>
<use x="193.43822" y="460.009" xlink:href="#cl"/>
<use x="198.47806" y="460.009" xlink:href="#ch"/>
<use x="205.91791" y="460.009" xlink:href="#e"/>
<use x="213.59956" y="460.009" xlink:href="#cz"/>
<use x="219.59956" y="460.009" xlink:href="#a"/>
</g>
<use x="224.6394" y="460.009" xlink:href="#ck"/>
<use x="227.15881" y="460.009" xlink:href="#h"/>
<g fill="#ff8000" stroke-width="1.0004">
<use x="232.19865" y="460.009" xlink:href="#f"/>
<use x="235.19867" y="460.009" xlink:href="#a"/>
<use x="243.35844" y="460.009" xlink:href="#f"/>
<use x="246.35846" y="460.009" xlink:href="#a"/>
<use x="251.3983" y="460.009" xlink:href="#d"/>
<use x="256.43814" y="460.009" xlink:href="#j"/>
<use x="261.478" y="460.009" xlink:href="#c"/>
<use x="263.51782" y="460.009" xlink:href="#g"/>
<use x="268.43738" y="460.009" xlink:href="#cu"/>
</g>
<use x="276.59949" y="460.009" xlink:href="#b"/>
<use x="279.1189" y="460.009" xlink:href="#i"/>
<use x="284.15875" y="460.009" fill="#ff8000" stroke-width="1.0004" xlink:href="#a"/>
<use x="292.31931" y="460.009" xlink:href="#b"/>
<use x="294.83868" y="460.009" xlink:href="#a"/>
<g fill="#ff8000" stroke-width="1.0004">
<use x="299.87854" y="460.009" xlink:href="#ch"/>
<use x="307.43793" y="460.009" xlink:href="#cr"/>
<use x="312.47778" y="460.009" xlink:href="#a"/>
<use x="317.39731" y="460.009" xlink:href="#f"/>
<use x="320.39734" y="460.009" xlink:href="#d"/>
</g>
<use x="325.43756" y="460.009" xlink:href="#b"/>
<use x="327.95697" y="460.009" xlink:href="#ci"/>
<g fill="#ff8000" stroke-width="1.0004">
<use x="332.99683" y="460.009" xlink:href="#f"/>
<use x="335.99683" y="460.009" xlink:href="#a"/>
<use x="344.15814" y="460.009" xlink:href="#d"/>
<use x="349.198" y="460.009" xlink:href="#g"/>
<use x="354.23901" y="460.009" xlink:href="#j"/>
<use x="362.40033" y="460.009" xlink:href="#i"/>
<use x="367.44019" y="460.009" xlink:href="#ci"/>
<use x="372.48004" y="460.009" xlink:href="#ch"/>
<use x="380.0394" y="460.009" xlink:href="#c"/>
<use x="381.95892" y="460.009" xlink:href="#j"/>
<use x="386.99878" y="460.009" xlink:href="#c"/>
</g>
<use x="389.03864" y="460.009" xlink:href="#b"/>
<use x="391.55801" y="460.009" xlink:href="#cm"/>
<g fill="#ff8000" stroke-width="1.0004">
<use x="399.24005" y="460.009" xlink:href="#cv"/>
<use x="403.79944" y="460.009" xlink:href="#d"/>
<use x="408.83929" y="460.009" xlink:href="#k"/>
<use x="410.75922" y="460.009" xlink:href="#ci"/>
<use x="415.79904" y="460.009" xlink:href="#a"/>
</g>
</g>
<g fill="#000000">
<g stroke-width="1.0004">
<use x="420.83887" y="460.009" xlink:href="#cj"/>
<use x="426.48032" y="460.009" xlink:href="#cu"/>
<use x="431.52011" y="460.009" xlink:href="#a"/>
<use x="436.55994" y="460.009" xlink:href="#b"/>
<use x="442.2002" y="460.009" xlink:href="#d"/>
<use x="450.35916" y="460.009" xlink:href="#cs"/>
<use x="455.39899" y="460.009" xlink:href="#cm"/>
</g>
<use x="459.95834" y="460.009" xlink:href="#b"/>
<use x="462.47775" y="460.009" xlink:href="#a"/>
<g stroke-width="1.0004">
<use x="470.64023" y="460.009" xlink:href="#h"/>
<use x="475.68005" y="460.009" xlink:href="#ck"/>
<use x="481.31915" y="460.009" xlink:href="#e"/>
</g>
<use x="485.87851" y="460.009" xlink:href="#b"/>
<use x="488.39789" y="460.009" xlink:href="#d"/>
<use x="493.43771" y="460.009" xlink:href="#b"/>
<use x="495.95712" y="460.009" xlink:href="#ci"/>
<g stroke-width="1.0004">
<use x="500.99695" y="460.009" xlink:href="#e"/>
<use x="508.55865" y="460.009" xlink:href="#co"/>
<use x="515.03833" y="460.009" xlink:href="#h"/>
<use x="520.07819" y="460.009" xlink:href="#f"/>
<use x="523.07819" y="460.009" xlink:href="#j"/>
<use x="68.158997" y="472.7301" xlink:href="#cs"/>
<use x="73.198845" y="472.7301" xlink:href="#cm"/>
<use x="81.600014" y="472.7301" xlink:href="#e"/>
<use x="86.159393" y="472.7301" xlink:href="#a"/>
<use x="91.199234" y="472.7301" xlink:href="#g"/>
<use x="96.239075" y="472.7301" xlink:href="#j"/>
<use x="101.27892" y="472.7301" xlink:href="#c"/>
<use x="103.19846" y="472.7301" xlink:href="#g"/>
<use x="108.2383" y="472.7301" xlink:href="#cu"/>
</g>
</g>
<g fill="#ff0000" stroke-width="1.0004">
<use x="117.11993" y="472.7301" xlink:href="#cl"/>
<use x="122.15977" y="472.7301" xlink:href="#cn"/>
<use x="126.71914" y="472.7301" xlink:href="#dk"/>
<use x="131.75897" y="472.7301" xlink:href="#ct"/>
</g>
<g fill="#000000">
<use x="136.79881" y="472.7301" stroke-width="1.0004" xlink:href="#cq"/>
<use x="143.15897" y="472.7301" xlink:href="#di"/>
<use x="145.67838" y="472.7301" xlink:href="#ck"/>
<use x="152.0397" y="472.7301" xlink:href="#b"/>
<use x="154.5591" y="472.7301" xlink:href="#i"/>
<use x="159.59894" y="472.7301" stroke-width="1.0004" xlink:href="#a"/>
<use x="168.59972" y="472.7301" stroke-width="1.0004" xlink:href="#e"/>
<use x="173.15909" y="472.7301" xlink:href="#b"/>
<use x="175.67848" y="472.7301" xlink:href="#d"/>
<use x="180.71832" y="472.7301" xlink:href="#b"/>
<use x="183.23773" y="472.7301" xlink:href="#ci"/>
<g stroke-width="1.0004">
<use x="188.27756" y="472.7301" xlink:href="#e"/>
<use x="196.55843" y="472.7301" xlink:href="#co"/>
<use x="203.0381" y="472.7301" xlink:href="#h"/>
<use x="208.07796" y="472.7301" xlink:href="#f"/>
<use x="211.07796" y="472.7301" xlink:href="#j"/>
<use x="220.07954" y="472.7301" xlink:href="#d"/>
<use x="225.11938" y="472.7301" xlink:href="#g"/>
<use x="230.15924" y="472.7301" xlink:href="#j"/>
<use x="239.03932" y="472.7301" xlink:href="#cl"/>
<use x="244.07918" y="472.7301" xlink:href="#cn"/>
<use x="248.63895" y="472.7301" xlink:href="#ct"/>
<use x="253.6788" y="472.7301" xlink:href="#cx"/>
<use x="262.5585" y="472.7301" xlink:href="#d"/>
<use x="267.59833" y="472.7301" xlink:href="#f"/>
<use x="270.59836" y="472.7301" xlink:href="#a"/>
<use x="279.59952" y="472.7301" xlink:href="#g"/>
<use x="284.63937" y="472.7301" xlink:href="#h"/>
<use x="289.67923" y="472.7301" xlink:href="#b"/>
<use x="296.03937" y="472.7301" xlink:href="#a"/>
<use x="301.07922" y="472.7301" xlink:href="#dj"/>
<use x="306.11948" y="472.7301" xlink:href="#ci"/>
<use x="311.1593" y="472.7301" xlink:href="#d"/>
<use x="316.19916" y="472.7301" xlink:href="#k"/>
</g>
<use x="322.07962" y="472.7301" xlink:href="#b"/>
<use x="324.59903" y="472.7301" xlink:href="#h"/>
</g>
<g fill="#0000ff" stroke-width="1.0004">
<use x="333.47949" y="472.7301" xlink:href="#cl"/>
<use x="338.51935" y="472.7301" xlink:href="#cn"/>
<use x="343.07874" y="472.7301" xlink:href="#ct"/>
<use x="348.11856" y="472.7301" xlink:href="#cx"/>
</g>
<g fill="#000000">
<g stroke-width="1.0004">
<use x="353.15842" y="472.7301" xlink:href="#cj"/>
<use x="359.51935" y="472.7301" xlink:href="#c"/>
<use x="361.5592" y="472.7301" xlink:href="#g"/>
<use x="366.60001" y="472.7301" xlink:href="#c"/>
<use x="368.63983" y="472.7301" xlink:href="#b"/>
<use x="371.03983" y="472.7301" xlink:href="#c"/>
<use x="373.07965" y="472.7301" xlink:href="#d"/>
<use x="378.11951" y="472.7301" xlink:href="#k"/>
<use x="380.15933" y="472.7301" xlink:href="#c"/>
<use x="382.07886" y="472.7301" xlink:href="#dm"/>
<use x="386.63824" y="472.7301" xlink:href="#a"/>
</g>
<use x="395.52029" y="472.7301" xlink:href="#b"/>
<use x="398.03967" y="472.7301" xlink:href="#i"/>
<g stroke-width="1.0004">
<use x="403.07953" y="472.7301" xlink:href="#a"/>
<use x="411.95923" y="472.7301" xlink:href="#cl"/>
<use x="416.99905" y="472.7301" xlink:href="#cn"/>
<use x="421.55841" y="472.7301" xlink:href="#ct"/>
<use x="426.59824" y="472.7301" xlink:href="#cz"/>
<use x="432.59824" y="472.7301" xlink:href="#cj"/>
<use x="439.08029" y="472.7301" xlink:href="#cl"/>
<use x="444.12012" y="472.7301" xlink:href="#cn"/>
<use x="448.67947" y="472.7301" xlink:href="#ct"/>
<use x="453.599" y="472.7301" xlink:href="#cp"/>
<use x="460.07867" y="472.7301" xlink:href="#cj"/>
<use x="466.55917" y="472.7301" xlink:href="#cl"/>
<use x="471.599" y="472.7301" xlink:href="#cn"/>
<use x="476.15836" y="472.7301" xlink:href="#ct"/>
<use x="481.19818" y="472.7301" xlink:href="#dy"/>
<use x="491.03998" y="472.7301" xlink:href="#f"/>
<use x="494.03998" y="472.7301" xlink:href="#a"/>
<use x="499.0802" y="472.7301" xlink:href="#cu"/>
<use x="504.12003" y="472.7301" xlink:href="#c"/>
<use x="506.15988" y="472.7301" xlink:href="#e"/>
</g>
<use x="510.5997" y="472.7301" xlink:href="#b"/>
<use x="513.11914" y="472.7301" xlink:href="#a"/>
<g stroke-width="1.0004">
<use x="518.15894" y="472.7301" xlink:href="#f"/>
<use x="521.15894" y="472.7301" xlink:href="#e"/>
<use x="525.71832" y="472.7301" xlink:href="#cj"/>
<use x="68.158997" y="485.33011" xlink:href="#j"/>
<use x="73.198845" y="485.33011" xlink:href="#a"/>
</g>
<use x="78.238686" y="485.33011" xlink:href="#b"/>
<use x="80.758087" y="485.33011" xlink:href="#d"/>
<g stroke-width="1.0004">
<use x="85.797928" y="485.33011" xlink:href="#c"/>
<use x="87.717461" y="485.33011" xlink:href="#k"/>
<use x="89.757301" y="485.33011" xlink:href="#e"/>
<use x="96.839722" y="485.33011" xlink:href="#dz"/>
<use x="102.83972" y="485.33011" xlink:href="#k"/>
<use x="104.87957" y="485.33011" xlink:href="#a"/>
<use x="109.9194" y="485.33011" xlink:href="#d"/>
<use x="114.95924" y="485.33011" xlink:href="#e"/>
<use x="119.519" y="485.33011" xlink:href="#a"/>
<use x="127.19986" y="485.33011" xlink:href="#f"/>
<use x="130.19986" y="485.33011" xlink:href="#a"/>
</g>
<use x="135.2397" y="485.33011" xlink:href="#ck"/>
<use x="137.75909" y="485.33011" xlink:href="#a"/>
<use x="142.79893" y="485.33011" stroke-width="1.0004" xlink:href="#f"/>
<use x="148.31963" y="485.33011" xlink:href="#b"/>
<use x="150.83904" y="485.33011" xlink:href="#h"/>
<g stroke-width="1.0004">
<use x="158.51949" y="485.33011" xlink:href="#h"/>
<use x="163.55933" y="485.33011" xlink:href="#ci"/>
<use x="168.59917" y="485.33011" xlink:href="#f"/>
<use x="174.2394" y="485.33011" xlink:href="#h"/>
<use x="179.27924" y="485.33011" xlink:href="#ck"/>
</g>
<use x="181.79916" y="485.33011" xlink:href="#ck"/>
<use x="184.31856" y="485.33011" xlink:href="#c"/>
<g stroke-width="1.0004">
<use x="186.3584" y="485.33011" xlink:href="#l"/>
<use x="190.79825" y="485.33011" xlink:href="#c"/>
<use x="192.83809" y="485.33011" xlink:href="#d"/>
<use x="197.87793" y="485.33011" xlink:href="#k"/>
<use x="202.43925" y="485.33011" xlink:href="#co"/>
<use x="208.91896" y="485.33011" xlink:href="#a"/>
<use x="213.9592" y="485.33011" xlink:href="#cs"/>
<use x="218.99904" y="485.33011" xlink:href="#e"/>
<use x="223.55843" y="485.33011" xlink:href="#c"/>
</g>
<use x="225.59827" y="485.33011" xlink:href="#b"/>
<use x="228.11766" y="485.33011" xlink:href="#a"/>
<g stroke-width="1.0004">
<use x="235.79932" y="485.33011" xlink:href="#f"/>
<use x="238.79932" y="485.33011" xlink:href="#h"/>
<use x="243.83917" y="485.33011" xlink:href="#ci"/>
</g>
<use x="248.87901" y="485.33011" xlink:href="#b"/>
<use x="251.39842" y="485.33011" xlink:href="#c"/>
<g stroke-width="1.0004">
<use x="253.43825" y="485.33011" xlink:href="#g"/>
<use x="258.47812" y="485.33011" xlink:href="#a"/>
<use x="266.03903" y="485.33011" xlink:href="#ck"/>
<use x="268.55896" y="485.33011" xlink:href="#h"/>
<use x="273.59882" y="485.33011" xlink:href="#f"/>
</g>
<use x="279.23904" y="485.33011" xlink:href="#b"/>
<use x="281.75845" y="485.33011" xlink:href="#i"/>
<g stroke-width="1.0004">
<use x="286.79868" y="485.33011" xlink:href="#a"/>
<use x="294.47916" y="485.33011" xlink:href="#c"/>
<use x="296.51901" y="485.33011" xlink:href="#g"/>
<use x="301.55884" y="485.33011" xlink:href="#c"/>
</g>
<use x="303.47836" y="485.33011" xlink:href="#b"/>
<use x="305.99777" y="485.33011" xlink:href="#c"/>
<g stroke-width="1.0004">
<use x="308.0376" y="485.33011" xlink:href="#d"/>
<use x="313.07745" y="485.33011" xlink:href="#k"/>
<use x="315.11731" y="485.33011" xlink:href="#c"/>
<use x="317.03799" y="485.33011" xlink:href="#dm"/>
<use x="321.59738" y="485.33011" xlink:href="#d"/>
</g>
<use x="326.63724" y="485.33011" xlink:href="#b"/>
<use x="329.15665" y="485.33011" xlink:href="#c"/>
<g stroke-width="1.0004">
<use x="331.07614" y="485.33011" xlink:href="#h"/>
<use x="336.116" y="485.33011" xlink:href="#g"/>
<use x="343.79999" y="485.33011" xlink:href="#cr"/>
<use x="348.83984" y="485.33011" xlink:href="#f"/>
<use x="351.83984" y="485.33011" xlink:href="#h"/>
<use x="356.8797" y="485.33011" xlink:href="#l"/>
<use x="361.31955" y="485.33011" xlink:href="#a"/>
<use x="366.35941" y="485.33011" xlink:href="#e"/>
<use x="370.91879" y="485.33011" xlink:href="#e"/>
<use x="375.35864" y="485.33011" xlink:href="#dn"/>
<use x="380.51996" y="485.33011" xlink:href="#c"/>
<use x="382.55978" y="485.33011" xlink:href="#ck"/>
</g>
<use x="387.71994" y="485.33011" xlink:href="#b"/>
<use x="390.23935" y="485.33011" xlink:href="#i"/>
<g stroke-width="1.0004">
<use x="395.27921" y="485.33011" xlink:href="#a"/>
<use x="400.31906" y="485.33011" xlink:href="#cm"/>
<use x="407.3999" y="485.33011" xlink:href="#d"/>
<use x="412.43973" y="485.33011" xlink:href="#f"/>
<use x="415.43973" y="485.33011" xlink:href="#a"/>
<use x="423.11978" y="485.33011" xlink:href="#a"/>
<use x="428.15961" y="485.33011" xlink:href="#dj"/>
<use x="433.19943" y="485.33011" xlink:href="#ci"/>
<use x="438.23926" y="485.33011" xlink:href="#d"/>
<use x="443.27908" y="485.33011" xlink:href="#k"/>
<use x="445.19864" y="485.33011" xlink:href="#cj"/>
<use x="450.47992" y="485.33011" xlink:href="#cr"/>
<use x="455.51974" y="485.33011" xlink:href="#f"/>
<use x="458.51974" y="485.33011" xlink:href="#h"/>
<use x="463.55957" y="485.33011" xlink:href="#l"/>
<use x="467.99939" y="485.33011" xlink:href="#a"/>
<use x="473.03922" y="485.33011" xlink:href="#a"/>
<use x="478.07904" y="485.33011" xlink:href="#j"/>
</g>
<use x="485.63995" y="485.33011" xlink:href="#b"/>
<use x="488.15936" y="485.33011" xlink:href="#h"/>
<g stroke-width="1.0004">
<use x="495.83942" y="485.33011" xlink:href="#b"/>
<use x="498.35934" y="485.33011" xlink:href="#i"/>
<use x="503.39917" y="485.33011" xlink:href="#a"/>
<use x="511.07962" y="485.33011" xlink:href="#g"/>
<use x="516.11945" y="485.33011" xlink:href="#a"/>
<use x="521.1593" y="485.33011" xlink:href="#cn"/>
<use x="525.71863" y="485.33011" xlink:href="#b"/>
<use x="68.158997" y="497.93011" xlink:href="#e"/>
</g>
<use x="72.718376" y="497.93011" xlink:href="#b"/>
<use x="75.237778" y="497.93011" xlink:href="#a"/>
<use x="80.277618" y="497.93011" stroke-width="1.0004" xlink:href="#cr"/>
<use x="85.317467" y="497.93011" stroke-width="1.0004" xlink:href="#cq"/>
</g>
<g fill="#ff0000">
<use x="68.158997" y="516.53009" fill="#ff0000" stroke-width="1.0004" xlink:href="#ea"/>
</g>
<g fill="#ff0000">
<use x="73.198845" y="516.53009" fill="#ff0000" stroke-width="1.0004" xlink:href="#cq"/>
</g>
<g fill="#000000">
<g stroke-width="1.0004">
<use x="78.239853" y="516.53009" xlink:href="#dg"/>
<use x="86.759384" y="516.53009" xlink:href="#d"/>
<use x="91.799225" y="516.53009" xlink:href="#c"/>
<use x="93.839073" y="516.53009" xlink:href="#b"/>
<use x="98.880081" y="516.53009" xlink:href="#ct"/>
<use x="103.91991" y="516.53009" xlink:href="#cl"/>
<use x="108.95975" y="516.53009" xlink:href="#ch"/>
<use x="116.51913" y="516.53009" xlink:href="#e"/>
</g>
<use x="123.59998" y="516.53009" xlink:href="#b"/>
<use x="126.11938" y="516.53009" xlink:href="#h"/>
<g stroke-width="1.0004">
<use x="133.67992" y="516.53009" xlink:href="#e"/>
<use x="138.23929" y="516.53009" xlink:href="#a"/>
<use x="143.27913" y="516.53009" xlink:href="#g"/>
<use x="148.31897" y="516.53009" xlink:href="#j"/>
</g>
<use x="155.8799" y="516.53009" xlink:href="#b"/>
<use x="158.39929" y="516.53009" xlink:href="#i"/>
<use x="163.43913" y="516.53009" stroke-width="1.0004" xlink:href="#a"/>
</g>
<g fill="#ff0000" stroke-width="1.0004">
<use x="170.99968" y="516.53009" xlink:href="#cl"/>
<use x="176.03951" y="516.53009" xlink:href="#cn"/>
<use x="180.59888" y="516.53009" xlink:href="#cw"/>
<use x="186.59888" y="516.53009" xlink:href="#cp"/>
</g>
<g fill="#000000" stroke-width="1.0004">
<use x="195.71959" y="516.53009" xlink:href="#l"/>
<use x="200.27895" y="516.53009" xlink:href="#h"/>
<use x="205.3188" y="516.53009" xlink:href="#ch"/>
<use x="212.75865" y="516.53009" xlink:href="#ch"/>
<use x="220.31804" y="516.53009" xlink:href="#d"/>
<use x="225.35788" y="516.53009" xlink:href="#g"/>
<use x="230.39774" y="516.53009" xlink:href="#j"/>
<use x="237.83954" y="516.53009" xlink:href="#dt"/>
</g>
<g fill="#ff8000">
<use x="240.83954" y="516.53009" xlink:href="#b"/>
<use x="243.35895" y="516.53009" xlink:href="#f"/>
<g fill="#ff8000" stroke-width="1.0004">
<use x="246.35895" y="516.53009" xlink:href="#c"/>
<use x="248.39879" y="516.53009" xlink:href="#cu"/>
<use x="253.43903" y="516.53009" xlink:href="#cu"/>
<use x="258.47888" y="516.53009" xlink:href="#a"/>
<use x="263.51874" y="516.53009" xlink:href="#f"/>
<use x="269.03943" y="516.53009" xlink:href="#ch"/>
<use x="276.59882" y="516.53009" xlink:href="#a"/>
<use x="281.63907" y="516.53009" xlink:href="#d"/>
<use x="286.67892" y="516.53009" xlink:href="#e"/>
<use x="291.11877" y="516.53009" xlink:href="#ci"/>
<use x="296.1586" y="516.53009" xlink:href="#f"/>
<use x="299.15863" y="516.53009" xlink:href="#a"/>
<use x="304.19846" y="516.53009" xlink:href="#ch"/>
<use x="311.75784" y="516.53009" xlink:href="#a"/>
<use x="316.6774" y="516.53009" xlink:href="#g"/>
</g>
</g>
<g fill="#000000">
<use x="321.71722" y="516.53009" xlink:href="#b"/>
<use x="324.23663" y="516.53009" xlink:href="#du"/>
<g stroke-width="1.0004">
<use x="327.23663" y="516.53009" xlink:href="#cq"/>
<use x="332.39954" y="516.53009" xlink:href="#dh"/>
<use x="337.91907" y="516.53009" xlink:href="#i"/>
<use x="342.95889" y="516.53009" xlink:href="#c"/>
<use x="344.99875" y="516.53009" xlink:href="#e"/>
<use x="351.95901" y="516.53009" xlink:href="#l"/>
<use x="356.51837" y="516.53009" xlink:href="#h"/>
<use x="361.55823" y="516.53009" xlink:href="#ch"/>
<use x="369.11761" y="516.53009" xlink:href="#ch"/>
<use x="376.55746" y="516.53009" xlink:href="#d"/>
<use x="381.59732" y="516.53009" xlink:href="#g"/>
<use x="386.63718" y="516.53009" xlink:href="#j"/>
<use x="394.20007" y="516.53009" xlink:href="#cr"/>
<use x="399.2399" y="516.53009" xlink:href="#d"/>
<use x="404.27975" y="516.53009" xlink:href="#f"/>
<use x="407.27975" y="516.53009" xlink:href="#d"/>
<use x="412.31958" y="516.53009" xlink:href="#ch"/>
<use x="419.87894" y="516.53009" xlink:href="#a"/>
</g>
<use x="424.79846" y="516.53009" xlink:href="#b"/>
<use x="427.31787" y="516.53009" xlink:href="#a"/>
<g stroke-width="1.0004">
<use x="432.3577" y="516.53009" xlink:href="#f"/>
<use x="437.99988" y="516.53009" xlink:href="#i"/>
<use x="443.0397" y="516.53009" xlink:href="#d"/>
<use x="448.07953" y="516.53009" xlink:href="#e"/>
<use x="455.03967" y="516.53009" xlink:href="#b"/>
<use x="457.5596" y="516.53009" xlink:href="#co"/>
<use x="464.03928" y="516.53009" xlink:href="#h"/>
<use x="471.71973" y="516.53009" xlink:href="#cs"/>
<use x="476.75955" y="516.53009" xlink:href="#cm"/>
</g>
<use x="481.31891" y="516.53009" xlink:href="#b"/>
<use x="483.83832" y="516.53009" xlink:href="#a"/>
<use x="488.87814" y="516.53009" stroke-width="1.0004" xlink:href="#e"/>
<use x="493.31796" y="516.53009" stroke-width="1.0004" xlink:href="#cj"/>
<use x="498.35861" y="516.53009" xlink:href="#b"/>
<use x="500.87802" y="516.53009" xlink:href="#i"/>
<use x="505.91785" y="516.53009" stroke-width="1.0004" xlink:href="#a"/>
<use x="513.59949" y="516.53009" xlink:href="#ck"/>
<use x="516.11884" y="516.53009" xlink:href="#c"/>
<g stroke-width="1.0004">
<use x="518.15869" y="516.53009" xlink:href="#f"/>
<use x="521.15869" y="516.53009" xlink:href="#e"/>
<use x="525.59857" y="516.53009" xlink:href="#b"/>
<use x="68.158997" y="529.25" xlink:href="#cs"/>
<use x="73.198845" y="529.25" xlink:href="#cm"/>
</g>
<use x="77.758217" y="529.25" xlink:href="#b"/>
<use x="80.277618" y="529.25" xlink:href="#a"/>
<use x="87.719803" y="529.25" stroke-width="1.0004" xlink:href="#c"/>
<use x="89.759644" y="529.25" stroke-width="1.0004" xlink:href="#e"/>
</g>
<g fill="#0000ff" stroke-width="1.0004">
<use x="96.719795" y="529.25" xlink:href="#cl"/>
<use x="101.75964" y="529.25" xlink:href="#cn"/>
<use x="106.31902" y="529.25" xlink:href="#da"/>
<use x="111.35885" y="529.25" xlink:href="#da"/>
</g>
<g fill="#000000">
<g stroke-width="1.0004">
<use x="116.27837" y="529.25" xlink:href="#cj"/>
<use x="121.31979" y="529.25" xlink:href="#d"/>
<use x="126.35962" y="529.25" xlink:href="#g"/>
<use x="131.39946" y="529.25" xlink:href="#j"/>
</g>
<use x="138.83969" y="529.25" xlink:href="#b"/>
<use x="141.35909" y="529.25" xlink:href="#i"/>
<g stroke-width="1.0004">
<use x="146.39893" y="529.25" xlink:href="#a"/>
<use x="153.83954" y="529.25" xlink:href="#e"/>
<use x="158.39891" y="529.25" xlink:href="#a"/>
<use x="163.43915" y="529.25" xlink:href="#l"/>
<use x="167.9985" y="529.25" xlink:href="#h"/>
<use x="172.91803" y="529.25" xlink:href="#g"/>
<use x="177.95787" y="529.25" xlink:href="#j"/>
<use x="185.51959" y="529.25" xlink:href="#cs"/>
<use x="190.55942" y="529.25" xlink:href="#cm"/>
</g>
<use x="195.11879" y="529.25" xlink:href="#b"/>
<use x="197.6382" y="529.25" xlink:href="#a"/>
<use x="205.07959" y="529.25" stroke-width="1.0004" xlink:href="#c"/>
<use x="207.11943" y="529.25" stroke-width="1.0004" xlink:href="#e"/>
</g>
<g fill="#0000ff" stroke-width="1.0004">
<use x="214.07959" y="529.25" xlink:href="#cl"/>
<use x="219.11945" y="529.25" xlink:href="#cn"/>
<use x="223.67883" y="529.25" xlink:href="#cl"/>
<use x="228.71867" y="529.25" xlink:href="#cl"/>
</g>
<g fill="#000000">
<use x="233.75853" y="529.25" stroke-width="1.0004" xlink:href="#cq"/>
</g>
<g fill="#ff0000">
<use x="68.158997" y="547.84998" fill="#ff0000" stroke-width="1.0004" xlink:href="#da"/>
</g>
<g fill="#ff0000">
<use x="73.198845" y="547.84998" fill="#ff0000" stroke-width="1.0004" xlink:href="#cq"/>
</g>
<g fill="#ff8000">
<g fill="#ff8000" stroke-width="1.0004">
<use x="78.600014" y="547.84998" xlink:href="#dg"/>
<use x="87.119545" y="547.84998" xlink:href="#d"/>
<use x="92.159393" y="547.84998" xlink:href="#c"/>
<use x="94.199234" y="547.84998" xlink:href="#b"/>
<use x="99.719933" y="547.84998" xlink:href="#cx"/>
<use x="104.75977" y="547.84998" xlink:href="#cl"/>
<use x="109.79961" y="547.84998" xlink:href="#ch"/>
<use x="117.35898" y="547.84998" xlink:href="#e"/>
</g>
<use x="124.8" y="547.84998" xlink:href="#ck"/>
<use x="127.3194" y="547.84998" xlink:href="#h"/>
<use x="132.35924" y="547.84998" fill="#ff8000" stroke-width="1.0004" xlink:href="#f"/>
<use x="138.2397" y="547.84998" xlink:href="#b"/>
<use x="140.75909" y="547.84998" xlink:href="#i"/>
<g fill="#ff8000" stroke-width="1.0004">
<use x="145.79933" y="547.84998" xlink:href="#a"/>
<use x="153.83955" y="547.84998" xlink:href="#ch"/>
<use x="161.39893" y="547.84998" xlink:href="#a"/>
<use x="166.43915" y="547.84998" xlink:href="#d"/>
<use x="171.35867" y="547.84998" xlink:href="#e"/>
<use x="175.91805" y="547.84998" xlink:href="#ci"/>
<use x="180.95789" y="547.84998" xlink:href="#f"/>
<use x="183.95787" y="547.84998" xlink:href="#a"/>
<use x="188.99771" y="547.84998" xlink:href="#ch"/>
<use x="196.43755" y="547.84998" xlink:href="#a"/>
<use x="201.47739" y="547.84998" xlink:href="#g"/>
<use x="206.51724" y="547.84998" xlink:href="#b"/>
</g>
<use x="211.91957" y="547.84998" xlink:href="#b"/>
<use x="214.43898" y="547.84998" xlink:href="#h"/>
<g fill="#ff8000" stroke-width="1.0004">
<use x="222.4796" y="547.84998" xlink:href="#cs"/>
<use x="227.51945" y="547.84998" xlink:href="#a"/>
<use x="235.43939" y="547.84998" xlink:href="#l"/>
<use x="239.99916" y="547.84998" xlink:href="#h"/>
<use x="245.03902" y="547.84998" xlink:href="#ch"/>
</g>
</g>
<g fill="#000000">
<use x="252.59839" y="547.84998" stroke-width="1.0004" xlink:href="#cr"/>
</g>
<g fill="#ff8000">
<use x="257.51794" y="547.84998" fill="#ff8000" stroke-width="1.0004" xlink:href="#k"/>
<use x="259.55777" y="547.84998" fill="#ff8000" stroke-width="1.0004" xlink:href="#a"/>
<use x="264.59763" y="547.84998" xlink:href="#b"/>
<use x="267.117" y="547.84998" xlink:href="#a"/>
<use x="272.15686" y="547.84998" fill="#ff8000" stroke-width="1.0004" xlink:href="#j"/>
</g>
<g fill="#000000">
<g stroke-width="1.0004">
<use x="277.07642" y="547.84998" xlink:href="#cj"/>
<use x="282.59943" y="547.84998" xlink:href="#c"/>
<use x="284.63928" y="547.84998" xlink:href="#ck"/>
<use x="290.03928" y="547.84998" xlink:href="#b"/>
<use x="292.55917" y="547.84998" xlink:href="#i"/>
<use x="297.59903" y="547.84998" xlink:href="#a"/>
<use x="305.63928" y="547.84998" xlink:href="#f"/>
<use x="308.63928" y="547.84998" xlink:href="#a"/>
<use x="313.6795" y="547.84998" xlink:href="#d"/>
<use x="318.71936" y="547.84998" xlink:href="#j"/>
<use x="326.63931" y="547.84998" xlink:href="#e"/>
</g>
<use x="331.19907" y="547.84998" xlink:href="#b"/>
<use x="333.71848" y="547.84998" xlink:href="#d"/>
<use x="338.75833" y="547.84998" xlink:href="#b"/>
<use x="341.27771" y="547.84998" xlink:href="#ci"/>
<g stroke-width="1.0004">
<use x="346.31757" y="547.84998" xlink:href="#e"/>
<use x="353.75821" y="547.84998" xlink:href="#co"/>
<use x="360.23901" y="547.84998" xlink:href="#h"/>
<use x="365.27884" y="547.84998" xlink:href="#f"/>
<use x="368.27887" y="547.84998" xlink:href="#j"/>
<use x="376.32028" y="547.84998" xlink:href="#cz"/>
<use x="382.32028" y="547.84998" xlink:href="#c"/>
</g>
<use x="384.36011" y="547.84998" xlink:href="#b"/>
<use x="386.87952" y="547.84998" xlink:href="#eb"/>
<use x="389.3989" y="547.84998" xlink:href="#dk"/>
<g stroke-width="1.0004">
<use x="394.43875" y="547.84998" xlink:href="#ec"/>
<use x="399.83994" y="547.84998" xlink:href="#c"/>
<use x="401.87976" y="547.84998" xlink:href="#e"/>
<use x="409.32001" y="547.84998" xlink:href="#cl"/>
<use x="414.35983" y="547.84998" xlink:href="#cj"/>
<use x="419.88016" y="547.84998" xlink:href="#c"/>
<use x="421.92001" y="547.84998" xlink:href="#b"/>
<use x="427.32004" y="547.84998" xlink:href="#ch"/>
<use x="434.87939" y="547.84998" xlink:href="#a"/>
<use x="439.91922" y="547.84998" xlink:href="#d"/>
<use x="444.95905" y="547.84998" xlink:href="#g"/>
<use x="449.99887" y="547.84998" xlink:href="#e"/>
<use x="457.43985" y="547.84998" xlink:href="#b"/>
<use x="459.95978" y="547.84998" xlink:href="#i"/>
<use x="464.9996" y="547.84998" xlink:href="#a"/>
<use x="473.03983" y="547.84998" xlink:href="#ch"/>
<use x="480.59958" y="547.84998" xlink:href="#a"/>
<use x="485.6394" y="547.84998" xlink:href="#d"/>
<use x="490.5589" y="547.84998" xlink:href="#e"/>
<use x="495.11826" y="547.84998" xlink:href="#ci"/>
<use x="500.15808" y="547.84998" xlink:href="#f"/>
<use x="503.15808" y="547.84998" xlink:href="#a"/>
<use x="508.19791" y="547.84998" xlink:href="#ch"/>
<use x="515.63776" y="547.84998" xlink:href="#a"/>
<use x="520.67755" y="547.84998" xlink:href="#g"/>
<use x="525.71741" y="547.84998" xlink:href="#b"/>
<use x="68.158997" y="560.45001" xlink:href="#c"/>
<use x="70.198837" y="560.45001" xlink:href="#e"/>
<use x="77.158997" y="560.45001" xlink:href="#l"/>
<use x="81.718369" y="560.45001" xlink:href="#h"/>
<use x="86.758209" y="560.45001" xlink:href="#ch"/>
<use x="94.198059" y="560.45001" xlink:href="#cr"/>
<use x="99.2379" y="560.45001" xlink:href="#k"/>
<use x="101.27774" y="560.45001" xlink:href="#a"/>
</g>
<use x="106.31758" y="560.45001" xlink:href="#b"/>
<use x="108.83698" y="560.45001" xlink:href="#a"/>
<g stroke-width="1.0004">
<use x="113.75651" y="560.45001" xlink:href="#j"/>
<use x="118.79634" y="560.45001" xlink:href="#cj"/>
<use x="123.83971" y="560.45001" xlink:href="#d"/>
<use x="128.87955" y="560.45001" xlink:href="#g"/>
<use x="133.91939" y="560.45001" xlink:href="#j"/>
</g>
<use x="141.35883" y="560.45001" xlink:href="#b"/>
<use x="143.87822" y="560.45001" xlink:href="#i"/>
<g stroke-width="1.0004">
<use x="148.91806" y="560.45001" xlink:href="#a"/>
<use x="153.9579" y="560.45001" xlink:href="#g"/>
<use x="161.39969" y="560.45001" xlink:href="#e"/>
<use x="165.95906" y="560.45001" xlink:href="#c"/>
<use x="167.9989" y="560.45001" xlink:href="#cn"/>
<use x="174.95868" y="560.45001" xlink:href="#cs"/>
<use x="179.9985" y="560.45001" xlink:href="#cm"/>
</g>
<use x="184.55788" y="560.45001" xlink:href="#b"/>
<use x="187.07729" y="560.45001" xlink:href="#a"/>
<g stroke-width="1.0004">
<use x="192.11711" y="560.45001" xlink:href="#e"/>
<use x="198.95851" y="560.45001" xlink:href="#l"/>
<use x="203.51788" y="560.45001" xlink:href="#d"/>
<use x="208.55774" y="560.45001" xlink:href="#g"/>
<use x="215.99953" y="560.45001" xlink:href="#cs"/>
<use x="221.03938" y="560.45001" xlink:href="#a"/>
<use x="228.59955" y="560.45001" xlink:href="#f"/>
<use x="231.59956" y="560.45001" xlink:href="#a"/>
<use x="236.6394" y="560.45001" xlink:href="#d"/>
<use x="241.67926" y="560.45001" xlink:href="#j"/>
<use x="249.11951" y="560.45001" xlink:href="#l"/>
<use x="253.67888" y="560.45001" xlink:href="#h"/>
<use x="258.71872" y="560.45001" xlink:href="#g"/>
</g>
<use x="263.75858" y="560.45001" xlink:href="#b"/>
<use x="266.27798" y="560.45001" xlink:href="#c"/>
<g stroke-width="1.0004">
<use x="268.19751" y="560.45001" xlink:href="#g"/>
<use x="273.23737" y="560.45001" xlink:href="#ci"/>
<use x="278.27759" y="560.45001" xlink:href="#h"/>
<use x="283.31744" y="560.45001" xlink:href="#ci"/>
<use x="288.3573" y="560.45001" xlink:href="#e"/>
<use x="292.79715" y="560.45001" xlink:href="#k"/>
<use x="294.83698" y="560.45001" xlink:href="#cm"/>
<use x="299.27682" y="560.45001" xlink:href="#dn"/>
<use x="304.3194" y="560.45001" xlink:href="#h"/>
</g>
<use x="309.35925" y="560.45001" xlink:href="#b"/>
<use x="311.87866" y="560.45001" xlink:href="#i"/>
<g stroke-width="1.0004">
<use x="316.91849" y="560.45001" xlink:href="#a"/>
<use x="321.95834" y="560.45001" xlink:href="#f"/>
<use x="324.95834" y="560.45001" xlink:href="#co"/>
<use x="331.43805" y="560.45001" xlink:href="#c"/>
<use x="333.479" y="560.45001" xlink:href="#e"/>
<use x="337.91885" y="560.45001" xlink:href="#a"/>
<use x="342.95871" y="560.45001" xlink:href="#cj"/>
<use x="348.00009" y="560.45001" xlink:href="#l"/>
<use x="352.55948" y="560.45001" xlink:href="#h"/>
<use x="357.479" y="560.45001" xlink:href="#g"/>
</g>
<use x="362.51886" y="560.45001" xlink:href="#b"/>
<use x="365.03827" y="560.45001" xlink:href="#c"/>
<g stroke-width="1.0004">
<use x="367.07809" y="560.45001" xlink:href="#g"/>
<use x="372.11795" y="560.45001" xlink:href="#ci"/>
<use x="377.03748" y="560.45001" xlink:href="#a"/>
</g>
<use x="384.60001" y="560.45001" xlink:href="#b"/>
<use x="387.11938" y="560.45001" xlink:href="#h"/>
<g stroke-width="1.0004">
<use x="394.55887" y="560.45001" xlink:href="#co"/>
<use x="401.03854" y="560.45001" xlink:href="#d"/>
<use x="406.0784" y="560.45001" xlink:href="#c"/>
</g>
<use x="408.11823" y="560.45001" xlink:href="#b"/>
<use x="410.63763" y="560.45001" xlink:href="#cq"/>
<g stroke-width="1.0004">
<use x="68.158997" y="579.04999" xlink:href="#ed"/>
<use x="73.198845" y="579.04999" xlink:href="#cq"/>
<use x="81.239853" y="579.04999" xlink:href="#cw"/>
</g>
<use x="87.239853" y="579.04999" xlink:href="#ck"/>
<use x="89.759254" y="579.04999" xlink:href="#b"/>
<use x="92.278648" y="579.04999" xlink:href="#a"/>
<use x="97.318497" y="579.04999" stroke-width="1.0004" xlink:href="#f"/>
<g fill="#ff0000" stroke-width="1.0004">
<use x="103.43958" y="579.04999" xlink:href="#f"/>
<use x="106.43958" y="579.04999" xlink:href="#a"/>
<use x="111.47942" y="579.04999" xlink:href="#l"/>
<use x="116.03918" y="579.04999" xlink:href="#a"/>
<use x="121.07902" y="579.04999" xlink:href="#c"/>
<use x="122.99855" y="579.04999" xlink:href="#cv"/>
<use x="127.55792" y="579.04999" xlink:href="#c"/>
<use x="129.59778" y="579.04999" xlink:href="#g"/>
<use x="134.6376" y="579.04999" xlink:href="#cu"/>
</g>
<g fill="#0000ff">
<g stroke-width="1.0004">
<use x="142.67979" y="579.04999" xlink:href="#e"/>
<use x="147.23915" y="579.04999" xlink:href="#c"/>
<use x="149.27901" y="579.04999" xlink:href="#cn"/>
<use x="156.83955" y="579.04999" xlink:href="#cs"/>
<use x="161.87938" y="579.04999" xlink:href="#cm"/>
</g>
<use x="166.43915" y="579.04999" xlink:href="#b"/>
<use x="168.95854" y="579.04999" xlink:href="#a"/>
<use x="173.99838" y="579.04999" stroke-width="1.0004" xlink:href="#e"/>
</g>
<use x="178.43822" y="579.04999" stroke-width="1.0004" xlink:href="#cj"/>
<use x="184.07964" y="579.04999" xlink:href="#b"/>
<use x="186.59903" y="579.04999" xlink:href="#i"/>
<use x="191.63887" y="579.04999" stroke-width="1.0004" xlink:href="#a"/>
<g fill="#0000ff">
<g stroke-width="1.0004">
<use x="199.79941" y="579.04999" xlink:href="#g"/>
<use x="204.83925" y="579.04999" xlink:href="#a"/>
<use x="209.8791" y="579.04999" xlink:href="#cn"/>
<use x="214.31895" y="579.04999" xlink:href="#b"/>
<use x="219.9584" y="579.04999" xlink:href="#cs"/>
<use x="224.99825" y="579.04999" xlink:href="#cm"/>
</g>
<use x="229.55763" y="579.04999" xlink:href="#b"/>
<use x="232.07703" y="579.04999" xlink:href="#a"/>
<g stroke-width="1.0004">
<use x="240.11922" y="579.04999" xlink:href="#c"/>
<use x="242.15906" y="579.04999" xlink:href="#e"/>
<use x="249.83914" y="579.04999" xlink:href="#cp"/>
<use x="256.31885" y="579.04999" xlink:href="#cy"/>
<use x="262.79892" y="579.04999" xlink:href="#cp"/>
</g>
</g>
<g stroke-width="1.0004">
<use x="272.39932" y="579.04999" xlink:href="#l"/>
<use x="276.95871" y="579.04999" xlink:href="#i"/>
<use x="281.99854" y="579.04999" xlink:href="#a"/>
<use x="287.03839" y="579.04999" xlink:href="#l"/>
<use x="291.47824" y="579.04999" xlink:href="#db"/>
<use x="299.15833" y="579.04999" xlink:href="#j"/>
<use x="304.19818" y="579.04999" xlink:href="#d"/>
</g>
<use x="309.23804" y="579.04999" xlink:href="#b"/>
<use x="311.75742" y="579.04999" xlink:href="#d"/>
<g stroke-width="1.0004">
<use x="316.79727" y="579.04999" xlink:href="#cj"/>
<use x="322.31915" y="579.04999" xlink:href="#co"/>
<use x="328.79883" y="579.04999" xlink:href="#i"/>
<use x="333.83868" y="579.04999" xlink:href="#c"/>
<use x="335.87851" y="579.04999" xlink:href="#l"/>
<use x="340.4379" y="579.04999" xlink:href="#i"/>
</g>
<use x="348.59924" y="579.04999" xlink:href="#b"/>
<use x="351.11862" y="579.04999" xlink:href="#i"/>
<g stroke-width="1.0004">
<use x="356.159" y="579.04999" xlink:href="#a"/>
<use x="364.19965" y="579.04999" xlink:href="#ci"/>
<use x="369.23947" y="579.04999" xlink:href="#e"/>
<use x="373.79886" y="579.04999" xlink:href="#a"/>
<use x="378.83871" y="579.04999" xlink:href="#f"/>
<use x="384.83951" y="579.04999" xlink:href="#l"/>
<use x="389.3989" y="579.04999" xlink:href="#d"/>
<use x="394.43875" y="579.04999" xlink:href="#g"/>
<use x="402.59967" y="579.04999" xlink:href="#f"/>
<use x="405.5997" y="579.04999" xlink:href="#a"/>
<use x="410.63953" y="579.04999" xlink:href="#d"/>
<use x="415.67935" y="579.04999" xlink:href="#j"/>
<use x="423.83948" y="579.04999" xlink:href="#d"/>
<use x="428.8793" y="579.04999" xlink:href="#e"/>
<use x="436.43942" y="579.04999" xlink:href="#g"/>
<use x="441.47964" y="579.04999" xlink:href="#a"/>
<use x="446.51947" y="579.04999" xlink:href="#a"/>
<use x="451.5593" y="579.04999" xlink:href="#j"/>
<use x="456.59912" y="579.04999" xlink:href="#a"/>
<use x="461.63895" y="579.04999" xlink:href="#j"/>
<use x="466.55847" y="579.04999" xlink:href="#cq"/>
</g>
<use x="472.19949" y="579.04999" xlink:href="#di"/>
<use x="474.7189" y="579.04999" xlink:href="#ck"/>
<use x="480.35837" y="579.04999" xlink:href="#b"/>
<use x="482.87778" y="579.04999" xlink:href="#i"/>
<g stroke-width="1.0004">
<use x="487.9176" y="579.04999" xlink:href="#a"/>
<use x="496.07928" y="579.04999" xlink:href="#f"/>
<use x="499.07928" y="579.04999" xlink:href="#a"/>
<use x="504.11911" y="579.04999" xlink:href="#l"/>
<use x="508.67847" y="579.04999" xlink:href="#a"/>
<use x="513.59796" y="579.04999" xlink:href="#c"/>
<use x="515.63782" y="579.04999" xlink:href="#cv"/>
<use x="520.1972" y="579.04999" xlink:href="#a"/>
<use x="525.237" y="579.04999" xlink:href="#f"/>
<use x="68.158997" y="591.65002" xlink:href="#g"/>
<use x="73.198845" y="591.65002" xlink:href="#a"/>
<use x="78.238686" y="591.65002" xlink:href="#a"/>
<use x="83.278534" y="591.65002" xlink:href="#j"/>
<use x="88.318375" y="591.65002" xlink:href="#e"/>
<use x="95.400024" y="591.65002" xlink:href="#cp"/>
<use x="101.87971" y="591.65002" xlink:href="#cy"/>
<use x="108.35939" y="591.65002" xlink:href="#cp"/>
<use x="117.71994" y="591.65002" xlink:href="#l"/>
<use x="122.2793" y="591.65002" xlink:href="#i"/>
<use x="127.31915" y="591.65002" xlink:href="#a"/>
<use x="132.35898" y="591.65002" xlink:href="#l"/>
<use x="136.79883" y="591.65002" xlink:href="#db"/>
<use x="141.35818" y="591.65002" xlink:href="#cj"/>
<use x="146.51991" y="591.65002" xlink:href="#c"/>
<use x="148.55975" y="591.65002" xlink:href="#b"/>
<use x="153.71992" y="591.65002" xlink:href="#co"/>
<use x="160.1996" y="591.65002" xlink:href="#c"/>
<use x="162.23946" y="591.65002" xlink:href="#k"/>
<use x="164.2793" y="591.65002" xlink:href="#k"/>
<use x="168.95898" y="591.65002" xlink:href="#e"/>
<use x="173.51836" y="591.65002" xlink:href="#a"/>
<use x="178.5582" y="591.65002" xlink:href="#g"/>
<use x="183.59802" y="591.65002" xlink:href="#j"/>
<use x="191.28006" y="591.65002" xlink:href="#d"/>
<use x="196.3199" y="591.65002" xlink:href="#g"/>
<use x="203.99997" y="591.65002" xlink:href="#cw"/>
<use x="209.99997" y="591.65002" xlink:href="#cp"/>
<use x="216.47966" y="591.65002" xlink:href="#dl"/>
<use x="225.35895" y="591.65002" xlink:href="#f"/>
<use x="228.35896" y="591.65002" xlink:href="#a"/>
<use x="233.39882" y="591.65002" xlink:href="#cr"/>
<use x="238.43866" y="591.65002" xlink:href="#k"/>
<use x="240.4785" y="591.65002" xlink:href="#cm"/>
<use x="247.55898" y="591.65002" xlink:href="#d"/>
</g>
<use x="252.59882" y="591.65002" xlink:href="#ck"/>
<use x="255.11823" y="591.65002" xlink:href="#b"/>
<use x="257.63763" y="591.65002" xlink:href="#a"/>
<g stroke-width="1.0004">
<use x="262.67746" y="591.65002" xlink:href="#f"/>
<use x="268.43961" y="591.65002" xlink:href="#f"/>
<use x="271.43961" y="591.65002" xlink:href="#a"/>
<use x="276.47946" y="591.65002" xlink:href="#l"/>
<use x="281.03922" y="591.65002" xlink:href="#a"/>
<use x="285.95877" y="591.65002" xlink:href="#c"/>
<use x="287.9986" y="591.65002" xlink:href="#cv"/>
<use x="292.55798" y="591.65002" xlink:href="#c"/>
<use x="294.47751" y="591.65002" xlink:href="#g"/>
<use x="299.51736" y="591.65002" xlink:href="#cu"/>
</g>
<use x="307.19977" y="591.65002" xlink:href="#b"/>
<use x="309.71918" y="591.65002" xlink:href="#i"/>
<g stroke-width="1.0004">
<use x="314.75903" y="591.65002" xlink:href="#a"/>
<use x="322.43951" y="591.65002" xlink:href="#e"/>
<use x="326.9989" y="591.65002" xlink:href="#c"/>
<use x="329.03912" y="591.65002" xlink:href="#cn"/>
</g>
<use x="333.479" y="591.65002" xlink:href="#b"/>
<use x="335.99841" y="591.65002" xlink:href="#i"/>
<use x="343.79959" y="591.65002" stroke-width="1.0004" xlink:href="#cs"/>
<use x="348.83942" y="591.65002" stroke-width="1.0004" xlink:href="#cm"/>
<use x="353.3988" y="591.65002" xlink:href="#b"/>
<use x="355.91821" y="591.65002" xlink:href="#a"/>
<use x="360.95807" y="591.65002" stroke-width="1.0004" xlink:href="#cj"/>
<use x="366.11938" y="591.65002" stroke-width="1.0004" xlink:href="#h"/>
<use x="371.15924" y="591.65002" xlink:href="#b"/>
<use x="373.67862" y="591.65002" xlink:href="#i"/>
<g stroke-width="1.0004">
<use x="378.71848" y="591.65002" xlink:href="#a"/>
<use x="383.75833" y="591.65002" xlink:href="#f"/>
<use x="386.75833" y="591.65002" xlink:href="#co"/>
<use x="393.23804" y="591.65002" xlink:href="#c"/>
<use x="395.27786" y="591.65002" xlink:href="#e"/>
<use x="399.71771" y="591.65002" xlink:href="#a"/>
<use x="407.39938" y="591.65002" xlink:href="#c"/>
<use x="409.43921" y="591.65002" xlink:href="#b"/>
<use x="414.5994" y="591.65002" xlink:href="#co"/>
<use x="421.07907" y="591.65002" xlink:href="#c"/>
<use x="423.11893" y="591.65002" xlink:href="#k"/>
<use x="425.15878" y="591.65002" xlink:href="#k"/>
<use x="429.83926" y="591.65002" xlink:href="#e"/>
<use x="434.39862" y="591.65002" xlink:href="#a"/>
<use x="439.43884" y="591.65002" xlink:href="#g"/>
<use x="444.47867" y="591.65002" xlink:href="#j"/>
<use x="452.15833" y="591.65002" xlink:href="#d"/>
<use x="459.95831" y="591.65002" xlink:href="#ee"/>
<use x="466.43802" y="591.65002" xlink:href="#cw"/>
<use x="472.43802" y="591.65002" xlink:href="#cp"/>
<use x="478.91772" y="591.65002" xlink:href="#dl"/>
<use x="487.79938" y="591.65002" xlink:href="#f"/>
<use x="490.79938" y="591.65002" xlink:href="#a"/>
<use x="495.8392" y="591.65002" xlink:href="#cr"/>
<use x="500.87903" y="591.65002" xlink:href="#k"/>
<use x="502.79855" y="591.65002" xlink:href="#cm"/>
<use x="507.35791" y="591.65002" xlink:href="#cq"/>
<use x="512.51849" y="591.65002" xlink:href="#dh"/>
<use x="518.03802" y="591.65002" xlink:href="#i"/>
<use x="523.07788" y="591.65002" xlink:href="#a"/>
<use x="68.158997" y="604.25" xlink:href="#c"/>
<use x="70.198837" y="604.25" xlink:href="#g"/>
<use x="75.238686" y="604.25" xlink:href="#c"/>
</g>
<use x="77.278526" y="604.25" xlink:href="#b"/>
<use x="79.797928" y="604.25" xlink:href="#c"/>
<g stroke-width="1.0004">
<use x="81.717453" y="604.25" xlink:href="#d"/>
<use x="86.757301" y="604.25" xlink:href="#k"/>
<use x="91.199875" y="604.25" xlink:href="#cv"/>
<use x="95.759247" y="604.25" xlink:href="#d"/>
<use x="100.7991" y="604.25" xlink:href="#k"/>
<use x="102.83894" y="604.25" xlink:href="#ci"/>
<use x="107.75847" y="604.25" xlink:href="#a"/>
<use x="115.19987" y="604.25" xlink:href="#h"/>
<use x="120.23971" y="604.25" xlink:href="#ck"/>
<use x="125.27995" y="604.25" xlink:href="#cp"/>
<use x="131.75963" y="604.25" xlink:href="#cy"/>
<use x="138.2393" y="604.25" xlink:href="#cp"/>
<use x="147.35884" y="604.25" xlink:href="#c"/>
<use x="149.39868" y="604.25" xlink:href="#e"/>
<use x="156.35884" y="604.25" xlink:href="#cl"/>
<use x="161.39868" y="604.25" xlink:href="#cn"/>
<use x="165.95805" y="604.25" xlink:href="#do"/>
<use x="171.47758" y="604.25" xlink:href="#do"/>
<use x="176.99712" y="604.25" xlink:href="#cj"/>
<use x="181.91977" y="604.25" xlink:href="#d"/>
<use x="186.95961" y="604.25" xlink:href="#g"/>
<use x="191.99945" y="604.25" xlink:href="#j"/>
</g>
<use x="199.43968" y="604.25" xlink:href="#b"/>
<use x="201.95908" y="604.25" xlink:href="#i"/>
<g stroke-width="1.0004">
<use x="206.99931" y="604.25" xlink:href="#a"/>
<use x="214.5587" y="604.25" xlink:href="#cp"/>
<use x="221.03839" y="604.25" xlink:href="#cy"/>
<use x="227.5181" y="604.25" xlink:href="#cp"/>
<use x="233.99779" y="604.25" xlink:href="#cx"/>
<use x="241.55873" y="604.25" xlink:href="#l"/>
<use x="246.11812" y="604.25" xlink:href="#i"/>
<use x="251.15796" y="604.25" xlink:href="#a"/>
<use x="256.19781" y="604.25" xlink:href="#l"/>
<use x="260.63766" y="604.25" xlink:href="#db"/>
<use x="267.59979" y="604.25" xlink:href="#cr"/>
<use x="272.63962" y="604.25" xlink:href="#h"/>
<use x="277.67947" y="604.25" xlink:href="#k"/>
<use x="279.71933" y="604.25" xlink:href="#cm"/>
<use x="284.15918" y="604.25" xlink:href="#g"/>
<use x="289.19901" y="604.25" xlink:href="#h"/>
<use x="294.23886" y="604.25" xlink:href="#ch"/>
<use x="301.79825" y="604.25" xlink:href="#c"/>
<use x="303.71777" y="604.25" xlink:href="#d"/>
<use x="308.75763" y="604.25" xlink:href="#k"/>
<use x="313.31973" y="604.25" xlink:href="#c"/>
<use x="315.35956" y="604.25" xlink:href="#e"/>
<use x="319.91895" y="604.25" xlink:href="#dw"/>
<use x="223.55901" y="622.84998" xlink:href="#ds"/>
<use x="231.47853" y="622.84998" xlink:href="#er"/>
<use x="239.39806" y="622.84998" xlink:href="#ds"/>
<use x="250.43987" y="622.84998" xlink:href="#es"/>
<use x="253.5594" y="622.84998" xlink:href="#et"/>
<use x="259.67932" y="622.84998" xlink:href="#eu"/>
<use x="262.67935" y="622.84998" xlink:href="#ev"/>
<use x="268.79886" y="622.84998" xlink:href="#ew"/>
<use x="274.80005" y="622.84998" xlink:href="#ex"/>
<use x="284.40005" y="622.84998" xlink:href="#ey"/>
<use x="290.51959" y="622.84998" xlink:href="#de"/>
<use x="296.9993" y="622.84998" xlink:href="#df"/>
<use x="304.20001" y="619.25" xlink:href="#ez"/>
<use x="308.15897" y="622.84998" xlink:href="#de"/>
<use x="314.63867" y="622.84998" xlink:href="#df"/>
<use x="321.95898" y="619.25" xlink:href="#fa"/>
<use x="325.91992" y="622.84998" xlink:href="#de"/>
<use x="332.39963" y="622.84998" xlink:href="#df"/>
<use x="339.60001" y="619.25" xlink:href="#fb"/>
</g>
</g>
<g fill="#ff0000">
<use x="68.159019" y="645.88977" fill="#ff0000" stroke-width="1.0004" xlink:href="#ef"/>
</g>
<g fill="#ff0000">
<use x="73.198868" y="645.88977" fill="#ff0000" stroke-width="1.0004" xlink:href="#cq"/>
</g>
<g fill="#ff8000">
<g fill="#ff8000" stroke-width="1.0004">
<use x="78.119957" y="645.88977" xlink:href="#cp"/>
<use x="84.599648" y="645.88977" xlink:href="#d"/>
<use x="89.639488" y="645.88977" xlink:href="#k"/>
<use x="91.679337" y="645.88977" xlink:href="#l"/>
<use x="96.238708" y="645.88977" xlink:href="#ci"/>
<use x="101.27855" y="645.88977" xlink:href="#k"/>
<use x="103.19809" y="645.88977" xlink:href="#d"/>
</g>
<use x="108.23792" y="645.88977" xlink:href="#b"/>
<use x="110.75732" y="645.88977" xlink:href="#a"/>
<use x="118.1999" y="645.88977" xlink:href="#b"/>
<use x="120.7193" y="645.88977" xlink:href="#i"/>
<use x="125.75913" y="645.88977" fill="#ff8000" stroke-width="1.0004" xlink:href="#a"/>
<use x="133.31967" y="645.88977" xlink:href="#b"/>
<use x="135.83908" y="645.88977" xlink:href="#a"/>
<g fill="#ff8000" stroke-width="1.0004">
<use x="140.87892" y="645.88977" xlink:href="#ch"/>
<use x="148.43829" y="645.88977" xlink:href="#cr"/>
<use x="153.35782" y="645.88977" xlink:href="#a"/>
<use x="158.39764" y="645.88977" xlink:href="#f"/>
<use x="161.39764" y="645.88977" xlink:href="#d"/>
</g>
<use x="166.43788" y="645.88977" xlink:href="#b"/>
<use x="168.95728" y="645.88977" xlink:href="#ci"/>
<g fill="#ff8000" stroke-width="1.0004">
<use x="173.99712" y="645.88977" xlink:href="#f"/>
<use x="176.9971" y="645.88977" xlink:href="#a"/>
<use x="184.4393" y="645.88977" xlink:href="#d"/>
<use x="189.47913" y="645.88977" xlink:href="#g"/>
<use x="194.51897" y="645.88977" xlink:href="#j"/>
<use x="201.95842" y="645.88977" xlink:href="#i"/>
<use x="206.99826" y="645.88977" xlink:href="#ci"/>
<use x="212.03812" y="645.88977" xlink:href="#ch"/>
<use x="219.59749" y="645.88977" xlink:href="#c"/>
<use x="221.51701" y="645.88977" xlink:href="#j"/>
<use x="226.55687" y="645.88977" xlink:href="#c"/>
</g>
<use x="228.59671" y="645.88977" xlink:href="#b"/>
<use x="231.1161" y="645.88977" xlink:href="#cm"/>
<g fill="#ff8000" stroke-width="1.0004">
<use x="238.07939" y="645.88977" xlink:href="#cv"/>
<use x="242.63878" y="645.88977" xlink:href="#d"/>
<use x="247.67862" y="645.88977" xlink:href="#k"/>
<use x="249.71846" y="645.88977" xlink:href="#ci"/>
<use x="254.638" y="645.88977" xlink:href="#a"/>
</g>
</g>
</g>
</svg>
