<svg width="710" height="120" version="1.2" viewBox="0 0 710 120" xmlns="http://www.w3.org/2000/svg" xmlns:xlink="http://www.w3.org/1999/xlink">
<defs>
<symbol id="cw" overflow="visible">
<path d="m1.8438 0-1.7188-7.9062h.875l.98438 5.1875c.10156.53125.19531 1.0703.28125 1.6094l.29688-1.4531 1.2344-5.3438h1.0312l.92188 4c.22656.98047.39844 1.9141.51562 2.7969.082031-.50781.1875-1.082.3125-1.7188l1.0156-5.0781h.875l-1.7812 7.9062h-.82812l-1.375-6.0312-.20312-.92188c-.0625.34375-.125.65234-.1875.92188l-1.375 6.0312z"/>
</symbol>
<symbol id="bq" overflow="visible">
<path d="m.57812 0v-7.9062h.79688v2.8281c.1875-.25781.39453-.45312.625-.57812.23828-.13281.5-.20312.78125-.20312.5 0 .89453.16406 1.1875.48438.28906.3125.4375.89844.4375 1.75v3.625h-.79688v-3.625c0-.5-.089844-.85156-.26562-1.0625-.17969-.21875-.41797-.32812-.71875-.32812-.34375 0-.64062.14062-.89062.42188-.24219.27344-.35938.75781-.35938 1.4531v3.1406z"/>
</symbol>
<symbol id="bj" overflow="visible">
<path d="m3.7969-1.8438.82812.125c-.14844.61719-.39844 1.0781-.75 1.3906-.35547.30469-.79688.45312-1.3281.45312-.66797 0-1.2109-.25-1.625-.75-.40625-.50781-.60938-1.2383-.60938-2.1875 0-.98828.20703-1.7422.625-2.2656.41406-.51953.94141-.78125 1.5781-.78125.60156 0 1.1094.25781 1.5156.76562.40625.51172.60938 1.25.60938 2.2188v.26562h-3.5156c.039062.63672.19141 1.1211.45312 1.4531.26953.32422.59375.48438.96875.48438.60156 0 1.0195-.39062 1.25-1.1719zm-2.6094-1.5781h2.6094c-.03125-.48828-.13672-.85938-.3125-1.1094-.26172-.35156-.58594-.53125-.96875-.53125-.36719 0-.67188.15234-.92188.45312-.25.29297-.38672.6875-.40625 1.1875z"/>
</symbol>
<symbol id="bm" overflow="visible">
<path d="m.57812 0v-5.7344h.71875v.82812c.17578-.32031.39062-.5625.64062-.71875s.53516-.23438.85938-.23438c.25 0 .47656.054687.6875.15625.21875.09375.39062.22656.51562.39062.13281.15625.23438.36719.29688.625.070313.25.10938.64062.10938 1.1719v3.5156h-.79688v-3.4844c0-.41406-.039063-.72266-.10938-.92188-.074219-.19531-.1875-.34766-.34375-.45312-.15625-.10156-.33594-.15625-.53125-.15625-.375 0-.67969.14062-.90625.42188-.23047.28125-.34375.77344-.34375 1.4688v3.125z"/>
</symbol>
<symbol id="cg" overflow="visible">
<path d="m.40625-2.5469.8125-.078125c.039062.4375.14062.77734.29688 1.0156.15625.24219.375.4375.65625.59375.28125.14844.59766.21875.95312.21875.50781 0 .90625-.125 1.1875-.375s.42188-.57812.42188-.98438c0-.22656-.054687-.42969-.15625-.60938-.09375-.17578-.24609-.31641-.45312-.42188-.21094-.11328-.65625-.26953-1.3438-.46875-.61719-.1875-1.0547-.36719-1.3125-.54688-.25-.1875-.44922-.42188-.59375-.70312-.14844-.28125-.21875-.59766-.21875-.95312 0-.64453.20703-1.1719.625-1.5781.41406-.40625.97266-.60938 1.6719-.60938.47656 0 .89453.10156 1.25.29688.36328.1875.64453.46094.84375.8125.20703.35547.31641.77344.32812 1.25l-.82812.078125c-.042969-.50781-.19922-.89062-.46875-1.1406-.26172-.25-.625-.375-1.0938-.375-.49219 0-.86719.10938-1.125.32812-.25.21875-.375.5-.375.84375 0 .32422.09375.57422.28125.75.1875.17969.60938.35547 1.2656.53125.63281.17969 1.082.32812 1.3438.45312.39453.21094.69141.48047.89062.8125.20703.32422.3125.71484.3125 1.1719 0 .44922-.10938.85938-.32812 1.2344-.21094.375-.49609.66406-.85938.85938-.36719.1875-.80859.28125-1.3281.28125-.80469 0-1.4453-.23828-1.9219-.71875-.46875-.48828-.71484-1.1445-.73438-1.9688z"/>
</symbol>
<symbol id="by" overflow="visible">
<path d="m5.2969-2.7656.875.25c-.19922.89844-.53906 1.5625-1.0156 2-.46875.4375-1.0469.65625-1.7344.65625-.59375 0-1.1055-.14453-1.5312-.4375-.42969-.30078-.77734-.77344-1.0469-1.4219-.27344-.64453-.40625-1.4062-.40625-2.2812s.13281-1.6133.40625-2.2188c.26953-.60156.63281-1.0547 1.0938-1.3594.46875-.3125.98828-.46875 1.5625-.46875.625 0 1.1602.19922 1.6094.59375.44531.38672.75781.96094.9375 1.7188l-.84375.23438c-.28125-1.0938-.85547-1.6406-1.7188-1.6406-.4375 0-.82031.10938-1.1406.32812-.3125.21875-.5625.5625-.75 1.0312s-.28125 1.0625-.28125 1.7812c0 1.0742.1875 1.8828.5625 2.4219.38281.54297.89453.8125 1.5312.8125.46875 0 .86719-.16406 1.2031-.5.34375-.33203.57031-.83203.6875-1.5z"/>
</symbol>
<symbol id="dh" overflow="visible">
<path d="m.64062 0v-7.9062h.85938v6.9688h3.2031v.9375z"/>
</symbol>
<symbol id="bk" overflow="visible">
<path d="m.57812-6.7969v-1.1094h.79688v1.1094zm0 6.7969v-5.7344h.79688v5.7344z"/>
</symbol>
<symbol id="bl" overflow="visible">
<path d="m.28125-1.7031.78125-.15625c.050781.40625.17969.71094.39062.90625.20703.1875.48438.28125.82812.28125s.60938-.082031.79688-.25c.1875-.17578.28125-.39453.28125-.65625 0-.22656-.078125-.40625-.23438-.53125-.11719-.082031-.38672-.1875-.8125-.3125-.61719-.19531-1.0273-.35938-1.2344-.48438-.21094-.13281-.37109-.3125-.48438-.53125-.11719-.22656-.17188-.48438-.17188-.76562 0-.48828.15625-.88281.46875-1.1875.3125-.3125.74219-.46875 1.2969-.46875.34375 0 .64453.0625.90625.1875.26953.125.47266.29688.60938.51562.14453.21094.24219.51172.29688.90625l-.78125.125c-.0625-.625-.40234-.9375-1.0156-.9375-.34375 0-.60156.074219-.76562.21875-.16797.13672-.25.30859-.25.51562 0 .21875.078125.39062.23438.51562.09375.0625.37891.17969.85938.34375.66406.21094 1.0938.375 1.2812.5.19531.125.34766.29688.45312.51562.11328.21094.17188.46094.17188.75 0 .55469-.17969 1-.53125 1.3438-.34375.33594-.82031.5-1.4219.5-1.125 0-1.7773-.61328-1.9531-1.8438z"/>
</symbol>
<symbol id="ch" overflow="visible">
<path d="m.4375.46875.76562.14062c.039063.3125.14844.53906.32812.6875.17578.14453.42578.21875.75.21875.35156 0 .62891-.085937.82812-.25.20703-.16797.34766-.41797.42188-.75.050781-.19922.078125-.61719.078125-1.2656-.17969.25-.375.4375-.59375.5625-.21094.125-.44531.1875-.70312.1875-.5625 0-1.0312-.23828-1.4062-.71875-.41797-.53906-.625-1.2695-.625-2.1875 0-.61328.09375-1.1484.28125-1.6094.1875-.45703.42969-.79688.73438-1.0156.30078-.21875.64062-.32812 1.0156-.32812.28125 0 .53516.070313.76562.20312.22656.13672.42578.34375.59375.625v-.70312h.73438v4.9531c0 .88281-.074219 1.5156-.21875 1.8906-.13672.375-.37109.67188-.70312.89062-.32422.21875-.71484.32812-1.1719.32812-.61719 0-1.0859-.16797-1.4062-.5-.32422-.32422-.48047-.77734-.46875-1.3594zm.65625-3.4375c0 .75.125 1.3047.375 1.6562.25.34375.55078.51562.90625.51562.36328 0 .67188-.16406.92188-.5.25-.34375.375-.88281.375-1.625 0-.71875-.13281-1.25-.39062-1.5938-.26172-.35156-.57422-.53125-.9375-.53125-.33594 0-.625.17969-.875.53125-.25.34375-.375.85938-.375 1.5469z"/>
</symbol>
<symbol id="ca" overflow="visible">
<path d="m.8125 0v-1.1094h.90625v1.1094c0 .42578-.0625.75781-.1875 1-.125.25-.30859.4375-.54688.5625l-.21875-.40625c.16406-.09375.28516-.23047.35938-.40625.082031-.16797.12891-.41797.14062-.75z"/>
</symbol>
<symbol id="bi" overflow="visible">
<path d="m2.3594-.875.10938.85938c-.21875.0625-.41797.09375-.59375.09375-.28125 0-.50781-.054688-.67188-.15625-.16797-.11328-.28125-.26562-.34375-.45312-.0625-.19531-.09375-.57812-.09375-1.1406v-3.2969h-.59375v-.76562h.59375v-1.4062l.78125-.59375v2h.8125v.76562h-.8125v3.3438c0 .3125.023437.51172.078125.59375.0625.13672.1875.20312.375.20312.09375 0 .21094-.015625.35938-.046875z"/>
</symbol>
<symbol id="cj" overflow="visible">
<path d="m.67188 0v-7.9062h2.25c.55078 0 .97266.046875 1.2656.14062.375.125.69531.35938.96875.70312.28125.33594.5.75781.65625 1.2656.15625.5.23438 1.1016.23438 1.7969 0 .89844-.13672 1.6562-.40625 2.2812-.26172.625-.60156 1.0703-1.0156 1.3281-.40625.26172-.94531.39062-1.6094.39062zm.85938-.9375h1.3906c.55078 0 .97266-.085938 1.2656-.26562.28906-.1875.50781-.47656.65625-.875.20703-.53906.3125-1.1797.3125-1.9219 0-.80078-.10938-1.4297-.32812-1.8906-.21875-.46875-.5-.77344-.84375-.92188-.23047-.10156-.59375-.15625-1.0938-.15625h-1.3594z"/>
</symbol>
<symbol id="bw" overflow="visible">
<path d="m-.015625 0 2.5-7.9062h.92188l2.6562 7.9062h-.98438l-.75-2.3906h-2.7188l-.70312 2.3906zm1.875-3.25h2.2031l-.6875-2.1875c-.21094-.67578-.35938-1.2227-.45312-1.6406-.085937.51172-.19922 1.0156-.34375 1.5156z"/>
</symbol>
<symbol id="br" overflow="visible">
<path d="m.5625 0v-7.9062h.79688v7.9062z"/>
</symbol>
<symbol id="bu" overflow="visible">
<path d="m3.6562-2.0938.78125.125c-.085938.67969-.30859 1.1992-.67188 1.5625-.36719.35547-.79688.53125-1.2969.53125-.61719 0-1.125-.25-1.5312-.75-.39844-.50781-.59375-1.2578-.59375-2.25 0-.98828.19531-1.7344.59375-2.2344.40625-.5.92578-.75 1.5625-.75.47656 0 .88281.15234 1.2188.45312.33203.30469.54688.75781.64062 1.3594l-.76562.14062c-.074219-.38281-.20312-.67188-.39062-.85938-.1875-.19531-.41406-.29688-.67188-.29688-.39844 0-.72656.17969-.98438.53125-.25.34375-.375.89062-.375 1.6406 0 .78125.11719 1.3516.35938 1.7031.25.34375.56641.51562.95312.51562.30078 0 .55469-.11328.76562-.34375.21875-.22656.35156-.58594.40625-1.0781z"/>
</symbol>
<symbol id="bn" overflow="visible">
<path d="m3.6406-.70312c-.26172.27344-.53906.48047-.82812.625-.28125.13281-.57812.20312-.89062.20312-.49219 0-.88281-.14453-1.1719-.4375-.29297-.28906-.4375-.6875-.4375-1.1875 0-.33203.066406-.625.20312-.875.13281-.25781.32031-.46094.5625-.60938.23828-.14453.59766-.25 1.0781-.3125.64453-.09375 1.1172-.20703 1.4219-.34375l.015625-.25c0-.38281-.074219-.65625-.21875-.8125-.19922-.22656-.5-.34375-.90625-.34375-.375 0-.65625.078125-.84375.23438-.17969.14844-.30859.42969-.39062.84375l-.78125-.125c.10156-.61328.32812-1.0625.67188-1.3438s.82812-.42188 1.4531-.42188c.5 0 .89062.09375 1.1719.28125s.45703.41797.53125.6875c.070312.27344.10938.67188.10938 1.2031v1.2812c0 .90625.015625 1.4805.046875 1.7188.03125.24219.097656.46875.20312.6875h-.82812c-.085938-.19531-.14062-.42969-.17188-.70312zm-.0625-2.1719c-.29297.14844-.72656.26562-1.2969.35938-.33594.0625-.57031.13281-.70312.20312-.13672.074219-.24219.17969-.3125.3125-.074219.13672-.10938.29297-.10938.46875 0 .27344.082031.49219.25.65625.17578.16797.41016.25.70312.25.28906 0 .55078-.070312.78125-.21875.22656-.15625.39844-.35156.51562-.59375.11328-.25.17188-.60938.17188-1.0781z"/>
</symbol>
<symbol id="bx" overflow="visible">
<path d="m.8125 0v-4.9688h-.70312v-.76562h.70312v-.60938c0-.44531.046875-.78125.14062-1 .09375-.22656.23438-.39844.42188-.51562.19531-.125.44141-.1875.73438-.1875.21875 0 .46094.03125.73438.09375l-.10938.85938c-.16797-.039062-.32422-.0625-.46875-.0625-.24219 0-.41406.0625-.51562.1875-.10547.125-.15625.36719-.15625.71875v.51562h.92188v.76562h-.92188v4.9688z"/>
</symbol>
<symbol id="bp" overflow="visible">
<path d="m.57812 0v-5.7344h.71875v.875c.1875-.40625.35156-.67188.5-.79688.15625-.13281.32812-.20312.51562-.20312.26953 0 .54688.10547.82812.3125l-.28125.90625c-.19922-.14453-.39062-.21875-.57812-.21875-.16797 0-.32422.0625-.46875.1875-.13672.11719-.23047.27734-.28125.48438-.10547.375-.15625.77344-.15625 1.1875v3z"/>
</symbol>
<symbol id="bs" overflow="visible">
<path d="m.28125-2.8594c0-.98828.20703-1.7344.625-2.2344.41406-.50781.94141-.76562 1.5781-.76562.625 0 1.1445.25781 1.5625.76562.42578.5.64062 1.2266.64062 2.1719 0 1.0312-.21094 1.7969-.625 2.2969-.40625.5-.93359.75-1.5781.75-.625 0-1.1523-.25-1.5781-.75-.41797-.50781-.625-1.2539-.625-2.2344zm.8125 0c0 .74219.13281 1.293.40625 1.6562.26953.35547.60938.53125 1.0156.53125.36328 0 .67969-.17969.95312-.54688.26953-.36328.40625-.91016.40625-1.6406 0-.73828-.13672-1.2852-.40625-1.6406-.27344-.36328-.60547-.54688-1-.54688-.375 0-.69922.18359-.96875.54688-.27344.35547-.40625.90234-.40625 1.6406z"/>
</symbol>
<symbol id="bt" overflow="visible">
<path d="m.59375 0v-5.7344h.71875v.8125c.15625-.30078.35156-.53125.59375-.6875.25-.16406.52344-.25.82812-.25.32031 0 .59766.089844.82812.26562.22656.16797.39453.41406.5.73438.1875-.33203.39844-.58203.64062-.75.23828-.16406.50391-.25.79688-.25.45703 0 .8125.15625 1.0625.46875.25781.30469.39062.78906.39062 1.4531v3.9375h-.78125v-3.6094c0-.40625-.03125-.69141-.09375-.85938-.0625-.17578-.16406-.3125-.29688-.40625-.125-.09375-.27344-.14062-.4375-.14062-.34375 0-.625.13672-.84375.40625-.21094.27344-.3125.69922-.3125 1.2812v3.3281h-.8125v-3.7188c0-.47656-.074219-.8125-.21875-1-.14844-.19531-.34375-.29688-.59375-.29688-.36719 0-.65234.14844-.85938.4375-.21094.29297-.3125.82812-.3125 1.6094v2.9688z"/>
</symbol>
<symbol id="ci" overflow="visible">
<path d="m1.4531 0-1.4375-5.7344h.82812l.73438 3.3125.28125 1.2344.25-1.1875.73438-3.3594h.82812l.70312 3.3281.23438 1.0938.26562-1.1094.8125-3.3125h.76562l-1.4688 5.7344h-.82812l-.75-3.4375-.17188-.96875-.95312 4.4062z"/>
</symbol>
<symbol id="cb" overflow="visible">
<path d="m.84375 0v-1.1094h.90625v1.1094z"/>
</symbol>
<symbol id="cc" overflow="visible">
<path d="m.57812 2.2031v-7.9375h.73438v.75c.17578-.3125.375-.53516.59375-.67188.21875-.13281.47266-.20312.76562-.20312.36328 0 .69141.10938.98438.32812.30078.21875.53906.55469.71875 1 .1875.44922.28125.99219.28125 1.625 0 .96875-.20312 1.7188-.60938 2.25-.40625.52344-.88672.78125-1.4375.78125-.24219 0-.46875-.0625-.6875-.1875-.21094-.125-.39062-.30078-.54688-.53125v2.7969zm.71875-5.0312c0 .74219.125 1.2891.375 1.6406.25.34375.55078.51562.90625.51562.33203 0 .625-.17969.875-.54688.25781-.36328.39062-.92188.39062-1.6719s-.125-1.3008-.375-1.6562c-.25-.36328-.55469-.54688-.90625-.54688-.3125 0-.60547.19531-.875.57812-.26172.38672-.39062.94922-.39062 1.6875z"/>
</symbol>
<symbol id="bz" overflow="visible">
<path d="m1.3125 0h-.73438v-7.9062h.79688v2.8125c.16406-.25.35156-.4375.5625-.5625.21875-.13281.45703-.20312.71875-.20312.36328 0 .69531.10938 1 .32812.30078.21875.53906.55469.71875 1 .1875.44922.28125.99219.28125 1.625 0 .96875-.20312 1.7188-.60938 2.25-.40625.52344-.88672.78125-1.4375.78125-.27344 0-.51562-.070312-.73438-.20312-.21875-.14453-.40625-.35938-.5625-.64062zm0-2.9062c0 .59375.050781 1.043.15625 1.3438.10156.29297.25391.51562.45312.67188.19531.14844.41406.21875.65625.21875.33203 0 .625-.17969.875-.54688.25-.375.375-.92578.375-1.6562 0-.75-.125-1.3008-.375-1.6562-.24219-.35156-.53906-.53125-.89062-.53125-.32422 0-.61719.1875-.875.5625-.25.36719-.375.89844-.375 1.5938z"/>
</symbol>
<symbol id="bv" overflow="visible">
<path d="m3.6562 0v-.84375c-.17969.32422-.39062.57031-.64062.73438-.25.15625-.53125.23438-.84375.23438-.36719 0-.68359-.10156-.95312-.29688-.26172-.19531-.4375-.44531-.53125-.75-.085938-.3125-.125-.72656-.125-1.25v-3.5625h.79688v3.1875c0 .58594.023437.98047.078125 1.1875.0625.19922.17188.35938.32812.48438.16406.11719.35156.17188.5625.17188.375 0 .6875-.15625.9375-.46875.20703-.26953.3125-.76562.3125-1.4844v-3.0781h.79688v5.7344z"/>
</symbol>
<symbol id="bo" overflow="visible">
<path d="m3.625 0v-.71875c-.13672.27344-.32031.48047-.54688.625-.23047.14453-.47656.21875-.73438.21875-.55469 0-1.0312-.25781-1.4375-.78125-.40625-.51953-.60938-1.2539-.60938-2.2031 0-.65625.085937-1.207.26562-1.6562.1875-.45703.42578-.79688.71875-1.0156.30078-.21875.63281-.32812 1-.32812.26953 0 .51562.074219.73438.21875.22656.13672.41406.32422.5625.5625v-2.8281h.79688v7.9062zm-2.5156-2.8594c0 .74219.125 1.293.375 1.6562.25781.35547.5625.53125.90625.53125s.63281-.17188.875-.51562c.25-.34375.375-.86328.375-1.5625 0-.80078-.125-1.3828-.375-1.75-.24219-.375-.55469-.5625-.9375-.5625-.33594 0-.62109.17969-.85938.53125-.24219.35547-.35938.91406-.35938 1.6719z"/>
</symbol>
<symbol id="cd" overflow="visible">
<path d="m.5625 2.2031-.09375-.90625c.17578.050781.32812.078125.45312.078125.17578 0 .31641-.039062.42188-.10938.11328-.0625.20703-.16797.28125-.3125.019531-.042969.125-.35547.3125-.9375l-1.7969-5.75h.85938l.98438 3.3281c.125.40625.23828.85156.34375 1.3281.082031-.44531.19141-.88281.32812-1.3125l1-3.3438h.79688l-1.7812 5.8281c-.24219.75781-.42969 1.2656-.5625 1.5156-.13672.25-.29297.42969-.46875.54688-.16797.11328-.35547.17188-.5625.17188-.15625 0-.32812-.042969-.51562-.125z"/>
</symbol>
<symbol id="ck" overflow="visible">
<path d="m1.9062 0-1.7969-5.7344h.84375l1.0156 3.4375c.11328.38672.21094.77344.29688 1.1562.070313-.30078.17188-.66406.29688-1.0938l1.0469-3.5h.8125l-1.7812 5.7344z"/>
</symbol>
<symbol id="cl" overflow="visible">
<path d="m2.1094 2.3281c-.39844-.625-.75781-1.3906-1.0781-2.2969-.32422-.90625-.48438-1.875-.48438-2.9062 0-1.7383.51953-3.4609 1.5625-5.1719h.57812c-.40625.84375-.6875 1.5-.84375 1.9688-.14844.46875-.26562.98438-.35938 1.5469-.085937.55469-.125 1.1094-.125 1.6719 0 1.7305.44141 3.457 1.3281 5.1875z"/>
</symbol>
<symbol id="cx" overflow="visible">
<path d="m4.9375-7.9062h.85938v4.5625c0 .77344-.078125 1.4023-.23438 1.8906-.14844.49219-.41797.88281-.8125 1.1719-.38672.28125-.88281.42188-1.4844.42188-.86719 0-1.5117-.25391-1.9375-.76562-.41797-.50781-.625-1.4141-.625-2.7188v-4.5625h.84375v4.5625c0 .71875.054687 1.2422.17188 1.5625.11328.3125.29688.55469.54688.71875.25781.16797.56641.25.92188.25.61328 0 1.0547-.17188 1.3281-.51562.28125-.34375.42188-1.0156.42188-2.0156z"/>
</symbol>
<symbol id="cm" overflow="visible">
<path d="m.90625 2.3281h-.57812c.88281-1.7305 1.3281-3.457 1.3281-5.1875 0-.5625-.046875-1.1172-.14062-1.6719-.085937-.5625-.20312-1.0781-.35938-1.5469-.14844-.46875-.42188-1.125-.82812-1.9688h.57812c1.0391 1.7109 1.5625 3.4336 1.5625 5.1719 0 1.0117-.15625 1.9688-.46875 2.875-.3125.89453-.67969 1.6719-1.0938 2.3281z"/>
</symbol>
<symbol id="cn" overflow="visible">
<path d="m.85938 0v-7.9062h.85938v7.9062z"/>
</symbol>
<symbol id="co" overflow="visible">
<path d="m.10938-3.9531c.039063-.46875.42188-1.0195 1.1406-1.6562.4375-.38281.69531-.64062.78125-.76562.082031-.125.125-.25391.125-.39062 0-.1875-.058594-.33203-.17188-.4375-.10547-.11328-.25-.17188-.4375-.17188-.19922 0-.34375.042969-.4375.125-.09375.085938-.17188.25-.23438.5l-.67188-.09375c.082031-.40625.23438-.69531.45312-.875.21875-.1875.51562-.28125.89062-.28125.42578 0 .75.10156.96875.29688.21875.19922.32812.46484.32812.79688 0 .30469-.089844.58984-.26562.85938-.13672.19922-.4375.50781-.90625.92188-.24219.21875-.41406.39062-.51562.51562h1.7031v.65625z"/>
</symbol>
<symbol id="cy" overflow="visible">
<path d="m3.5781 2.2031v-2.8125c-.125.21875-.30469.39844-.53125.53125-.21875.13281-.44531.20312-.67188.20312-.5625 0-1.0547-.26562-1.4688-.79688-.40625-.53125-.60938-1.2812-.60938-2.25 0-.84375.17188-1.5391.51562-2.0938.35156-.5625.84375-.84375 1.4688-.84375.28906 0 .55078.078125.78125.23438.22656.14844.42578.36719.59375.65625v-.76562h.71875v7.9375zm-2.4688-5.0781c0 .74219.12891 1.293.39062 1.6562.25781.36719.57031.54688.9375.54688.3125 0 .59375-.17188.84375-.51562.25-.35156.375-.87891.375-1.5781 0-.78125-.13281-1.3633-.39062-1.75-.26172-.38281-.57422-.57812-.9375-.57812-.32422 0-.60938.18359-.85938.54688-.24219.35547-.35938.91406-.35938 1.6719z"/>
</symbol>
<symbol id="cz" overflow="visible">
<path d="m.42188-6.875v-.9375h4.1875v.76562c-.625.8125-1.1797 1.8711-1.6562 3.1719-.46875 1.3047-.74219 2.5938-.8125 3.875h-.8125c.00781-.66406.11328-1.4375.3125-2.3125.19531-.88281.46875-1.7227.8125-2.5156.35156-.80078.73438-1.4844 1.1406-2.0469z"/>
</symbol>
<symbol id="da" overflow="visible">
<path d="m.28125-2.375v-.96875h2.4531v.96875z"/>
</symbol>
<symbol id="ce" overflow="visible">
<path d="m.35938-3.9062c0-1.3203.17578-2.3203.53125-3 .36328-.6875.89453-1.0312 1.5938-1.0312.61328 0 1.0977.27734 1.4531.82812.4375.66797.65625 1.7344.65625 3.2031 0 1.3242-.18359 2.3281-.54688 3.0156-.35547.6875-.88281 1.0312-1.5781 1.0312-.61719 0-1.1211-.30078-1.5156-.90625-.39844-.60156-.59375-1.6484-.59375-3.1406zm.8125 0c0 1.293.125 2.1562.375 2.5938s.5625.65625.9375.65625c.36328 0 .66406-.21875.90625-.65625.25-.44531.375-1.3125.375-2.5938s-.125-2.1406-.375-2.5781c-.24219-.4375-.55859-.65625-.95312-.65625-.35547 0-.65625.22656-.90625.67188-.24219.4375-.35938 1.293-.35938 2.5625z"/>
</symbol>
<symbol id="cf" overflow="visible">
<path d="m.0625 0 1.7188-2.9844-1.5938-2.75h1l.71875 1.3438c.13281.25.24219.46484.32812.64062.13281-.23828.25391-.44531.35938-.625l.79688-1.3594h.95312l-1.625 2.7031 1.7344 3.0312h-.96875l-.96875-1.7812-.25-.48438-1.2344 2.2656z"/>
</symbol>
<symbol id="db" overflow="visible">
<path d="m.35938-2.0938.8125-.125c.15625 1.043.57031 1.5625 1.25 1.5625.36328 0 .67578-.14844.9375-.45312.26953-.3125.40625-.71094.40625-1.2031 0-.46875-.125-.83594-.375-1.1094-.24219-.28125-.53906-.42188-.89062-.42188-.15625 0-.34375.03125-.5625.09375l.09375-.84375.125.015625c.38281 0 .69531-.11719.9375-.35938.25-.25.375-.57031.375-.96875 0-.375-.10547-.67188-.3125-.89062-.19922-.22656-.44531-.34375-.73438-.34375-.3125 0-.57422.12109-.78125.35938-.21094.23047-.34375.58594-.40625 1.0625l-.78125-.17188c.09375-.67578.31641-1.1875.67188-1.5312.35156-.34375.78125-.51562 1.2812-.51562.51953 0 .96094.19531 1.3281.57812.375.38672.5625.875.5625 1.4688 0 .36719-.078125.6875-.23438.96875-.15625.27344-.375.48438-.65625.64062.25781.074219.47266.19531.64062.35938.16406.16797.30078.39062.40625.67188.10156.27344.15625.57812.15625.92188 0 .71875-.21484 1.3125-.64062 1.7812-.42969.46094-.9375.6875-1.5312.6875-.55469 0-1.0234-.19531-1.4062-.59375-.38672-.40625-.60938-.95312-.67188-1.6406z"/>
</symbol>
<symbol id="cp" overflow="visible">
<path d="m1.5781-4.2812c-.3125-.14453-.55469-.35156-.71875-.625-.16797-.26953-.25-.60156-.25-1 0-.60156.17578-1.0938.53125-1.4688.35156-.375.80078-.5625 1.3438-.5625.53906 0 .98828.19531 1.3438.57812.35156.38672.53125.88281.53125 1.4844 0 .38672-.078125.71094-.23438.96875-.15625.26172-.39844.46875-.71875.625.39453.14844.69531.39844.90625.75.20703.34375.3125.77344.3125 1.2812 0 .69922-.20312 1.2734-.60938 1.7188-.40625.44922-.91406.67188-1.5156.67188-.61719 0-1.125-.22266-1.5312-.67188-.40625-.44531-.60938-1.0312-.60938-1.75 0-.53125.10938-.96875.32812-1.3125s.51562-.57031.89062-.6875zm-.14062-1.6562c0 .39844.097656.71094.29688.9375.20703.23047.46094.34375.76562.34375.28906 0 .53516-.11328.73438-.34375.20703-.22656.3125-.51953.3125-.875 0-.375-.10547-.67578-.3125-.90625-.21094-.23828-.46094-.35938-.75-.35938-.28125 0-.52734.11719-.73438.34375-.21094.23047-.3125.51562-.3125.85938zm-.26562 3.6562c0 .49219.12891.88672.39062 1.1875.25781.29297.57031.4375.9375.4375.36328 0 .67188-.14453.92188-.4375.25781-.28906.39062-.67578.39062-1.1562 0-.48828-.13281-.87891-.39062-1.1719-.26172-.30078-.57812-.45312-.95312-.45312-.35547 0-.66406.15234-.92188.45312-.25.29297-.375.67188-.375 1.1406z"/>
</symbol>
<symbol id="dc" overflow="visible">
<path d="m.70312 0v-7.9062h2.875c.59375 0 1.0312.074219 1.3125.21875.28906.14844.52344.39062.70312.73438.1875.34375.28125.74609.28125 1.2031 0 .59375-.15625 1.0781-.46875 1.4531-.30469.36719-.75.60156-1.3438.70312.23828.14844.42188.29297.54688.4375.25.30469.47266.63672.67188 1l1.125 2.1562h-1.0781l-.85938-1.6406c-.33594-.64453-.58984-1.0781-.76562-1.2969-.16797-.22656-.32812-.37891-.48438-.45312-.15625-.082031-.38281-.125-.67188-.125h-1v3.5156zm.84375-4.4219h1.8438c.40625 0 .71094-.046875.92188-.14062.20703-.09375.375-.24219.5-.45312.125-.20703.1875-.45312.1875-.73438 0-.39453-.12109-.70703-.35938-.9375-.23047-.22656-.57422-.34375-1.0312-.34375h-2.0625z"/>
</symbol>
<symbol id="cq" overflow="visible">
<path d="m.84375-4.625v-1.1094h.90625v1.1094zm0 4.625v-1.1094h.90625v1.1094z"/>
</symbol>
<symbol id="cr" overflow="visible">
<path d="m1.4062-6.4531v1.1406h-.85938v-.89062c0-.50781.054687-.88281.17188-1.125.125-.25.3125-.44141.5625-.57812l.20312.375c-.15625.085938-.27734.20312-.35938.35938-.085938.15625-.13281.39844-.14062.71875z"/>
</symbol>
<symbol id="dd" overflow="visible">
<path d="m3.3594 0h-.79688v-6.1875c-.1875.21875-.4375.44531-.75.67188-.30469.21875-.58594.38672-.84375.5v-.9375c.4375-.25.82031-.55469 1.1562-.92188.34375-.36328.58203-.71875.71875-1.0625h.51562z"/>
</symbol>
<symbol id="cs" overflow="visible">
<path d="m.53125-6.7812v-1.125h.85938v.89062c0 .51172-.0625.89062-.1875 1.1406-.125.24219-.30859.42969-.54688.5625l-.20312-.39062c.3125-.15625.47266-.51562.48438-1.0781z"/>
</symbol>
<symbol id="de" overflow="visible">
<path d="m.60938 0v-7.9062h.78125v4.5156l1.8906-2.3438h1.0312l-1.7969 2.125 1.9844 3.6094h-.98438l-1.5625-2.9219-.5625.65625v2.2656z"/>
</symbol>
<symbol id="df" overflow="visible">
<path d="m.67188 0v-7.9062h.85938v3.9219l3.2188-3.9219h1.1562l-2.7188 3.2031 2.8438 4.7031h-1.1406l-2.2969-4-1.0625 1.2656v2.7344z"/>
</symbol>
<symbol id="dg" overflow="visible">
<path d="m.67188 0v-7.9062h1.2969l1.5312 5.5938.3125 1.1719c.070312-.28906.1875-.71094.34375-1.2656l1.5469-5.5h1.1562v7.9062h-.82812v-6.625l-1.8906 6.625h-.76562l-1.875-6.7344v6.7344z"/>
</symbol>
<symbol id="di" overflow="visible">
<path d="m.39062-6.3906v-1.4062h4.25v1.0938c-.35547.42969-.71484 1.0273-1.0781 1.7969-.35547.77344-.63281 1.6055-.82812 2.5-.1875.88672-.28125 1.6875-.28125 2.4062h-1.2031c.03125-1.125.21875-2.2422.5625-3.3594.34375-1.1133.80469-2.125 1.3906-3.0312z"/>
</symbol>
<symbol id="dk" overflow="visible">
<path d="m.65625 0v-1.5156h1.25v1.5156z"/>
</symbol>
<symbol id="dl" overflow="visible">
<path d="m.34375-2.0938 1.2031-.1875c.03125.375.12891.66406.29688.85938.17578.19922.37891.29688.60938.29688.25781 0 .47656-.11328.65625-.34375.17578-.23828.26562-.5625.26562-.96875 0-.38281-.089844-.6875-.26562-.90625-.16797-.21875-.37109-.32812-.60938-.32812-.15625 0-.34375.039063-.5625.10938l.14062-1.2344c.3125 0 .5625-.085937.75-.26562.1875-.17578.28125-.42578.28125-.75 0-.28125-.070313-.49219-.20312-.64062-.13672-.15625-.30859-.23438-.51562-.23438-.21094 0-.39062.089844-.54688.26562-.14844.17969-.23438.4375-.26562.78125l-1.1406-.23438c.11328-.71875.34375-1.2383.6875-1.5625.34375-.33203.78125-.5 1.3125-.5.58203 0 1.0469.21484 1.3906.64062.35156.41797.53125.88281.53125 1.3906 0 .34375-.078125.65625-.23438.9375-.15625.27344-.39062.51172-.70312.71875.36328.09375.66016.30859.89062.64062.22656.33594.34375.74609.34375 1.2344 0 .73047-.21875 1.3359-.65625 1.8125-.42969.46875-.9375.70312-1.5312.70312-.5625 0-1.043-.19531-1.4375-.59375-.39844-.40625-.625-.95312-.6875-1.6406z"/>
</symbol>
<symbol id="dm" overflow="visible">
<path d="m.32812-2.5781 1.2812-.14062c.14453 1.0117.61328 1.5156 1.4062 1.5156.39453 0 .70703-.10156.9375-.3125.22656-.20703.34375-.46094.34375-.76562 0-.1875-.042969-.34375-.125-.46875-.074219-.125-.19531-.22266-.35938-.29688-.15625-.082031-.54688-.22266-1.1719-.42188-.5625-.16406-.97656-.34766-1.2344-.54688-.25-.19531-.45312-.45703-.60938-.78125-.15625-.32031-.23438-.66406-.23438-1.0312 0-.4375.097656-.82812.29688-1.1719.19531-.34375.46875-.60156.8125-.78125.34375-.17578.76953-.26562 1.2812-.26562.75781 0 1.3516.21094 1.7812.625.42578.41797.65625 1.0117.6875 1.7812l-1.3125.0625c-.0625-.42578-.1875-.72266-.375-.89062-.1875-.16406-.46094-.25-.8125-.25-.35547 0-.63281.074219-.82812.21875-.1875.14844-.28125.32812-.28125.54688s.085938.40234.26562.54688c.16406.14844.5625.30859 1.1875.48438.65625.1875 1.1289.39062 1.4219.60938.30078.21094.52344.48047.67188.8125.15625.33594.23438.73438.23438 1.2031 0 .6875-.21484 1.2656-.64062 1.7344-.41797.46875-1.0742.70312-1.9688.70312-1.5938 0-2.4805-.90625-2.6562-2.7188z"/>
</symbol>
<symbol id="dn" overflow="visible">
<path d="m3.375-1.8281 1.2344.26562c-.16797.57422-.42969 1-.78125 1.2812-.34375.27344-.76562.40625-1.2656.40625-.6875 0-1.2266-.22656-1.6094-.6875-.4375-.53906-.65625-1.2969-.65625-2.2656 0-.95703.22266-1.7227.67188-2.2969.375-.48828.86328-.73438 1.4688-.73438.67578 0 1.207.25 1.5938.75.4375.5625.65625 1.4023.65625 2.5156l-.015625.17188h-3.1094c.00781.44922.10938.79688.29688 1.0469.19531.25.4375.375.71875.375.39453 0 .66016-.27344.79688-.82812zm.078125-1.5312c-.011719-.44531-.10938-.78125-.29688-1-.17969-.22656-.39062-.34375-.64062-.34375-.26172 0-.48047.12109-.65625.35938-.1875.24219-.28125.57031-.28125.98438z"/>
</symbol>
<symbol id="cu" overflow="visible">
<path d="m4.9219 0h-1.25v-2.9219c0-.58203-.027344-.97266-.078125-1.1719-.042969-.19531-.125-.34766-.25-.45312-.125-.10156-.27344-.15625-.4375-.15625-.21094 0-.39844.070313-.5625.20312-.16797.13672-.28906.32422-.35938.5625-.0625.24219-.09375.6875-.09375 1.3438v2.5938h-1.25v-5.7344h1.1562v.84375c.20703-.32031.4375-.5625.6875-.71875.25781-.16406.54688-.25.85938-.25.36328 0 .67188.09375.92188.28125s.42188.43359.51562.73438c.09375.29297.14062.71875.14062 1.2812z"/>
</symbol>
<symbol id="cv" overflow="visible">
<path d="m4.9688 0h-1.1719v-.84375c-.1875.32422-.41406.57031-.67188.73438-.26172.15625-.52734.23438-.79688.23438-.52344 0-.98047-.25781-1.375-.78125-.38672-.51953-.57812-1.2656-.57812-2.2344 0-.97656.1875-1.7188.5625-2.2188.38281-.5.85938-.75 1.4219-.75.25781 0 .50391.070313.73438.20312.22656.13672.4375.33594.625.59375v-2.8438h1.25zm-3.3281-2.9844c0 .51172.039063.89844.125 1.1562.09375.25.22266.44531.39062.57812.16406.125.34766.1875.54688.1875.28125 0 .51953-.14453.71875-.4375.19531-.30078.29688-.75.29688-1.3438 0-.65625-.10156-1.1289-.29688-1.4219-.1875-.28906-.43359-.4375-.73438-.4375-.29297 0-.54297.14844-.75.4375-.19922.28125-.29688.71094-.29688 1.2812z"/>
</symbol>
<symbol id="do" overflow="visible">
<path d="m4.8125-2.9062 1.2656.48438c-.19922.88672-.52734 1.5391-.98438 1.9531-.46094.40625-1.0273.60938-1.7031.60938-.84375 0-1.5273-.32812-2.0469-.98438-.60547-.75-.90625-1.7656-.90625-3.0469 0-1.3438.30078-2.3945.90625-3.1562.53125-.66406 1.2383-1 2.125-1 .72656 0 1.3359.25 1.8281.75.34375.35547.59766.875.76562 1.5625l-1.2969.39062c-.085937-.4375-.25-.76562-.5-.98438-.24219-.22656-.52734-.34375-.85938-.34375-.48047 0-.87109.21094-1.1719.625-.30469.41797-.45312 1.1055-.45312 2.0625 0 1 .14453 1.7109.4375 2.125.30078.41797.6875.625 1.1562.625.34375 0 .64062-.12891.89062-.39062.25-.26953.42969-.69531.54688-1.2812z"/>
</symbol>
<symbol id="dp" overflow="visible">
<path d="m.35938-2.9375c0-.5625.10938-1.0703.32812-1.5312.22656-.46875.51953-.81641.875-1.0469.36328-.22656.76953-.34375 1.2188-.34375.75781 0 1.3516.29688 1.7812.89062.42578.59375.64062 1.2891.64062 2.0781 0 .58594-.11719 1.1172-.34375 1.5938-.21875.46875-.51172.82422-.875 1.0625-.36719.23828-.76562.35938-1.2031.35938-.6875 0-1.2656-.26562-1.7344-.79688-.46094-.53125-.6875-1.2852-.6875-2.2656zm1.2812.078125c0 .57422.10938 1.0117.32812 1.3125.22656.29297.50391.4375.82812.4375.3125 0 .57812-.14453.79688-.4375.22656-.30078.34375-.74219.34375-1.3281 0-.57031-.11719-1.0039-.34375-1.2969-.23047-.30078-.5-.45312-.8125-.45312s-.58594.15234-.8125.45312c-.21875.29297-.32812.73047-.32812 1.3125z"/>
</symbol>
<symbol id="ct" overflow="visible">
<path d="m.5625-5.7344h1.1406v.78125c.19531-.30078.41406-.52344.65625-.67188.25-.15625.51953-.23438.8125-.23438.30078 0 .5625.078125.78125.23438.21875.14844.39844.37109.54688.67188.20703-.30078.42969-.52344.67188-.67188.23828-.15625.48828-.23438.75-.23438.32031 0 .59766.078125.82812.23438.23828.14844.41406.36719.53125.65625.125.28125.1875.71875.1875 1.3125v3.6562h-1.25v-3.2812c0-.5625-.054688-.9375-.15625-1.125-.09375-.19531-.26172-.29688-.5-.29688-.28125 0-.50781.13672-.67188.40625-.16797.26172-.25.77734-.25 1.5469v2.75h-1.25v-3.1406c0-.625-.03125-1.0234-.09375-1.2031-.09375-.23828-.27734-.35938-.54688-.35938-.1875 0-.35938.0625-.51562.1875s-.27344.30859-.34375.54688c-.0625.23047-.09375.625-.09375 1.1875v2.7812h-1.2344z"/>
</symbol>
<symbol id="dj" overflow="visible">
<path d="m1.5781-3.9844-1.125-.25c.13281-.57031.35938-.98438.67188-1.2344.32031-.25781.77344-.39062 1.3594-.39062.53125 0 .92969.074219 1.2031.21875.28125.14844.47656.35156.59375.60938.11328.25.17188.71094.17188 1.375v1.7812c0 .49219.015625.85938.046875 1.1094.039062.24219.11719.49609.23438.76562h-1.2344l-.15625-.625c-.21875.25-.44922.4375-.6875.5625-.24219.125-.5.1875-.78125.1875-.44922 0-.82031-.14844-1.1094-.45312-.29297-.3125-.4375-.72266-.4375-1.2344 0-.32031.054687-.60156.17188-.84375.11328-.23828.28125-.42969.5-.57812.21875-.14453.5625-.26953 1.0312-.375.58203-.13281.98438-.25781 1.2031-.375 0-.32031-.023437-.53125-.0625-.625-.042969-.10156-.125-.1875-.25-.25-.11719-.0625-.28125-.09375-.5-.09375-.23047 0-.40625.054687-.53125.15625-.125.10547-.23047.29297-.3125.5625zm1.6562 1.2344c-.15625.0625-.40234.13672-.73438.21875-.38672.10547-.63672.21875-.75.34375-.125.125-.1875.28125-.1875.46875 0 .21875.066406.40625.20312.5625.13281.14844.30078.21875.5.21875.17578 0 .34766-.054688.51562-.17188.17578-.125.29688-.26953.35938-.4375.0625-.16406.09375-.46875.09375-.90625z"/>
</symbol>
</defs>
<rect x="3" y="3" width="704" height="114" fill="#ffffff" fill-rule="evenodd" stroke="#000000" stroke-linecap="round"/>
<g transform="matrix(1.5,0,0,1.5,-92.156,-175.19)">
<g fill="#000000">
<use x="68.158997" y="132.16991" xlink:href="#di"/>
<use x="73.198845" y="132.16991" xlink:href="#dk"/>
<use x="75.718246" y="132.16991" xlink:href="#dl"/>
<use x="83.158875" y="132.16991" xlink:href="#dm"/>
<use x="89.158875" y="132.16991" xlink:href="#dn"/>
<use x="94.198715" y="132.16991" xlink:href="#cu"/>
<use x="99.718246" y="132.16991" xlink:href="#cv"/>
<use x="107.75887" y="132.16991" xlink:href="#do"/>
<use x="114.23855" y="132.16991" xlink:href="#dp"/>
<use x="119.75808" y="132.16991" xlink:href="#ct"/>
<use x="127.79793" y="132.16991" xlink:href="#ct"/>
<use x="135.83778" y="132.16991" xlink:href="#dj"/>
<use x="140.87762" y="132.16991" xlink:href="#cu"/>
<use x="146.39716" y="132.16991" xlink:href="#cv"/>
<use x="68.158997" y="150.7699" xlink:href="#bw"/>
<use x="74.158997" y="150.7699" xlink:href="#bx"/>
<use x="76.678398" y="150.7699" xlink:href="#bi"/>
<use x="79.1978" y="150.7699" xlink:href="#bj"/>
<use x="84.23764" y="150.7699" xlink:href="#bp"/>
<use x="90.358734" y="150.7699" xlink:href="#bi"/>
<use x="92.878136" y="150.7699" xlink:href="#bq"/>
<use x="97.917976" y="150.7699" xlink:href="#bj"/>
<use x="106.0797" y="150.7699" xlink:href="#bi"/>
<use x="108.5991" y="150.7699" xlink:href="#bp"/>
<use x="111.59909" y="150.7699" xlink:href="#bn"/>
<use x="116.63893" y="150.7699" xlink:href="#bm"/>
<use x="121.67877" y="150.7699" xlink:href="#bl"/>
<use x="126.11861" y="150.7699" xlink:href="#bt"/>
<use x="133.67798" y="150.7699" xlink:href="#bk"/>
<use x="135.71782" y="150.7699" xlink:href="#bl"/>
<use x="140.15767" y="150.7699" xlink:href="#bl"/>
<use x="144.71703" y="150.7699" xlink:href="#bk"/>
<use x="146.75688" y="150.7699" xlink:href="#bs"/>
<use x="151.67641" y="150.7699" xlink:href="#bm"/>
<use x="159.83929" y="150.7699" xlink:href="#bk"/>
<use x="161.87914" y="150.7699" xlink:href="#bl"/>
<use x="169.4393" y="150.7699" xlink:href="#bl"/>
<use x="173.99867" y="150.7699" xlink:href="#bi"/>
<use x="176.51859" y="150.7699" xlink:href="#bn"/>
<use x="181.55843" y="150.7699" xlink:href="#bp"/>
<use x="184.55843" y="150.7699" xlink:href="#bi"/>
<use x="187.07782" y="150.7699" xlink:href="#bj"/>
<use x="192.11766" y="150.7699" xlink:href="#bo"/>
<use x="197.03719" y="150.7699" xlink:href="#ca"/>
<use x="202.7993" y="150.7699" xlink:href="#bi"/>
<use x="205.3187" y="150.7699" xlink:href="#bq"/>
<use x="210.35855" y="150.7699" xlink:href="#bj"/>
<use x="218.39919" y="150.7699" xlink:href="#bx"/>
<use x="220.91858" y="150.7699" xlink:href="#bk"/>
<use x="222.95842" y="150.7699" xlink:href="#bp"/>
<use x="225.95842" y="150.7699" xlink:href="#bl"/>
<use x="230.51781" y="150.7699" xlink:href="#bi"/>
<use x="236.15804" y="150.7699" xlink:href="#bz"/>
<use x="241.19789" y="150.7699" xlink:href="#cd"/>
<use x="245.75726" y="150.7699" xlink:href="#bi"/>
<use x="248.27667" y="150.7699" xlink:href="#bj"/>
<use x="256.31885" y="150.7699" xlink:href="#bs"/>
<use x="261.3587" y="150.7699" xlink:href="#bx"/>
<use x="266.99893" y="150.7699" xlink:href="#cn"/>
<use x="269.51886" y="150.7699" xlink:href="#co"/>
<use x="272.51886" y="150.7699" xlink:href="#by"/>
<use x="282.2388" y="150.7699" xlink:href="#bi"/>
<use x="284.75821" y="150.7699" xlink:href="#bq"/>
<use x="289.79843" y="150.7699" xlink:href="#bn"/>
<use x="294.83829" y="150.7699" xlink:href="#bi"/>
<use x="300.3577" y="150.7699" xlink:href="#bk"/>
<use x="302.39752" y="150.7699" xlink:href="#bl"/>
<use x="310.07877" y="150.7699" xlink:href="#bl"/>
<use x="314.63815" y="150.7699" xlink:href="#bv"/>
<use x="319.67801" y="150.7699" xlink:href="#bz"/>
<use x="324.71786" y="150.7699" xlink:href="#bl"/>
<use x="329.15771" y="150.7699" xlink:href="#bj"/>
<use x="334.19754" y="150.7699" xlink:href="#cy"/>
<use x="339.2374" y="150.7699" xlink:href="#bv"/>
<use x="344.27899" y="150.7699" xlink:href="#bj"/>
<use x="349.31885" y="150.7699" xlink:href="#bm"/>
<use x="354.23837" y="150.7699" xlink:href="#bi"/>
<use x="356.75778" y="150.7699" xlink:href="#br"/>
<use x="358.79761" y="150.7699" xlink:href="#cd"/>
<use x="366.35934" y="150.7699" xlink:href="#bi"/>
<use x="368.87875" y="150.7699" xlink:href="#bp"/>
<use x="371.87875" y="150.7699" xlink:href="#bn"/>
<use x="376.91861" y="150.7699" xlink:href="#bm"/>
<use x="381.95847" y="150.7699" xlink:href="#bl"/>
<use x="386.51785" y="150.7699" xlink:href="#bt"/>
<use x="393.9577" y="150.7699" xlink:href="#bk"/>
<use x="395.99753" y="150.7699" xlink:href="#bi"/>
<use x="398.51694" y="150.7699" xlink:href="#bi"/>
<use x="401.03632" y="150.7699" xlink:href="#bj"/>
<use x="406.07657" y="150.7699" xlink:href="#bo"/>
<use x="414.23984" y="150.7699" xlink:href="#bk"/>
<use x="416.27969" y="150.7699" xlink:href="#bm"/>
<use x="421.31992" y="150.7699" xlink:href="#bu"/>
<use x="425.75974" y="150.7699" xlink:href="#br"/>
<use x="427.79959" y="150.7699" xlink:href="#bv"/>
<use x="432.83942" y="150.7699" xlink:href="#bo"/>
<use x="437.87924" y="150.7699" xlink:href="#bj"/>
<use x="442.79877" y="150.7699" xlink:href="#bl"/>
<use x="450.47998" y="150.7699" xlink:href="#bi"/>
<use x="452.99939" y="150.7699" xlink:href="#bq"/>
<use x="458.03922" y="150.7699" xlink:href="#bj"/>
<use x="466.19974" y="150.7699" xlink:href="#cz"/>
<use x="471.23956" y="150.7699" xlink:href="#da"/>
<use x="474.23956" y="150.7699" xlink:href="#bz"/>
<use x="479.27939" y="150.7699" xlink:href="#bk"/>
<use x="481.19894" y="150.7699" xlink:href="#bi"/>
<use x="486.83957" y="150.7699" xlink:href="#cn"/>
<use x="489.35898" y="150.7699" xlink:href="#co"/>
<use x="492.35898" y="150.7699" xlink:href="#by"/>
<use x="502.08008" y="150.7699" xlink:href="#bo"/>
<use x="507.1199" y="150.7699" xlink:href="#bj"/>
<use x="512.15973" y="150.7699" xlink:href="#ck"/>
<use x="516.59955" y="150.7699" xlink:href="#bk"/>
<use x="518.6394" y="150.7699" xlink:href="#bu"/>
<use x="523.19873" y="150.7699" xlink:href="#bj"/>
<use x="68.158997" y="163.3699" xlink:href="#bn"/>
<use x="73.198845" y="163.3699" xlink:href="#bo"/>
<use x="78.238686" y="163.3699" xlink:href="#bo"/>
<use x="83.278534" y="163.3699" xlink:href="#bp"/>
<use x="86.278526" y="163.3699" xlink:href="#bj"/>
<use x="91.318375" y="163.3699" xlink:href="#bl"/>
<use x="95.758217" y="163.3699" xlink:href="#bl"/>
</g>
<g fill="#ff0000">
<use x="103.43986" y="163.3699" xlink:href="#ce"/>
<use x="108.47969" y="163.3699" xlink:href="#cf"/>
<use x="113.03945" y="163.3699" xlink:href="#db"/>
<use x="117.95898" y="163.3699" xlink:href="#cp"/>
</g>
<g fill="#000000">
<use x="126.11991" y="163.3699" xlink:href="#bn"/>
<use x="131.15974" y="163.3699" xlink:href="#bm"/>
<use x="136.19958" y="163.3699" xlink:href="#bo"/>
<use x="144.35895" y="163.3699" xlink:href="#bn"/>
<use x="152.51988" y="163.3699" xlink:href="#cg"/>
<use x="158.51988" y="163.3699" xlink:href="#cj"/>
<use x="164.99957" y="163.3699" xlink:href="#bw"/>
<use x="174.23979" y="163.3699" xlink:href="#bo"/>
<use x="179.27963" y="163.3699" xlink:href="#bk"/>
<use x="181.31949" y="163.3699" xlink:href="#bp"/>
<use x="184.31949" y="163.3699" xlink:href="#bj"/>
<use x="189.35971" y="163.3699" xlink:href="#bu"/>
<use x="193.79955" y="163.3699" xlink:href="#bi"/>
<use x="196.31895" y="163.3699" xlink:href="#bk"/>
<use x="198.3588" y="163.3699" xlink:href="#bs"/>
<use x="203.39864" y="163.3699" xlink:href="#bm"/>
<use x="211.43965" y="163.3699" xlink:href="#bz"/>
<use x="216.47951" y="163.3699" xlink:href="#bk"/>
<use x="218.51973" y="163.3699" xlink:href="#bi"/>
<use x="224.15878" y="163.3699" xlink:href="#cf"/>
<use x="231.83965" y="163.3699" xlink:href="#cl"/>
<use x="234.83966" y="163.3699" xlink:href="#bp"/>
<use x="237.83968" y="163.3699" xlink:href="#bj"/>
<use x="242.87952" y="163.3699" xlink:href="#bn"/>
<use x="247.91937" y="163.3699" xlink:href="#bo"/>
<use x="256.07993" y="163.3699" xlink:href="#dc"/>
<use x="262.55963" y="163.3699" xlink:href="#cq"/>
<use x="268.31976" y="163.3699" xlink:href="#cr"/>
<use x="270.23969" y="163.3699" xlink:href="#dd"/>
<use x="275.27991" y="163.3699" xlink:href="#cs"/>
<use x="277.31976" y="163.3699" xlink:href="#ca"/>
<use x="282.9588" y="163.3699" xlink:href="#ci"/>
<use x="289.43851" y="163.3699" xlink:href="#bp"/>
<use x="292.43851" y="163.3699" xlink:href="#bk"/>
<use x="294.47836" y="163.3699" xlink:href="#bi"/>
<use x="296.99774" y="163.3699" xlink:href="#bj"/>
<use x="305.15869" y="163.3699" xlink:href="#cw"/>
<use x="313.67822" y="163.3699" xlink:href="#cq"/>
<use x="319.43954" y="163.3699" xlink:href="#cr"/>
<use x="321.35867" y="163.3699" xlink:href="#ce"/>
<use x="326.39969" y="163.3699" xlink:href="#cs"/>
<use x="328.43954" y="163.3699" xlink:href="#cm"/>
<use x="331.44" y="163.3699" xlink:href="#cb"/>
<use x="337.08023" y="163.3699" xlink:href="#bw"/>
<use x="343.08023" y="163.3699" xlink:href="#bx"/>
<use x="345.59964" y="163.3699" xlink:href="#bi"/>
<use x="348.11902" y="163.3699" xlink:href="#bj"/>
<use x="353.15887" y="163.3699" xlink:href="#bp"/>
<use x="359.27997" y="163.3699" xlink:href="#bi"/>
<use x="361.79938" y="163.3699" xlink:href="#bq"/>
<use x="366.83923" y="163.3699" xlink:href="#bj"/>
<use x="374.99979" y="163.3699" xlink:href="#cp"/>
<use x="380.03964" y="163.3699" xlink:href="#bi"/>
<use x="382.55905" y="163.3699" xlink:href="#bq"/>
<use x="390.7196" y="163.3699" xlink:href="#bx"/>
<use x="393.23898" y="163.3699" xlink:href="#bn"/>
<use x="398.27884" y="163.3699" xlink:href="#br"/>
<use x="400.3187" y="163.3699" xlink:href="#br"/>
<use x="402.35852" y="163.3699" xlink:href="#bk"/>
<use x="404.27805" y="163.3699" xlink:href="#bm"/>
<use x="409.31827" y="163.3699" xlink:href="#ch"/>
<use x="417.47958" y="163.3699" xlink:href="#bj"/>
<use x="422.51941" y="163.3699" xlink:href="#bo"/>
<use x="427.55923" y="163.3699" xlink:href="#ch"/>
<use x="432.59906" y="163.3699" xlink:href="#bj"/>
<use x="440.63968" y="163.3699" xlink:href="#bs"/>
<use x="445.6795" y="163.3699" xlink:href="#bx"/>
<use x="451.43927" y="163.3699" xlink:href="#bi"/>
<use x="453.95923" y="163.3699" xlink:href="#bq"/>
<use x="458.99905" y="163.3699" xlink:href="#bj"/>
<use x="467.03925" y="163.3699" xlink:href="#cg"/>
<use x="473.03928" y="163.3699" xlink:href="#by"/>
<use x="479.51935" y="163.3699" xlink:href="#dh"/>
<use x="487.79941" y="163.3699" xlink:href="#bu"/>
<use x="492.35876" y="163.3699" xlink:href="#br"/>
<use x="494.39862" y="163.3699" xlink:href="#bs"/>
<use x="499.43845" y="163.3699" xlink:href="#bu"/>
<use x="503.87827" y="163.3699" xlink:href="#de"/>
<use x="508.43762" y="163.3699" xlink:href="#ca"/>
<use x="514.07947" y="163.3699" xlink:href="#cc"/>
<use x="519.11926" y="163.3699" xlink:href="#bv"/>
<use x="524.15912" y="163.3699" xlink:href="#br"/>
<use x="526.19897" y="163.3699" xlink:href="#br"/>
<use x="68.158997" y="175.96989" xlink:href="#bo"/>
<use x="73.198845" y="175.96989" xlink:href="#bs"/>
<use x="78.238686" y="175.96989" xlink:href="#ci"/>
<use x="84.718376" y="175.96989" xlink:href="#bm"/>
<use x="92.758995" y="175.96989" xlink:href="#bi"/>
<use x="95.278397" y="175.96989" xlink:href="#bq"/>
<use x="100.31824" y="175.96989" xlink:href="#bj"/>
<use x="108.23972" y="175.96989" xlink:href="#cg"/>
<use x="114.23972" y="175.96989" xlink:href="#cj"/>
<use x="120.71941" y="175.96989" xlink:href="#bw"/>
<use x="129.83972" y="175.96989" xlink:href="#cc"/>
<use x="134.87956" y="175.96989" xlink:href="#bk"/>
<use x="136.9194" y="175.96989" xlink:href="#bm"/>
<use x="144.95886" y="175.96989" xlink:href="#cl"/>
<use x="147.95885" y="175.96989" xlink:href="#bw"/>
<use x="153.95885" y="175.96989" xlink:href="#by"/>
<use x="160.43854" y="175.96989" xlink:href="#df"/>
<use x="169.55885" y="175.96989" xlink:href="#bz"/>
<use x="174.59869" y="175.96989" xlink:href="#bk"/>
<use x="176.63853" y="175.96989" xlink:href="#bi"/>
<use x="179.15793" y="175.96989" xlink:href="#cm"/>
<use x="185.15872" y="175.96989" xlink:href="#bi"/>
<use x="187.67812" y="175.96989" xlink:href="#bs"/>
<use x="195.71953" y="175.96989" xlink:href="#bk"/>
<use x="197.75937" y="175.96989" xlink:href="#bm"/>
<use x="202.79921" y="175.96989" xlink:href="#bo"/>
<use x="207.83905" y="175.96989" xlink:href="#bk"/>
<use x="209.87889" y="175.96989" xlink:href="#bu"/>
<use x="214.31874" y="175.96989" xlink:href="#bn"/>
<use x="219.3586" y="175.96989" xlink:href="#bi"/>
<use x="221.87799" y="175.96989" xlink:href="#bj"/>
<use x="229.79948" y="175.96989" xlink:href="#bi"/>
<use x="232.31888" y="175.96989" xlink:href="#bq"/>
<use x="237.35873" y="175.96989" xlink:href="#bn"/>
<use x="242.39857" y="175.96989" xlink:href="#bi"/>
<use x="247.91927" y="175.96989" xlink:href="#bi"/>
<use x="250.43867" y="175.96989" xlink:href="#bq"/>
<use x="255.47852" y="175.96989" xlink:href="#bj"/>
<use x="263.51917" y="175.96989" xlink:href="#bl"/>
<use x="268.07852" y="175.96989" xlink:href="#bj"/>
<use x="273.11838" y="175.96989" xlink:href="#bm"/>
<use x="278.15823" y="175.96989" xlink:href="#bl"/>
<use x="282.59808" y="175.96989" xlink:href="#bs"/>
<use x="287.63794" y="175.96989" xlink:href="#bp"/>
<use x="293.6391" y="175.96989" xlink:href="#bo"/>
<use x="298.67935" y="175.96989" xlink:href="#bn"/>
<use x="303.71921" y="175.96989" xlink:href="#bi"/>
<use x="306.23862" y="175.96989" xlink:href="#bn"/>
<use x="314.27924" y="175.96989" xlink:href="#bk"/>
<use x="316.31906" y="175.96989" xlink:href="#bl"/>
<use x="323.87924" y="175.96989" xlink:href="#bp"/>
<use x="326.87924" y="175.96989" xlink:href="#bj"/>
<use x="331.9191" y="175.96989" xlink:href="#bu"/>
<use x="336.47849" y="175.96989" xlink:href="#bj"/>
<use x="341.39801" y="175.96989" xlink:href="#bk"/>
<use x="343.43787" y="175.96989" xlink:href="#ck"/>
<use x="347.99722" y="175.96989" xlink:href="#bj"/>
<use x="353.03708" y="175.96989" xlink:href="#bo"/>
<use x="360.95901" y="175.96989" xlink:href="#bm"/>
<use x="365.99884" y="175.96989" xlink:href="#bs"/>
<use x="371.0387" y="175.96989" xlink:href="#bp"/>
<use x="374.0387" y="175.96989" xlink:href="#bt"/>
<use x="381.59808" y="175.96989" xlink:href="#bn"/>
<use x="386.63794" y="175.96989" xlink:href="#br"/>
<use x="388.55746" y="175.96989" xlink:href="#br"/>
<use x="390.59729" y="175.96989" xlink:href="#cd"/>
<use x="395.15668" y="175.96989" xlink:href="#cb"/>
<use x="400.68011" y="175.96989" xlink:href="#bw"/>
<use x="406.68011" y="175.96989" xlink:href="#bx"/>
<use x="409.19952" y="175.96989" xlink:href="#bi"/>
<use x="411.7189" y="175.96989" xlink:href="#bj"/>
<use x="416.75873" y="175.96989" xlink:href="#bp"/>
<use x="422.75873" y="175.96989" xlink:href="#bl"/>
<use x="427.31808" y="175.96989" xlink:href="#bj"/>
<use x="432.35791" y="175.96989" xlink:href="#bm"/>
<use x="437.39774" y="175.96989" xlink:href="#bo"/>
<use x="442.31726" y="175.96989" xlink:href="#bk"/>
<use x="444.35712" y="175.96989" xlink:href="#bm"/>
<use x="449.39694" y="175.96989" xlink:href="#ch"/>
<use x="457.43948" y="175.96989" xlink:href="#bi"/>
<use x="459.95944" y="175.96989" xlink:href="#bq"/>
<use x="464.99927" y="175.96989" xlink:href="#bj"/>
<use x="472.91876" y="175.96989" xlink:href="#bt"/>
<use x="480.47812" y="175.96989" xlink:href="#bj"/>
<use x="485.51794" y="175.96989" xlink:href="#bn"/>
<use x="490.55777" y="175.96989" xlink:href="#bl"/>
<use x="494.99759" y="175.96989" xlink:href="#bv"/>
<use x="500.03741" y="175.96989" xlink:href="#bp"/>
<use x="503.03741" y="175.96989" xlink:href="#bj"/>
<use x="508.07724" y="175.96989" xlink:href="#bt"/>
<use x="515.6366" y="175.96989" xlink:href="#bj"/>
<use x="520.55615" y="175.96989" xlink:href="#bm"/>
<use x="525.59595" y="175.96989" xlink:href="#bi"/>
<use x="68.158997" y="188.6898" xlink:href="#bu"/>
<use x="72.718376" y="188.6898" xlink:href="#bs"/>
<use x="77.758217" y="188.6898" xlink:href="#bt"/>
<use x="85.198067" y="188.6898" xlink:href="#bt"/>
<use x="92.757439" y="188.6898" xlink:href="#bn"/>
<use x="97.797279" y="188.6898" xlink:href="#bm"/>
<use x="102.83712" y="188.6898" xlink:href="#bo"/>
<use x="110.28008" y="188.6898" xlink:href="#ce"/>
<use x="115.31992" y="188.6898" xlink:href="#cf"/>
<use x="119.87929" y="188.6898" xlink:href="#bw"/>
<use x="125.87929" y="188.6898" xlink:href="#by"/>
<use x="132.35896" y="188.6898" xlink:href="#ca"/>
<use x="137.28006" y="188.6898" xlink:href="#bi"/>
<use x="139.79947" y="188.6898" xlink:href="#bq"/>
<use x="144.83931" y="188.6898" xlink:href="#bj"/>
<use x="152.39984" y="188.6898" xlink:href="#dg"/>
<use x="159.95921" y="188.6898" xlink:href="#by"/>
<use x="166.4389" y="188.6898" xlink:href="#cx"/>
<use x="175.43968" y="188.6898" xlink:href="#bt"/>
<use x="182.99904" y="188.6898" xlink:href="#bv"/>
<use x="188.03928" y="188.6898" xlink:href="#bl"/>
<use x="192.47911" y="188.6898" xlink:href="#bi"/>
<use x="197.39983" y="188.6898" xlink:href="#ci"/>
<use x="203.8795" y="188.6898" xlink:href="#bn"/>
<use x="208.91936" y="188.6898" xlink:href="#bk"/>
<use x="210.95918" y="188.6898" xlink:href="#bi"/>
<use x="215.9998" y="188.6898" xlink:href="#bv"/>
<use x="221.03966" y="188.6898" xlink:href="#bm"/>
<use x="226.0795" y="188.6898" xlink:href="#bi"/>
<use x="228.59891" y="188.6898" xlink:href="#bk"/>
<use x="230.63873" y="188.6898" xlink:href="#br"/>
<use x="235.07974" y="188.6898" xlink:href="#bi"/>
<use x="237.59914" y="188.6898" xlink:href="#bq"/>
<use x="242.63899" y="188.6898" xlink:href="#bj"/>
<use x="250.07962" y="188.6898" xlink:href="#bt"/>
<use x="257.63901" y="188.6898" xlink:href="#bj"/>
<use x="262.67886" y="188.6898" xlink:href="#bn"/>
<use x="267.71869" y="188.6898" xlink:href="#bl"/>
<use x="272.15854" y="188.6898" xlink:href="#bv"/>
<use x="277.19839" y="188.6898" xlink:href="#bp"/>
<use x="280.19839" y="188.6898" xlink:href="#bj"/>
<use x="285.23825" y="188.6898" xlink:href="#bt"/>
<use x="292.79764" y="188.6898" xlink:href="#bj"/>
<use x="297.71716" y="188.6898" xlink:href="#bm"/>
<use x="302.75702" y="188.6898" xlink:href="#bi"/>
<use x="307.79959" y="188.6898" xlink:href="#bk"/>
<use x="309.83942" y="188.6898" xlink:href="#bl"/>
<use x="316.79959" y="188.6898" xlink:href="#bu"/>
<use x="321.35898" y="188.6898" xlink:href="#bs"/>
<use x="326.39883" y="188.6898" xlink:href="#bt"/>
<use x="333.95822" y="188.6898" xlink:href="#cc"/>
<use x="338.87775" y="188.6898" xlink:href="#br"/>
<use x="340.91757" y="188.6898" xlink:href="#bj"/>
<use x="345.95743" y="188.6898" xlink:href="#bi"/>
<use x="348.47684" y="188.6898" xlink:href="#bj"/>
<use x="353.517" y="188.6898" xlink:href="#bo"/>
<use x="358.43652" y="188.6898" xlink:href="#cb"/>
</g>
</g>
</svg>
