<svg width="675" height="95" version="1.2" viewBox="0 0 675 95" xmlns="http://www.w3.org/2000/svg" xmlns:xlink="http://www.w3.org/1999/xlink">
<defs>
<symbol id="ag" overflow="visible"/>
<symbol id="a" overflow="visible"/>
<symbol id="as" overflow="visible">
<path d="m1.0938 0v-7.1094h2.5469c1.5312 0 2.2969.625 2.2969 1.875 0 .42969-.11719.77734-.34375 1.0469-.13672.15625-.33984.30859-.60938.45312.39453.125.69141.28906.89062.48438.30078.30469.45312.71484.45312 1.2344 0 .77344-.30469 1.3281-.90625 1.6719-.40625.23047-.91797.34375-1.5312.34375zm.92188-.73438h1.9688c.51953 0 .90625-.13281 1.1562-.40625.20703-.21875.3125-.51562.3125-.89062 0-.84375-.52344-1.2656-1.5625-1.2656h-1.875zm0-3.2969h1.8281c.8125 0 1.2188-.39844 1.2188-1.2031 0-.375-.10547-.65625-.3125-.84375-.23047-.19531-.58984-.29688-1.0781-.29688h-1.6562z"/>
</symbol>
<symbol id="aq" overflow="visible">
<path d="m1.0469 0v-7.1094h1.4062l1.875 5.9531 1.8594-5.9531h1.3594v7.1094h-.875v-6.2188l-1.9531 6.2188h-.8125l-2.0156-6.2188v6.2188z"/>
</symbol>
<symbol id="bc" overflow="visible">
<path d="m1.1406 0v-7.1094h2.625c.85156 0 1.4766.19531 1.875.57812.38281.375.57812.88281.57812 1.5156 0 .67969-.22656 1.1992-.67188 1.5625-.39844.33594-.95312.5-1.6719.5h-1.8125v2.9531zm.92188-3.6875h1.75c.98828 0 1.4844-.45312 1.4844-1.3594 0-.88281-.48438-1.3281-1.4531-1.3281h-1.7812z"/>
</symbol>
<symbol id="ax" overflow="visible">
<path d="m1.5-3.8438c-.5625-.34375-.84375-.84375-.84375-1.5 0-.57031.20703-1.0234.625-1.3594.40625-.33203.90625-.5 1.5-.5.58203 0 1.0781.16797 1.4844.5.41406.33594.625.79297.625 1.375 0 .63672-.28125 1.1328-.84375 1.4844.73828.375 1.1094.98047 1.1094 1.8125 0 .66797-.24219 1.1992-.71875 1.5938-.4375.35547-.99609.53125-1.6719.53125-.67969 0-1.2344-.17578-1.6719-.53125-.46875-.39453-.70312-.92578-.70312-1.5938 0-.84375.36719-1.4453 1.1094-1.8125zm1.2656.39062c-.33594 0-.62109.078125-.85938.23438-.375.25-.5625.63281-.5625 1.1406 0 .44922.13281.79688.40625 1.0469.25781.24219.59766.35938 1.0156.35938.41406 0 .75391-.11719 1.0156-.35938.26953-.25.40625-.59375.40625-1.0312 0-.51953-.1875-.90625-.5625-1.1562-.24219-.15625-.52734-.23438-.85938-.23438zm.015625-3.0156c-.375 0-.67188.11719-.89062.34375-.1875.19922-.28125.46094-.28125.78125 0 .4375.15625.75781.46875.95312.19531.13672.42578.20312.6875.20312.3125 0 .57031-.082031.78125-.25.25781-.19531.39062-.49219.39062-.89062 0-.33203-.09375-.59766-.28125-.79688-.21875-.22656-.51172-.34375-.875-.34375z"/>
</symbol>
<symbol id="q" overflow="visible">
<path d="m2.7656-7.2031c.75 0 1.3359.38281 1.7656 1.1406.375.66797.5625 1.5.5625 2.5 0 1.0938-.21875 1.9805-.65625 2.6562-.41797.66797-.97656 1-1.6719 1-.75 0-1.3398-.37891-1.7656-1.1406-.375-.66406-.5625-1.5156-.5625-2.5469 0-1.0625.21875-1.9375.65625-2.625.41406-.65625.97266-.98438 1.6719-.98438zm0 .76562c-.41797 0-.75.25781-1 .76562-.25.51172-.375 1.2031-.375 2.0781 0 1 .14844 1.7617.45312 2.2812.23828.42969.54688.64062.92188.64062.41406 0 .75-.25391 1-.76562.25-.51953.375-1.2266.375-2.125 0-.97656-.15234-1.7266-.45312-2.25-.24219-.41406-.54688-.625-.92188-.625z"/>
</symbol>
<symbol id="ac" overflow="visible">
<path d="m1.0938 0v-7.1094h2.25c1.1016 0 1.9609.33984 2.5781 1.0156.55078.625.82812 1.4766.82812 2.5469 0 1.2109-.34375 2.125-1.0312 2.75-.58594.53125-1.3867.79688-2.4062.79688zm.90625-.76562h1.3906c.75781 0 1.3477-.22656 1.7656-.6875.42578-.47656.64062-1.1797.64062-2.1094 0-1.0195-.26562-1.7695-.79688-2.25-.39844-.36328-.93359-.54688-1.6094-.54688h-1.3906z"/>
</symbol>
<symbol id="e" overflow="visible">
<path d="m3.8125-.70312c-.44922.53125-.99609.79688-1.6406.79688-.60547 0-1.0625-.1875-1.375-.5625-.21094-.25-.3125-.54688-.3125-.89062 0-.78125.47656-1.2969 1.4375-1.5469.45703-.125 1.0664-.19141 1.8281-.20312v-.3125c0-.38281-.085938-.66406-.25-.84375-.16797-.1875-.42969-.28125-.78125-.28125-.36719 0-.70312.085937-1.0156.25-.16797.09375-.34375.21875-.53125.375l-.5-.59375c.23828-.20703.47656-.36719.71875-.48438.39453-.19531.84375-.29688 1.3438-.29688.67578 0 1.1797.19531 1.5156.57812.26953.3125.40625.74609.40625 1.2969v2.1406c0 .25.039062.41797.125.5.082031.074219.20703.10938.375.10938h.078125v.70312h-.3125c-.58594 0-.95312-.24219-1.1094-.73438zm-.0625-1.7812c-.54297.023437-.99609.074219-1.3594.15625-.64844.15625-.96875.46094-.96875.90625 0 .19922.050781.36719.15625.5.15625.17969.41406.26562.78125.26562.40625 0 .73828-.097656 1-.29688.25781-.20703.39062-.46875.39062-.78125z"/>
</symbol>
<symbol id="g" overflow="visible">
<path d="m.75-4.4688h-.65625v-.73438h.65625v-1.3125l.89062-.25v1.5625h1.125v.73438h-1.125v2.875c0 .30469.019531.51562.0625.64062.070313.1875.22266.28125.45312.28125.11328 0 .25-.023437.40625-.078125l.25.67188c-.23047.11328-.49219.17188-.78125.17188-.5 0-.85156-.16016-1.0469-.48438-.15625-.25-.23438-.66406-.23438-1.25z"/>
</symbol>
<symbol id="c" overflow="visible">
<path d="m.1875-.89062.625-.53125c.1875.23047.36328.40234.53125.51562.28906.16797.65625.25 1.0938.25.80078 0 1.2031-.25391 1.2031-.76562 0-.23828-.10547-.41406-.3125-.53125-.16797-.09375-.51562-.20312-1.0469-.32812-.54297-.125-.93359-.27344-1.1719-.45312-.36719-.26953-.54688-.63281-.54688-1.0938 0-.51953.21875-.91016.65625-1.1719.32031-.19531.73438-.29688 1.2344-.29688.53125 0 1 .12109 1.4062.35938.14453.085938.30078.21094.46875.375l-.5625.60938c-.14844-.14453-.27734-.25781-.39062-.34375-.27344-.16406-.59375-.25-.96875-.25-.29297 0-.52344.054687-.6875.15625-.17969.11719-.26562.28125-.26562.5 0 .24219.11328.42188.34375.54688.14453.074219.4375.15625.875.25.47656.11719.8125.21875 1 .3125.57031.27344.85938.70312.85938 1.2969 0 .55469-.21875.96484-.65625 1.2344-.36719.23047-.82812.34375-1.3906.34375-.66797 0-1.2305-.14453-1.6875-.4375-.21094-.13281-.41406-.31641-.60938-.54688z"/>
</symbol>
<symbol id="m" overflow="visible">
<path d="m.6875 0v-7.5h.92188v3.0938c.3125-.59375.83203-.89062 1.5625-.89062.53906 0 .96094.16797 1.2656.5.3125.35547.46875.875.46875 1.5625v3.2344h-.92188v-3.25c0-.47656-.10547-.81641-.3125-1.0156-.17969-.15625-.42969-.23438-.75-.23438-.39844 0-.71484.12109-.95312.35938-.24219.24219-.35938.57031-.35938.98438v3.1562z"/>
</symbol>
<symbol id="b" overflow="visible">
<path d="m5.1094-2.4844h-3.7188c.019531.32422.054687.57031.10938.73438.21875.71875.69531 1.0781 1.4375 1.0781.38281 0 .69531-.097656.9375-.29688.14453-.125.28516-.30078.42188-.53125l.73438.40625c-.46094.79297-1.1641 1.1875-2.1094 1.1875-.6875 0-1.2422-.1875-1.6562-.5625-.54297-.47656-.8125-1.1641-.8125-2.0625 0-.80078.20312-1.4453.60938-1.9375.44531-.55078 1.0469-.82812 1.7969-.82812.76953 0 1.3594.28125 1.7656.84375.32031.4375.48438 1.0234.48438 1.75zm-.92188-.67188c-.042969-.375-.12109-.66406-.23438-.875-.21875-.34375-.57812-.51562-1.0781-.51562-.79297 0-1.2773.46484-1.4531 1.3906z"/>
</symbol>
<symbol id="aa" overflow="visible">
<path d="m2.75 0v-6.3594h-2.1875v-.75h5.2656v.75h-2.1562v6.3594z"/>
</symbol>
<symbol id="z" overflow="visible">
<path d="m1.625 0c.09375-.94531.23828-1.7578.4375-2.4375.25-.88281.59766-1.6953 1.0469-2.4375.28125-.46875.65625-.96094 1.125-1.4844h-3.5625v-.75h4.4531v.84375c-.42969.46094-.75.86719-.96875 1.2188-.51172.8125-.90625 1.7188-1.1875 2.7188-.1875.67969-.32031 1.4531-.39062 2.3281z"/>
</symbol>
<symbol id="bf" overflow="visible">
<path d="m.57812-2.8125v-.875h2.1719v.875z"/>
</symbol>
<symbol id="p" overflow="visible">
<path d="m.67188 0v-7.5h.92188v3.1406c.35156-.625.85156-.9375 1.5-.9375.53125 0 .97656.19922 1.3438.59375.4375.49219.65625 1.1836.65625 2.0781 0 .91797-.22656 1.625-.67188 2.125-.35547.39844-.79688.59375-1.3281.59375-.66797 0-1.168-.30469-1.5-.92188v.82812zm2.2188-4.5469c-.38672 0-.70312.16406-.95312.48438-.25.34375-.375.82422-.375 1.4375 0 .74219.14844 1.2773.45312 1.6094.22656.24219.51953.35938.875.35938.83203 0 1.25-.64062 1.25-1.9219 0-.73828-.15234-1.2812-.45312-1.625-.21094-.22656-.47656-.34375-.79688-.34375z"/>
</symbol>
<symbol id="d" overflow="visible">
<path d="m.65625 0v-5.2031h.90625v5.2031zm.45312-7.2969c.15625 0 .28906.058594.40625.17188.125.125.1875.26562.1875.42188s-.0625.29297-.1875.40625c-.11719.11719-.25.17188-.40625.17188-.16797 0-.30859-.054688-.42188-.17188-.11719-.11328-.17188-.25-.17188-.40625s.054687-.29688.17188-.42188c.11328-.11328.25391-.17188.42188-.17188z"/>
</symbol>
<symbol id="i" overflow="visible">
<path d="m3.9375 0v-.875c-.33594.64844-.83594.96875-1.5.96875-.53125 0-.97656-.19531-1.3281-.59375-.44922-.5-.67188-1.2109-.67188-2.1406 0-.88281.21875-1.5703.65625-2.0625.36328-.39453.8125-.59375 1.3438-.59375.64453 0 1.1445.29688 1.5.89062v-3.0938h.92188v7.5zm-1.2969-4.5469c-.36719 0-.65625.14844-.875.4375-.25.34375-.375.85547-.375 1.5312 0 1.2812.41406 1.9219 1.25 1.9219.40625 0 .72266-.15625.95312-.46875.25-.33203.375-.81641.375-1.4531 0-.71875-.15625-1.25-.46875-1.5938-.23047-.25-.51562-.375-.85938-.375z"/>
</symbol>
<symbol id="y" overflow="visible">
<path d="m1.9688 0-1.7812-5.2031h.98438l1.3594 4.2656 1.3281-4.2656h.9375l-1.7656 5.2031z"/>
</symbol>
<symbol id="n" overflow="visible">
<path d="m4.1094-1.5625.70312.42188c-.44922.82422-1.1211 1.2344-2.0156 1.2344-.71875 0-1.293-.25-1.7188-.75-.39844-.45703-.59375-1.0859-.59375-1.8906 0-.83203.20703-1.5.625-2 .41406-.5.97266-.75 1.6719-.75.84375 0 1.4844.38672 1.9219 1.1562l-.73438.46875c-.11719-.21875-.21875-.38281-.3125-.5-.21875-.25-.5-.375-.84375-.375-.44922 0-.78125.17188-1 .51562-.25.36719-.375.85547-.375 1.4688 0 .55469.10156 1 .3125 1.3438.23828.375.60156.5625 1.0938.5625.38281 0 .70312-.14062.95312-.42188.10156-.11328.20703-.27344.3125-.48438z"/>
</symbol>
<symbol id="l" overflow="visible">
<path d="m.67188 0v-5.2031h.92188v.84375c.28906-.625.70312-.9375 1.2344-.9375.15625 0 .31641.03125.48438.09375l-.15625.8125c-.16797-.039063-.3125-.0625-.4375-.0625-.33594 0-.60156.13281-.79688.39062-.21875.28125-.32812.69531-.32812 1.2344v2.8281z"/>
</symbol>
<symbol id="h" overflow="visible">
<path d="m.73438 0v-.76562h1.6875v-4.8125c-.36719.15625-.88281.23438-1.5469.23438v-.65625c.50781-.050781.89844-.16406 1.1719-.34375.20703-.11328.36719-.26953.48438-.46875.050781-.09375.10938-.23828.17188-.4375h.625v6.4844h1.5469v.76562z"/>
</symbol>
<symbol id="x" overflow="visible">
<path d="m.09375 0 1.8438-2.6719-1.7188-2.5312h1.0469l1.2344 1.8438 1.2344-1.8438h.96875l-1.7188 2.4688 1.9062 2.7344h-1.0781l-1.3594-2.0469-1.3906 2.0469z"/>
</symbol>
<symbol id="w" overflow="visible">
<path d="m1.3906-1.2812c.17578 0 .33203.0625.46875.1875.125.13672.1875.29688.1875.48438s-.0625.34375-.1875.46875c-.13672.13672-.29297.20312-.46875.20312-.1875 0-.35156-.066406-.48438-.20312-.13672-.125-.20312-.28125-.20312-.46875s.066406-.34375.20312-.46875c.125-.13281.28516-.20312.48438-.20312z"/>
</symbol>
<symbol id="ar" overflow="visible">
<path d="m1.4844-3.6094c.35156-.64453.86719-.96875 1.5469-.96875.60156 0 1.0938.23047 1.4688.6875.375.4375.5625.99609.5625 1.6719 0 .59375-.15625 1.0938-.46875 1.5-.41797.54297-.99219.8125-1.7188.8125-.5 0-.93359-.13281-1.2969-.40625-.40625-.30078-.6875-.74219-.84375-1.3281-.125-.4375-.1875-.97266-.1875-1.6094 0-1.3516.22266-2.3633.67188-3.0312.40625-.61328.99219-.92188 1.7656-.92188 1 0 1.6406.49609 1.9219 1.4844l-.82812.29688c-.074219-.26953-.16406-.47656-.26562-.625-.1875-.25781-.46484-.39062-.82812-.39062-.625 0-1.0547.38281-1.2812 1.1406-.125.39844-.19922.96094-.21875 1.6875zm1.3906-.20312c-.39844 0-.71484.15625-.95312.46875-.23047.29297-.34375.64844-.34375 1.0625 0 .48047.12891.875.39062 1.1875.22656.28125.53516.42188.92188.42188.41406 0 .73438-.17188.95312-.51562.17578-.25781.26562-.59375.26562-1 0-.44531-.10156-.82031-.29688-1.125-.21094-.33203-.52344-.5-.9375-.5z"/>
</symbol>
<symbol id="ad" overflow="visible">
<path d="m.625-1.8594.85938-.20312c.30078.9375.97266 1.4062 2.0156 1.4062.44531 0 .82812-.09375 1.1406-.28125.34375-.21875.51562-.55078.51562-1 0-.35156-.11719-.625-.34375-.8125-.15625-.13281-.33984-.23438-.54688-.29688-.26172-.09375-.58594-.17969-.96875-.26562-.59375-.14453-1.0234-.28516-1.2812-.42188-.64844-.32031-.96875-.83594-.96875-1.5469 0-.65625.25391-1.1602.76562-1.5156.39453-.26953.89453-.40625 1.5-.40625.80078 0 1.4258.21484 1.875.64062.25.23047.46094.55469.64062.96875l-.8125.23438c-.13672-.32031-.29688-.5625-.48438-.71875-.28125-.25781-.68359-.39062-1.2031-.39062-.39844 0-.71484.085938-.95312.25-.30469.19922-.45312.49219-.45312.875 0 .33594.14062.58984.42188.76562.17578.11719.36328.19922.5625.25.17578.054687.40625.10938.6875.17188.83203.1875 1.4258.41797 1.7812.6875.44531.35547.67188.84375.67188 1.4688 0 .78125-.32422 1.3555-.96875 1.7188-.44922.25-.97656.375-1.5781.375-.84375 0-1.5273-.21875-2.0469-.65625-.38672-.3125-.66406-.74219-.82812-1.2969z"/>
</symbol>
<symbol id="r" overflow="visible">
<path d="m.75 0v-4.4688h-.65625v-.73438h.65625v-.67188c0-.59375.082031-1.0078.25-1.25.21875-.32031.59375-.48438 1.125-.48438.28906 0 .55469.058594.79688.17188l-.26562.64062c-.15625-.039063-.29297-.0625-.40625-.0625-.28125 0-.46484.10938-.54688.32812-.042969.125-.0625.32812-.0625.60938v.71875h1.125v.73438h-1.125v4.4688z"/>
</symbol>
<symbol id="j" overflow="visible">
<path d="m.64062 0v-7.5h.92188v7.5z"/>
</symbol>
<symbol id="f" overflow="visible">
<path d="m.6875 0v-5.2031h.92188v.79688c.3125-.59375.83203-.89062 1.5625-.89062.53906 0 .96094.16797 1.2656.5.3125.35547.46875.875.46875 1.5625v3.2344h-.92188v-3.25c0-.47656-.10547-.81641-.3125-1.0156-.17969-.15625-.42969-.23438-.75-.23438-.39844 0-.71484.12109-.95312.35938-.24219.24219-.35938.57031-.35938.98438v3.1562z"/>
</symbol>
<symbol id="u" overflow="visible">
<path d="m1.3594-2.3281c-.4375-.33203-.65625-.75391-.65625-1.2656 0-.50781.19141-.92188.57812-1.2344.36328-.3125.82812-.46875 1.3906-.46875.375 0 .73438.078125 1.0781.23438.0625-.00781.30469-.046875.73438-.10938l.40625-.0625.26562-.046875h.0625v.79688h-.75c.20703.28125.3125.58984.3125.92188 0 .55469-.21094.98047-.625 1.2812-.36719.27344-.82422.40625-1.375.40625-.33594 0-.64844-.054688-.9375-.17188-.17969.125-.26562.28125-.26562.46875 0 .15625.050781.26562.15625.32812.10156.0625.29688.09375.57812.09375h.98438c.63281 0 1.1094.11719 1.4219.34375.33203.25.5.60547.5 1.0625 0 .58203-.26562 1.0234-.79688 1.3281-.4375.25-1 .375-1.6875.375s-1.2422-.12109-1.6562-.35938c-.44922-.26172-.67188-.61719-.67188-1.0625 0-.46875.30078-.83594.90625-1.1094-.35547-.1875-.53125-.46094-.53125-.82812 0-.38281.19141-.69141.57812-.92188zm.5625 1.9219c-.42969.23047-.64062.50781-.64062.84375 0 .55078.48828.82812 1.4688.82812 1.0508 0 1.5781-.32031 1.5781-.95312 0-.45703-.32031-.6875-.95312-.6875h-1.125c-.10547 0-.21484-.007812-.32812-.03125zm.79688-4.2031c-.34375 0-.61719.09375-.8125.28125-.21094.17969-.3125.41797-.3125.71875 0 .38672.14062.66797.42188.84375.21875.13672.46875.20312.75.20312.35156 0 .63281-.097656.84375-.29688.17578-.16406.26562-.40625.26562-.71875 0-.34375-.11719-.60156-.34375-.78125-.21094-.16406-.48047-.25-.8125-.25z"/>
</symbol>
<symbol id="be" overflow="visible">
<path d="m2.1094-.0625-1.9531-5.1406h.98438l1.4219 3.875 1.3125-3.875h.9375l-2.1406 5.9531c-.27344.75-.74609 1.125-1.4219 1.125-.38672 0-.72656-.10547-1.0156-.3125l.3125-.65625c.21875.14453.4375.21875.65625.21875.36328 0 .60938-.21094.73438-.625z"/>
</symbol>
<symbol id="af" overflow="visible">
<path d="m4.0312-7.2031c1.1016 0 1.9531.39844 2.5469 1.1875.25781.33594.45703.74609.59375 1.2344.11328.40625.17188.8125.17188 1.2188 0 .58594-.10547 1.1367-.3125 1.6562-.27344.69922-.71094 1.2266-1.3125 1.5781-.46875.28125-1.0312.42188-1.6875.42188-1.1055 0-1.9609-.39453-2.5625-1.1875-.5-.66406-.75-1.5-.75-2.5 0-.55078.10156-1.0859.3125-1.6094.26953-.69531.70312-1.2227 1.2969-1.5781.47656-.28125 1.0469-.42188 1.7031-.42188zm0 .76562c-.80469 0-1.4062.29297-1.8125.875-.36719.53125-.54688 1.1875-.54688 1.9688 0 .90625.21875 1.6328.65625 2.1719.39453.5.96094.75 1.7031.75.78906 0 1.3906-.28906 1.7969-.875.36328-.53906.54688-1.2109.54688-2.0156 0-.88281-.21484-1.5977-.64062-2.1406-.39844-.48828-.96484-.73438-1.7031-.73438z"/>
</symbol>
<symbol id="v" overflow="visible">
<path d="m.64062-5.2031h.92188v3.2031c0 .5.085938.85156.26562 1.0469.16406.1875.41016.28125.73438.28125.39453 0 .71875-.125.96875-.375.23828-.23828.35938-.57031.35938-1v-3.1562h.90625v5.2031h-.90625v-.79688c-.32422.59375-.85156.89062-1.5781.89062-.54297 0-.96484-.1875-1.2656-.5625-.27344-.34375-.40625-.84375-.40625-1.5z"/>
</symbol>
<symbol id="k" overflow="visible">
<path d="m2.7656-5.2969c.75 0 1.3438.28906 1.7812.85938.38281.51172.57812 1.125.57812 1.8438 0 .69922-.19531 1.3086-.57812 1.8281-.4375.57422-1.0273.85938-1.7656.85938-.76172 0-1.3555-.28516-1.7812-.85938-.38672-.50781-.57812-1.1328-.57812-1.875 0-.69531.19141-1.2969.57812-1.7969.4375-.57031 1.0234-.85938 1.7656-.85938zm0 .75c-.4375 0-.77734.17188-1.0156.51562-.25.36719-.375.83594-.375 1.4062 0 .60547.125 1.0898.375 1.4531.23828.34375.57812.51562 1.0156.51562s.77344-.17188 1.0156-.51562c.25-.36328.375-.83594.375-1.4219 0-.60156-.125-1.082-.375-1.4375-.24219-.34375-.57812-.51562-1.0156-.51562z"/>
</symbol>
<symbol id="ap" overflow="visible">
<path d="m.67188 1.8125v-7.0156h.92188v.84375c.35156-.625.85156-.9375 1.5-.9375.40625 0 .76953.125 1.0938.375.28906.21875.51562.52734.67188.92188.15625.39844.23438.85547.23438 1.375 0 .80469-.17969 1.4531-.53125 1.9531-.36719.51172-.85547.76562-1.4688.76562-.66797 0-1.168-.30469-1.5-.92188v2.6406zm2.2031-6.3594c-.48047 0-.83984.24219-1.0781.71875-.15625.3125-.23438.71484-.23438 1.2031 0 .53125.078125.96094.23438 1.2812.22656.46094.59766.6875 1.1094.6875.82031 0 1.2344-.64062 1.2344-1.9219 0-.53906-.085937-.97266-.25-1.2969-.21875-.44531-.55859-.67188-1.0156-.67188z"/>
</symbol>
<symbol id="ae" overflow="visible">
<path d="m6.0312-2.3281.82812.3125c-.1875.49219-.39062.86719-.60938 1.125-.53125.65625-1.2734.98438-2.2188.98438-.89844 0-1.6328-.28516-2.2031-.85938-.3125-.32031-.55859-.71875-.73438-1.1875-.17969-.48828-.26562-1.0195-.26562-1.5938 0-1.1758.34375-2.1133 1.0312-2.8125.57031-.58203 1.2969-.875 2.1719-.875.82031 0 1.4766.24609 1.9688.73438.20703.19922.37891.43359.51562.70312.070313.13672.16016.33984.26562.60938l-.8125.29688c-.16797-.46875-.35938-.81641-.57812-1.0469-.33594-.35156-.78125-.53125-1.3438-.53125-.82422 0-1.4336.35156-1.8281 1.0469-.29297.5-.4375 1.125-.4375 1.875 0 .73047.14062 1.3398.42188 1.8281.39453.69922 1.0156 1.0469 1.8594 1.0469.61328 0 1.0938-.19531 1.4375-.59375.20703-.25.38281-.60156.53125-1.0625z"/>
</symbol>
<symbol id="bd" overflow="visible">
<path d="m6.4844 0-.17188-1.2812c-.28125.44922-.58984.78125-.92188 1-.38672.25-.84375.375-1.375.375-.85547 0-1.5703-.28906-2.1406-.875-.32422-.32031-.57422-.72266-.75-1.2031-.1875-.48828-.28125-1.0156-.28125-1.5781 0-.78125.17188-1.4727.51562-2.0781.28906-.50781.67188-.89844 1.1406-1.1719.46875-.28125 1-.42188 1.5938-.42188.80078 0 1.4453.24219 1.9375.71875.20703.1875.38281.40625.53125.65625.0625.125.14844.32422.26562.59375l-.82812.3125c-.16797-.46875-.35938-.8125-.57812-1.0312-.33594-.32031-.77344-.48438-1.3125-.48438-.84375 0-1.4688.35547-1.875 1.0625-.28125.5-.42188 1.1172-.42188 1.8438 0 .71875.14062 1.3281.42188 1.8281.39453.71094 1.0039 1.0625 1.8281 1.0625.59375 0 1.0859-.19531 1.4844-.59375.41406-.42578.625-.96094.625-1.6094v-.09375h-1.8906v-.73438h2.7812v3.7031z"/>
</symbol>
<symbol id="bb" overflow="visible">
<path d="m1.125 0v-7.1094h1.1875l3.2344 6.0625v-6.0625h.82812v7.1094h-1.2188l-3.1875-5.9844v5.9844z"/>
</symbol>
<symbol id="ao" overflow="visible">
<path d="m2.5 1.4688c-.41797-.52344-.73438-1.0234-.95312-1.5-.4375-.91406-.65625-1.9414-.65625-3.0781 0-1.1953.23828-2.2734.71875-3.2344.21875-.4375.51562-.89453.89062-1.375h.8125c-.41797.625-.71875 1.1719-.90625 1.6406-.36719.88672-.54688 1.8711-.54688 2.9531 0 1.1367.19531 2.168.59375 3.0938.1875.41406.47266.91406.85938 1.5z"/>
</symbol>
<symbol id="an" overflow="visible">
<path d="m.8125-7.7188c.41406.53125.73828 1.0312.96875 1.5.42578.91797.64062 1.9453.64062 3.0781 0 1.1992-.24219 2.2773-.71875 3.2344-.21094.4375-.50781.89453-.89062 1.375h-.79688c.40625-.625.70312-1.1719.89062-1.6406.375-.88281.5625-1.8672.5625-2.9531 0-1.1328-.20312-2.1641-.60938-3.0938-.1875-.42578-.46875-.92578-.84375-1.5z"/>
</symbol>
<symbol id="am" overflow="visible">
<path d="m.76562 1.4375v-.5c.17578-.0625.3125-.14844.40625-.25.125-.15625.20312-.375.23438-.65625-.19922-.011719-.35156-.054688-.45312-.14062-.17969-.11328-.26562-.28516-.26562-.51562 0-.1875.054688-.34375.17188-.46875.125-.13281.28516-.20312.48438-.20312.23828 0 .42578.10156.5625.29688.125.16797.1875.39844.1875.6875 0 .55078-.13281.97656-.39062 1.2812-.15625.1875-.35156.31641-.57812.39062-.085938.03125-.20312.054687-.35938.078125zm.625-5.6719c.17578 0 .33203.070313.46875.20312.125.13672.1875.29297.1875.46875 0 .1875-.0625.35156-.1875.48438-.13672.125-.29688.1875-.48438.1875s-.34375-.0625-.46875-.1875c-.13672-.13281-.20312-.29688-.20312-.48438 0-.17578.066406-.33203.20312-.46875.125-.13281.28516-.20312.48438-.20312z"/>
</symbol>
<symbol id="ba" overflow="visible">
<path d="m3.0781 0-2.5-7.1094h.95312l1.9688 5.8281 1.9844-5.8281h.90625l-2.5312 7.1094z"/>
</symbol>
<symbol id="al" overflow="visible">
<path d="m.78125 1.4375v-.5c.17578-.0625.3125-.14844.40625-.25.125-.15625.20312-.375.23438-.65625-.19922-.011719-.35547-.054688-.46875-.14062-.16797-.11328-.25-.28516-.25-.51562 0-.1875.054687-.34375.17188-.46875.11328-.13281.27344-.20312.48438-.20312.23828 0 .42578.10156.5625.29688.11328.16797.17188.39844.17188.6875 0 .55078-.125.97656-.375 1.2812-.15625.1875-.35156.31641-.57812.39062-.085937.03125-.20312.054687-.35938.078125z"/>
</symbol>
<symbol id="ak" overflow="visible">
<path d="m1.5938 0-1.5-5.2031h.98438l1.0469 4.0781 1.0781-4.0781h.90625l.96875 4.0781 1.0781-4.0781h.92188l-1.5156 5.2031h-.95312l-.96875-4.1406-1.0938 4.1406z"/>
</symbol>
<symbol id="az" overflow="visible">
<path d="m.6875 0v-5.2031h.90625v.79688c.3125-.59375.78516-.89062 1.4219-.89062.67578 0 1.1484.32031 1.4219.95312.375-.63281.91016-.95312 1.6094-.95312.47656 0 .85938.16406 1.1406.48438.3125.36719.46875.89062.46875 1.5781v3.2344h-.92188v-3.2656c0-.48828-.10156-.83203-.29688-1.0312-.14844-.13281-.35156-.20312-.60938-.20312-.34375 0-.625.10938-.84375.32812-.24219.25-.35938.58984-.35938 1.0156v3.1562h-.90625v-3.2656c0-.48828-.10547-.83203-.3125-1.0312-.14844-.13281-.35156-.20312-.60938-.20312-.34375 0-.625.10938-.84375.32812-.24219.25-.35938.58984-.35938 1.0156v3.1562z"/>
</symbol>
<symbol id="ay" overflow="visible">
<path d="m.5-4.8594v-.5c.17578-.0625.3125-.14844.40625-.26562.125-.14453.19531-.36328.21875-.65625-.1875 0-.33984-.039062-.45312-.125-.16797-.11328-.25-.28516-.25-.51562 0-.19531.054687-.35156.17188-.46875.11328-.13281.27344-.20312.48438-.20312.23828 0 .42578.10156.5625.29688.11328.16797.17188.39844.17188.6875 0 .55469-.125.98047-.375 1.2812-.15625.1875-.35156.32031-.57812.39062-.085937.03125-.20312.058594-.35938.078125z"/>
</symbol>
<symbol id="aj" overflow="visible">
<path d="m1.0781 0v-7.1094h.92188v7.1094z"/>
</symbol>
<symbol id="ai" overflow="visible">
<path d="m.29688-3.2656v-.64062c.59375-.375 1.0312-.70312 1.3125-.98438.35156-.35156.53125-.70312.53125-1.0469 0-.1875-.054687-.33203-.15625-.4375-.085937-.09375-.19922-.14062-.34375-.14062-.3125 0-.52344.19531-.625.57812l-.71875-.17188c.16406-.69531.625-1.0469 1.375-1.0469.40625 0 .73438.12109.98438.35938.21875.21094.32812.48438.32812.82812 0 .74219-.54688 1.4297-1.6406 2.0625h1.6719v.64062z"/>
</symbol>
<symbol id="t" overflow="visible"/>
<symbol id="ah" overflow="visible">
<path d="m.70312 0v-4.6406h1.4688c.72656 0 1.2891.22656 1.6875.67188.35156.40625.53125.96094.53125 1.6562 0 .79297-.21875 1.3906-.65625 1.7969-.38672.34375-.91406.51562-1.5781.51562zm.59375-.5h.92188c.48828 0 .86719-.14453 1.1406-.4375.28125-.3125.42188-.77344.42188-1.3906 0-.65625-.17188-1.1406-.51562-1.4531-.26172-.23828-.61719-.35938-1.0625-.35938h-.90625z"/>
</symbol>
<symbol id="av" overflow="visible">
<path d="m.70312 0v-4.6406h.59375v4.6406z"/>
</symbol>
<symbol id="au" overflow="visible">
<path d="m2.625-4.6875c.71875 0 1.2734.25781 1.6719.76562.16406.21875.28906.49219.375.8125.070313.26172.10938.52734.10938.79688 0 .375-.070312.73438-.20312 1.0781-.17969.44922-.46094.78906-.84375 1.0156-.3125.1875-.68359.28125-1.1094.28125-.71875 0-1.2773-.25781-1.6719-.78125-.32422-.42578-.48438-.96875-.48438-1.625 0-.35156.066406-.70312.20312-1.0469.17578-.45703.45703-.80078.84375-1.0312.3125-.17578.67969-.26562 1.1094-.26562zm0 .48438c-.52344 0-.91406.19531-1.1719.57812-.24219.35547-.35938.78125-.35938 1.2812 0 .59375.14062 1.0703.42188 1.4219.25781.32422.62891.48438 1.1094.48438.51953 0 .91016-.19141 1.1719-.57812.23828-.34375.35938-.77344.35938-1.2969 0-.58203-.14062-1.0469-.42188-1.3906-.26172-.33203-.63281-.5-1.1094-.5z"/>
</symbol>
<symbol id="ab" overflow="visible"/>
<symbol id="s" overflow="visible"/>
<symbol id="o" overflow="visible"/>
<symbol id="at" overflow="visible"/>
<symbol id="aw" overflow="visible"/>
<clipPath id="bh">
<path d="m561 30h.35937v1h-.35937z"/>
</clipPath>
<clipPath id="bg">
<path d="m525 811h.12109v1h-.12109z"/>
</clipPath>
</defs>
<rect x="2.5" y="2.5" width="670" height="90" fill="#ffffff" fill-rule="evenodd" stroke="#000000"/>
<g transform="matrix(1.5 0 0 1.5 -100.09 -410.64)">
<g fill="#000000">
<use x="70.919998" y="9.3599997" xlink:href="#ag"/>
<use x="70.919998" y="839.76001" xlink:href="#a"/>
<use x="63.834614" y="32.16" xlink:href="#ag"/>
<use x="120.47264" y="32.16" xlink:href="#ag"/>
<use x="161.63832" y="32.16" xlink:href="#a"/>
<use x="212.87256" y="32.16" xlink:href="#a"/>
<use x="541.91113" y="30.596279" xlink:href="#a"/>
</g>
<g clip-path="url(#bh)">
<g fill="#000000">
<use x="561.23999" y="30.6" xlink:href="#a"/>
</g>
</g>
<g fill="#515e68">
<use x="184.80161" y="810.96002" xlink:href="#t"/>
<use x="249.48174" y="810.96002" xlink:href="#t"/>
<use x="251.4024" y="810.96002" xlink:href="#t"/>
<use x="384.11536" y="811.20001" xlink:href="#t"/>
<use x="456.84167" y="811.20001" xlink:href="#t"/>
</g>
<g clip-path="url(#bg)">
<g fill="#515e68">
<use x="525.12" y="811.20001" xlink:href="#t"/>
</g>
</g>
<g fill="#000000">
<use x="297.60001" y="81.239998" xlink:href="#ab"/>
<use x="436.32001" y="246.96001" xlink:href="#ab"/>
<use x="258.72" y="263.39999" xlink:href="#s"/>
<use x="362.15701" y="263.39999" xlink:href="#s"/>
<use x="70.919998" y="274.67999" xlink:href="#a"/>
<use x="70.919998" y="286.2037" xlink:href="#aa"/>
<use x="77.040421" y="286.2037" xlink:href="#m"/>
<use x="82.558258" y="286.2037" xlink:href="#b"/>
<use x="88.076103" y="286.2037" xlink:href="#a"/>
<use x="90.835022" y="286.2037" xlink:href="#z"/>
<use x="96.352859" y="286.2037" xlink:href="#bf"/>
<use x="99.724319" y="286.2037" xlink:href="#p"/>
<use x="105.36467" y="286.2037" xlink:href="#d"/>
<use x="107.52399" y="286.2037" xlink:href="#g"/>
<use x="110.28391" y="286.2037" xlink:href="#a"/>
<use x="113.04283" y="286.2037" xlink:href="#i"/>
<use x="118.68318" y="286.2037" xlink:href="#b"/>
<use x="124.20102" y="286.2037" xlink:href="#y"/>
<use x="129.24078" y="286.2037" xlink:href="#d"/>
<use x="131.40111" y="286.2037" xlink:href="#n"/>
<use x="136.44086" y="286.2037" xlink:href="#b"/>
<use x="141.95871" y="286.2037" xlink:href="#a"/>
<use x="144.71762" y="286.2037" xlink:href="#e"/>
<use x="150.35797" y="286.2037" xlink:href="#i"/>
<use x="155.87581" y="286.2037" xlink:href="#i"/>
<use x="161.39365" y="286.2037" xlink:href="#l"/>
<use x="164.75415" y="286.2037" xlink:href="#b"/>
<use x="170.272" y="286.2037" xlink:href="#c"/>
<use x="175.31175" y="286.2037" xlink:href="#c"/>
<use x="180.35251" y="286.2037" xlink:href="#a"/>
<use x="183.11143" y="286.2037" xlink:href="#d"/>
<use x="185.27176" y="286.2037" xlink:href="#c"/>
<use x="190.31152" y="286.2037" xlink:href="#a"/>
<use x="193.19196" y="286.2037" xlink:href="#h"/>
<use x="197.99167" y="286.2037" xlink:href="#h"/>
<use x="202.7914" y="286.2037" xlink:href="#h"/>
<use x="208.30923" y="286.2037" xlink:href="#q"/>
<use x="213.82707" y="286.2037" xlink:href="#h"/>
<use x="218.74632" y="286.2037" xlink:href="#h"/>
<use x="224.26416" y="286.2037" xlink:href="#x"/>
<use x="229.30392" y="286.2037" xlink:href="#w"/>
<use x="232.06384" y="286.2037" xlink:href="#a"/>
<use x="234.70323" y="286.2037" xlink:href="#aa"/>
<use x="240.82365" y="286.2037" xlink:href="#m"/>
<use x="246.34149" y="286.2037" xlink:href="#b"/>
<use x="251.85933" y="286.2037" xlink:href="#a"/>
<use x="254.61826" y="286.2037" xlink:href="#ar"/>
<use x="260.13611" y="286.2037" xlink:href="#a"/>
<use x="263.01654" y="286.2037" xlink:href="#aq"/>
<use x="271.29327" y="286.2037" xlink:href="#ad"/>
<use x="278.01331" y="286.2037" xlink:href="#as"/>
<use x="284.6138" y="286.2037" xlink:href="#a"/>
<use x="287.37271" y="286.2037" xlink:href="#p"/>
<use x="293.01205" y="286.2037" xlink:href="#d"/>
<use x="295.17239" y="286.2037" xlink:href="#g"/>
<use x="297.93231" y="286.2037" xlink:href="#c"/>
<use x="302.97208" y="286.2037" xlink:href="#a"/>
<use x="305.73099" y="286.2037" xlink:href="#e"/>
<use x="311.24881" y="286.2037" xlink:href="#l"/>
<use x="314.72885" y="286.2037" xlink:href="#b"/>
<use x="320.24667" y="286.2037" xlink:href="#a"/>
<use x="323.00562" y="286.2037" xlink:href="#r"/>
<use x="325.76651" y="286.2037" xlink:href="#d"/>
<use x="327.92584" y="286.2037" xlink:href="#x"/>
<use x="332.96561" y="286.2037" xlink:href="#b"/>
<use x="338.60596" y="286.2037" xlink:href="#i"/>
<use x="344.12381" y="286.2037" xlink:href="#w"/>
<use x="346.8837" y="286.2037" xlink:href="#a"/>
<use x="349.52411" y="286.2037" xlink:href="#aa"/>
<use x="355.64352" y="286.2037" xlink:href="#m"/>
<use x="361.16138" y="286.2037" xlink:href="#b"/>
<use x="366.6792" y="286.2037" xlink:href="#a"/>
<use x="369.55865" y="286.2037" xlink:href="#j"/>
<use x="371.71896" y="286.2037" xlink:href="#e"/>
<use x="377.23682" y="286.2037" xlink:href="#c"/>
<use x="382.27658" y="286.2037" xlink:href="#g"/>
<use x="385.0365" y="286.2037" xlink:href="#a"/>
<use x="387.79541" y="286.2037" xlink:href="#p"/>
<use x="393.43576" y="286.2037" xlink:href="#d"/>
<use x="395.59607" y="286.2037" xlink:href="#g"/>
<use x="398.35599" y="286.2037" xlink:href="#a"/>
<use x="401.23544" y="286.2037" xlink:href="#d"/>
<use x="403.39575" y="286.2037" xlink:href="#c"/>
<use x="408.43552" y="286.2037" xlink:href="#a"/>
<use x="411.19443" y="286.2037" xlink:href="#n"/>
<use x="416.23419" y="286.2037" xlink:href="#m"/>
<use x="421.75204" y="286.2037" xlink:href="#e"/>
<use x="427.26987" y="286.2037" xlink:href="#f"/>
<use x="432.90924" y="286.2037" xlink:href="#u"/>
<use x="438.42706" y="286.2037" xlink:href="#b"/>
<use x="443.94492" y="286.2037" xlink:href="#e"/>
<use x="449.46274" y="286.2037" xlink:href="#p"/>
<use x="455.10211" y="286.2037" xlink:href="#j"/>
<use x="457.26242" y="286.2037" xlink:href="#b"/>
<use x="462.78027" y="286.2037" xlink:href="#a"/>
<use x="465.66071" y="286.2037" xlink:href="#p"/>
<use x="471.17853" y="286.2037" xlink:href="#be"/>
<use x="476.21829" y="286.2037" xlink:href="#a"/>
<use x="478.9772" y="286.2037" xlink:href="#ad"/>
<use x="485.5777" y="286.2037" xlink:href="#ac"/>
<use x="492.7778" y="286.2037" xlink:href="#af"/>
<use x="500.57745" y="286.2037" xlink:href="#a"/>
<use x="70.919998" y="297.72745" xlink:href="#y"/>
<use x="75.959763" y="297.72745" xlink:href="#e"/>
<use x="81.4776" y="297.72745" xlink:href="#j"/>
<use x="83.637924" y="297.72745" xlink:href="#v"/>
<use x="89.155762" y="297.72745" xlink:href="#b"/>
<use x="94.673607" y="297.72745" xlink:href="#a"/>
<use x="97.554039" y="297.72745" xlink:href="#e"/>
<use x="103.07188" y="297.72745" xlink:href="#f"/>
<use x="108.58971" y="297.72745" xlink:href="#i"/>
<use x="114.23006" y="297.72745" xlink:href="#a"/>
<use x="116.98898" y="297.72745" xlink:href="#n"/>
<use x="122.02875" y="297.72745" xlink:href="#e"/>
<use x="127.54659" y="297.72745" xlink:href="#f"/>
<use x="133.06442" y="297.72745" xlink:href="#a"/>
<use x="135.82335" y="297.72745" xlink:href="#p"/>
<use x="141.4637" y="297.72745" xlink:href="#b"/>
<use x="146.98154" y="297.72745" xlink:href="#a"/>
<use x="149.74045" y="297.72745" xlink:href="#n"/>
<use x="154.78021" y="297.72745" xlink:href="#m"/>
<use x="160.29805" y="297.72745" xlink:href="#e"/>
<use x="165.9384" y="297.72745" xlink:href="#f"/>
<use x="171.45624" y="297.72745" xlink:href="#u"/>
<use x="176.97408" y="297.72745" xlink:href="#b"/>
<use x="182.61343" y="297.72745" xlink:href="#i"/>
<use x="188.13127" y="297.72745" xlink:href="#a"/>
<use x="191.0117" y="297.72745" xlink:href="#i"/>
<use x="196.52954" y="297.72745" xlink:href="#v"/>
<use x="202.04738" y="297.72745" xlink:href="#l"/>
<use x="205.40788" y="297.72745" xlink:href="#d"/>
<use x="207.56721" y="297.72745" xlink:href="#f"/>
<use x="213.20757" y="297.72745" xlink:href="#u"/>
<use x="218.7254" y="297.72745" xlink:href="#a"/>
<use x="221.48433" y="297.72745" xlink:href="#k"/>
<use x="227.12468" y="297.72745" xlink:href="#ap"/>
<use x="232.64252" y="297.72745" xlink:href="#b"/>
<use x="238.16035" y="297.72745" xlink:href="#l"/>
<use x="241.51987" y="297.72745" xlink:href="#e"/>
<use x="247.0377" y="297.72745" xlink:href="#g"/>
<use x="249.91713" y="297.72745" xlink:href="#d"/>
<use x="252.07745" y="297.72745" xlink:href="#k"/>
<use x="257.59531" y="297.72745" xlink:href="#f"/>
<use x="263.11313" y="297.72745" xlink:href="#w"/>
<use x="265.99356" y="297.72745" xlink:href="#a"/>
<use x="268.7525" y="297.72745" xlink:href="#ae"/>
<use x="275.95258" y="297.72745" xlink:href="#k"/>
<use x="281.59192" y="297.72745" xlink:href="#f"/>
<use x="287.10977" y="297.72745" xlink:href="#f"/>
<use x="292.62759" y="297.72745" xlink:href="#b"/>
<use x="298.14545" y="297.72745" xlink:href="#n"/>
<use x="303.18521" y="297.72745" xlink:href="#g"/>
<use x="306.06564" y="297.72745" xlink:href="#d"/>
<use x="308.34549" y="297.72745" xlink:href="#f"/>
<use x="313.86331" y="297.72745" xlink:href="#u"/>
<use x="319.38116" y="297.72745" xlink:href="#a"/>
<use x="322.14008" y="297.72745" xlink:href="#ad"/>
<use x="328.86011" y="297.72745" xlink:href="#ac"/>
<use x="336.06018" y="297.72745" xlink:href="#af"/>
<use x="343.85986" y="297.72745" xlink:href="#a"/>
<use x="346.61877" y="297.72745" xlink:href="#g"/>
<use x="349.37869" y="297.72745" xlink:href="#k"/>
<use x="354.89655" y="297.72745" xlink:href="#a"/>
<use x="357.65546" y="297.72745" xlink:href="#bd"/>
<use x="365.45612" y="297.72745" xlink:href="#bb"/>
<use x="372.65622" y="297.72745" xlink:href="#ac"/>
<use x="379.9758" y="297.72745" xlink:href="#a"/>
<use x="382.73474" y="297.72745" xlink:href="#l"/>
<use x="386.09525" y="297.72745" xlink:href="#b"/>
<use x="391.61307" y="297.72745" xlink:href="#c"/>
<use x="396.65283" y="297.72745" xlink:href="#v"/>
<use x="402.17068" y="297.72745" xlink:href="#j"/>
<use x="404.33099" y="297.72745" xlink:href="#g"/>
<use x="407.09091" y="297.72745" xlink:href="#c"/>
<use x="412.13068" y="297.72745" xlink:href="#a"/>
<use x="415.0101" y="297.72745" xlink:href="#d"/>
<use x="417.17044" y="297.72745" xlink:href="#f"/>
<use x="422.68826" y="297.72745" xlink:href="#a"/>
<use x="425.4472" y="297.72745" xlink:href="#c"/>
<use x="430.60748" y="297.72745" xlink:href="#j"/>
<use x="432.76779" y="297.72745" xlink:href="#e"/>
<use x="438.28564" y="297.72745" xlink:href="#y"/>
<use x="443.32541" y="297.72745" xlink:href="#b"/>
<use x="448.84323" y="297.72745" xlink:href="#a"/>
<use x="451.60214" y="297.72745" xlink:href="#e"/>
<use x="457.24249" y="297.72745" xlink:href="#i"/>
<use x="462.76035" y="297.72745" xlink:href="#i"/>
<use x="468.2782" y="297.72745" xlink:href="#l"/>
<use x="471.6387" y="297.72745" xlink:href="#b"/>
<use x="477.15652" y="297.72745" xlink:href="#c"/>
<use x="482.19629" y="297.72745" xlink:href="#c"/>
<use x="487.23605" y="297.72745" xlink:href="#a"/>
<use x="70.919998" y="309.13165" xlink:href="#h"/>
<use x="75.719727" y="309.13165" xlink:href="#h"/>
<use x="80.520447" y="309.13165" xlink:href="#h"/>
<use x="86.038284" y="309.13165" xlink:href="#q"/>
<use x="91.556122" y="309.13165" xlink:href="#h"/>
<use x="96.476364" y="309.13165" xlink:href="#h"/>
<use x="101.9942" y="309.13165" xlink:href="#q"/>
<use x="107.51205" y="309.13165" xlink:href="#a"/>
<use x="110.27097" y="309.13165" xlink:href="#ao"/>
</g>
<g fill="#0000ff">
<use x="113.63047" y="309.13165" xlink:href="#q"/>
<use x="119.14832" y="309.13165" xlink:href="#x"/>
</g>
<g fill="#0000ff">
<use x="124.18807" y="309.13165" fill="#0000ff" xlink:href="#z"/>
</g>
<g fill="#000000">
<use x="129.82742" y="309.13165" fill="#0000ff" xlink:href="#ar"/>
<use x="135.34526" y="309.13165" xlink:href="#an"/>
<use x="138.70477" y="309.13165" xlink:href="#am"/>
<use x="141.46469" y="309.13165" xlink:href="#a"/>
<use x="144.2236" y="309.13165" xlink:href="#n"/>
<use x="149.26337" y="309.13165" xlink:href="#k"/>
<use x="154.7812" y="309.13165" xlink:href="#f"/>
<use x="160.29904" y="309.13165" xlink:href="#f"/>
<use x="165.9384" y="309.13165" xlink:href="#b"/>
<use x="171.45624" y="309.13165" xlink:href="#n"/>
<use x="176.49699" y="309.13165" xlink:href="#g"/>
<use x="179.25691" y="309.13165" xlink:href="#d"/>
<use x="181.41724" y="309.13165" xlink:href="#k"/>
<use x="187.05659" y="309.13165" xlink:href="#f"/>
<use x="192.69693" y="309.13165" xlink:href="#a"/>
<use x="195.45586" y="309.13165" xlink:href="#d"/>
<use x="197.61519" y="309.13165" xlink:href="#g"/>
<use x="200.3761" y="309.13165" xlink:href="#a"/>
<use x="203.13501" y="309.13165" xlink:href="#g"/>
<use x="205.89594" y="309.13165" xlink:href="#k"/>
<use x="211.53528" y="309.13165" xlink:href="#a"/>
<use x="214.2942" y="309.13165" xlink:href="#ba"/>
<use x="220.92" y="309.6001" xlink:href="#ah"/>
<use x="225.59856" y="309.6001" xlink:href="#ah"/>
<use x="230.39894" y="309.6001" xlink:href="#av"/>
<use x="232.20038" y="309.6001" xlink:href="#au"/>
<use x="237.24001" y="309.12" xlink:href="#a"/>
<use x="239.99892" y="309.12" xlink:href="#l"/>
<use x="243.35843" y="309.12" xlink:href="#b"/>
<use x="248.87627" y="309.12" xlink:href="#c"/>
<use x="253.91603" y="309.12" xlink:href="#v"/>
<use x="259.43387" y="309.12" xlink:href="#j"/>
<use x="261.71371" y="309.12" xlink:href="#g"/>
<use x="264.47363" y="309.12" xlink:href="#c"/>
<use x="269.5134" y="309.12" xlink:href="#a"/>
<use x="272.27231" y="309.12" xlink:href="#d"/>
<use x="274.43262" y="309.12" xlink:href="#f"/>
<use x="279.95047" y="309.12" xlink:href="#a"/>
<use x="282.70938" y="309.12" xlink:href="#c"/>
<use x="287.86966" y="309.12" xlink:href="#j"/>
<use x="290.03" y="309.12" xlink:href="#e"/>
<use x="295.54782" y="309.12" xlink:href="#y"/>
<use x="300.58759" y="309.12" xlink:href="#b"/>
<use x="306.10544" y="309.12" xlink:href="#a"/>
<use x="309.0018" y="309.12" xlink:href="#e"/>
<use x="314.64215" y="309.12" xlink:href="#i"/>
<use x="320.15997" y="309.12" xlink:href="#i"/>
<use x="325.67783" y="309.12" xlink:href="#l"/>
<use x="329.03732" y="309.12" xlink:href="#b"/>
<use x="334.55518" y="309.12" xlink:href="#c"/>
<use x="339.59494" y="309.12" xlink:href="#c"/>
<use x="344.6347" y="309.12" xlink:href="#a"/>
<use x="347.39362" y="309.12" xlink:href="#h"/>
<use x="352.19333" y="309.12" xlink:href="#h"/>
<use x="356.99405" y="309.12" xlink:href="#h"/>
<use x="362.5119" y="309.12" xlink:href="#q"/>
<use x="368.02975" y="309.12" xlink:href="#h"/>
<use x="372.9649" y="309.12" xlink:href="#h"/>
<use x="377.76465" y="309.12" xlink:href="#h"/>
<use x="383.28247" y="309.12" xlink:href="#a"/>
<use x="386.04141" y="309.12" xlink:href="#ao"/>
</g>
<g fill="#ff0000">
<use x="389.40192" y="309.12" xlink:href="#q"/>
<use x="394.91974" y="309.12" xlink:href="#x"/>
</g>
<g fill="#ff0000">
<use x="399.9595" y="309.12" fill="#ff0000" xlink:href="#z"/>
</g>
<g fill="#000000">
<use x="405.59985" y="309.12" fill="#ff0000" xlink:href="#z"/>
<use x="411.11771" y="309.12" xlink:href="#an"/>
<use x="414.4772" y="309.12" xlink:href="#al"/>
<use x="417.23813" y="309.12" xlink:href="#a"/>
<use x="419.99704" y="309.12" xlink:href="#ak"/>
<use x="427.19711" y="309.12" xlink:href="#m"/>
<use x="432.83649" y="309.12" xlink:href="#d"/>
<use x="435.1163" y="309.12" xlink:href="#n"/>
<use x="440.15707" y="309.12" xlink:href="#m"/>
<use x="445.67493" y="309.12" xlink:href="#a"/>
<use x="448.43384" y="309.12" xlink:href="#d"/>
<use x="450.59317" y="309.12" xlink:href="#c"/>
<use x="455.63391" y="309.12" xlink:href="#a"/>
<use x="458.39282" y="309.12" xlink:href="#g"/>
<use x="461.15274" y="309.12" xlink:href="#m"/>
<use x="466.67059" y="309.12" xlink:href="#b"/>
<use x="472.30994" y="309.12" xlink:href="#a"/>
<use x="475.06888" y="309.12" xlink:href="#c"/>
<use x="480.10962" y="309.12" xlink:href="#e"/>
<use x="485.62747" y="309.12" xlink:href="#az"/>
<use x="493.90421" y="309.12" xlink:href="#b"/>
<use x="499.42206" y="309.12" xlink:href="#a"/>
<use x="502.30249" y="309.12" xlink:href="#e"/>
<use x="507.82034" y="309.12" xlink:href="#c"/>
<use x="512.86011" y="309.12" xlink:href="#a"/>
<use x="70.927917" y="320.64371" xlink:href="#as"/>
<use x="77.527412" y="320.64371" xlink:href="#aq"/>
<use x="85.927681" y="320.64371" xlink:href="#bc"/>
<use x="92.528175" y="320.64371" xlink:href="#h"/>
<use x="98.046013" y="320.64371" xlink:href="#ax"/>
<use x="103.68536" y="320.64371" xlink:href="#q"/>
<use x="109.2032" y="320.64371" xlink:href="#ay"/>
<use x="111.24301" y="320.64371" xlink:href="#c"/>
<use x="116.28277" y="320.64371" xlink:href="#a"/>
<use x="119.04169" y="320.64371" xlink:href="#aj"/>
<use x="121.80161" y="320.64371" xlink:href="#ai"/>
<use x="125.16211" y="320.64371" xlink:href="#ae"/>
<use x="132.36121" y="320.64371" xlink:href="#a"/>
<use x="135.12012" y="320.64371" xlink:href="#e"/>
<use x="140.63795" y="320.64371" xlink:href="#i"/>
<use x="146.27731" y="320.64371" xlink:href="#i"/>
<use x="151.79515" y="320.64371" xlink:href="#l"/>
<use x="155.15466" y="320.64371" xlink:href="#b"/>
<use x="160.6725" y="320.64371" xlink:href="#c"/>
<use x="165.71227" y="320.64371" xlink:href="#c"/>
<use x="170.75201" y="320.64371" xlink:href="#w"/>
<use x="173.51294" y="320.64371" xlink:href="#a"/>
<use x="176.15233" y="320.64371" xlink:href="#aa"/>
<use x="182.27275" y="320.64371" xlink:href="#m"/>
<use x="187.79059" y="320.64371" xlink:href="#b"/>
<use x="193.42995" y="320.64371" xlink:href="#a"/>
<use x="196.18886" y="320.64371" xlink:href="#ad"/>
<use x="202.78935" y="320.64371" xlink:href="#ac"/>
<use x="209.98944" y="320.64371" xlink:href="#af"/>
<use x="217.78912" y="320.64371" xlink:href="#a"/>
<use x="220.54803" y="320.64371" xlink:href="#ap"/>
<use x="226.18839" y="320.64371" xlink:href="#d"/>
<use x="228.34772" y="320.64371" xlink:href="#f"/>
<use x="233.86555" y="320.64371" xlink:href="#a"/>
<use x="236.62447" y="320.64371" xlink:href="#n"/>
<use x="241.66423" y="320.64371" xlink:href="#e"/>
<use x="247.30458" y="320.64371" xlink:href="#f"/>
<use x="252.82242" y="320.64371" xlink:href="#f"/>
<use x="258.34027" y="320.64371" xlink:href="#k"/>
<use x="263.85809" y="320.64371" xlink:href="#g"/>
<use x="266.73755" y="320.64371" xlink:href="#a"/>
<use x="269.49646" y="320.64371" xlink:href="#p"/>
<use x="275.01428" y="320.64371" xlink:href="#b"/>
<use x="280.65366" y="320.64371" xlink:href="#a"/>
<use x="283.41257" y="320.64371" xlink:href="#j"/>
<use x="285.5719" y="320.64371" xlink:href="#b"/>
<use x="291.21225" y="320.64371" xlink:href="#r"/>
<use x="293.97217" y="320.64371" xlink:href="#g"/>
<use x="296.73209" y="320.64371" xlink:href="#a"/>
<use x="299.491" y="320.64371" xlink:href="#r"/>
<use x="302.37042" y="320.64371" xlink:href="#j"/>
<use x="304.53076" y="320.64371" xlink:href="#k"/>
<use x="310.04858" y="320.64371" xlink:href="#e"/>
<use x="315.68893" y="320.64371" xlink:href="#g"/>
<use x="318.44885" y="320.64371" xlink:href="#d"/>
<use x="320.60919" y="320.64371" xlink:href="#f"/>
<use x="326.12701" y="320.64371" xlink:href="#u"/>
<use x="331.76639" y="320.64371" xlink:href="#am"/>
<use x="334.52631" y="320.64371" xlink:href="#a"/>
<use x="337.28522" y="320.64371" xlink:href="#d"/>
<use x="339.44553" y="320.64371" xlink:href="#r"/>
<use x="342.32596" y="320.64371" xlink:href="#a"/>
<use x="345.0849" y="320.64371" xlink:href="#j"/>
<use x="347.2442" y="320.64371" xlink:href="#b"/>
<use x="352.88455" y="320.64371" xlink:href="#r"/>
<use x="355.64447" y="320.64371" xlink:href="#g"/>
<use x="358.40439" y="320.64371" xlink:href="#a"/>
<use x="361.16333" y="320.64371" xlink:href="#r"/>
<use x="364.04376" y="320.64371" xlink:href="#j"/>
<use x="366.20306" y="320.64371" xlink:href="#k"/>
<use x="371.72092" y="320.64371" xlink:href="#e"/>
<use x="377.23877" y="320.64371" xlink:href="#g"/>
<use x="380.11819" y="320.64371" xlink:href="#d"/>
<use x="382.2785" y="320.64371" xlink:href="#f"/>
<use x="387.91885" y="320.64371" xlink:href="#u"/>
<use x="393.43671" y="320.64371" xlink:href="#al"/>
<use x="396.19662" y="320.64371" xlink:href="#a"/>
<use x="398.95554" y="320.64371" xlink:href="#g"/>
<use x="401.71545" y="320.64371" xlink:href="#m"/>
<use x="407.3558" y="320.64371" xlink:href="#b"/>
<use x="412.87366" y="320.64371" xlink:href="#a"/>
<use x="415.63257" y="320.64371" xlink:href="#aj"/>
<use x="418.39249" y="320.64371" xlink:href="#ai"/>
<use x="421.75198" y="320.64371" xlink:href="#ae"/>
<use x="428.95206" y="320.64371" xlink:href="#a"/>
<use x="431.711" y="320.64371" xlink:href="#e"/>
<use x="437.35135" y="320.64371" xlink:href="#i"/>
<use x="442.86917" y="320.64371" xlink:href="#i"/>
<use x="448.38702" y="320.64371" xlink:href="#l"/>
<use x="451.74753" y="320.64371" xlink:href="#b"/>
<use x="457.26535" y="320.64371" xlink:href="#c"/>
<use x="462.30511" y="320.64371" xlink:href="#c"/>
<use x="467.34488" y="320.64371" xlink:href="#a"/>
<use x="470.10379" y="320.64371" xlink:href="#ak"/>
<use x="477.30389" y="320.64371" xlink:href="#d"/>
<use x="479.58374" y="320.64371" xlink:href="#j"/>
<use x="481.74405" y="320.64371" xlink:href="#j"/>
<use x="483.90439" y="320.64371" xlink:href="#a"/>
<use x="486.78381" y="320.64371" xlink:href="#p"/>
<use x="492.30167" y="320.64371" xlink:href="#b"/>
<use x="497.81949" y="320.64371" xlink:href="#a"/>
<use x="70.927917" y="332.16745" xlink:href="#v"/>
<use x="76.445763" y="332.16745" xlink:href="#f"/>
<use x="81.9636" y="332.16745" xlink:href="#i"/>
<use x="87.481438" y="332.16745" xlink:href="#b"/>
<use x="93.121788" y="332.16745" xlink:href="#r"/>
<use x="95.881706" y="332.16745" xlink:href="#d"/>
<use x="98.04203" y="332.16745" xlink:href="#f"/>
<use x="103.68138" y="332.16745" xlink:href="#b"/>
<use x="109.19922" y="332.16745" xlink:href="#i"/>
<use x="114.71706" y="332.16745" xlink:href="#w"/>
<use x="117.47697" y="332.16745" xlink:href="#a"/>
<use x="120.36936" y="332.16745" xlink:href="#a"/>
<use x="70.927917" y="343.69116" xlink:href="#a"/>
<use x="104.16245" y="355.21487" xlink:href="#a"/>
<use x="251.53259" y="355.21487" xlink:href="#a"/>
<use x="93.497276" y="367.45572" xlink:href="#o"/>
<use x="130.32936" y="367.45572" xlink:href="#a"/>
<use x="220.0829" y="367.45572" xlink:href="#a"/>
<use x="222.97728" y="367.45572" xlink:href="#a"/>
<use x="93.497276" y="379.57703" xlink:href="#o"/>
<use x="126.37524" y="379.57703" xlink:href="#a"/>
<use x="191.29453" y="379.57703" xlink:href="#a"/>
<use x="93.497276" y="391.81787" xlink:href="#o"/>
<use x="131.41499" y="391.81787" xlink:href="#a"/>
<use x="255.13713" y="391.81787" xlink:href="#a"/>
<use x="305.04001" y="391.79999" xlink:href="#a"/>
<use x="329.88025" y="391.79999" xlink:href="#a"/>
<use x="115.79303" y="403.20419" xlink:href="#a"/>
<use x="189.81874" y="403.20419" xlink:href="#a"/>
<use x="215.52" y="403.20001" xlink:href="#a"/>
<use x="335.02109" y="403.20001" xlink:href="#a"/>
<use x="404.50504" y="403.20001" xlink:href="#a"/>
<use x="521.84479" y="403.20001" xlink:href="#a"/>
<use x="237.72" y="414.72" xlink:href="#a"/>
<use x="406.04401" y="414.72" xlink:href="#a"/>
<use x="414.3606" y="414.72" xlink:href="#a"/>
<use x="124.19293" y="426.24371" xlink:href="#a"/>
<use x="127.08432" y="426.24371" xlink:href="#a"/>
<use x="70.919884" y="437.64792" xlink:href="#a"/>
<use x="364.44107" y="449.17163" xlink:href="#a"/>
<use x="93.479279" y="461.41248" xlink:href="#o"/>
<use x="113.63832" y="461.41248" xlink:href="#a"/>
<use x="141.83508" y="461.41248" xlink:href="#a"/>
<use x="198.34811" y="461.41248" xlink:href="#a"/>
<use x="93.469322" y="473.65332" xlink:href="#o"/>
<use x="113.62836" y="473.65332" xlink:href="#a"/>
<use x="141.82512" y="473.65332" xlink:href="#a"/>
<use x="197.74055" y="473.65332" xlink:href="#a"/>
<use x="93.459358" y="485.77463" xlink:href="#o"/>
<use x="134.136" y="485.77463" xlink:href="#a"/>
<use x="141.81516" y="485.77463" xlink:href="#a"/>
<use x="276.21539" y="485.77463" xlink:href="#a"/>
<use x="93.459358" y="498.01547" xlink:href="#o"/>
<use x="135.81924" y="498.01547" xlink:href="#a"/>
<use x="141.81516" y="498.01547" xlink:href="#a"/>
<use x="283.41647" y="498.01547" xlink:href="#a"/>
<use x="93.459358" y="510.13681" xlink:href="#o"/>
<use x="143.02032" y="510.13681" xlink:href="#a"/>
<use x="192.70081" y="510.13681" xlink:href="#a"/>
<use x="300.69708" y="510.13681" xlink:href="#a"/>
<use x="70.899963" y="521.54102" xlink:href="#a"/>
<use x="95.395683" y="540.96002" xlink:href="#at"/>
<use x="151.56" y="540.96002" xlink:href="#aw"/>
<use x="111.71716" y="555.84003" xlink:href="#a"/>
<use x="353.82883" y="555.84003" xlink:href="#a"/>
<use x="362.46811" y="555.84003" xlink:href="#a"/>
<use x="497.0835" y="555.84003" xlink:href="#a"/>
<use x="131.03258" y="567.36371" xlink:href="#a"/>
<use x="242.72701" y="567.36371" xlink:href="#a"/>
<use x="286.04306" y="567.36371" xlink:href="#a"/>
<use x="462.6478" y="567.36371" xlink:href="#a"/>
<use x="511.5972" y="567.36371" xlink:href="#a"/>
<use x="123.58848" y="578.88745" xlink:href="#a"/>
<use x="148.66476" y="578.88745" xlink:href="#a"/>
<use x="349.64062" y="578.88745" xlink:href="#a"/>
<use x="432.43115" y="578.88745" xlink:href="#a"/>
<use x="473.87784" y="578.88" xlink:href="#a"/>
<use x="89.279999" y="723.96002" xlink:href="#ab"/>
<use x="505.92001" y="723.96002" xlink:href="#ab"/>
<use x="214.2" y="738.35999" xlink:href="#s"/>
<use x="238.7997" y="738.35999" xlink:href="#s"/>
<use x="313.20001" y="738.35999" xlink:href="#s"/>
<use x="406.68301" y="738.35999" xlink:href="#s"/>
</g>
</g>
</svg>
