<svg width="298.08pt" height="211.92pt" version="1.2" viewBox="0 0 298.08 211.92" xmlns="http://www.w3.org/2000/svg" xmlns:xlink="http://www.w3.org/1999/xlink">
<defs>
<symbol id="m" overflow="visible">
<path d="m.35938-1.625.76562-.10938c.082031.42969.22656.74219.4375.9375.20703.1875.46094.28125.76562.28125.36328 0 .66406-.125.90625-.375.25-.25.375-.55469.375-.92188 0-.34375-.11719-.62891-.34375-.85938-.23047-.22656-.52344-.34375-.875-.34375-.13672 0-.3125.03125-.53125.09375l.078125-.67188h.125c.32031 0 .61328-.082031.875-.25.25781-.16406.39062-.42578.39062-.78125 0-.26953-.09375-.5-.28125-.6875s-.43359-.28125-.73438-.28125c-.29297 0-.53906.09375-.73438.28125-.19922.1875-.32422.46875-.375.84375l-.76562-.14062c.09375-.50781.30078-.89844.625-1.1719.33203-.28125.74219-.42188 1.2344-.42188.34375 0 .65625.074219.9375.21875.28125.13672.49219.32812.64062.57812.15625.25.23438.51562.23438.79688 0 .27344-.074219.51562-.21875.73438-.14844.21875-.35938.39844-.64062.53125.375.085938.66016.26172.85938.53125.19531.26172.29688.58984.29688.98438 0 .54297-.19922 1-.59375 1.375-.38672.375-.88281.5625-1.4844.5625-.54297 0-.99609-.16016-1.3594-.48438-.35547-.32031-.55859-.73828-.60938-1.25z"/>
</symbol>
<symbol id="k" overflow="visible">
<path d="m.76562 0v-.85938h.85938v.85938c0 .32031-.058594.57812-.17188.76562-.10547.19531-.28125.34766-.53125.45312l-.20312-.3125c.15625-.074219.26953-.17969.34375-.3125.082031-.13672.12891-.33594.14062-.59375z"/>
</symbol>
<symbol id="an" overflow="visible">
<path d="m2.4375 0-2.4062-6.1875h.89062l1.6094 4.5c.125.35547.23438.69531.32812 1.0156.09375-.34375.20312-.67969.32812-1.0156l1.6719-4.5h.84375l-2.4219 6.1875z"/>
</symbol>
<symbol id="cf" overflow="visible">
<path d="m4.7188-6.1875h.82812v3.5781c0 .625-.074219 1.1211-.21875 1.4844-.13672.36719-.39062.66406-.76562.89062-.36719.23047-.84375.34375-1.4375.34375-.58594 0-1.0586-.10156-1.4219-.29688-.36719-.20703-.63281-.5-.79688-.875-.15625-.375-.23438-.89062-.23438-1.5469v-3.5781h.82812v3.5781c0 .53125.046875.92969.14062 1.1875.10156.25.27344.44531.51562.57812.25.13672.54688.20312.89062.20312.60156 0 1.0312-.13281 1.2812-.40625.25781-.26953.39062-.78906.39062-1.5625z"/>
</symbol>
<symbol id="am" overflow="visible">
<path d="m.35938-1.625.79688-.0625c.0625.38672.19531.67969.40625.875.21875.19922.47656.29688.78125.29688.36328 0 .67188-.13281.92188-.40625.25781-.28125.39062-.64844.39062-1.1094 0-.42578-.125-.76562-.375-1.0156-.24219-.25781-.55859-.39062-.95312-.39062-.24219 0-.46094.058594-.65625.17188-.19922.11719-.35547.26172-.46875.4375l-.70312-.09375.59375-3.1719h3.0781v.71875h-2.4688l-.34375 1.6562c.375-.25.76562-.375 1.1719-.375.53906 0 .99219.1875 1.3594.5625.375.36719.5625.84375.5625 1.4375 0 .5625-.16406 1.0469-.48438 1.4531-.39844.5-.9375.75-1.625.75-.5625 0-1.0234-.15625-1.375-.46875-.35547-.32031-.55859-.74219-.60938-1.2656z"/>
</symbol>
<symbol id="al" overflow="visible">
<path d="m.35938-3.0469c0-.72656.070313-1.3164.21875-1.7656.15625-.44531.37891-.78906.67188-1.0312.30078-.23828.67578-.35938 1.125-.35938.33203 0 .625.070313.875.20312.25.125.45312.32031.60938.57812.16406.25.29688.55859.39062.92188.09375.35547.14062.83984.14062 1.4531 0 .71875-.078125 1.3047-.23438 1.75-.14844.44922-.37109.79688-.67188 1.0469-.29297.24219-.66406.35938-1.1094.35938-.59375 0-1.0625-.21094-1.4062-.64062-.40625-.51953-.60938-1.3594-.60938-2.5156zm.78125 0c0 1.0117.11719 1.6875.35938 2.0312.23828.33594.53125.5.875.5.35156 0 .64453-.16406.875-.5.23828-.34375.35938-1.0195.35938-2.0312 0-1.0195-.12109-1.6953-.35938-2.0312-.23047-.33203-.52734-.5-.89062-.5-.34375 0-.62109.14844-.82812.4375-.26172.375-.39062 1.0742-.39062 2.0938z"/>
</symbol>
<symbol id="ak" overflow="visible">
<path d="m.5-4.7031c0-.4375.10938-.8125.32812-1.125.22656-.3125.55078-.46875.96875-.46875.39453 0 .71875.14062.96875.42188s.375.6875.375 1.2188c0 .52344-.13281.92969-.39062 1.2188-.25.28125-.5625.42188-.9375.42188s-.6875-.14062-.9375-.42188-.375-.70312-.375-1.2656zm1.3281-1.0625c-.1875 0-.34375.085937-.46875.25-.125.15625-.1875.45312-.1875.89062 0 .39844.0625.67969.1875.84375.125.15625.28125.23438.46875.23438s.34375-.078125.46875-.23438c.125-.16406.1875-.46875.1875-.90625 0-.39453-.0625-.67188-.1875-.82812-.125-.16406-.28125-.25-.46875-.25zm0 6 3.375-6.5312h.625l-3.375 6.5312zm2.6719-1.6875c0-.44531.10938-.82031.32812-1.125.22656-.3125.55469-.46875.98438-.46875.38281 0 .70312.14062.95312.42188.25781.28125.39062.6875.39062 1.2188 0 .52344-.13281.92969-.39062 1.2188-.26172.28125-.57812.42188-.95312.42188s-.6875-.14062-.9375-.42188-.375-.70312-.375-1.2656zm1.3281-1.0625c-.1875 0-.34375.085937-.46875.25-.125.15625-.1875.45312-.1875.89062 0 .39844.0625.67969.1875.84375.125.15625.28125.23438.46875.23438s.34375-.078125.46875-.23438c.125-.16406.1875-.46875.1875-.90625 0-.39453-.0625-.67188-.1875-.82812-.125-.16406-.28125-.25-.46875-.25z"/>
</symbol>
<symbol id="c" overflow="visible"></symbol>
<symbol id="j" overflow="visible">
<path d="m2.0156 1.8125c-.41797-.52344-.77344-1.1367-1.0625-1.8438-.29297-.70703-.4375-1.4414-.4375-2.2031 0-.67578.10938-1.3203.32812-1.9375.25781-.70703.64844-1.4141 1.1719-2.125h.54688c-.34375.59375-.57031 1.0156-.67188 1.2656-.17969.38672-.3125.78906-.40625 1.2031-.125.53125-.1875 1.0625-.1875 1.5938 0 1.3555.42188 2.7031 1.2656 4.0469z"/>
</symbol>
<symbol id="l" overflow="visible">
<path d="m1.0625 1.8125h-.54688c.84375-1.3438 1.2656-2.6914 1.2656-4.0469 0-.53125-.058594-1.0547-.17188-1.5781-.10547-.41406-.24219-.82031-.40625-1.2188-.11719-.25-.34375-.67188-.6875-1.2656h.54688c.53125.71094.92188 1.418 1.1719 2.125.21875.61719.32812 1.2617.32812 1.9375 0 .76172-.14844 1.4961-.4375 2.2031-.29297.70703-.64844 1.3203-1.0625 1.8438z"/>
</symbol>
<symbol id="aj" overflow="visible">
<path d="m3.4062 0h-1.1875v-4.4688c-.4375.40625-.94922.71094-1.5312.90625v-1.0781c.30078-.10156.63281-.29688 1-.57812.36328-.28125.61328-.60938.75-.98438h.96875z"/>
</symbol>
<symbol id="ai" overflow="visible">
<path d="m.59375-1.1875h1.1875v.84375c0 .34375-.03125.61328-.09375.8125-.0625.19531-.17969.375-.34375.53125-.15625.16406-.36719.28906-.625.375l-.21875-.48438c.23828-.085937.40625-.19531.5-.32812.10156-.13672.16016-.32422.17188-.5625h-.57812z"/>
</symbol>
<symbol id="ah" overflow="visible">
<path d="m4.3906-4.6719-1.1562.125c-.03125-.22656-.10547-.39844-.21875-.51562-.11719-.11328-.26562-.17188-.45312-.17188-.25 0-.46484.11719-.64062.34375-.17969.21875-.28906.68359-.32812 1.3906.28906-.34375.66016-.51562 1.1094-.51562.48828 0 .91016.1875 1.2656.5625.35156.375.53125.86719.53125 1.4688 0 .625-.1875 1.1328-.5625 1.5156-.36719.38672-.83984.57812-1.4219.57812-.625 0-1.1406-.23828-1.5469-.71875-.40625-.48828-.60938-1.2891-.60938-2.4062 0-1.125.20703-1.9375.625-2.4375.42578-.5.97266-.75 1.6406-.75.46875 0 .85156.13281 1.1562.39062.3125.26172.51562.64062.60938 1.1406zm-2.6875 2.5938c0 .38672.085937.68359.26562.89062.17578.21094.375.3125.59375.3125.22656 0 .41406-.082031.5625-.25.14453-.17578.21875-.46094.21875-.85938 0-.39453-.085938-.6875-.25-.875-.15625-.1875-.35156-.28125-.57812-.28125-.23047 0-.42188.089844-.57812.26562-.15625.17969-.23438.44531-.23438.79688z"/>
</symbol>
<symbol id="ag" overflow="visible">
<path d="m.39062-1.5938 1.1719-.125c.03125.27344.12891.48438.29688.64062.16406.15625.35938.23438.57812.23438.25 0 .45703-.097656.625-.29688.17578-.20703.26562-.50781.26562-.90625 0-.38281-.089844-.67188-.26562-.85938-.16797-.1875-.38672-.28125-.65625-.28125-.34375 0-.65234.14844-.92188.4375l-.95312-.125.60938-3.2188h3.125v1.1094h-2.2344l-.1875 1.0469c.26953-.13281.53906-.20312.8125-.20312.53125 0 .97656.19531 1.3438.57812.36328.38672.54688.88281.54688 1.4844 0 .51172-.15234.96484-.45312 1.3594-.39844.55469-.95312.82812-1.6719.82812-.57422 0-1.043-.14844-1.4062-.45312-.35547-.3125-.5625-.72656-.625-1.25z"/>
</symbol>
<symbol id="af" overflow="visible">
<path d="m2.2031 0-2.2031-6.1875h1.3438l1.5781 4.5781 1.5156-4.5781h1.3125l-2.2031 6.1875z"/>
</symbol>
<symbol id="d" overflow="visible">
<path d="m3.0312-1.2031.65625.078125c-.10547.38672-.29688.68359-.57812.89062-.28125.21094-.63672.3125-1.0625.3125-.55469 0-.99219-.16406-1.3125-.5-.3125-.33203-.46875-.80469-.46875-1.4219 0-.625.16016-1.1094.48438-1.4531.32031-.34375.74219-.51562 1.2656-.51562.48828 0 .89062.17188 1.2031.51562.32031.33594.48438.80859.48438 1.4219v.17188h-2.7812c.019531.40625.13281.71875.34375.9375.20703.21875.46875.32812.78125.32812.22656 0 .42578-.054688.59375-.17188.16406-.125.29688-.32031.39062-.59375zm-2.0781-1.0156h2.0781c-.023438-.32031-.10156-.5625-.23438-.71875-.19922-.23828-.46094-.35938-.78125-.35938-.29297 0-.53906.10156-.73438.29688-.19922.1875-.30859.44922-.32812.78125z"/>
</symbol>
<symbol id="o" overflow="visible">
<path d="m.625 0v-3.25h-.5625v-.48438h.5625v-.39062c0-.25781.019531-.44531.0625-.5625.0625-.16406.17188-.30078.32812-.40625.15625-.10156.36719-.15625.64062-.15625.17578 0 .375.023438.59375.0625l-.09375.5625c-.13672-.019531-.26172-.03125-.375-.03125-.1875 0-.32422.042969-.40625.125-.085938.074219-.125.22656-.125.45312v.34375h.73438v.48438h-.73438v3.25z"/>
</symbol>
<symbol id="bz" overflow="visible">
<path d="m.5625 0v-5.1562h1.9375c.34375 0 .60156.015625.78125.046875.25781.042969.47266.125.64062.25.16406.11719.30078.28125.40625.5.10156.21094.15625.4375.15625.6875 0 .44922-.14062.82422-.42188 1.125-.27344.30469-.77344.45312-1.5.45312h-1.3281v2.0938zm.67188-2.7031h1.3438c.4375 0 .74219-.082031.92188-.25.1875-.16406.28125-.39453.28125-.6875 0-.21875-.058594-.39844-.17188-.54688-.10547-.15625-.24609-.25781-.42188-.3125-.11719-.03125-.32422-.046875-.625-.046875h-1.3281z"/>
</symbol>
<symbol id="i" overflow="visible">
<path d="m.46875 0v-3.7344h.5625v.5625c.14453-.25781.28125-.42969.40625-.51562.125-.082031.25781-.125.40625-.125.21875 0 .4375.070312.65625.20312l-.21875.57812c-.15625-.09375-.3125-.14062-.46875-.14062-.13672 0-.26172.042969-.375.125-.10547.085937-.18359.20312-.23438.35938-.074219.21875-.10938.46484-.10938.73438v1.9531z"/>
</symbol>
<symbol id="az" overflow="visible">
<path d="m.48438-4.4219v-.73438h.625v.73438zm0 4.4219v-3.7344h.625v3.7344z"/>
</symbol>
<symbol id="by" overflow="visible">
<path d="m.23438-1.875c0-.6875.19141-1.1953.57812-1.5312.32031-.26953.71094-.40625 1.1719-.40625.51953 0 .94141.16797 1.2656.5.32031.33594.48438.79688.48438 1.3906 0 .48047-.074219.85938-.21875 1.1406-.13672.27344-.34375.48438-.625.64062-.27344.14453-.57422.21875-.90625.21875-.52344 0-.94531-.16406-1.2656-.5-.32422-.33203-.48438-.81641-.48438-1.4531zm.65625 0c0 .48047.10156.83984.3125 1.0781.20703.24219.46875.35938.78125.35938.32031 0 .58594-.11719.79688-.35938.20703-.23828.3125-.60156.3125-1.0938 0-.45703-.10938-.80469-.32812-1.0469-.21094-.23828-.46875-.35938-.78125-.35938s-.57422.12109-.78125.35938c-.21094.24219-.3125.59375-.3125 1.0625z"/>
</symbol>
<symbol id="ab" overflow="visible">
<path d="m2.8906 0v-.46875c-.23047.36719-.57422.54688-1.0312.54688-.30469 0-.57812-.078125-.82812-.23438-.25-.16406-.44531-.39453-.57812-.6875-.13672-.30078-.20312-.64062-.20312-1.0156s.0625-.71094.1875-1.0156c.125-.30078.30469-.53125.54688-.6875.25-.16406.53125-.25.84375-.25.21875 0 .41406.046875.59375.14062.17578.09375.32031.21484.4375.35938v-1.8438h.625v5.1562zm-2-1.8594c0 .48047.097656.83984.29688 1.0781.20703.23047.44531.34375.71875.34375.28125 0 .51562-.10938.70312-.32812.19531-.22656.29688-.57812.29688-1.0469 0-.50781-.10156-.88281-.29688-1.125-.19922-.23828-.4375-.35938-.71875-.35938s-.52344.11719-.71875.34375c-.1875.23047-.28125.59375-.28125 1.0938z"/>
</symbol>
<symbol id="ay" overflow="visible">
<path d="m.46875 0v-3.7344h.57812v.53125c.26953-.40625.66406-.60938 1.1875-.60938.22656 0 .4375.042969.625.125.1875.074219.32812.17969.42188.3125.09375.125.15625.28125.1875.46875.03125.11719.046875.32031.046875.60938v2.2969h-.64062v-2.2656c0-.25781-.027344-.45312-.078125-.57812-.042969-.13281-.125-.23828-.25-.3125-.125-.070312-.27734-.10938-.45312-.10938-.27344 0-.50781.089844-.70312.26562-.1875.16797-.28125.48438-.28125.95312v2.0469z"/>
</symbol>
<symbol id="aa" overflow="visible">
<path d="m2.9062-.45312c-.23047.19922-.45312.33984-.67188.42188-.21875.070312-.45312.10938-.70312.10938-.40625 0-.71875-.097656-.9375-.29688-.21875-.19531-.32812-.45312-.32812-.76562 0-.1875.039063-.35156.125-.5.082031-.15625.19141-.27344.32812-.35938.13281-.09375.28516-.16406.45312-.21875.125-.03125.3125-.0625.5625-.09375.50781-.0625.88281-.13281 1.125-.21875v-.15625c0-.25781-.058594-.44141-.17188-.54688-.16797-.14453-.40625-.21875-.71875-.21875-.30469 0-.52734.054687-.67188.15625-.13672.10547-.24219.29297-.3125.5625l-.60938-.09375c.050781-.25781.14062-.47266.26562-.64062.13281-.16406.32031-.28906.5625-.375.25-.082031.53125-.125.84375-.125.32031 0 .58203.039062.78125.10938.19531.074219.34375.16797.4375.28125.09375.11719.16016.25781.20312.42188.019531.11719.03125.3125.03125.59375v.84375c0 .58594.007812.95312.03125 1.1094.03125.15625.085938.30859.17188.45312h-.67188c-.0625-.13281-.10547-.28516-.125-.45312zm-.046875-1.4219c-.23047.09375-.57422.17188-1.0312.23438-.26172.042969-.44922.089844-.5625.14062-.10547.042969-.1875.10938-.25.20312-.054687.085937-.078125.18359-.078125.29688 0 .16797.0625.30859.1875.42188.125.11719.3125.17188.5625.17188.23828 0 .45312-.050781.64062-.15625.19531-.11328.33594-.26562.42188-.45312.070312-.13281.10938-.34375.10938-.625z"/>
</symbol>
<symbol id="q" overflow="visible">
<path d="m2.9219 0v-.54688c-.29297.41797-.6875.625-1.1875.625-.21875 0-.42969-.042969-.625-.125-.1875-.082031-.32812-.1875-.42188-.3125-.085938-.125-.14844-.28125-.1875-.46875-.03125-.125-.046875-.32031-.046875-.59375v-2.3125h.64062v2.0781c0 .32422.007812.54297.03125.65625.039062.16797.125.30469.25.40625.13281.09375.29688.14062.48438.14062.19531 0 .375-.046875.53125-.14062.16406-.10156.28516-.23828.35938-.40625.070312-.16406.10938-.41016.10938-.73438v-2h.625v3.7344z"/>
</symbol>
<symbol id="a" overflow="visible"></symbol>
<symbol id="ae" overflow="visible">
<path d="m.14062 0v-.51562l2.375-2.7344c-.27344.023438-.51172.03125-.71875.03125h-1.5156v-.51562h3.0469v.42188l-2.0156 2.3594-.39062.4375c.28125-.019531.54688-.03125.79688-.03125h1.7344v.54688z"/>
</symbol>
<symbol id="p" overflow="visible">
<path d="m.65625 0v-.71875h.71875v.71875z"/>
</symbol>
<symbol id="ad" overflow="visible">
<path d="m.53125 0v-5.1562h1.9375c.38281 0 .69531.054688.9375.15625.23828.10547.42578.26562.5625.48438.13281.21875.20312.44531.20312.67188 0 .23047-.0625.44531-.1875.64062-.11719.1875-.29297.33984-.53125.45312.3125.09375.55078.25781.71875.48438.16406.21875.25.47656.25.76562 0 .25-.054687.48047-.15625.6875-.10547.19922-.23047.35547-.375.46875-.14844.11719-.33594.20312-.5625.26562-.23047.054688-.50781.078125-.82812.078125zm.67188-2.9844h1.125c.30078 0 .51562-.019531.64062-.0625.17578-.050781.30469-.13281.39062-.25.09375-.125.14062-.27344.14062-.45312 0-.17578-.042969-.32812-.125-.45312-.085938-.13281-.20312-.22266-.35938-.26562-.14844-.050781-.40625-.078125-.78125-.078125h-1.0312zm0 2.375h1.2969c.21875 0 .36719-.007813.45312-.03125.15625-.019531.28516-.0625.39062-.125.11328-.070313.20312-.17188.26562-.29688.070313-.125.10938-.26953.10938-.4375 0-.1875-.054688-.34766-.15625-.48438-.09375-.14453-.23047-.24219-.40625-.29688-.17969-.0625-.42969-.09375-.75-.09375h-1.2031z"/>
</symbol>
<symbol id="bb" overflow="visible">
<path d="m.65625 1.5156v-6.7656h.5625v6.7656z"/>
</symbol>
<symbol id="ba" overflow="visible">
<path d="m2.9219 0v-.54688c-.29297.41797-.6875.625-1.1875.625-.21875 0-.42969-.042969-.625-.125-.1875-.082031-.32812-.1875-.42188-.3125-.085938-.125-.14844-.28125-.1875-.46875-.03125-.125-.046875-.32031-.046875-.59375v-2.3125h.64062v2.0781c0 .32422.007812.54297.03125.65625.039062.16797.125.30469.25.40625.13281.09375.29688.14062.48438.14062.19531 0 .375-.046875.53125-.14062.16406-.10156.28516-.23828.35938-.40625.070312-.16406.10938-.41016.10938-.73438v-2h.625v3.7344zm-1.9219-4.4688v-.71875h.65625v.71875zm1.3125 0v-.71875h.65625v.71875z"/>
</symbol>
<symbol id="ce" overflow="visible">
<path d="m.67188 0v-5.1562h.6875v5.1562z"/>
</symbol>
<symbol id="cd" overflow="visible">
<path d="m.46875 0v-3.7344h.57812v.51562c.11328-.17578.26562-.31641.45312-.42188.19531-.11328.42188-.17188.67188-.17188.28125 0 .50781.058594.6875.17188.17578.11719.30078.27344.375.46875.28906-.42578.67188-.64062 1.1406-.64062.375 0 .66016.10547.85938.3125.19531.19922.29688.51172.29688.9375v2.5625h-.625v-2.3594c0-.25-.023438-.42578-.0625-.53125-.042969-.11328-.12109-.20312-.23438-.26562-.10547-.070312-.23047-.10938-.375-.10938-.26172 0-.48047.089844-.65625.26562-.16797.16797-.25.44531-.25.82812v2.1719h-.64062v-2.4219c0-.28125-.054688-.48828-.15625-.625-.09375-.14453-.26172-.21875-.5-.21875-.17969 0-.34375.046875-.5.14062-.14844.09375-.25781.23047-.32812.40625-.0625.17969-.09375.4375-.09375.78125v1.9375z"/>
</symbol>
<symbol id="cc" overflow="visible">
<path d="m.46875 1.4375v-5.1719h.57812v.48438c.13281-.1875.28516-.32812.45312-.42188.17578-.09375.39062-.14062.64062-.14062.3125 0 .58594.085938.82812.25.25.15625.4375.38672.5625.6875.125.29297.1875.62109.1875.98438 0 .375-.070312.71875-.20312 1.0312-.13672.30469-.33984.53906-.60938.70312-.26172.15625-.53125.23438-.8125.23438-.21875 0-.41406-.042969-.57812-.125-.16797-.09375-.30469-.20703-.40625-.34375v1.8281zm.57812-3.2812c0 .48047.09375.83594.28125 1.0625.19531.23047.4375.34375.71875.34375s.51953-.11719.71875-.35938c.20703-.23828.3125-.60938.3125-1.1094 0-.46875-.10156-.82031-.29688-1.0625-.19922-.23828-.43359-.35938-.70312-.35938-.27344 0-.51172.13281-.71875.39062-.21094.25-.3125.61719-.3125 1.0938z"/>
</symbol>
<symbol id="cb" overflow="visible">
<path d="m.45312 0v-5.1562h.64062v5.1562z"/>
</symbol>
<symbol id="ac" overflow="visible">
<path d="m.21875-1.1094.625-.10938c.039062.25.14062.44531.29688.57812.15625.13672.37891.20312.67188.20312.28906 0 .50391-.054688.64062-.17188.14453-.125.21875-.26562.21875-.42188 0-.14453-.0625-.25781-.1875-.34375-.085937-.050781-.29688-.11719-.64062-.20312-.46875-.125-.79297-.22656-.96875-.3125-.17969-.082031-.3125-.19531-.40625-.34375-.09375-.15625-.14062-.32812-.14062-.51562 0-.16406.035156-.31641.10938-.45312.082031-.14453.1875-.26562.3125-.35938.10156-.070312.23828-.12891.40625-.17188.16406-.050781.34766-.078125.54688-.078125.28906 0 .54688.042969.76562.125.22656.085938.39453.19922.5.34375.10156.13672.17578.32812.21875.57812l-.625.078125c-.03125-.1875-.11719-.33203-.25-.4375-.125-.11328-.3125-.17188-.5625-.17188-.29297 0-.5.046875-.625.14062s-.1875.21094-.1875.34375c0 .085938.023438.15625.078125.21875.050781.0625.13281.12109.25.17188.0625.023437.24219.074219.54688.15625.44531.125.75781.22656.9375.29688.17578.074219.31641.18359.42188.32812.10156.14844.15625.32812.15625.54688 0 .21094-.0625.40625-.1875.59375s-.30469.33594-.53125.4375c-.23047.09375-.49609.14062-.79688.14062-.48047 0-.85156-.097656-1.1094-.29688-.25-.19531-.41406-.49219-.48438-.89062z"/>
</symbol>
<symbol id="ca" overflow="visible">
<path d="m2.8594 1.4375v-1.8281c-.10547.13672-.24609.25-.42188.34375-.17969.082031-.36719.125-.5625.125-.4375 0-.82031-.17578-1.1406-.53125-.32422-.35156-.48438-.83594-.48438-1.4531 0-.375.0625-.70703.1875-1 .13281-.30078.32812-.52344.57812-.67188.25-.15625.51953-.23438.8125-.23438.45703 0 .82031.19531 1.0938.57812v-.5h.5625v5.1719zm-1.9531-3.3125c0 .48047.097656.83984.29688 1.0781.20703.24219.45312.35938.73438.35938.25781 0 .48828-.11328.6875-.34375.19531-.22656.29688-.57812.29688-1.0469 0-.48828-.10547-.85938-.3125-1.1094-.21094-.25-.44922-.375-.71875-.375-.27344 0-.50781.11719-.70312.34375-.1875.23047-.28125.59375-.28125 1.0938z"/>
</symbol>
<symbol id="z" overflow="visible">
<path d="m2.0781-.625-.14062.625c-.17969.050781-.35547.078125-.53125.078125-.30469 0-.54297-.074219-.71875-.21875-.13672-.11328-.20312-.26953-.20312-.46875 0-.09375.035156-.31641.10938-.67188l.54688-2.6094h-.60938l.125-.59375h.60938l.23438-1.0938.85938-.53125-.32812 1.625h.75l-.125.59375h-.75l-.51562 2.4844c-.074219.3125-.10938.5-.10938.5625 0 .085938.023438.15234.078125.20312.050781.054687.14062.078125.26562.078125.16406 0 .31641-.019531.45312-.0625z"/>
</symbol>
<symbol id="b" overflow="visible"></symbol>
<symbol id="h" overflow="visible">
<path d="m4.8594-3.6406h-4.0781v-.70312h4.0781zm0 1.875h-4.0781v-.70312h4.0781z"/>
</symbol>
<symbol id="bw" overflow="visible">
<path d="m.60938-1.7656.76562-.078125v.20312c0 .1875.046875.375.14062.5625s.21875.33594.375.4375c.16406.09375.33594.14062.51562.14062.23828 0 .47656-.078125.71875-.23438.25-.16406.44531-.40625.59375-.71875.15625-.3125.23438-.625.23438-.9375 0-.34375-.10547-.61719-.3125-.82812-.19922-.20703-.46484-.3125-.79688-.3125-.21875 0-.42969.058594-.625.17188-.19922.10547-.38672.26172-.5625.46875l-.67188-.046875.9375-3.1562h3.0156l-.14062.6875h-2.3438l-.46875 1.5781c.17578-.125.35156-.21875.53125-.28125.1875-.0625.37891-.09375.57812-.09375.46875 0 .85156.15625 1.1562.46875.30078.3125.45312.74219.45312 1.2812 0 .46875-.10547.90625-.3125 1.3125-.21094.39844-.49609.70312-.85938.92188-.36719.21875-.75781.32812-1.1719.32812-.35547 0-.66797-.078125-.9375-.23438-.27344-.16406-.48047-.39062-.625-.67188-.13672-.28125-.20312-.5625-.20312-.84375 0-.03125.003906-.070313.015625-.125z"/>
</symbol>
<symbol id="aw" overflow="visible">
<path d="m.60938-2.0312c0-.51953.078125-1.0508.23438-1.5938.15625-.53906.32812-.97266.51562-1.2969.19531-.32031.39453-.57031.59375-.75.20703-.1875.41016-.32031.60938-.40625.19531-.082031.42188-.125.67188-.125.46875 0 .85938.17969 1.1719.53125.32031.34375.48438.85156.48438 1.5156 0 .67969-.10938 1.3555-.32812 2.0312-.26172.79297-.625 1.3867-1.0938 1.7812-.35547.30469-.75781.45312-1.2031.45312-.46875 0-.86719-.17969-1.1875-.54688-.3125-.36328-.46875-.89453-.46875-1.5938zm.73438.20312c0 .375.066406.67188.20312.89062.16406.29297.41406.4375.75.4375.30078 0 .57031-.13281.8125-.40625.34375-.375.60156-.92578.78125-1.6562.17578-.72656.26562-1.3203.26562-1.7812 0-.44531-.085938-.76562-.25-.95312-.16797-.19531-.39062-.29688-.67188-.29688-.21094 0-.40234.054688-.57812.15625-.16797.10547-.33594.28125-.5.53125-.23047.35547-.42969.89062-.59375 1.6094-.14844.60547-.21875 1.0938-.21875 1.4688z"/>
</symbol>
<symbol id="bv" overflow="visible">
<path d="m1.3594-4.4844h.76562l-.45312 2.1094c-.11719.51172-.17188.87109-.17188 1.0781 0 .21875.070312.40234.21875.54688.15625.14844.36328.21875.625.21875.34375 0 .63281-.125.875-.375.1875-.19531.33594-.58203.45312-1.1562l.51562-2.4219h.75l-.95312 4.4844h-.67188l.078125-.35938c-.38672.3125-.76172.46875-1.125.46875-.21094 0-.39062-.042969-.54688-.125s-.3125-.21875-.46875-.40625l-.45312 2.1562h-.75z"/>
</symbol>
<symbol id="g" overflow="visible">
<path d="m.35938-1.5312.76562-.046875c0 .21875.03125.40625.09375.5625.070312.15625.19531.28906.375.39062.1875.09375.39844.14062.64062.14062.33203 0 .58203-.066406.75-.20312.17578-.13281.26562-.29688.26562-.48438 0-.125-.054688-.25-.15625-.375-.10547-.11328-.35938-.25391-.76562-.42188-.40625-.17578-.66406-.30078-.76562-.375-.1875-.11328-.33594-.25-.4375-.40625-.09375-.15625-.14062-.33594-.14062-.54688 0-.35156.14062-.65625.42188-.90625s.67578-.375 1.1875-.375c.5625 0 .98828.13281 1.2812.39062.28906.26172.44141.60156.45312 1.0156l-.73438.0625c-.023438-.26953-.12109-.48438-.29688-.64062-.17969-.15625-.43359-.23438-.76562-.23438-.26172 0-.46484.0625-.60938.1875-.14844.11719-.21875.24219-.21875.375 0 .14844.0625.27344.1875.375.082031.074219.30078.1875.65625.34375.58203.25.95312.44922 1.1094.59375.23828.23047.35938.51562.35938.85938 0 .21875-.070313.4375-.20312.65625-.13672.21094-.34375.375-.625.5s-.61719.1875-1 .1875c-.51172 0-.94922-.125-1.3125-.375-.36719-.25781-.53906-.67578-.51562-1.25z"/>
</symbol>
<symbol id="y" overflow="visible">
<path d="m1.9688 0 1.1406-5.4844h-2.0312l.14062-.70312h4.875l-.15625.70312h-2l-1.1562 5.4844z"/>
</symbol>
<symbol id="av" overflow="visible">
<path d="m2.0781 0 .98438-4.6719c-.42969.33594-1.0234.60156-1.7812.79688l.14062-.6875c.375-.15625.74219-.35156 1.1094-.59375.375-.25.65625-.46094.84375-.64062.11328-.11328.22266-.25.32812-.40625h.4375l-1.2969 6.2031z"/>
</symbol>
<symbol id="n" overflow="visible">
<path d="m.28125 0 .9375-4.4844h.76562l-.15625.73438c.28125-.3125.53125-.52344.75-.64062.22656-.125.47266-.1875.73438-.1875.28125 0 .51562.074219.70312.21875.1875.14844.3125.35156.375.60938.21875-.28125.45312-.48828.70312-.625.25781-.13281.52344-.20312.79688-.20312.375 0 .65625.089844.84375.26562.1875.17969.28125.42969.28125.75 0 .13672-.03125.35938-.09375.67188l-.60938 2.8906h-.75l.60938-2.9688c.050781-.23828.078125-.41016.078125-.51562 0-.14453-.046875-.25781-.14062-.34375-.09375-.082031-.22656-.125-.39062-.125-.23047 0-.46484.070313-.70312.20312-.23047.13672-.41406.32031-.54688.54688-.125.21875-.24219.5625-.34375 1.0312l-.45312 2.1719h-.76562l.64062-3.0312c.039063-.19531.0625-.34375.0625-.4375 0-.14453-.046875-.25781-.14062-.34375-.085938-.09375-.19922-.14062-.34375-.14062-.21875 0-.44922.070313-.6875.20312-.24219.13672-.4375.32812-.59375.57812-.14844.25-.26562.60156-.35938 1.0469l-.4375 2.125z"/>
</symbol>
<symbol id="ax" overflow="visible">
<path d="m.5 0c.082031-.36328.19141-.67188.32812-.92188.14453-.25.33203-.48438.5625-.70312.22656-.22656.67188-.60938 1.3281-1.1406.40625-.3125.67969-.54688.82812-.70312.20703-.21875.35938-.42969.45312-.64062.0625-.14453.09375-.30078.09375-.46875 0-.28125-.10156-.51953-.29688-.71875-.19922-.19531-.44922-.29688-.75-.29688-.28125 0-.53125.10156-.75.29688-.21875.19922-.375.52344-.46875.96875l-.75-.10938c.070313-.55078.28516-.98438.64062-1.2969.35156-.3125.79688-.46875 1.3281-.46875.34375 0 .65625.074219.9375.21875.28906.14844.50781.35156.65625.60938.14453.26172.21875.53125.21875.8125 0 .41797-.14844.8125-.4375 1.1875-.1875.24219-.71875.71094-1.5938 1.4062-.375.29297-.65625.53906-.84375.73438-.17969.1875-.3125.36719-.40625.53125h2.7656l-.15625.70312z"/>
</symbol>
<symbol id="bx" overflow="visible">
<path d="m2.5781 0 .34375-1.5781h-2.5312l.15625-.75 3.4688-3.8594h.625l-.82812 3.9375h.875l-.14062.67188h-.875l-.32812 1.5781zm.46875-2.25.54688-2.5781-2.2969 2.5781z"/>
</symbol>
<symbol id="x" overflow="visible">
<path d="m3.4688-4.4844-.1875.89062h-.85938l-.75 3.5938h-1.2031l.75-3.5938h-.67188l.17188-.89062h.6875l.09375-.45312c.070312-.375.14453-.62891.21875-.76562.09375-.17578.23438-.31641.42188-.42188.19531-.11328.44531-.17188.75-.17188.375 0 .76562.070313 1.1719.20312l-.23438.875c-.29297-.10156-.52734-.15625-.70312-.15625-.13672 0-.24219.046875-.3125.14062-.042969.054687-.089844.19922-.14062.4375l-.0625.3125z"/>
</symbol>
<symbol id="f" overflow="visible"></symbol>
<symbol id="w" overflow="visible">
<path d="m.70312-3.4375v-1.0938h4.3281v1.0938zm0 1.875v-1.0938h4.3281v1.0938z"/>
</symbol>
<symbol id="bt" overflow="visible">
<path d="m1.0312-3.5469.21875-1.0781c1.0391-.45703 1.8477-.98828 2.4219-1.5938h.73438l-1.2969 6.2188h-1.2188l.89062-4.2812c-.25.15625-.54297.30469-.875.4375-.32422.13672-.61719.23438-.875.29688z"/>
</symbol>
<symbol id="bs" overflow="visible">
<path d="m.32812 0 1.2969-6.1875h1.2031l-.67188 3.2188 1.5781-1.5156h1.5781l-1.8125 1.625.96875 2.8594h-1.2188l-.60938-2.0781-.82812.73438-.28125 1.3438z"/>
</symbol>
<symbol id="v" overflow="visible">
<path d="m4.625-2.7656h-2.3906l-.57812 2.7656h-1.2812l1.2969-6.1875h1.2656l-.5 2.3906h2.3906l.51562-2.3906h1.2656l-1.2969 6.1875h-1.2656z"/>
</symbol>
<symbol id="u" overflow="visible">
<path d="m.14062 0 .17188-.8125 2.4531-2.7188h-2l.20312-.95312h3.5156l-.15625.71875-2.4688 2.7812h2.1562l-.20312.98438z"/>
</symbol>
<symbol id="au" overflow="visible">
<path d="m.54688-1.7656 1.1719-.10938v.125c0 .28125.0625.49609.1875.64062.13281.14844.30078.21875.5.21875.28906 0 .55078-.13281.78125-.40625.23828-.28125.35938-.66016.35938-1.1406 0-.28906-.070313-.50781-.20312-.65625-.125-.14453-.29688-.21875-.51562-.21875-.15625 0-.3125.039062-.46875.10938-.14844.074219-.28906.1875-.42188.34375l-1-.078125.9375-3.1562h3.1094l-.21875 1.0938h-2.0625l-.28125.95312c.125-.050781.24219-.085937.35938-.10938.11328-.03125.22656-.046875.34375-.046875.47656 0 .86719.16406 1.1719.48438.30078.3125.45312.73438.45312 1.2656 0 .42969-.10938.85156-.32812 1.2656-.21094.41797-.5.74219-.875.96875-.375.21875-.77344.32812-1.1875.32812-.52344 0-.95312-.17188-1.2969-.51562-.33594-.34375-.50781-.79688-.51562-1.3594z"/>
</symbol>
<symbol id="t" overflow="visible">
<path d="m.5625-2.0156c0-.61328.10156-1.2422.3125-1.8906.25781-.78125.59375-1.3594 1-1.7344s.85156-.5625 1.3438-.5625c.5 0 .91016.18359 1.2344.54688.32031.35547.48438.88281.48438 1.5781 0 .625-.12109 1.293-.35938 2-.23047.71094-.54688 1.25-.95312 1.625-.39844.375-.84375.5625-1.3438.5625s-.91406-.17969-1.2344-.54688c-.32422-.36328-.48438-.89062-.48438-1.5781zm1.1875.25c0 .33594.050781.57031.15625.70312.10156.13672.24219.20312.42188.20312.21875 0 .41406-.10156.59375-.3125.22656-.28125.4375-.83203.625-1.6562.13281-.64453.20312-1.1562.20312-1.5312 0-.3125-.054688-.53516-.15625-.67188-.10547-.13281-.24609-.20312-.42188-.20312-.21094 0-.39844.10156-.5625.29688-.25.30469-.46484.82812-.64062 1.5781-.14844.64844-.21875 1.1797-.21875 1.5938z"/>
</symbol>
<symbol id="bu" overflow="visible">
<path d="m2.2812-4.25-1.1875-.1875c.09375-.57031.31641-1.0078.67188-1.3125.35156-.30078.78906-.45312 1.3125-.45312.57031 0 1.0234.15625 1.3594.46875.33203.30469.5.69922.5 1.1875 0 .24219-.054688.48438-.15625.73438-.10547.24219-.27344.49609-.5.76562-.16797.19922-.4375.47656-.8125.82812-.375.34375-.625.57812-.75.70312s-.24609.26172-.35938.40625h2.1562l-.23438 1.1094h-3.7656c.039063-.30078.12891-.58594.26562-.85938.14453-.28125.32031-.53516.53125-.76562.20703-.23828.58594-.625 1.1406-1.1562.41406-.39453.67969-.65625.79688-.78125.19531-.21875.33203-.40625.40625-.5625.070312-.15625.10938-.30078.10938-.4375 0-.20703-.0625-.375-.1875-.5-.125-.13281-.28125-.20312-.46875-.20312s-.35547.074219-.5.21875c-.14844.14844-.25781.41406-.32812.79688z"/>
</symbol>
<symbol id="at" overflow="visible">
<path d="m2.1406 0h-.5v-3.2344c-.125.125-.28906.24609-.48438.35938-.19922.11719-.375.19922-.53125.25v-.48438c.28125-.13281.52344-.29688.73438-.48438.21875-.1875.375-.36719.46875-.54688h.3125z"/>
</symbol>
<symbol id="as" overflow="visible">
<path d="m2.9062-.48438v.48438h-2.7344c0-.125.019531-.24219.0625-.35938.070313-.17578.17969-.35156.32812-.53125.15625-.1875.37891-.39844.67188-.64062.44531-.36328.75-.64844.90625-.85938.15625-.21875.23438-.42578.23438-.625 0-.19531-.074219-.36328-.21875-.5-.13672-.13281-.32422-.20312-.5625-.20312-.24219 0-.43359.074219-.57812.21875-.14844.14844-.21875.35156-.21875.60938l-.53125-.0625c.039063-.38281.17578-.67578.40625-.875.22656-.20703.53906-.3125.9375-.3125.39453 0 .70703.10938.9375.32812.22656.21875.34375.49219.34375.8125 0 .16797-.039063.33594-.10938.5-.0625.15625-.17188.32422-.32812.5-.15625.16797-.41797.40625-.78125.71875-.30469.26172-.49609.4375-.57812.53125-.085938.085938-.15625.17188-.21875.26562z"/>
</symbol>
<symbol id="br" overflow="visible">
<path d="m1.6406 0 .95312-4.5625h-1.7031l.125-.59375h4.0625l-.125.59375h-1.6719l-.95312 4.5625z"/>
</symbol>
<symbol id="bq" overflow="visible">
<path d="m1.7344-.51562-.10938.51562c-.15625.039062-.30859.0625-.45312.0625-.25 0-.44922-.0625-.59375-.1875-.11719-.09375-.17188-.21875-.17188-.375 0-.082031.03125-.27344.09375-.57812l.45312-2.1719h-.5l.09375-.48438h.5l.20312-.92188.71875-.4375-.28125 1.3594h.625l-.10938.48438h-.60938l-.4375 2.0781c-.054688.26172-.078125.41797-.078125.46875 0 .074219.019531.13281.0625.17188.039063.042969.10938.0625.20312.0625.14453 0 .27344-.015625.39062-.046875z"/>
</symbol>
<symbol id="bp" overflow="visible">
<path d="m.32812 0 .67188-3.25h-.5625l.09375-.48438h.57812l.10938-.53125c.050781-.25781.10938-.44531.17188-.5625.0625-.125.16016-.22266.29688-.29688.13281-.082031.31641-.125.54688-.125.15625 0 .39062.039062.70312.10938l-.10938.54688c-.21875-.050781-.40234-.078125-.54688-.078125-.125 0-.21875.03125-.28125.09375s-.12109.21094-.17188.4375l-.078125.40625h.70312l-.09375.48438h-.71875l-.67188 3.25z"/>
</symbol>
<symbol id="ar" overflow="visible"></symbol>
<symbol id="bo" overflow="visible">
<path d="m4.0625-3.0312h-3.4062v-.59375h3.4062zm0 1.5625h-3.4062v-.59375h3.4062z"/>
</symbol>
<symbol id="bn" overflow="visible">
<path d="m-.35938.078125 2.7656-5.3281h.54688l-2.7656 5.3281z"/>
</symbol>
<symbol id="bm" overflow="visible">
<path d="m2.5469 0h-1.0625l.89062-4.2969h-1.5156l.1875-.85938h4.0625l-.1875.85938h-1.4844z"/>
</symbol>
<symbol id="bl" overflow="visible">
<path d="m2.8906-3.7344-.15625.73438h-.71875l-.625 3h-1l.625-3h-.5625l.15625-.73438h.5625l.078125-.39062c.0625-.3125.125-.51953.1875-.625.070312-.15625.1875-.27344.34375-.35938.16406-.09375.375-.14062.625-.14062.3125 0 .64062.058594.98438.17188l-.20312.71875c-.24219-.082031-.43359-.125-.57812-.125-.11719 0-.20312.039063-.26562.10938-.03125.054688-.070312.17969-.10938.375l-.0625.26562z"/>
</symbol>
<symbol id="bk" overflow="visible">
<path d="m.54688-2.9844.15625-.75h.48438l.125-.59375 1.1562-.70312-.26562 1.2969h.60938l-.15625.75h-.60938l-.32812 1.5625c-.0625.28125-.09375.44531-.09375.48438 0 .085938.019531.14844.0625.1875.050781.042969.14453.0625.28125.0625.039062 0 .14844-.007812.32812-.03125l-.15625.75c-.17969.039062-.35547.0625-.53125.0625-.35547 0-.61719-.070312-.78125-.20312-.15625-.14453-.23438-.33594-.23438-.57812 0-.11328.039062-.37891.125-.79688l.3125-1.5z"/>
</symbol>
<symbol id="e" overflow="visible"></symbol>
<symbol id="r" overflow="visible">
<path d="m.29688-2.875v-.90625h3.6094v.90625zm0 1.5625v-.90625h3.6094v.90625z"/>
</symbol>
<symbol id="aq" overflow="visible">
<path d="m2.8281 0h-.98438v-3.7188c-.35547.33594-.78125.58594-1.2812.75v-.90625c.25781-.082031.53906-.23828.84375-.46875.30078-.23828.50781-.51562.625-.82812h.79688z"/>
</symbol>
<symbol id="bh" overflow="visible">
<path d="m.4375-3.7344h.92188v.51562c.32031-.39453.70703-.59375 1.1562-.59375.23828 0 .44531.046875.625.14062.17578.09375.32031.24609.4375.45312.15625-.20703.32812-.35938.51562-.45312.19531-.09375.40625-.14062.625-.14062.26953 0 .5.058594.6875.17188.1875.10547.32812.26562.42188.48438.070313.15625.10938.41406.10938.76562v2.3906h-.98438v-2.1406c0-.36328-.039063-.60156-.10938-.71875-.09375-.13281-.23438-.20312-.42188-.20312-.13672 0-.26562.042969-.39062.125-.125.085938-.21484.21094-.26562.375-.054687.15625-.078125.41406-.078125.76562v1.7969h-.98438v-2.0469c0-.36328-.023437-.59766-.0625-.70312-.03125-.10156-.085937-.17969-.15625-.23438-.074219-.050781-.17188-.078125-.29688-.078125-.15625 0-.29688.042969-.42188.125-.11719.085938-.19922.20312-.25.35938-.054687.14844-.078125.40234-.078125.76562v1.8125h-1z"/>
</symbol>
<symbol id="ap" overflow="visible">
<path d="m.17188-1.0625.98438-.15625c.039062.19922.125.35156.25.45312.13281.09375.31641.14062.54688.14062.25781 0 .45312-.046875.57812-.14062.09375-.070313.14062-.16016.14062-.26562 0-.070312-.027344-.13281-.078125-.1875-.054688-.050781-.16406-.09375-.32812-.125-.80469-.17578-1.3086-.33594-1.5156-.48438-.29297-.20703-.4375-.48828-.4375-.84375 0-.32031.125-.59375.375-.8125.25781-.21875.65625-.32812 1.1875-.32812.50781 0 .89062.085938 1.1406.25.25.16797.42188.41406.51562.73438l-.9375.17188c-.03125-.14453-.10547-.25391-.21875-.32812-.11719-.082031-.27734-.125-.48438-.125-.26172 0-.44531.039063-.54688.10938-.085938.054688-.125.12109-.125.20312 0 .074219.035156.13281.10938.17188.082031.074219.38281.17188.90625.29688.53125.11719.89844.25781 1.1094.42188.20703.17969.3125.42188.3125.73438 0 .34375-.14844.64062-.4375.89062-.28125.24219-.70312.35938-1.2656.35938-.5 0-.90234-.097656-1.2031-.29688-.29297-.20703-.48438-.48828-.57812-.84375z"/>
</symbol>
<symbol id="bg" overflow="visible">
<path d="m.48438 0v-5.1562h.98438v2.7344l1.1562-1.3125h1.2188l-1.2812 1.3594 1.375 2.375h-1.0625l-.9375-1.6719-.46875.46875v1.2031z"/>
</symbol>
<symbol id="bf" overflow="visible">
<path d="m.53125 0v-5.1562h1.0312v2.0312h2.0469v-2.0312h1.0469v5.1562h-1.0469v-2.25h-2.0469v2.25z"/>
</symbol>
<symbol id="be" overflow="visible">
<path d="m.125 0v-.76562l1.3906-1.6094c.22656-.25781.39844-.44531.51562-.5625-.11719.011719-.26562.015625-.45312.015625h-1.3281v-.8125h3.0938v.70312l-1.4219 1.6406-.51562.54688c.28125-.019531.45312-.03125.51562-.03125h1.5312v.875z"/>
</symbol>
<symbol id="ao" overflow="visible">
<path d="m.3125-1.3281 1-.09375c.019531.21875.097656.39844.23438.53125.14453.125.30469.1875.48438.1875.20703 0 .37891-.082031.51562-.25.14453-.16406.21875-.42188.21875-.76562 0-.3125-.074219-.54688-.21875-.70312-.13672-.15625-.32031-.23438-.54688-.23438-.28125 0-.53906.125-.76562.375l-.79688-.125.51562-2.6719h2.6094v.92188h-1.875l-.14062.875c.21875-.11328.44141-.17188.67188-.17188.4375 0 .80469.16406 1.1094.48438.30078.3125.45312.72656.45312 1.2344 0 .42969-.12109.80859-.35938 1.1406-.33594.46094-.80469.6875-1.4062.6875-.46875 0-.85547-.125-1.1562-.375-.30469-.25781-.48438-.60938-.54688-1.0469z"/>
</symbol>
<symbol id="s" overflow="visible">
<path d="m1.9844-5.1719c.48828 0 .875.17969 1.1562.53125.34375.41797.51562 1.1172.51562 2.0938 0 .98047-.17188 1.6836-.51562 2.1094-.28125.35547-.66797.53125-1.1562.53125-.51172 0-.92188-.19141-1.2344-.57812-.30469-.38281-.45312-1.0703-.45312-2.0625 0-.97656.17188-1.6797.51562-2.1094.28125-.34375.67188-.51562 1.1719-.51562zm0 .8125c-.125 0-.23438.042969-.32812.125-.09375.074219-.16797.21094-.21875.40625-.0625.25-.09375.67969-.09375 1.2812 0 .60547.023438 1.0234.078125 1.25.0625.23047.14062.38281.23438.45312.09375.074219.20312.10938.32812.10938.11328 0 .21875-.035156.3125-.10938.09375-.070312.16406-.20703.21875-.40625.0625-.25781.09375-.69141.09375-1.2969 0-.60156-.03125-1.0156-.09375-1.2344-.054687-.22656-.125-.37891-.21875-.45312-.09375-.082031-.19922-.125-.3125-.125z"/>
</symbol>
<symbol id="bj" overflow="visible">
<path d="m.39062-3.7344h.98438v1.6875c0 .49219.046875.82422.14062 1 .125.23047.3125.34375.5625.34375.125 0 .24219-.039063.35938-.125.125-.082031.21094-.19531.26562-.34375.0625-.15625.09375-.44141.09375-.85938v-1.7031h.98438v3.7344h-.92188v-.45312c-.0625.13672-.125.23438-.1875.29688s-.15234.12109-.26562.17188c-.10547.050781-.19922.078125-.28125.078125-.16797 0-.32031-.046875-.45312-.14062-.09375-.0625-.19531-.19531-.29688-.40625v1.8906h-.98438z"/>
</symbol>
<symbol id="bi" overflow="visible">
<path d="m.3125-3.8906c0-.45703.097656-.79688.29688-1.0156.20703-.22656.48438-.34375.82812-.34375.36328 0 .64453.11719.84375.34375.20703.21875.3125.55859.3125 1.0156 0 .46875-.10547.82031-.3125 1.0469-.19922.21875-.47656.32812-.82812.32812-.35547 0-.63672-.10938-.84375-.32812-.19922-.22656-.29688-.57812-.29688-1.0469zm.76562 0c0 .33594.039063.55859.125.67188.050781.085938.12891.125.23438.125.10156 0 .1875-.039062.25-.125.070312-.11328.10938-.33594.10938-.67188 0-.33203-.039063-.55469-.10938-.67188-.0625-.082031-.14844-.125-.25-.125-.10547 0-.18359.042969-.23438.125-.085937.11719-.125.33984-.125.67188zm1.1094 4.0938h-.71875l2.7344-5.4531h.71875zm1.6094-1.3594c0-.45703.097656-.79688.29688-1.0156.20703-.22656.48438-.34375.82812-.34375.35156 0 .62891.11719.82812.34375.20703.21875.3125.55859.3125 1.0156 0 .46875-.10547.8125-.3125 1.0312-.19922.21875-.46875.32812-.8125.32812-.35547 0-.63672-.10938-.84375-.32812-.19922-.21875-.29688-.5625-.29688-1.0312zm.76562 0c0 .33594.035156.55859.10938.67188.0625.085937.14453.125.25.125.10156 0 .17969-.039063.23438-.125.082031-.11328.125-.33594.125-.67188 0-.33203-.039062-.5625-.10938-.6875-.0625-.082031-.14844-.125-.25-.125-.10547 0-.1875.042969-.25.125-.074219.125-.10938.35547-.10938.6875z"/>
</symbol>
<symbol id="bd" overflow="visible">
<path d="m1.4375 0 .6875-3.25c-.29297.24219-.70312.42969-1.2344.5625l.09375-.48438c.26953-.10156.53125-.23828.78125-.40625.25781-.17578.45312-.32812.57812-.45312.082031-.070312.15625-.16406.21875-.28125h.3125l-.89062 4.3125z"/>
</symbol>
<symbol id="bc" overflow="visible">
<path d="m1.3594 0 .79688-3.8125h-1.4062l.09375-.48438h3.3906l-.10938.48438h-1.3906l-.79688 3.8125z"/>
</symbol>
<clipPath id="cg">
<path d="m0 0h298v211.62h-298z"/>
</clipPath>
</defs>
<g clip-path="url(#cg)">
<path d="m0 0h298v211.62h-298z" fill="rgb(100%,100%,100%)"/>
</g>
<path d="m0 0h298v210.18h-298z" fill="rgb(100%,100%,100%)"/>
<g fill="rgb(0%,0%,0%)">
<path d="m100.95 86.738v-1.082h.35938v1.082zm0-2.1602v-1.082h.35938v1.082zm0-2.1602v-1.0781h.35938v1.0781zm0-2.1602v-1.0781h.35938v1.0781zm0-2.1602v-1.0781h.35938v1.0781zm0-2.1562v-1.082h.35938v1.082zm0-2.1602v-1.082h.35938v1.082zm.89844-1.6211h1.082v.35938h-1.082zm2.1602 0h1.0781v.35938h-1.0781zm2.1602 0h1.0781v.35938h-1.0781zm2.1602 0h1.0781v.35938h-1.0781zm2.1602 0h1.0781v.35938h-1.0781zm2.1562 0h1.082v.35938h-1.082zm2.1602 0h1.082v.35938h-1.082zm2.1602 0h1.0781v.35938h-1.0781zm2.1602 0h1.0781v.35938h-1.0781zm2.1602 0h1.0781v.35938h-1.0781zm2.1562 0h1.082v.35938h-1.082zm2.1602 0h1.082v.35938h-1.082zm2.1602 0h1.0781v.35938h-1.0781zm2.1602 0h1.0781v.35938h-1.0781zm2.1602 0h1.0781v.35938h-1.0781zm2.1562 0h1.082v.35938h-1.082zm2.1602 0h1.082v.35938h-1.082zm2.1602 0h1.0781v.35938h-1.0781zm2.1602 0h1.0781v.35938h-1.0781zm2.1602 0h1.0781v.35938h-1.0781zm2.1602 0h1.0781v.35938h-1.0781zm2.1562 0h1.082v.35938h-1.082zm2.1602 0h1.082v.35938h-1.082zm2.1602 0h1.0781v.35938h-1.0781zm2.1602 0h1.0781v.35938h-1.0781zm2.1602 0h1.0781v.35938h-1.0781zm2.1562 0h.72266v.17969h-.17969v-.35938h.35938v.53906h-.90234zm.54297-1.2578v-1.082h.35938v1.082zm0-2.1602v-1.082h.35938v1.082zm0-2.1602v-1.0781h.35938v1.0781zm0-2.1602v-1.0781h.35938v1.0781zm0-2.1602v-1.0781h.35938v1.0781zm0-2.1562v-1.082h.35938v1.082z"/>
<path d="m72.16 144.32v-1.0781h.35938v1.0781zm0-2.1602v-1.0781h.35938v1.0781zm0-2.1562v-1.082h.35938v1.082zm0-2.1602v-1.082h.35938v1.082zm0-2.1602v-1.0781h.35938v1.0781zm0-2.1602v-1.0781h.35938v1.0781zm0-2.1602v-1.0781h.35938v1.0781zm.89844-1.6172h1.082v.35938h-1.082zm2.1602 0h1.082v.35938h-1.082zm2.1602 0h1.0781v.35938h-1.0781zm2.1602 0h1.0781v.35938h-1.0781zm2.1602 0h1.0781v.35938h-1.0781zm2.1602 0h1.0781v.35938h-1.0781zm2.1562 0h1.082v.35938h-1.082zm2.1602 0h1.082v.35938h-1.082zm2.1602 0h1.0781v.35938h-1.0781zm2.1602 0h1.0781v.35938h-1.0781zm2.1602 0h1.0781v.35938h-1.0781zm2.1562 0h1.082v.35938h-1.082zm2.1602 0h1.082v.35938h-1.082zm1.9805.17969v-1.082h.35938v1.082zm0-2.1602v-1.0781h.35938v1.0781zm0-2.1602v-1.0781h.35938v1.0781zm0-2.1602v-1.0781h.35938v1.0781zm0-2.1562v-1.082h.35938v1.082zm0-2.1602v-1.082h.35938v1.082zm0-2.1602v-1.0781h.35938v1.0781z"/>
<path d="m225.12 65.098.26172-1.0469.34766.089844-.26172 1.0469m.17578-2.1836.26172-1.0469.34766.085938-.26172 1.0469m.17578-2.1797.26172-1.0469.35156.085938-.26172 1.0469m.17187-2.1836.26172-1.0469.35156.089844-.26172 1.0469m.17188-2.1836.26172-1.0469.35156.085937-.26172 1.0469m.17188-2.1797.26172-1.0469.35156.085937-.26172 1.0469m.17188-2.1836.26172-1.0469.35156.089843-.26172 1.0469m.17578-2.1836.26172-1.0469.34766.085937-.26172 1.0508m.17578-2.1836.26172-1.0469.34766.085937-.26172 1.0469m.17578-2.1797.26172-1.0508.34766.089844-.26172 1.0469m.17578-2.1836.16016-.64453.34766.089844-.16016.64453"/>
<path d="m225.47 79.496.26172 1.0469-.34766.085937-.26172-1.0469m.87109 2.0078.26172 1.0469-.34766.089843-.26172-1.0508m.875 2.0078.26172 1.0469-.35156.089843-.26172-1.0469m.875 2.0078.26172 1.0469-.35156.085937-.26172-1.0469m.875 2.0078.26172 1.0469-.35156.085937-.26172-1.0469m.875 2.0078.26172 1.0469-.35156.089844-.26172-1.0469m.875 2.0078.26172 1.0469-.35156.085938-.26172-1.0469m.875 2.0078.26172 1.0469-.34766.085938-.26172-1.0469m.87109 2.0078.26172 1.0469-.34766.089844-.26172-1.0469m.87109 2.0039.26172 1.0508-.34766.085937-.26172-1.0469m.87109 2.0078.16016.64453-.34766.085937-.16016-.64453"/>
<path d="m224.28 79.523.089844 1.0781-.35938.027344-.089843-1.0742m.53906 2.1211.089844 1.0742-.35938.03125-.089844-1.0742m.53906 2.1211.089843 1.0742-.35937.03125-.089844-1.0742m.53906 2.1211.089844 1.0742-.35938.03125-.089844-1.0781m.53906 2.125.089844 1.0742-.35938.03125-.089843-1.0781m.53516 2.125.089844 1.0742-.35547.03125-.089844-1.0781m.53516 2.1211.089844 1.0781-.35547.03125-.089844-1.0781m.53516 2.1211.089844 1.0781-.35938.027344-.085938-1.0742m.53516 2.1211.089843 1.0781-.35938.027344-.089844-1.0742m.53906 2.1211.089844 1.0781-.35938.027344-.089844-1.0742m.53906 2.1211.089844 1.0781-.35938.027344-.089843-1.0742m.53906 2.1211.089844 1.0742-.35938.03125-.089844-1.0742m.53906 2.1211.089843 1.0742-.35938.03125-.089844-1.0742m.53906 2.1211.089844 1.0742-.35938.03125-.089844-1.0781m.53906 2.125.089844 1.0742-.35938.03125-.089843-1.0781m.53906 2.125.089844 1.0742-.35938.03125-.089844-1.0781m.53906 2.1211.089843 1.0781-.35938.03125-.089844-1.0781m.53906 2.1211.089844 1.0781-.35938.027344-.089844-1.0742m.53906 2.1211.085938 1.0781-.35547.027343-.089843-1.0742m.53516 2.1211.089844 1.0781-.35547.027344-.089844-1.0742m.53516 2.1211.089844 1.0781-.35938.027344-.085938-1.0742m.53516 2.1211.089843 1.0742-.35937.03125-.089844-1.0742m.53906 2.1211.089844 1.0742-.35938.03125-.089844-1.0742m.53906 2.1211.089844 1.0742-.35938.03125-.089843-1.0781m.53906 2.125.089844 1.0742-.35938.03125-.089844-1.0781m.53906 2.125.089843 1.0742-.35937.03125-.089844-1.0781m.53906 2.1211.089844 1.0781-.35938.03125-.089844-1.0781m.53906 2.1211.089844 1.0781-.35938.027344-.089843-1.0742m.53906 2.1211.089844 1.0781-.35938.027343-.089844-1.0742m.53906 2.1211.089843 1.0781-.35937.027344-.089844-1.0742m.53906 2.1211.089844 1.0781-.35938.027344-.089844-1.0742m.53906 2.1211.085937 1.0742-.35547.03125-.089843-1.0742m.53516 2.1211.089844 1.0742-.35547.03125-.089844-1.0742m.53516 2.1211.089844 1.0742-.35547.03125-.089844-1.0781m.53516 2.125.089844 1.0742-.35938.03125-.089844-1.0781m.53906 2.125.089843 1.0742-.35938.03125-.089844-1.0781m.53906 2.1211.089844 1.0781-.35938.03125-.089844-1.0781"/>
<path d="m72.16 198.31v-1.082h.35938v1.082m-.35938-2.1602v-1.082h.35938v1.082m-.35938-2.1602v-1.0781h.35938v1.0781m-.35938-2.1602v-1.0781h.35938v1.0781m-.35938-2.1602v-1.0781h.35938v1.0781m-.35938-2.1602v-1.0781h.35938v1.0781m-.35938-2.1562v-1.082h.35938v1.082m-.35938-2.1602v-1.082h.35938v1.082m-.35938-2.1602v-1.0781h.35938v1.0781m-.35938-2.1602v-1.0781h.35938v1.0781m-.35938-2.1602v-1.0781h.35938v1.0781m-.35938-2.1562v-1.082h.35938v1.082"/>
<path d="m57.766 187.51v-1.0781h.35938v1.0781m-.35938-2.1562v-1.082h.35938v1.082m-.35938-2.1602v-1.082h.35938v1.082m-.35938-2.1602v-1.0781h.35938v1.0781m-.35938-2.1602v-1.0781h.35938v1.0781m-.35938-2.1602v-1.0781h.35938v1.0781m-.35938-2.1562v-1.082h.35938v1.082"/>
<path d="m43.367 198.31v-1.082h.35937v1.082m-.35937-2.1602v-1.082h.35937v1.082m-.35937-2.1602v-1.0781h.35937v1.0781m-.35937-2.1602v-1.0781h.35937v1.0781m-.35937-2.1602v-1.0781h.35937v1.0781m-.35937-2.1602v-1.0781h.35937v1.0781m-.35937-2.1562v-1.082h.35937v1.082m-.35937-2.1602v-1.082h.35937v1.082m-.35937-2.1602v-1.0781h.35937v1.0781m-.35937-2.1602v-1.0781h.35937v1.0781m-.35937-2.1602v-1.0781h.35937v1.0781m-.35937-2.1562v-1.082h.35937v1.082m-.35937-2.1602v-1.082h.35937v1.082m-.35937-2.1602v-1.0781h.35937v1.0781m-.35937-2.1602v-1.0781h.35937v1.0781m-.35937-2.1602v-1.0781h.35937v1.0781m-.35937-2.1562v-1.082h.35937v1.082m-.35937-2.1602v-1.082h.35937v1.082m-.35937-2.1602v-1.0781h.35937v1.0781m-.35937-2.1602v-1.0781h.35937v1.0781m-.35937-2.1602v-1.0781h.35937v1.0781m-.35937-2.1602v-1.0781h.35937v1.0781m-.35937-2.1562v-1.082h.35937v1.082m-.35937-2.1602v-1.082h.35937v1.082m-.35937-2.1602v-1.0781h.35937v1.0781m-.35937-2.1602v-1.0781h.35937v1.0781m-.35937-2.1602v-1.0781h.35937v1.0781m-.35937-2.1562v-1.082h.35937v1.082m-.35937-2.1602v-1.082h.35937v1.082m-.35937-2.1602v-1.0781h.35937v1.0781m-.35937-2.1602v-1.0781h.35937v1.0781m-.35937-2.1602v-1.0781h.35937v1.0781m-.35937-2.1562v-1.082h.35937v1.082m-.35937-2.1602v-1.082h.35937v1.082m-.35937-2.1602v-1.0781h.35937v1.0781m-.35937-2.1602v-1.0781h.35937v1.0781m-.35937-2.1602v-1.0781h.35937v1.0781m-.35937-2.1562v-1.082h.35937v1.082m-.35937-2.1602v-1.082h.35937v1.082m-.35937-2.1602v-1.082h.35937v1.082m-.35937-2.1602v-1.0781h.35937v1.0781m-.35937-2.1602v-1.0781h.35937v1.0781m-.35937-2.1602v-1.0781h.35937v1.0781m-.35937-2.1562v-1.082h.35937v1.082m-.35937-2.1602v-1.082h.35937v1.082m-.35937-2.1602v-1.0781h.35937v1.0781m-.35937-2.1602v-1.0781h.35937v1.0781m-.35937-2.1602v-1.0781h.35937v1.0781m-.35937-2.1562v-1.082h.35937v1.082m-.35937-2.1602v-1.082h.35937v1.082m-.35937-2.1602v-1.0781h.35937v1.0781m-.35937-2.1602v-1.0781h.35937v1.0781m-.35937-2.1602v-1.0781h.35937v1.0781m-.35937-2.1562v-1.082h.35937v1.082m-.35937-2.1602v-1.082h.35937v1.082m-.35937-2.1602v-1.082h.35937v1.082m-.35937-2.1602v-1.0781h.35937v1.0781m-.35937-2.1602v-1.0781h.35937v1.0781m-.35937-2.1602v-1.0781h.35937v1.0781m-.35937-2.1562v-1.082h.35937v1.082m-.35937-2.1602v-1.082h.35937v1.082m-.35937-2.1602v-1.0781h.35937v1.0781m-.35937-2.1602v-1.0781h.35937v1.0781m-.35937-2.1602v-1.0781h.35937v1.0781m-.35937-2.1562v-1.082h.35937v1.082"/>
</g>
<g>
<path d="m28.793 100.05h1.4375v1.4375h-1.4375m5.7578-1.4375h1.4414v1.4375h-1.4414m5.7578-1.4375h1.4414v1.4375h-1.4414m5.7578-1.4375h1.4414v1.4375h-1.4414m5.7578-1.4375h1.4414v1.4375h-1.4414m5.7617-1.4375h1.4375v1.4375h-1.4375m5.7578-1.4375h1.4375v1.4375h-1.4375m5.7578-1.4375h1.4414v1.4375h-1.4414m5.7578-1.4375h1.4414v1.4375h-1.4414m5.7578-1.4375h1.4414v1.4375h-1.4414m5.7578-1.4375h1.4414v1.4375h-1.4414m5.7617-1.4375h1.4375v1.4375h-1.4375m5.7578-1.4375h1.4375v1.4375h-1.4375m5.7578-1.4375h1.4375v1.4375h-1.4375m5.7578-1.4375h1.4414v1.4375h-1.4414m5.7578-1.4375h1.4414v1.4375h-1.4414m5.7578-1.4375h1.4414v1.4375h-1.4414m5.7617-1.4375h1.4375v1.4375h-1.4375m5.7578-1.4375h1.4375v1.4375h-1.4375m5.7578-1.4375h1.4375v1.4375h-1.4375m5.7578-1.4375h1.4414v1.4375h-1.4414m5.7578-1.4375h1.4414v1.4375h-1.4414m5.7578-1.4375h1.4414v1.4375h-1.4414m5.7617-1.4375h1.4375v1.4375h-1.4375m5.7578-1.4375h1.4375v1.4375h-1.4375m5.7578-1.4375h1.4375v1.4375h-1.4375m5.7578-1.4375h1.4414v1.4375h-1.4414m5.7578-1.4375h1.4414v1.4375h-1.4414m5.7578-1.4375h1.4414v1.4375h-1.4414m5.7617-1.4375h1.4375v1.4375h-1.4375m5.7578-1.4375h1.4375v1.4375h-1.4375m5.7578-1.4375h1.4375v1.4375h-1.4375m5.7578-1.4375h1.4414v1.4375h-1.4414m5.7578-1.4375h1.4414v1.4375h-1.4414m5.7578-1.4375h1.4414v1.4375h-1.4414m5.7617-1.4375h1.4375v1.4375h-1.4375m5.7578-1.4375h1.4375v1.4375h-1.4375m5.7578-1.4375h1.4375v1.4375h-1.4375" fill="rgb(100%,50.19989%,0%)"/>
<path d="m28.793 42.469h1.4375v1.4414h-1.4375m5.7578-1.4414h1.4414v1.4414h-1.4414m5.7578-1.4414h1.4414v1.4414h-1.4414m5.7578-1.4414h1.4414v1.4414h-1.4414m5.7578-1.4414h1.4414v1.4414h-1.4414m5.7617-1.4414h1.4375v1.4414h-1.4375m5.7578-1.4414h1.4375v1.4414h-1.4375m5.7578-1.4414h1.4414v1.4414h-1.4414m5.7578-1.4414h1.4414v1.4414h-1.4414m5.7578-1.4414h1.4414v1.4414h-1.4414m5.7578-1.4414h1.4414v1.4414h-1.4414m5.7617-1.4414h1.4375v1.4414h-1.4375m5.7578-1.4414h1.4375v1.4414h-1.4375m5.7578-1.4414h1.4375v1.4414h-1.4375m5.7578-1.4414h1.4414v1.4414h-1.4414m5.7578-1.4414h1.4414v1.4414h-1.4414m5.7578-1.4414h1.4414v1.4414h-1.4414m5.7617-1.4414h1.4375v1.4414h-1.4375m5.7578-1.4414h1.4375v1.4414h-1.4375m5.7578-1.4414h1.4375v1.4414h-1.4375m5.7578-1.4414h1.4414v1.4414h-1.4414m5.7578-1.4414h1.4414v1.4414h-1.4414m5.7578-1.4414h1.4414v1.4414h-1.4414m5.7617-1.4414h1.4375v1.4414h-1.4375m5.7578-1.4414h1.4375v1.4414h-1.4375m5.7578-1.4414h1.4375v1.4414h-1.4375m5.7578-1.4414h1.4414v1.4414h-1.4414m5.7578-1.4414h1.4414v1.4414h-1.4414m5.7578-1.4414h1.4414v1.4414h-1.4414m5.7617-1.4414h1.4375v1.4414h-1.4375m5.7578-1.4414h1.4375v1.4414h-1.4375m5.7578-1.4414h1.4375v1.4414h-1.4375m5.7578-1.4414h1.4414v1.4414h-1.4414m5.7578-1.4414h1.4414v1.4414h-1.4414m5.7578-1.4414h1.4414v1.4414h-1.4414m5.7617-1.4414h1.4375v1.4414h-1.4375m5.7578-1.4414h1.4375v1.4414h-1.4375m5.7578-1.4414h1.4375v1.4414h-1.4375" fill="rgb(0%,0%,100%)"/>
<path d="m28.793 157.64h1.4375v1.4414h-1.4375m5.7578-1.4414h1.4414v1.4414h-1.4414m5.7578-1.4414h1.4414v1.4414h-1.4414m5.7578-1.4414h1.4414v1.4414h-1.4414m5.7578-1.4414h1.4414v1.4414h-1.4414m5.7617-1.4414h1.4375v1.4414h-1.4375m5.7578-1.4414h1.4375v1.4414h-1.4375m5.7578-1.4414h1.4414v1.4414h-1.4414m5.7578-1.4414h1.4414v1.4414h-1.4414m5.7578-1.4414h1.4414v1.4414h-1.4414m5.7578-1.4414h1.4414v1.4414h-1.4414m5.7617-1.4414h1.4375v1.4414h-1.4375m5.7578-1.4414h1.4375v1.4414h-1.4375m5.7578-1.4414h1.4375v1.4414h-1.4375m5.7578-1.4414h1.4414v1.4414h-1.4414m5.7578-1.4414h1.4414v1.4414h-1.4414m5.7578-1.4414h1.4414v1.4414h-1.4414m5.7617-1.4414h1.4375v1.4414h-1.4375m5.7578-1.4414h1.4375v1.4414h-1.4375m5.7578-1.4414h1.4375v1.4414h-1.4375m5.7578-1.4414h1.4414v1.4414h-1.4414m5.7578-1.4414h1.4414v1.4414h-1.4414m5.7578-1.4414h1.4414v1.4414h-1.4414m5.7617-1.4414h1.4375v1.4414h-1.4375m5.7578-1.4414h1.4375v1.4414h-1.4375m5.7578-1.4414h1.4375v1.4414h-1.4375m5.7578-1.4414h1.4414v1.4414h-1.4414m5.7578-1.4414h1.4414v1.4414h-1.4414m5.7578-1.4414h1.4414v1.4414h-1.4414m5.7617-1.4414h1.4375v1.4414h-1.4375m5.7578-1.4414h1.4375v1.4414h-1.4375m5.7578-1.4414h1.4375v1.4414h-1.4375m5.7578-1.4414h1.4414v1.4414h-1.4414m5.7578-1.4414h1.4414v1.4414h-1.4414m5.7578-1.4414h1.4414v1.4414h-1.4414m5.7617-1.4414h1.4375v1.4414h-1.4375m5.7578-1.4414h1.4375v1.4414h-1.4375m5.7578-1.4414h1.4375v1.4414h-1.4375" fill="rgb(100%,0%,0%)"/>
</g>
<g fill="rgb(0%,0%,0%)">
<use x="5.51102" y="32.391304" xlink:href="#m"/>
<use x="10.314887" y="32.391304" xlink:href="#k"/>
<use x="12.714711" y="32.391304" xlink:href="#m"/>
<use x="17.518578" y="32.391304" xlink:href="#an"/>
<use x="5.51102" y="89.975843" xlink:href="#m"/>
<use x="10.314887" y="89.975843" xlink:href="#k"/>
<use x="12.714711" y="89.975843" xlink:href="#m"/>
<use x="17.518578" y="89.975843" xlink:href="#an"/>
<use x="5.51102" y="147.560383" xlink:href="#m"/>
<use x="10.314887" y="147.560383" xlink:href="#k"/>
<use x="12.714711" y="147.560383" xlink:href="#m"/>
<use x="17.518578" y="147.560383" xlink:href="#an"/>
</g>
<g>
<g fill="rgb(100%,50.19989%,0%)">
<use x="247.83846" y="104.371978" xlink:href="#aj"/>
<use x="252.642327" y="104.371978" xlink:href="#ai"/>
<use x="255.042151" y="104.371978" xlink:href="#ah"/>
<use x="259.846018" y="104.371978" xlink:href="#ag"/>
<use x="264.649884" y="104.371978" xlink:href="#af"/>
</g>
<g fill="rgb(100%,0%,0%)">
<use x="247.83846" y="161.956518" xlink:href="#aj"/>
<use x="252.642327" y="161.956518" xlink:href="#ai"/>
<use x="255.042151" y="161.956518" xlink:href="#ah"/>
<use x="259.846018" y="161.956518" xlink:href="#ag"/>
<use x="264.649884" y="161.956518" xlink:href="#af"/>
</g>
<g fill="rgb(0%,0%,100%)">
<use x="247.83846" y="46.787438" xlink:href="#aj"/>
<use x="252.642327" y="46.787438" xlink:href="#ai"/>
<use x="255.042151" y="46.787438" xlink:href="#ah"/>
<use x="259.846018" y="46.787438" xlink:href="#ag"/>
<use x="264.649884" y="46.787438" xlink:href="#af"/>
</g>
</g>
<g fill="rgb(19.999695%,19.999695%,19.999695%)">
<use x="216.076988" y="74.140095" xlink:href="#cf"/>
<use x="222.307815" y="76.299515" xlink:href="#d"/>
<use x="226.311037" y="76.299515" xlink:href="#o"/>
<use x="228.180847" y="76.299515" xlink:href="#o"/>
</g>
<g fill="rgb(100%,0%,0%)">
<use x="44.628018" y="140.362315" xlink:href="#am"/>
<use x="49.431885" y="140.362315" xlink:href="#al"/>
<use x="54.235751" y="140.362315" xlink:href="#ak"/>
<use x="61.916033" y="140.362315" xlink:href="#c"/>
<use x="64.315857" y="140.362315" xlink:href="#j"/>
<use x="67.189461" y="140.362315" xlink:href="#z"/>
<use x="69.589285" y="140.362315" xlink:href="#b"/>
<use x="71.98911" y="140.362315" xlink:href="#h"/>
<use x="77.033381" y="140.362315" xlink:href="#b"/>
<use x="79.433205" y="140.362315" xlink:href="#bw"/>
<use x="84.237071" y="140.362315" xlink:href="#aw"/>
<use x="89.040938" y="140.362315" xlink:href="#aw"/>
<use x="93.844804" y="140.362315" xlink:href="#bv"/>
<use x="98.821593" y="140.362315" xlink:href="#g"/>
<use x="103.13481" y="140.362315" xlink:href="#l"/>
<use x="106.011226" y="140.362315" xlink:href="#k"/>
<use x="108.41105" y="140.362315" xlink:href="#c"/>
<use x="110.805251" y="140.362315" xlink:href="#x"/>
<use x="113.681666" y="140.362315" xlink:href="#f"/>
<use x="116.081491" y="140.362315" xlink:href="#w"/>
<use x="121.125761" y="140.362315" xlink:href="#f"/>
<use x="123.525586" y="140.362315" xlink:href="#bt"/>
<use x="128.329452" y="140.362315" xlink:href="#bs"/>
<use x="133.133319" y="140.362315" xlink:href="#v"/>
<use x="139.371175" y="140.362315" xlink:href="#u"/>
<use x="143.680178" y="140.362315" xlink:href="#c"/>
<use x="146.080003" y="140.362315" xlink:href="#j"/>
<use x="148.955009" y="140.362315" xlink:href="#y"/>
<use x="154.231248" y="140.362315" xlink:href="#b"/>
<use x="156.631073" y="140.362315" xlink:href="#h"/>
<use x="161.675343" y="140.362315" xlink:href="#b"/>
<use x="164.075168" y="140.362315" xlink:href="#av"/>
<use x="168.879034" y="140.362315" xlink:href="#n"/>
<use x="176.07429" y="140.362315" xlink:href="#g"/>
<use x="180.390322" y="140.362315" xlink:href="#l"/>
</g>
<g fill="rgb(100%,50.19989%,0%)">
<use x="44.628018" y="82.777776" xlink:href="#am"/>
<use x="49.431885" y="82.777776" xlink:href="#al"/>
<use x="54.235751" y="82.777776" xlink:href="#ak"/>
<use x="61.916033" y="82.777776" xlink:href="#c"/>
<use x="64.315857" y="82.777776" xlink:href="#j"/>
<use x="67.189461" y="82.777776" xlink:href="#z"/>
<use x="69.589285" y="82.777776" xlink:href="#b"/>
<use x="71.98911" y="82.777776" xlink:href="#h"/>
<use x="77.033381" y="82.777776" xlink:href="#b"/>
<use x="79.433205" y="82.777776" xlink:href="#av"/>
<use x="84.237071" y="82.777776" xlink:href="#n"/>
<use x="91.432327" y="82.777776" xlink:href="#g"/>
<use x="95.745544" y="82.777776" xlink:href="#l"/>
<use x="98.621959" y="82.777776" xlink:href="#k"/>
<use x="101.021784" y="82.777776" xlink:href="#c"/>
<use x="103.415985" y="82.777776" xlink:href="#x"/>
<use x="106.2924" y="82.777776" xlink:href="#f"/>
<use x="108.692224" y="82.777776" xlink:href="#w"/>
<use x="113.736495" y="82.777776" xlink:href="#f"/>
<use x="116.13632" y="82.777776" xlink:href="#au"/>
<use x="120.940186" y="82.777776" xlink:href="#t"/>
<use x="125.744053" y="82.777776" xlink:href="#t"/>
<use x="130.547919" y="82.777776" xlink:href="#v"/>
<use x="136.785776" y="82.777776" xlink:href="#u"/>
<use x="141.104616" y="82.777776" xlink:href="#c"/>
<use x="143.504441" y="82.777776" xlink:href="#j"/>
<use x="146.379454" y="82.777776" xlink:href="#y"/>
<use x="151.655693" y="82.777776" xlink:href="#b"/>
<use x="154.055518" y="82.777776" xlink:href="#h"/>
<use x="159.099788" y="82.777776" xlink:href="#b"/>
<use x="161.499613" y="82.777776" xlink:href="#ax"/>
<use x="166.303479" y="82.777776" xlink:href="#n"/>
<use x="173.498735" y="82.777776" xlink:href="#g"/>
<use x="177.81476" y="82.777776" xlink:href="#l"/>
</g>
<g fill="rgb(0%,0%,100%)">
<use x="44.628018" y="25.193236" xlink:href="#am"/>
<use x="49.431885" y="25.193236" xlink:href="#al"/>
<use x="54.235751" y="25.193236" xlink:href="#ak"/>
<use x="61.916033" y="25.193236" xlink:href="#c"/>
<use x="64.315857" y="25.193236" xlink:href="#j"/>
<use x="67.189461" y="25.193236" xlink:href="#z"/>
<use x="69.589285" y="25.193236" xlink:href="#b"/>
<use x="71.98911" y="25.193236" xlink:href="#h"/>
<use x="77.033381" y="25.193236" xlink:href="#b"/>
<use x="79.433205" y="25.193236" xlink:href="#ax"/>
<use x="84.237071" y="25.193236" xlink:href="#n"/>
<use x="91.432327" y="25.193236" xlink:href="#g"/>
<use x="95.745544" y="25.193236" xlink:href="#l"/>
<use x="98.621959" y="25.193236" xlink:href="#k"/>
<use x="101.021784" y="25.193236" xlink:href="#c"/>
<use x="103.415985" y="25.193236" xlink:href="#x"/>
<use x="106.2924" y="25.193236" xlink:href="#f"/>
<use x="108.692224" y="25.193236" xlink:href="#w"/>
<use x="113.736495" y="25.193236" xlink:href="#f"/>
<use x="116.13632" y="25.193236" xlink:href="#bu"/>
<use x="120.940186" y="25.193236" xlink:href="#au"/>
<use x="125.744053" y="25.193236" xlink:href="#t"/>
<use x="130.547919" y="25.193236" xlink:href="#v"/>
<use x="136.785776" y="25.193236" xlink:href="#u"/>
<use x="141.104616" y="25.193236" xlink:href="#c"/>
<use x="143.504441" y="25.193236" xlink:href="#j"/>
<use x="146.379454" y="25.193236" xlink:href="#y"/>
<use x="151.655693" y="25.193236" xlink:href="#b"/>
<use x="154.055518" y="25.193236" xlink:href="#h"/>
<use x="159.099788" y="25.193236" xlink:href="#b"/>
<use x="161.499613" y="25.193236" xlink:href="#bx"/>
<use x="166.303479" y="25.193236" xlink:href="#n"/>
<use x="173.498735" y="25.193236" xlink:href="#g"/>
<use x="177.81476" y="25.193236" xlink:href="#l"/>
</g>
<g fill="none" stroke="rgb(0%,0%,0%)" stroke-miterlimit="10" stroke-width="2">
<path transform="matrix(-.71981 8.8e-17 -8.8e-17 -.71981 71.981 201.55)" d="m40.001 120h19.998m-19.998 40.001v-40.001"/>
<path transform="matrix(-.71981 0 0 .71981 115.17 0)" d="m60 120h40.001m-40.001 40.001v-40.001"/>
<path transform="matrix(-.71981 8.8e-17 -8.8e-17 -.71981 172.75 201.55)" d="m99.999 120h40.001m-40.001 40.001v-40.001"/>
<path transform="matrix(-.71981 0 0 .71981 230.34 0)" d="m140 120h40.001m-40.001 40.001v-40.001"/>
<path transform="matrix(-.71981 8.8e-17 -8.8e-17 -.71981 287.92 201.55)" d="m180 120h40.001m-40.001 40.001v-40.001"/>
<path transform="matrix(-.71981 0 0 .71981 345.51 0)" d="m220 120h39.996m-39.996 40.001v-40.001"/>
<path transform="matrix(-.71981 8.8e-17 -8.8e-17 -.71981 403.09 201.55)" d="m260 120h40.001m-40.001 40.001v-40.001"/>
</g>
<path d="m215.94 85.656h4.3203v1.4414h-4.3203m8.6367-1.4414h4.3203v1.4414h-4.3203m8.6406-1.4414h4.3164v1.4414h-4.3164m8.6367-1.4414h2.8789v1.4414h-2.8789" fill="rgb(0%,0%,0%)"/>
<path transform="matrix(-.71981 8.8e-17 -8.8e-17 -.71981 71.981 86.377)" d="m40.001 39.998h19.998m-19.998 40.001v-40.001" fill="none" stroke="rgb(0%,0%,0%)" stroke-miterlimit="10" stroke-width="2"/>
<path d="m215.94 56.629h4.3203v1.4375h-4.3203m8.6367-1.4375h4.3203v1.4375h-4.3203m8.6406-1.4375h4.3164v1.4375h-4.3164m8.6367-1.4375h2.8789v1.4375h-2.8789" fill="rgb(0%,0%,0%)"/>
<path transform="matrix(-.71981 8.8e-17 -8.8e-17 -.71981 71.981 316.71)" d="m40.001 200h19.998m-19.998 40.001v-40.001" fill="none" stroke="rgb(0%,0%,0%)" stroke-miterlimit="10" stroke-width="2"/>
<g>
<path d="m215.94 143.24h4.3203v1.4375h-4.3203m8.6367-1.4375h4.3203v1.4375h-4.3203m8.6406-1.4375h4.3164v1.4375h-4.3164m8.6367-1.4375h2.8789v1.4375h-2.8789" fill="rgb(0%,0%,0%)"/>
<path transform="matrix(.71981 0 0 .71981 .3599 .3599)" d="m74.998 255c0 .66207-.12482 1.3024-.37988 1.9157-.24963.61323-.61323 1.1505-1.0799 1.6226-.47213.4667-1.0094.8303-1.6226 1.0799-.61323.25506-1.2536.37988-1.9157.37988-.66207 0-1.3024-.12482-1.9157-.37988-.6078-.24963-1.1505-.61323-1.6172-1.0799-.47213-.47213-.8303-1.0094-1.0854-1.6226-.25506-.61323-.37988-1.2536-.37988-1.9157s.12482-1.3024.37988-1.9102c.25506-.61323.61323-1.1559 1.0854-1.6226.4667-.47213 1.0094-.8303 1.6172-1.0854.61323-.25506 1.2536-.37988 1.9157-.37988.66207 0 1.3024.12482 1.9157.37988.61323.25506 1.1505.61323 1.6226 1.0854.4667.46671.8303 1.0094 1.0799 1.6226.25506.6078.37988 1.2482.37988 1.9102z" fill="rgb(100%,100%,100%)" stroke="rgb(0%,0%,0%)" stroke-width=".5"/>
<g fill="rgb(0%,0%,0%)">
<use x="48.785184" y="185.71014" xlink:href="#at"/>
</g>
<path transform="matrix(.71981 0 0 .71981 .3599 .3599)" d="m84.999 270c0 .66207-.12482 1.3024-.37988 1.9157s-.61323 1.1505-1.0854 1.6226c-.4667.4667-1.0094.8303-1.6226 1.0799-.61323.25506-1.2482.3853-1.9102.3853s-1.3024-.13024-1.9157-.3853c-.61323-.24963-1.1505-.61323-1.6226-1.0799-.4667-.47213-.8303-1.0094-1.0799-1.6226-.25506-.61323-.3853-1.2536-.3853-1.9157 0-.66207.13024-1.3024.3853-1.9102.24963-.61323.61323-1.1559 1.0799-1.6226.47213-.47213 1.0094-.8303 1.6226-1.0854.61323-.25506 1.2536-.37988 1.9157-.37988s1.297.12482 1.9102.37988c.61323.25506 1.1559.61323 1.6226 1.0854.47213.4667.8303 1.0094 1.0854 1.6226.25506.6078.37988 1.2482.37988 1.9102z" fill="rgb(100%,100%,100%)" stroke="rgb(0%,0%,0%)" stroke-width=".5"/>
<g fill="rgb(0%,0%,0%)">
<use x="55.983251" y="196.507242" xlink:href="#as"/>
</g>
</g>
<g stroke="rgb(0%,0%,0%)" stroke-miterlimit="10" stroke-width=".5">
<path transform="matrix(.71981 0 0 .71981 .3599 .3599)" d="m74.998 255h2.9413" fill="none"/>
<path transform="matrix(.71981 0 0 .71981 .3599 .3599)" d="m79.442 255-1.5032.7489v-1.4978z" fill="rgb(0%,0%,0%)"/>
<path transform="matrix(.71981 0 0 .71981 .3599 .3599)" d="m84.999 270h12.943" fill="none"/>
<path transform="matrix(.71981 0 0 .71981 .3599 .3599)" d="m99.44 270-1.4978.7489v-1.4978z" fill="rgb(0%,0%,0%)"/>
<path transform="matrix(.71981 0 0 .71981 .3599 .3599)" d="m65.002 255h-2.9413" fill="none"/>
<path transform="matrix(.71981 0 0 .71981 .3599 .3599)" d="m60.562 255 1.4978-.7489v1.4978z" fill="rgb(0%,0%,0%)"/>
<path transform="matrix(.71981 0 0 .71981 .3599 .3599)" d="m74.998 270h-12.938" fill="none"/>
</g>
<g>
<path transform="matrix(.71981 0 0 .71981 .3599 .3599)" d="m60.562 270 1.4978-.7489v1.4978z" fill="rgb(0%,0%,0%)" stroke="rgb(0%,0%,0%)" stroke-miterlimit="10" stroke-width=".5"/>
<path transform="matrix(.71981 0 0 .71981 .3599 .3599)" d="m175 250c0 .66207-.12482 1.297-.37988 1.9102-.24963.61323-.61323 1.1559-1.0799 1.6226-.47213.47213-1.0094.8303-1.6226 1.0854-.61323.25506-1.2536.37988-1.9157.37988-.66207 0-1.3024-.12482-1.9102-.37988-.61323-.25506-1.1559-.61323-1.6226-1.0854-.47213-.4667-.8303-1.0094-1.0854-1.6226-.25506-.61323-.37988-1.2482-.37988-1.9102s.12482-1.3024.37988-1.9157c.25506-.61323.61323-1.1505 1.0854-1.6226.4667-.4667 1.0094-.8303 1.6226-1.0799.6078-.25506 1.2482-.3853 1.9102-.3853.66207 0 1.3024.13024 1.9157.3853.61323.24963 1.1505.61323 1.6226 1.0799.4667.47213.8303 1.0094 1.0799 1.6226.25506.61323.37988 1.2536.37988 1.9157z" fill="rgb(100%,100%,100%)" stroke="rgb(0%,0%,0%)" stroke-width=".5"/>
<g fill="rgb(0%,0%,0%)">
<use x="120.765858" y="182.111107" xlink:href="#at"/>
</g>
<path transform="matrix(.71981 0 0 .71981 .3599 .3599)" d="m175 265c0 .66207-.12482 1.3024-.37988 1.9102-.24963.61323-.61323 1.1559-1.0799 1.6226-.47213.47213-1.0094.8303-1.6226 1.0854s-1.2536.37988-1.9157.37988c-.66207 0-1.3024-.12482-1.9102-.37988-.61323-.25506-1.1559-.61323-1.6226-1.0854-.47213-.4667-.8303-1.0094-1.0854-1.6226-.25506-.6078-.37988-1.2482-.37988-1.9102s.12482-1.3024.37988-1.9157c.25506-.61323.61323-1.1505 1.0854-1.6226.4667-.4667 1.0094-.8303 1.6226-1.0799.6078-.25506 1.2482-.3853 1.9102-.3853.66207 0 1.3024.13024 1.9157.3853.61323.24963 1.1505.61323 1.6226 1.0799.4667.47213.8303 1.0094 1.0799 1.6226.25506.61323.37988 1.2536.37988 1.9157z" fill="rgb(100%,100%,100%)" stroke="rgb(0%,0%,0%)" stroke-width=".5"/>
</g>
<g fill="rgb(0%,0%,0%)">
<use x="120.765858" y="192.908208" xlink:href="#as"/>
<use x="131.004828" y="193.628015" xlink:href="#bz"/>
<use x="135.805883" y="193.628015" xlink:href="#d"/>
<use x="139.809105" y="193.628015" xlink:href="#i"/>
<use x="142.206117" y="193.628015" xlink:href="#az"/>
<use x="143.805297" y="193.628015" xlink:href="#by"/>
<use x="147.808519" y="193.628015" xlink:href="#ab"/>
<use x="151.811741" y="193.628015" xlink:href="#d"/>
<use x="155.814964" y="193.628015" xlink:href="#ay"/>
<use x="159.818186" y="193.628015" xlink:href="#ab"/>
<use x="163.821408" y="193.628015" xlink:href="#aa"/>
<use x="167.82463" y="193.628015" xlink:href="#q"/>
<use x="171.827852" y="193.628015" xlink:href="#d"/>
<use x="175.831074" y="193.628015" xlink:href="#i"/>
<use x="178.228087" y="193.628015" xlink:href="#a"/>
<use x="180.221614" y="193.628015" xlink:href="#br"/>
<use x="184.607936" y="193.628015" xlink:href="#a"/>
<use x="194.977652" y="193.628015" xlink:href="#ae"/>
<use x="198.576686" y="193.628015" xlink:href="#p"/>
<use x="200.57654" y="193.628015" xlink:href="#ad"/>
<use x="205.377595" y="193.628015" xlink:href="#p"/>
<use x="207.377448" y="193.628015" xlink:href="#a"/>
</g>
<g>
<g fill="rgb(100%,0%,0%)">
<use x="209.373787" y="193.628015" xlink:href="#bm"/>
</g>
<g fill="rgb(100%,0%,0%)">
<use x="213.76011" y="193.628015" xlink:href="#e"/>
<use x="215.759963" y="193.628015" xlink:href="#r"/>
<use x="219.963522" y="193.628015" xlink:href="#e"/>
<use x="221.963376" y="193.628015" xlink:href="#aq"/>
<use x="225.966598" y="193.628015" xlink:href="#bh"/>
<use x="232.366833" y="193.628015" xlink:href="#ap"/>
</g>
<g fill="rgb(0%,0%,0%)">
<use x="236.36654" y="193.628015" xlink:href="#a"/>
</g>
<g fill="rgb(0%,0%,0%)">
<use x="242.934777" y="193.628015" xlink:href="#bb"/>
<use x="244.804587" y="193.628015" xlink:href="#a"/>
<use x="246.804441" y="193.628015" xlink:href="#o"/>
<use x="248.804295" y="193.628015" xlink:href="#ba"/>
<use x="252.807517" y="193.628015" xlink:href="#i"/>
<use x="255.204529" y="193.628015" xlink:href="#a"/>
</g>
<g fill="rgb(100%,0%,0%)">
<use x="257.195948" y="193.628015" xlink:href="#bl"/>
</g>
<g fill="rgb(100%,0%,0%)">
<use x="259.591558" y="193.628015" xlink:href="#e"/>
<use x="261.591412" y="193.628015" xlink:href="#r"/>
<use x="265.794971" y="193.628015" xlink:href="#e"/>
<use x="267.794825" y="193.628015" xlink:href="#aq"/>
<use x="271.798047" y="193.628015" xlink:href="#bg"/>
<use x="275.801269" y="193.628015" xlink:href="#bf"/>
<use x="280.999483" y="193.628015" xlink:href="#be"/>
</g>
</g>
<g fill="rgb(0%,0%,0%)">
<use x="131.004828" y="182.830913" xlink:href="#ce"/>
<use x="133.004681" y="182.830913" xlink:href="#cd"/>
<use x="139.000728" y="182.830913" xlink:href="#cc"/>
<use x="143.00395" y="182.830913" xlink:href="#q"/>
<use x="147.007172" y="182.830913" xlink:href="#cb"/>
<use x="148.606352" y="182.830913" xlink:href="#ac"/>
<use x="152.205386" y="182.830913" xlink:href="#d"/>
<use x="156.208608" y="182.830913" xlink:href="#ab"/>
<use x="160.21183" y="182.830913" xlink:href="#aa"/>
<use x="164.215052" y="182.830913" xlink:href="#q"/>
<use x="168.218274" y="182.830913" xlink:href="#d"/>
<use x="172.221496" y="182.830913" xlink:href="#i"/>
<use x="174.618509" y="182.830913" xlink:href="#a"/>
<use x="176.611337" y="182.830913" xlink:href="#bq"/>
<use x="178.602049" y="182.830913" xlink:href="#a"/>
<use x="180.592768" y="182.830913" xlink:href="#a"/>
<use x="194.966409" y="182.830913" xlink:href="#ae"/>
<use x="198.565443" y="182.830913" xlink:href="#p"/>
<use x="200.565296" y="182.830913" xlink:href="#ad"/>
<use x="205.366351" y="182.830913" xlink:href="#p"/>
<use x="207.366205" y="182.830913" xlink:href="#a"/>
</g>
<g fill="rgb(100%,0%,0%)">
<use x="209.362544" y="182.830913" xlink:href="#bk"/>
</g>
<g fill="rgb(100%,0%,0%)">
<use x="211.758147" y="182.830913" xlink:href="#e"/>
<use x="213.758001" y="182.830913" xlink:href="#r"/>
<use x="217.96156" y="182.830913" xlink:href="#e"/>
<use x="219.961413" y="182.830913" xlink:href="#ao"/>
<use x="223.964636" y="182.830913" xlink:href="#s"/>
<use x="227.967858" y="182.830913" xlink:href="#s"/>
<use x="231.97108" y="182.830913" xlink:href="#bj"/>
<use x="236.118404" y="182.830913" xlink:href="#ap"/>
</g>
<g fill="rgb(0%,0%,0%)">
<use x="240.111788" y="182.830913" xlink:href="#a"/>
<use x="242.923533" y="182.830913" xlink:href="#bb"/>
<use x="244.793344" y="182.830913" xlink:href="#a"/>
<use x="246.793198" y="182.830913" xlink:href="#o"/>
<use x="248.793051" y="182.830913" xlink:href="#ba"/>
<use x="252.796273" y="182.830913" xlink:href="#i"/>
<use x="255.193286" y="182.830913" xlink:href="#a"/>
<use x="257.184705" y="182.830913" xlink:href="#ao"/>
<use x="261.187927" y="182.830913" xlink:href="#s"/>
<use x="265.191149" y="182.830913" xlink:href="#bi"/>
<use x="131.004828" y="204.425116" xlink:href="#ad"/>
<use x="135.805883" y="204.425116" xlink:href="#aa"/>
<use x="139.809105" y="204.425116" xlink:href="#ac"/>
<use x="143.408138" y="204.425116" xlink:href="#az"/>
<use x="145.007318" y="204.425116" xlink:href="#ac"/>
<use x="148.606352" y="204.425116" xlink:href="#o"/>
<use x="150.606206" y="204.425116" xlink:href="#i"/>
<use x="153.003218" y="204.425116" xlink:href="#d"/>
<use x="157.006441" y="204.425116" xlink:href="#ca"/>
<use x="161.009663" y="204.425116" xlink:href="#q"/>
<use x="165.012885" y="204.425116" xlink:href="#d"/>
<use x="169.016107" y="204.425116" xlink:href="#ay"/>
<use x="173.019329" y="204.425116" xlink:href="#ae"/>
<use x="176.618363" y="204.425116" xlink:href="#a"/>
<use x="178.613299" y="204.425116" xlink:href="#bp"/>
<use x="180.613153" y="204.425116" xlink:href="#ar"/>
<use x="182.613007" y="204.425116" xlink:href="#bo"/>
<use x="186.816566" y="204.425116" xlink:href="#ar"/>
<use x="188.814307" y="201.545889" xlink:href="#bd"/>
<use x="192.143413" y="204.425116" xlink:href="#bn"/>
<use x="194.134132" y="206.584536" xlink:href="#bc"/>
</g>
<g fill="none" stroke="rgb(0%,0%,0%)" stroke-miterlimit="10" stroke-width="2">
<path transform="matrix(-.71981 0 0 .71981 100.77 0)" d="m59.998 200h20.003m-20.003 40.001v-40.001"/>
<path transform="matrix(-.71981 8.8e-17 -8.8e-17 -.71981 129.57 316.71)" d="m80 200h19.998m-19.998 40.001v-40.001"/>
<path transform="matrix(-.71981 0 0 .71981 158.36 0)" d="m100 200h19.998m-19.998 40.001v-40.001"/>
<path transform="matrix(-.71981 8.8e-17 -8.8e-17 -.71981 187.15 316.71)" d="m120 200h20.003m-20.003 40.001v-40.001"/>
<path transform="matrix(-.71981 0 0 .71981 215.94 0)" d="m140 200h19.998m-19.998 40.001v-40.001"/>
<path transform="matrix(-.71981 8.8e-17 -8.8e-17 -.71981 244.73 316.71)" d="m160 200h20.003m-20.003 40.001v-40.001"/>
<path transform="matrix(-.71981 0 0 .71981 273.53 0)" d="m180 200h19.998m-19.998 40.001v-40.001"/>
<path transform="matrix(-.71981 8.8e-17 -8.8e-17 -.71981 302.32 316.71)" d="m200 200h20.003m-20.003 40.001v-40.001"/>
<path transform="matrix(-.71981 0 0 .71981 331.11 0)" d="m220 200h19.998m-19.998 40.001v-40.001"/>
<path transform="matrix(-.71981 8.8e-17 -8.8e-17 -.71981 359.9 316.71)" d="m240 200h19.998m-19.998 40.001v-40.001"/>
<path transform="matrix(-.71981 0 0 .71981 388.7 0)" d="m260 200h20.003m-20.003 40.001v-40.001"/>
<path transform="matrix(-.71981 8.8e-17 -8.8e-17 -.71981 417.49 316.71)" d="m280 200h19.998m-19.998 40.001v-40.001"/>
<path transform="matrix(-.71981 0 0 .71981 374.3 0)" d="m220 40.001h79.997m-79.997 40.001v-40.001"/>
<path transform="matrix(-.71981 0 0 .71981 143.96 0)" d="m59.999 40.001h80.002m-80.002 40.001v-40.001"/>
<path transform="matrix(-.71981 8.8e-17 -8.8e-17 -.71981 259.13 86.377)" d="m140 39.998h80.002m-80.002 40.001v-40.001"/>
</g>
</svg>
