<svg width="602.2" height="245.35" version="1.1" viewBox="0 0 401.47 163.57" viewbox="0 0 576.39825 230.550525" xmlns="http://www.w3.org/2000/svg">
<g transform="matrix(1.3333 0 0 -1.4056 -358 915.57)">
<g transform="matrix(.06 0 0 -.06 0 792)">
<g transform="translate(-66.667 126.48)"/>
<g transform="translate(-66.667 126.48)">
<g transform="matrix(2.5836 0 0 2.5835 5265.3 2561.2)"/>
<g transform="matrix(2.5836 0 0 2.5835 0 -1095.4)" fill="none" stroke="#000000" stroke-linejoin="bevel" stroke-miterlimit="10" stroke-width="5">
<path d="m3655 1394v128"/>
<path d="m3672 1394v128"/>
</g>
<g transform="matrix(2.5836 0 0 2.5835 5265.3 3656.6)"/>
<g transform="matrix(2.5836 0 0 2.5835 0 -1095.4)">
<g fill="none" stroke="#000000" stroke-linejoin="bevel" stroke-miterlimit="10">
<path d="m2128 1522h1546" stroke-width="3.0002"/>
<g stroke-width="3">
<path d="m2128 1490h1546"/>
<path d="m2128 1458h1546"/>
<path d="m2128 1426h1546"/>
<path d="m2128 1394h1546"/>
</g>
</g>
<g transform="translate(2152,1490)" fill="#000000" aria-label="&amp;">
<path d="m66.944 28.032 4.864 23.68c.256 1.408.384 2.688.384 3.968 0 12.544-12.8 23.04-26.624 23.04-4.224 0-8.32-1.024-12.16-2.944 9.856-1.024 17.28-7.04 17.28-15.872 0-7.808-6.4-16-14.592-16-9.344 0-15.744 7.168-15.744 16.512 0 13.056 10.624 21.632 23.424 21.632 17.152 0 31.744-11.136 31.744-27.136 0-3.584-5.632-28.928-5.504-28.032 13.696-6.656 23.04-18.432 23.04-30.848 0-17.024-13.696-30.08-30.72-30.08-.256 0-2.048.128-5.12.384l-5.632-27.008c19.072-16.128 27.776-33.28 27.776-52.096 0-14.464-5.76-29.824-17.408-45.952-13.184 10.624-20.736 31.872-20.736 54.528 0 8.064 1.024 15.872 2.816 23.296-29.184 24.448-43.776 46.976-43.776 67.584 0 24.192 24.96 44.288 52.096 44.288 6.016 0 10.496-.896 14.592-2.944zm-.384-168.19c4.224 4.352 6.4 9.472 6.4 15.488 0 12.416-8.832 26.368-26.112 41.728-.896-3.712-1.152-7.808-1.152-12.288 0-21.504 7.936-45.184 18.56-45.184.896 0 1.664.128 2.304.256zm2.688 162.94-9.088-42.752c1.792-.128 2.816-.256 3.2-.256 11.008 0 18.688 10.368 18.688 20.992 0 8.448-4.48 15.872-12.8 22.016zm-12.288-42.24 9.216 44.032c-4.48 2.432-9.472 3.456-15.488 3.456-20.736 0-38.656-15.488-38.656-34.304 0-17.024 12.672-34.56 36.608-52.48l5.376 25.6c-13.312 2.816-24.576 14.08-24.576 26.752 0 10.752 7.68 18.304 19.2 20.096-7.04-4.352-10.496-9.856-10.496-16.384 0-8.832 8.192-15.36 18.816-16.768z"/>
</g>
</g>
<path d="m5414.8 3973h2542.1" fill="none" stroke="#000000" stroke-linejoin="bevel" stroke-miterlimit="10" stroke-width="7.751"/>
<g transform="matrix(2.5836 0 0 2.5835 0 -1095.4)">
<g transform="translate(-58.059)">
<path d="m2372.4 1554h68" fill="none" stroke="#000000" stroke-linejoin="bevel" stroke-miterlimit="10" stroke-width="5"/>
<g transform="translate(-51.608)">
<g transform="translate(2436,1554)" fill="#000000" aria-label="œ">
<path d="m14.336 16.64c13.184 0 29.44-11.008 29.44-22.272 0-6.784-6.016-11.136-14.592-11.136-12.928 0-29.184 10.752-29.184 22.272 0 7.04 6.272 11.136 14.336 11.136z"/>
</g>
</g>
</g>
<g transform="translate(-96.765)">
<g transform="translate(2592.5 1538)" fill="#000000" aria-label="œ">
<path d="m14.336 16.64c13.184 0 29.44-11.008 29.44-22.272 0-6.784-6.016-11.136-14.592-11.136-12.928 0-29.184 10.752-29.184 22.272 0 7.04 6.272 11.136 14.336 11.136z"/>
</g>
</g>
<g transform="translate(-70.961)">
<g transform="translate(2736,1522)" fill="#000000" aria-label="œ">
<path d="m14.336 16.64c13.184 0 29.44-11.008 29.44-22.272 0-6.784-6.016-11.136-14.592-11.136-12.928 0-29.184 10.752-29.184 22.272 0 7.04 6.272 11.136 14.336 11.136z"/>
</g>
</g>
<g transform="translate(-51.608)">
<g transform="translate(2886,1506)" fill="#000000" aria-label="œ">
<path d="m14.336 16.64c13.184 0 29.44-11.008 29.44-22.272 0-6.784-6.016-11.136-14.592-11.136-12.928 0-29.184 10.752-29.184 22.272 0 7.04 6.272 11.136 14.336 11.136z"/>
</g>
</g>
<g transform="translate(-38.706)">
<g transform="translate(3036,1490)" fill="#000000" aria-label="œ">
<path d="m14.336 16.64c13.184 0 29.44-11.008 29.44-22.272 0-6.784-6.016-11.136-14.592-11.136-12.928 0-29.184 10.752-29.184 22.272 0 7.04 6.272 11.136 14.336 11.136z"/>
</g>
</g>
<g transform="translate(-12.902)" stroke-width=".99901">
<g transform="translate(3186,1474)" fill="#ff0000" aria-label="œ">
<path d="m14.336 16.64c13.184 0 29.44-11.008 29.44-22.272 0-6.784-6.016-11.136-14.592-11.136-12.928 0-29.184 10.752-29.184 22.272 0 7.04 6.272 11.136 14.336 11.136z" fill="#ff0000" stroke-width=".99901"/>
</g>
</g>
<g transform="translate(3342.5 1458)" fill="#000000" aria-label="œ">
<path d="m14.336 16.64c13.184 0 29.44-11.008 29.44-22.272 0-6.784-6.016-11.136-14.592-11.136-12.928 0-29.184 10.752-29.184 22.272 0 7.04 6.272 11.136 14.336 11.136z"/>
</g>
<g transform="translate(12.902)">
<g transform="translate(3486,1442)" fill="#000000" aria-label="œ">
<path d="m14.336 16.64c13.184 0 29.44-11.008 29.44-22.272 0-6.784-6.016-11.136-14.592-11.136-12.928 0-29.184 10.752-29.184 22.272 0 7.04 6.272 11.136 14.336 11.136z"/>
</g>
</g>
</g>
<g fill="#000000" font-family="'Bitstream Vera Sans'" font-size="129.86px" font-weight="bold" letter-spacing="0px" word-spacing="0px">
<text x="6005.355" y="3337.512" stroke-width="8.3333" style="font-variant-caps:normal;font-variant-east-asian:normal;font-variant-ligatures:normal;font-variant-numeric:normal;line-height:1.25" xml:space="preserve"><tspan x="6005.355" y="3337.512">c'</tspan></text>
<text x="6455.5044" y="3337.512" stroke-width="8.3333" style="font-variant-caps:normal;font-variant-east-asian:normal;font-variant-ligatures:normal;font-variant-numeric:normal;line-height:1.25" xml:space="preserve"><tspan x="6455.5044" y="3337.512" font-family="'Bitstream Vera Sans'" font-size="129.86px" font-weight="bold" stroke-width="8.3333" style="font-variant-caps:normal;font-variant-east-asian:normal;font-variant-ligatures:normal;font-variant-numeric:normal">d'</tspan></text>
<text x="6880.0674" y="3337.512" stroke-width="8.3333" style="font-variant-caps:normal;font-variant-east-asian:normal;font-variant-ligatures:normal;font-variant-numeric:normal;line-height:1.25" xml:space="preserve"><tspan x="6880.0674" y="3337.512" font-family="'Bitstream Vera Sans'" font-size="129.86px" font-weight="bold" stroke-width="8.3333" style="font-variant-caps:normal;font-variant-east-asian:normal;font-variant-ligatures:normal;font-variant-numeric:normal">e'</tspan></text>
<text x="7326.2451" y="3337.512" stroke-width="8.3333" style="font-variant-caps:normal;font-variant-east-asian:normal;font-variant-ligatures:normal;font-variant-numeric:normal;line-height:1.25" xml:space="preserve"><tspan x="7326.2451" y="3337.512" font-family="'Bitstream Vera Sans'" font-size="129.86px" font-weight="bold" stroke-width="8.3333" style="font-variant-caps:normal;font-variant-east-asian:normal;font-variant-ligatures:normal;font-variant-numeric:normal">f'</tspan></text>
</g>
<text x="8193.3721" y="3337.512" fill="#ff0000" font-family="'Bitstream Vera Sans'" font-size="129.86px" font-weight="bold" letter-spacing="0px" stroke-width="8.3333" word-spacing="0px" style="font-variant-caps:normal;font-variant-east-asian:normal;font-variant-ligatures:normal;font-variant-numeric:normal;line-height:1.25" xml:space="preserve"><tspan x="8193.3721" y="3337.512" fill="#ff0000" font-family="'Bitstream Vera Sans'" font-size="129.86px" font-weight="bold" stroke-width="8.3333" style="font-variant-caps:normal;font-variant-east-asian:normal;font-variant-ligatures:normal;font-variant-numeric:normal">a'</tspan></text>
<g fill="#000000" font-family="'Bitstream Vera Sans'" font-size="129.86px" letter-spacing="0px" word-spacing="0px">
<g font-weight="bold" stroke-width="8.3333">
<text x="7743.9395" y="3337.512" style="font-variant-caps:normal;font-variant-east-asian:normal;font-variant-ligatures:normal;font-variant-numeric:normal;line-height:1.25" xml:space="preserve"><tspan x="7743.9395" y="3337.512" font-family="'Bitstream Vera Sans'" font-size="129.86px" font-weight="bold" stroke-width="8.3333" style="font-variant-caps:normal;font-variant-east-asian:normal;font-variant-ligatures:normal;font-variant-numeric:normal">g'</tspan></text>
<text x="8648.7314" y="3337.512" style="font-variant-caps:normal;font-variant-east-asian:normal;font-variant-ligatures:normal;font-variant-numeric:normal;line-height:1.25" xml:space="preserve"><tspan x="8648.7314" y="3337.512">h'</tspan></text>
<text x="9054.5137" y="3337.512" style="font-variant-caps:normal;font-variant-east-asian:normal;font-variant-ligatures:normal;font-variant-numeric:normal;line-height:1.25" xml:space="preserve"><tspan x="9054.5137" y="3337.512" font-family="'Bitstream Vera Sans'" font-size="129.86px" font-weight="bold" stroke-width="8.3333" style="font-variant-caps:normal;font-variant-east-asian:normal;font-variant-ligatures:normal;font-variant-numeric:normal">c''</tspan></text>
</g>
<text x="4959.2056" y="2699.4358" stroke-width="2.3218" style="font-variant-caps:normal;font-variant-east-asian:normal;font-variant-ligatures:normal;font-variant-numeric:normal;line-height:1.25" xml:space="preserve"><tspan x="4955.1475" y="2699.4358" font-family="'Bitstream Vera Sans'" font-size="129.86px" letter-spacing="-8.1162px" stroke-width="2.3218" text-align="center" text-anchor="middle" style="font-variant-caps:normal;font-variant-east-asian:normal;font-variant-ligatures:normal;font-variant-numeric:normal">C (do) major</tspan></text>
<g font-weight="bold">
<text x="5972.0254" y="3134.1108" stroke-width="8.3333" style="font-variant-caps:normal;font-variant-east-asian:normal;font-variant-ligatures:normal;font-variant-numeric:normal;line-height:1.25" xml:space="preserve"><tspan x="5972.0254" y="3134.1108" font-family="'Bitstream Vera Sans'" font-size="129.86px" font-weight="bold" stroke-width="8.3333" style="font-variant-caps:normal;font-variant-east-asian:normal;font-variant-ligatures:normal;font-variant-numeric:normal">do</tspan></text>
<text x="6438.8408" y="3134.1108" stroke-width="8.3333" style="font-variant-caps:normal;font-variant-east-asian:normal;font-variant-ligatures:normal;font-variant-numeric:normal;line-height:1.25" xml:space="preserve"><tspan x="6438.8408" y="3134.1108" font-family="'Bitstream Vera Sans'" font-size="129.86px" font-weight="bold" stroke-width="8.3333" style="font-variant-caps:normal;font-variant-east-asian:normal;font-variant-ligatures:normal;font-variant-numeric:normal">re</tspan></text>
<text x="6830.0713" y="3134.1108" stroke-width="8.3333" style="font-variant-caps:normal;font-variant-east-asian:normal;font-variant-ligatures:normal;font-variant-numeric:normal;line-height:1.25" xml:space="preserve"><tspan x="6830.0713" y="3134.1108" font-family="'Bitstream Vera Sans'" font-size="129.86px" font-weight="bold" stroke-width="8.3333" style="font-variant-caps:normal;font-variant-east-asian:normal;font-variant-ligatures:normal;font-variant-numeric:normal">mi</tspan></text>
<text x="7309.582" y="3134.1108" stroke-width="8.3333" style="font-variant-caps:normal;font-variant-east-asian:normal;font-variant-ligatures:normal;font-variant-numeric:normal;line-height:1.25" xml:space="preserve"><tspan x="7309.582" y="3134.1108" font-family="'Bitstream Vera Sans'" font-size="129.86px" font-weight="bold" stroke-width="8.3333" style="font-variant-caps:normal;font-variant-east-asian:normal;font-variant-ligatures:normal;font-variant-numeric:normal">fa</tspan></text>
</g>
</g>
<text x="8143.3765" y="3134.1108" fill="#ff0000" font-family="'Bitstream Vera Sans'" font-size="129.86px" font-weight="bold" letter-spacing="0px" stroke-width="8.3333" word-spacing="0px" style="font-variant-caps:normal;font-variant-east-asian:normal;font-variant-ligatures:normal;font-variant-numeric:normal;line-height:1.25" xml:space="preserve"><tspan x="8143.3765" y="3134.1108" fill="#ff0000" font-family="'Bitstream Vera Sans'" font-size="129.86px" font-weight="bold" stroke-width="8.3333" style="font-variant-caps:normal;font-variant-east-asian:normal;font-variant-ligatures:normal;font-variant-numeric:normal">lya</tspan></text>
<g fill="#000000" letter-spacing="0px" word-spacing="0px">
<g font-family="'Bitstream Vera Sans'" font-size="129.86px" font-weight="bold" stroke-width="8.3333">
<text x="7693.9438" y="3134.1108" style="font-variant-caps:normal;font-variant-east-asian:normal;font-variant-ligatures:normal;font-variant-numeric:normal;line-height:1.25" xml:space="preserve"><tspan x="7693.9438" y="3134.1108" font-family="'Bitstream Vera Sans'" font-size="129.86px" font-weight="bold" stroke-width="8.3333" style="font-variant-caps:normal;font-variant-east-asian:normal;font-variant-ligatures:normal;font-variant-numeric:normal">sol</tspan></text>
<text x="8648.7344" y="3134.1108" style="font-variant-caps:normal;font-variant-east-asian:normal;font-variant-ligatures:normal;font-variant-numeric:normal;line-height:1.25" xml:space="preserve"><tspan x="8648.7344" y="3134.1108" font-family="'Bitstream Vera Sans'" font-size="129.86px" font-weight="bold" stroke-width="8.3333" style="font-variant-caps:normal;font-variant-east-asian:normal;font-variant-ligatures:normal;font-variant-numeric:normal">si</tspan></text>
<text x="9021.1826" y="3134.1108" style="font-variant-caps:normal;font-variant-east-asian:normal;font-variant-ligatures:normal;font-variant-numeric:normal;line-height:1.25" xml:space="preserve"><tspan x="9021.1826" y="3134.1108" font-family="'Bitstream Vera Sans'" font-size="129.86px" font-weight="bold" stroke-width="8.3333" style="font-variant-caps:normal;font-variant-east-asian:normal;font-variant-ligatures:normal;font-variant-numeric:normal">do</tspan></text>
</g>
<text transform="matrix(8.3333 0 0 7.9048 4475 2343.9)" font-family="sans-serif" font-size="40px" style="line-height:1.25;shape-inside:url(#rect1);white-space:pre" xml:space="preserve"/>
<g font-family="'Bitstream Vera Sans'" font-size="129.86px" font-style="oblique">
<text x="5972.022" y="3637.8938" stroke-width="8.3333" style="font-variant-caps:normal;font-variant-east-asian:normal;font-variant-ligatures:normal;font-variant-numeric:normal;line-height:1.25" xml:space="preserve"><tspan x="5972.022" y="3637.8938">C4</tspan></text>
<text x="6422.1714" y="3637.8938" stroke-width="8.3333" style="font-variant-caps:normal;font-variant-east-asian:normal;font-variant-ligatures:normal;font-variant-numeric:normal;line-height:1.25" xml:space="preserve"><tspan x="6422.1714" y="3637.8938" font-family="'Bitstream Vera Sans'" font-size="129.86px" font-style="oblique" stroke-width="8.3333" style="font-variant-caps:normal;font-variant-east-asian:normal;font-variant-ligatures:normal;font-variant-numeric:normal">D4</tspan></text>
<text x="6846.7344" y="3637.8938" stroke-width="8.3333" style="font-variant-caps:normal;font-variant-east-asian:normal;font-variant-ligatures:normal;font-variant-numeric:normal;line-height:1.25" xml:space="preserve"><tspan x="6846.7344" y="3637.8938" font-family="'Bitstream Vera Sans'" font-size="129.86px" font-style="oblique" stroke-width="8.3333" style="font-variant-caps:normal;font-variant-east-asian:normal;font-variant-ligatures:normal;font-variant-numeric:normal">E4</tspan></text>
<text x="7292.9121" y="3637.8938" stroke-width="8.3333" style="font-variant-caps:normal;font-variant-east-asian:normal;font-variant-ligatures:normal;font-variant-numeric:normal;line-height:1.25" xml:space="preserve"><tspan x="7292.9121" y="3637.8938" font-family="'Bitstream Vera Sans'" font-size="129.86px" font-style="oblique" stroke-width="8.3333" style="font-variant-caps:normal;font-variant-east-asian:normal;font-variant-ligatures:normal;font-variant-numeric:normal">F4</tspan></text>
</g>
</g>
<text x="8160.0391" y="3637.8938" fill="#ff0000" font-family="'Bitstream Vera Sans'" font-size="129.86px" font-style="oblique" letter-spacing="0px" stroke-width="8.3333" word-spacing="0px" style="font-variant-caps:normal;font-variant-east-asian:normal;font-variant-ligatures:normal;font-variant-numeric:normal;line-height:1.25" xml:space="preserve"><tspan x="8160.0391" y="3637.8938" fill="#ff0000" font-family="'Bitstream Vera Sans'" font-size="129.86px" font-style="oblique" stroke-width="8.3333" style="font-variant-caps:normal;font-variant-east-asian:normal;font-variant-ligatures:normal;font-variant-numeric:normal">A4</tspan></text>
<g fill="#000000" font-family="'Bitstream Vera Sans'" letter-spacing="0px" stroke-width="8.3333" word-spacing="0px">
<g font-size="129.86px" font-style="oblique">
<text x="7710.6064" y="3637.8938" style="font-variant-caps:normal;font-variant-east-asian:normal;font-variant-ligatures:normal;font-variant-numeric:normal;line-height:1.25" xml:space="preserve"><tspan x="7710.6064" y="3637.8938" font-family="'Bitstream Vera Sans'" font-size="129.86px" font-style="oblique" stroke-width="8.3333" style="font-variant-caps:normal;font-variant-east-asian:normal;font-variant-ligatures:normal;font-variant-numeric:normal">G4</tspan></text>
<text x="8615.3975" y="3637.8938" style="font-variant-caps:normal;font-variant-east-asian:normal;font-variant-ligatures:normal;font-variant-numeric:normal;line-height:1.25" xml:space="preserve"><tspan x="8615.3975" y="3637.8938" font-family="'Bitstream Vera Sans'" font-size="129.86px" font-style="oblique" stroke-width="8.3333" style="font-variant-caps:normal;font-variant-east-asian:normal;font-variant-ligatures:normal;font-variant-numeric:normal">B4</tspan></text>
<text x="9021.1797" y="3637.8938" style="font-variant-caps:normal;font-variant-east-asian:normal;font-variant-ligatures:normal;font-variant-numeric:normal;line-height:1.25" xml:space="preserve"><tspan x="9021.1797" y="3637.8938" font-family="'Bitstream Vera Sans'" font-size="129.86px" font-style="oblique" stroke-width="8.3333" style="font-variant-caps:normal;font-variant-east-asian:normal;font-variant-ligatures:normal;font-variant-numeric:normal">C5</tspan></text>
</g>
<text x="8043.3735" y="4017.3235" font-size="129.86px" style="font-variant-caps:normal;font-variant-east-asian:normal;font-variant-ligatures:normal;font-variant-numeric:normal;line-height:1.25" xml:space="preserve"><tspan x="8043.3735" y="4017.3235" fill="#ff0000" font-family="'Bitstream Vera Sans'" font-size="129.86px" stroke-width="8.3333" style="font-variant-caps:normal;font-variant-east-asian:normal;font-variant-ligatures:normal;font-variant-numeric:normal">440Hz</tspan></text>
</g>
<text x="4959.2056" y="4019.605" fill="#ff0000" font-family="'Bitstream Vera Sans'" font-size="129.86px" font-style="oblique" letter-spacing="0px" stroke-width="2.3218" word-spacing="0px" style="font-variant-caps:normal;font-variant-east-asian:normal;font-variant-ligatures:normal;font-variant-numeric:normal;line-height:1.25" xml:space="preserve"><tspan x="4955.1475" y="4019.605" fill="#ff0000" font-family="'Bitstream Vera Sans'" font-size="129.86px" font-style="oblique" letter-spacing="-8.1162px" stroke-width="2.3218" text-align="center" text-anchor="middle" style="font-variant-caps:normal;font-variant-east-asian:normal;font-variant-ligatures:normal;font-variant-numeric:normal">concert pitch</tspan></text>
<path d="m8250.3 3683.6v191.73" fill="none" stroke="#000000" stroke-linejoin="bevel" stroke-miterlimit="10" stroke-width="7.751"/>
</g>
</g>
</g>
</svg>
